<svg xmlns="http://www.w3.org/2000/svg" width="23" height="24" viewBox="0 0 23 24"><g><g><path fill="#fff" d="M2.923.163h17.12c1.626 0 2.956 1.342 2.956 2.983v17.278c0 1.642-1.33 2.983-2.957 2.983H2.922c-1.626 0-2.957-1.341-2.957-2.983V3.147c0-1.642 1.331-2.984 2.958-2.984zm13.822 2.581c-.571 0-1.037.472-1.037 1.048v2.505c0 .575.466 1.046 1.037 1.046h2.603c.57 0 1.037-.47 1.037-1.046V3.792c0-.576-.467-1.048-1.037-1.048zm3.65 7.248h-2.027a6.86 6.86 0 0 1 .296 1.996c0 3.865-3.206 7-7.16 7s-7.16-3.135-7.16-7c0-.695.105-1.361.296-1.996H2.526v9.82a.92.92 0 0 0 .915.923H19.48a.92.92 0 0 0 .915-.922zm-8.891-2.78c-2.554 0-4.625 2.024-4.625 4.524 0 2.497 2.07 4.523 4.625 4.523s4.626-2.026 4.626-4.523c0-2.5-2.071-4.525-4.626-4.525z"/></g></g></svg>