<svg xmlns="http://www.w3.org/2000/svg" width="29" height="25" viewBox="0 0 29 25"><g><g><path fill="#fff" d="M28.45 3.404c-1.051.478-2.182.8-3.367.945a5.989 5.989 0 0 0 2.578-3.32 11.53 11.53 0 0 1-3.721 1.457A5.793 5.793 0 0 0 19.66.591c-3.236 0-5.86 2.687-5.86 6.001 0 .47.051.927.15 1.367-4.87-.25-9.188-2.638-12.08-6.27a6.09 6.09 0 0 0-.793 3.018A6.034 6.034 0 0 0 3.684 9.7a5.722 5.722 0 0 1-2.654-.75v.075c0 2.907 2.02 5.332 4.7 5.884a5.67 5.67 0 0 1-2.647.103c.746 2.384 2.91 4.117 5.475 4.167a11.588 11.588 0 0 1-8.676 2.484 16.324 16.324 0 0 0 8.985 2.695c10.78 0 16.676-9.142 16.676-17.07 0-.26-.007-.519-.016-.779a12.09 12.09 0 0 0 2.923-3.105z"/></g></g></svg>