<svg xmlns="http://www.w3.org/2000/svg" width="30" height="21" viewBox="0 0 30 21"><g><g><path fill="#fff" d="M29.35 10.525c0 2.257-.002 4.65-.5 6.843-.35 1.538-1.592 2.673-3.088 2.844-3.542.4-7.127.401-10.695.4-3.57.001-7.154 0-10.696-.4-1.496-.171-2.738-1.306-3.087-2.844-.497-2.192-.497-4.586-.497-6.843 0-2.259.005-4.649.503-6.842C1.64 2.145 2.881 1.009 4.377.84 7.92.44 11.504.437 15.073.44c3.568-.003 7.153 0 10.695.4 1.497.17 2.739 1.305 3.087 2.843.497 2.193.495 4.583.495 6.842zm-8.205 0L11.823 5.07v10.91z"/></g></g></svg>