<svg xmlns="http://www.w3.org/2000/svg" width="284" height="180" viewBox="0 0 284 180"><g><g opacity=".87"><path fill="#a1fc02" d="M218.464 19.781c-7.7 1.495-15.4 3.234-22.886 5.169l.619 2.749a379.787 379.787 0 0 1 22.539-5.09zm-45.458 11.77a356.007 356.007 0 0 0-22.05 8.037l1.335 2.515a349.63 349.63 0 0 1 21.689-7.905zm-43.359 17.474a327.56 327.56 0 0 0-20.363 10.768l2.03 2.177a321.33 321.33 0 0 1 20.022-10.587zm-39.576 22.77A294.849 294.849 0 0 0 72.18 84.908l2.65 1.758A290.359 290.359 0 0 1 92.421 73.77zM55.765 99.001a257.345 257.345 0 0 0-14.812 14.932l3.159 1.285a253.481 253.481 0 0 1 14.573-14.69zm-27.906 30.56a215.881 215.881 0 0 0-11.277 16.186l3.549.775a212.596 212.596 0 0 1 11.095-15.927zm-20.635 32.79a171.405 171.405 0 0 0-7.338 16.89l3.82.233a168.64 168.64 0 0 1 7.217-16.613z"/></g><g><path fill="#43d094" d="M246.695 39.46l1.711-18.115 23.555-4.409-.028-.239-23.937 1.123L242.169.585l41.837 14.83z"/></g></g></svg>