<svg xmlns="http://www.w3.org/2000/svg" width="185" height="187" viewBox="0 0 185 187"><defs><mask id="sickb" width="2" height="2" x="-1" y="-1"><path fill="#fff" d="M28.9 6.9h149.2v149.2H28.9z"/><path d="M103.5 7C144.645 7 178 40.355 178 81.5S144.645 156 103.5 156 29 122.645 29 81.5 62.355 7 103.5 7z"/></mask><filter id="sicka" width="210.4" height="212.8" x="-12.4" y="-13" filterUnits="userSpaceOnUse"><feOffset dx="-21.4" dy="23.8" in="SourceGraphic" result="FeOffset1023Out"/><feGaussianBlur in="FeOffset1023Out" result="FeGaussianBlur1024Out" stdDeviation="3.96 3.96"/></filter><clipPath id="sickc"><path fill="#fff" d="M22 163V0h163v163zm7-81.5c0 41.145 33.355 74.5 74.5 74.5S178 122.645 178 81.5 144.645 7 103.5 7 29 40.355 29 81.5z"/></clipPath></defs><g><g><g filter="url(#sicka)"><path fill="none" stroke="#000" stroke-opacity=".14" stroke-width=".2" d="M103.5 7C144.645 7 178 40.355 178 81.5S144.645 156 103.5 156 29 122.645 29 81.5 62.355 7 103.5 7z" mask="url(&quot;#sickb&quot;)"/><path fill-opacity=".14" d="M103.5 7C144.645 7 178 40.355 178 81.5S144.645 156 103.5 156 29 122.645 29 81.5 62.355 7 103.5 7z"/></g><path fill="#fff" d="M103.5 7C144.645 7 178 40.355 178 81.5S144.645 156 103.5 156 29 122.645 29 81.5 62.355 7 103.5 7z"/><path fill="none" stroke="#02c66c" stroke-linecap="round" stroke-linejoin="round" stroke-miterlimit="50" stroke-width="14" d="M103.5 7C144.645 7 178 40.355 178 81.5S144.645 156 103.5 156 29 122.645 29 81.5 62.355 7 103.5 7z" clip-path="url(&quot;#sickc&quot;)"/></g></g></svg>