<svg xmlns="http://www.w3.org/2000/svg" width="27" height="21" viewBox="0 0 27 21"><g><g><path fill="#43d094" d="M.35 12.837c1.356 1.08 2.548 2.363 3.64 3.71 1.013 1.252 1.96 2.603 2.695 4.041.084.165.856-.023.908-.032.705-.113 1.403-.28 2.093-.463s1.38-.384 2.048-.636c.15-.056.727-.214.803-.436.364-1.059.81-2.093 1.27-3.112 1.062-2.356 2.301-4.637 3.743-6.78A34.529 34.529 0 0 1 19 7.133c1.037-1.31 2.175-2.538 3.447-3.619a17.977 17.977 0 0 1 1.947-1.44 15.63 15.63 0 0 1 .876-.518c.183-.095.369-.185.555-.273.15-.07.842-.357.206-.099.005-.002.845-.275.803-.436-.042-.161-.907.018-.911.019-1.388.222-2.836.57-4.142 1.1-1.572.636-3.044 1.437-4.392 2.478-1.197.925-2.276 2.002-3.267 3.147-1.838 2.125-3.375 4.506-4.7 6.984-.042.077-1.862-2.113-3.216-3.193-.19-.151-.737-.009-.912.02-.705.112-1.403.28-2.093.463s-1.38.384-2.048.635c.085-.031-.902.358-.803.437z"/></g></g></svg>