<svg xmlns="http://www.w3.org/2000/svg" width="66" height="70" viewBox="0 0 66 70"><g><g><path fill="#fd5b56" d="M56.864.626a4.04 4.04 0 0 1 2.577-.12 1.912 1.912 0 0 1 1.44 2.05v15.56h.274c2.27 0 4.118 1.836 4.118 4.094v43.674c0 2.257-1.847 4.095-4.118 4.095H4.057c-2.27 0-4.117-1.838-4.117-4.095v-47.84zm4.565 63.075V52.508H50.175a1.918 1.918 0 0 1-1.922-1.91v-8.736c0-1.053.862-1.91 1.922-1.91h11.254v-15.56a2.467 2.467 0 0 0-2.47-2.456H3.783V63.7a2.467 2.467 0 0 0 2.47 2.456H58.96a2.467 2.467 0 0 0 2.47-2.456zm0-19.927h-9.333v4.913h9.333zM57.037 4.37L12.115 18.115h44.922z"/></g></g></svg>