<svg xmlns="http://www.w3.org/2000/svg" width="103" height="95" viewBox="0 0 103 95"><g><g><path fill="#02c602" d="M55.597 5.235l21.061 59.869a1.815 1.815 0 0 1-1.105 2.312 1.805 1.805 0 0 1-.963.065l-37.486-7.69-3.746 1.318 3.738 10.628 6.141-2.16a1.812 1.812 0 0 1 2.31 1.11l2.54 7.22a1.812 1.812 0 0 1-1.106 2.313l-6.14 2.16 2.386 6.784a1.812 1.812 0 0 1-1.106 2.313l-7.848 2.76a1.812 1.812 0 0 1-2.31-1.11l-9.87-28.056-2.651.933a1.812 1.812 0 0 1-2.31-1.11l-1.091-3.102-8.758 3.08a1.812 1.812 0 0 1-2.31-1.11l-4.15-11.8a1.812 1.812 0 0 1 1.106-2.311l8.757-3.081-1.373-3.902a1.812 1.812 0 0 1 1.106-2.313l17.662-6.213L52.496 4.675a1.81 1.81 0 0 1 3.101.56zm-40.76 53.134l-2.947-8.376-7.05 2.48 2.947 8.376zm5.108 3.611l2.652-.933 7.849-2.76 4.217-1.485L28.05 38l-14.718 5.178 1.373 3.902 4.15 11.799zm18.356 13.18l1.335 3.797 4.433-1.56-1.335-3.797zm-8.359-12.85l-4.433 1.56 9.267 26.344 4.433-1.56-2.386-6.784-2.54-7.22zM53.244 9.456l-21.86 26.385 7.23 20.558 20.847 4.276-5.944-16.896a1.812 1.812 0 0 1 1.106-2.312 1.812 1.812 0 0 1 2.31 1.11l6.584 18.72c.026.071.015.144.031.217l8.632 1.77zM96.052 23.66a1.812 1.812 0 0 1-1.105 2.313l-18.678 6.57a1.812 1.812 0 0 1-2.31-1.11 1.812 1.812 0 0 1 1.106-2.313l18.677-6.57a1.812 1.812 0 0 1 2.31 1.11zM72.096 19.91a1.816 1.816 0 0 1-.4-2.534l11.65-16.027a1.807 1.807 0 0 1 2.529-.396c.809.59.989 1.724.4 2.534L74.626 19.513a1.806 1.806 0 0 1-2.53.396zm30.13 27.43a1.806 1.806 0 0 1-2.179 1.343L81.173 44.17a1.816 1.816 0 0 1-1.344-2.185 1.805 1.805 0 0 1 2.179-1.343l18.875 4.512a1.815 1.815 0 0 1 1.344 2.184z"/></g></g></svg>