<svg xmlns="http://www.w3.org/2000/svg" width="81" height="74" viewBox="0 0 81 74"><g><g><path fill="#5f49d2" d="M22.4.61h3.608c.173.045.344.114.52.13 3.098.291 6.053 1.116 8.777 2.622 1.68.93 3.254 2.056 4.942 3.138.022-.016.15-.103.266-.201 2.886-2.438 6.164-4.105 9.822-4.984 1.285-.31 2.604-.474 3.907-.705h3.608c.148.044.293.114.444.13 5.144.506 9.652 2.481 13.604 5.837 7.624 6.473 10.454 17.867 6.763 27.224-1.425 3.614-3.582 6.7-6.344 9.378-.44.427-.57.758-.29 1.403 1.603 3.693-.306 7.946-4.101 9.196-.756.25-1.568.326-2.357.483-.223 4.148-2.958 6.938-7.094 7.108-.061 5.019-4.604 8.125-9.246 6.72-.314 1.526-1.008 2.857-2.165 3.907-1.187 1.078-2.598 1.69-4.183 1.753-2.328.093-4.27-.75-5.74-2.693-2.33 2.226-5.066 3-8.1 1.73-3.06-1.28-4.467-3.788-4.508-7.15-2.156.048-4.006-.613-5.512-2.12-1.524-1.524-2.18-3.411-2.15-5.585-2.163-.004-4.022-.634-5.53-2.152-1.52-1.532-2.165-3.42-2.145-5.562-3.218-.066-5.654-1.38-6.982-4.31-1.328-2.93-.717-5.642 1.33-8.093-1.294-2.178-2.303-4.48-2.858-6.959-.297-1.324-.481-2.674-.716-4.013v-3.634c.156-.956.266-1.921.476-2.864C2.562 10.878 8.21 4.618 17.366 1.639 18.986 1.112 20.719.944 22.4.61zm14.845 52.274c.124.015.201.03.279.032 3.996.13 6.716 2.605 7.316 6.63.038.252.22.525.414.7 1.32 1.196 2.66 2.37 3.997 3.547 1.496 1.317 3.38 1.317 4.634.006 1.242-1.3 1.165-3.242-.188-4.673-.198-.21-.406-.41-.609-.616-2.865-2.886-5.726-5.776-8.597-8.656-.574-.576-.936-1.206-.68-2.044.428-1.4 2.029-1.736 3.136-.63 3.006 3.005 5.991 6.031 8.988 9.045.277.279.558.56.872.792 1.852 1.378 4.514.346 4.984-1.922.267-1.284-.192-2.308-1.085-3.203-2.982-2.991-5.954-5.993-8.929-8.992-1.13-1.138-1.268-2.156-.413-3.008.852-.85 1.85-.705 2.986.44 2.977 2.997 5.956 5.99 8.925 8.996.778.787 1.672 1.266 2.796 1.142 1.315-.144 2.243-.861 2.698-2.104.521-1.426.04-2.613-.986-3.648-6.24-6.302-12.47-12.613-18.716-18.908-.242-.244-.591-.421-.923-.526-1.143-.362-2.324-.612-3.443-1.035-.682-.258-1.156-.193-1.701.271-1.847 1.577-3.905 2.82-6.183 3.654-4.055 1.486-8.16 1.806-12.245.189-3.496-1.383-4.053-5.38-1.149-7.784 3.654-3.026 7.31-6.048 10.965-9.073.975-.807 1.944-1.622 2.928-2.442C29.55 2.42 17.29 2.517 9.557 10.444 1.995 18.195 2.524 29.25 6.39 35.182c1.161-1.224 2.23-2.499 3.449-3.606 4.036-3.669 10.53-1.595 11.785 3.736.16.68.196 1.39.287 2.065 4.796.377 7.38 2.937 7.669 7.76 4.912.443 6.952 2.502 7.666 7.747zm32.217-11.968c-.067.05-.02.024.016-.014.472-.492.95-.979 1.413-1.48 4.624-4.997 6.51-10.89 5.48-17.64C74.337 8.45 60.251.632 47.953 5.94c-2.61 1.127-4.75 2.89-6.895 4.72-5.026 4.286-10.156 8.448-15.24 12.665-.928.77-.844 1.307.278 1.727 2.244.839 4.547.879 6.871.436 3.025-.577 5.642-1.999 7.987-3.969 1.01-.849 2.16-1.312 3.474-1.104.713.113 1.4.406 2.093.633 5.295 1.734 10.28 1.551 14.698-2.342.898-.791 1.967-.697 2.646.12.669.805.557 1.861-.317 2.66-2.03 1.858-4.366 3.144-7.043 3.775-.747.175-1.506.3-2.338.464l15.295 15.192zM25.87 44.284c-.044-.986-.675-2.127-2.023-2.788-1.38-.678-2.752-.552-3.86.495-2.056 1.943-4.043 3.963-6.013 5.995-1.512 1.559-1.523 3.703-.113 5.164 1.422 1.475 3.622 1.504 5.185-.015 1.936-1.881 3.818-3.819 5.713-5.742.706-.716 1.122-1.572 1.11-3.109zm5.606 25.417c1.348-.002 2.145-.331 2.975-1.16a629.85 629.85 0 0 0 5.595-5.64c1.553-1.59 1.585-3.824.113-5.286-1.462-1.452-3.613-1.422-5.193.125-1.667 1.632-3.296 3.304-4.935 4.965-.386.391-.79.775-1.113 1.216-.867 1.182-.993 2.474-.335 3.786.656 1.309 1.761 1.958 2.893 1.994zm-13.272-32.52c0-1.581-.778-2.841-2.061-3.436-1.361-.631-2.722-.528-3.8.494-2.164 2.056-4.252 4.197-6.32 6.352-.759.791-1.021 1.829-.796 2.931.285 1.396 1.09 2.366 2.45 2.816 1.437.476 2.688.08 3.734-.954 1.902-1.878 3.777-3.784 5.654-5.688.725-.736 1.156-1.614 1.139-2.515zm15.353 15.176c-.034-1.333-.702-2.488-2.074-3.15-1.45-.701-2.842-.465-3.982.635a179.204 179.204 0 0 0-5.984 6.024c-1.413 1.498-1.333 3.65.045 5.043 1.393 1.41 3.58 1.47 5.067.03 2.014-1.95 3.967-3.964 5.93-5.967.647-.66.976-1.48.998-2.615zm10.379 11.681l-4.422 4.624c2.697 1.824 4.442 1.821 5.638.016 1.07-1.615.57-3.456-1.216-4.64z"/></g></g></svg>