<svg xmlns="http://www.w3.org/2000/svg" width="820" height="672" viewBox="0 0 820 672"><g><g opacity=".36"><path fill="#f4fea4" d="M231.946 92.92C506.677 23.752 711.04 210.83 730.76 325.068c30.248 175.22-250.582 275.992-380.52 285.707-97.767 7.31-271.344 25.54-340.61-155.901-36.78-96.345 30.548-313.675 222.316-361.954z"/></g><g><path fill="#eaf1e1" d="M619.452 2.41c66.478 4.668 187.56 44.681 199.778 157.283 10.54 97.13-184.285 129.954-195.238 236.007-4.468 43.264 28.099 63.145 24.415 144.806C643.842 641.7 428.558 687.66 350.64 666.31 157.884 613.495 79.96 387.622 102.588 273.754 130.994 130.814 352.754-16.312 619.452 2.41z"/></g></g></svg>