<svg xmlns="http://www.w3.org/2000/svg" width="79" height="80" viewBox="0 0 79 80"><g><g><path fill="#5f49d2" d="M77.607 40.223c0 21.254-17.164 38.482-38.337 38.482C18.097 78.705.933 61.477.933 40.223.933 18.97 18.097 1.741 39.27 1.741c21.173 0 38.337 17.229 38.337 38.482zM52.341 24.811c.708 4.17 1.082 8.535 1.201 13.007h19.182a33.476 33.476 0 0 0-5.67-16.424c-4.587 1.531-9.522 2.68-14.713 3.417zM47.497 7.614c1.597 3.868 2.902 8.052 3.908 12.457a79.254 79.254 0 0 0 12.35-2.825 33.559 33.559 0 0 0-16.258-9.632zm1.246 30.204c-.129-4.234-.511-8.401-1.234-12.4a93.87 93.87 0 0 1-8.24.375c-2.798 0-5.542-.139-8.238-.376-.723 4-1.106 8.167-1.233 12.401zm-18.945 4.81c.127 4.235.51 8.402 1.233 12.402a94.063 94.063 0 0 1 8.239-.376c2.8 0 5.543.14 8.24.376.722-4 1.104-8.167 1.233-12.402zm2.232-21.92a82.81 82.81 0 0 0 7.24.334c2.444 0 4.858-.125 7.241-.334-1.225-5.031-2.875-9.775-4.915-14.039-.771-.051-1.54-.117-2.326-.117-.785 0-1.554.066-2.326.117-2.04 4.264-3.69 9.008-4.914 14.039zm-17.245-3.462a79.247 79.247 0 0 0 12.351 2.825c1.006-4.405 2.311-8.59 3.907-12.457a33.565 33.565 0 0 0-16.258 9.632zM5.816 37.818h19.182c.12-4.472.493-8.838 1.201-13.007-5.191-.737-10.125-1.886-14.713-3.417a33.48 33.48 0 0 0-5.67 16.424zM26.2 55.636c-.708-4.169-1.082-8.535-1.201-13.008H5.816a33.48 33.48 0 0 0 5.67 16.426c4.588-1.532 9.522-2.678 14.713-3.418zm4.844 17.198c-1.596-3.87-2.901-8.052-3.907-12.458-4.307.639-8.438 1.585-12.35 2.825a33.576 33.576 0 0 0 16.257 9.633zM46.51 59.74a82.48 82.48 0 0 0-7.241-.334c-2.443 0-4.858.124-7.24.334 1.224 5.032 2.874 9.775 4.914 14.038.772.053 1.541.117 2.326.117.785 0 1.555-.064 2.326-.117 2.04-4.263 3.69-9.006 4.915-14.038zM63.755 63.2c-3.913-1.24-8.044-2.186-12.35-2.825-1.006 4.406-2.311 8.589-3.908 12.458A33.57 33.57 0 0 0 63.755 63.2zm8.969-20.573H53.542c-.119 4.473-.493 8.839-1.201 13.008 5.191.74 10.126 1.886 14.713 3.418a33.476 33.476 0 0 0 5.67-16.426z"/><path fill="none" stroke="#fff" stroke-linecap="round" stroke-linejoin="round" stroke-miterlimit="50" stroke-width="2" d="M77.607 40.223c0 21.254-17.164 38.482-38.337 38.482C18.097 78.705.933 61.477.933 40.223.933 18.97 18.097 1.741 39.27 1.741c21.173 0 38.337 17.229 38.337 38.482zM52.341 24.811c.708 4.17 1.082 8.535 1.201 13.007h19.182a33.476 33.476 0 0 0-5.67-16.424c-4.587 1.531-9.522 2.68-14.713 3.417zM47.497 7.614c1.597 3.868 2.902 8.052 3.908 12.457a79.254 79.254 0 0 0 12.35-2.825 33.559 33.559 0 0 0-16.258-9.632zm1.246 30.204c-.129-4.234-.511-8.401-1.234-12.4a93.87 93.87 0 0 1-8.24.375c-2.798 0-5.542-.139-8.238-.376-.723 4-1.106 8.167-1.233 12.401zm-18.945 4.81c.127 4.235.51 8.402 1.233 12.402a94.063 94.063 0 0 1 8.239-.376c2.8 0 5.543.14 8.24.376.722-4 1.104-8.167 1.233-12.402zm2.232-21.92a82.81 82.81 0 0 0 7.24.334c2.444 0 4.858-.125 7.241-.334-1.225-5.031-2.875-9.775-4.915-14.039-.771-.051-1.54-.117-2.326-.117-.785 0-1.554.066-2.326.117-2.04 4.264-3.69 9.008-4.914 14.039zm-17.245-3.462a79.247 79.247 0 0 0 12.351 2.825c1.006-4.405 2.311-8.59 3.907-12.457a33.565 33.565 0 0 0-16.258 9.632zM5.816 37.818h19.182c.12-4.472.493-8.838 1.201-13.007-5.191-.737-10.125-1.886-14.713-3.417a33.48 33.48 0 0 0-5.67 16.424zM26.2 55.636c-.708-4.169-1.082-8.535-1.201-13.008H5.816a33.48 33.48 0 0 0 5.67 16.426c4.588-1.532 9.522-2.678 14.713-3.418zm4.844 17.198c-1.596-3.87-2.901-8.052-3.907-12.458-4.307.639-8.438 1.585-12.35 2.825a33.576 33.576 0 0 0 16.257 9.633zM46.51 59.74a82.48 82.48 0 0 0-7.241-.334c-2.443 0-4.858.124-7.24.334 1.224 5.032 2.874 9.775 4.914 14.038.772.053 1.541.117 2.326.117.785 0 1.555-.064 2.326-.117 2.04-4.263 3.69-9.006 4.915-14.038zM63.755 63.2c-3.913-1.24-8.044-2.186-12.35-2.825-1.006 4.406-2.311 8.589-3.908 12.458A33.57 33.57 0 0 0 63.755 63.2zm8.969-20.573H53.542c-.119 4.473-.493 8.839-1.201 13.008 5.191.74 10.126 1.886 14.713 3.418a33.476 33.476 0 0 0 5.67-16.426z"/></g></g></svg>