<svg xmlns="http://www.w3.org/2000/svg" width="74" height="75" viewBox="0 0 74 75"><g><g><path fill="#02a0fa" d="M35.823 42.422a3.603 3.603 0 0 1-3.595-3.608c0-1.993 1.61-3.61 3.595-3.61a3.603 3.603 0 0 1 3.595 3.61 3.603 3.603 0 0 1-3.595 3.608zm1.315 1.32l4.153 2.407L23.609 60.05l3.15-22.323 4.153 2.406-2.219 11.076zm-6.783-12.264L48.04 17.575 44.886 39.9l-4.152-2.406 2.219-11.076-8.445 7.467zm42.62 6.147c0 19.924-16.09 36.076-35.94 36.076-19.85 0-35.94-16.152-35.94-36.076 0-19.923 16.09-36.076 35.94-36.076 19.85 0 35.94 16.153 35.94 36.076zm-4.793-.014c0-17.275-13.949-31.279-31.16-31.279-17.212 0-31.16 14.004-31.16 31.279 0 17.276 13.948 31.278 31.16 31.278 17.211 0 31.16-14.002 31.16-31.278z"/><path fill="none" stroke="#fff" stroke-linecap="round" stroke-linejoin="round" stroke-miterlimit="50" stroke-width="2" d="M35.823 42.422a3.603 3.603 0 0 1-3.595-3.608c0-1.993 1.61-3.61 3.595-3.61a3.603 3.603 0 0 1 3.595 3.61 3.603 3.603 0 0 1-3.595 3.608zm1.315 1.32l4.153 2.407L23.609 60.05l3.15-22.323 4.153 2.406-2.219 11.076zm-6.783-12.264L48.04 17.575 44.886 39.9l-4.152-2.406 2.219-11.076-8.445 7.467zm42.62 6.147c0 19.924-16.09 36.076-35.94 36.076-19.85 0-35.94-16.152-35.94-36.076 0-19.923 16.09-36.076 35.94-36.076 19.85 0 35.94 16.153 35.94 36.076zm-4.793-.014c0-17.275-13.949-31.279-31.16-31.279-17.212 0-31.16 14.004-31.16 31.279 0 17.276 13.948 31.278 31.16 31.278 17.211 0 31.16-14.002 31.16-31.278z"/></g></g></svg>