<svg xmlns="http://www.w3.org/2000/svg" width="79" height="79" viewBox="0 0 79 79"><g><g><path fill="#f68e56" d="M15.37 13.025a2.4 2.4 0 0 1-2.397 2.405 2.4 2.4 0 0 1-2.396-2.405 2.401 2.401 0 0 1 2.396-2.405 2.401 2.401 0 0 1 2.397 2.405zm19.168 0a2.4 2.4 0 0 1-2.396 2.405 2.4 2.4 0 0 1-2.396-2.405 2.401 2.401 0 0 1 2.396-2.405 2.401 2.401 0 0 1 2.396 2.405zm-9.584 0a2.4 2.4 0 0 1-2.396 2.405 2.4 2.4 0 0 1-2.396-2.405 2.401 2.401 0 0 1 2.396-2.405 2.401 2.401 0 0 1 2.396 2.405zm52.713-2.405v57.722c0 5.313-4.291 9.62-9.584 9.62H10.577c-5.293 0-9.584-4.307-9.584-9.62V10.62C.993 5.306 5.284 1 10.577 1h57.506c5.293 0 9.584 4.306 9.584 9.62zm-4.792 14.43H5.785v43.292c0 2.657 2.146 4.81 4.792 4.81h57.506c2.647 0 4.792-2.153 4.792-4.81zm0-14.43c0-2.657-2.145-4.811-4.792-4.811H10.577c-2.646 0-4.792 2.154-4.792 4.81v9.621h67.09z"/><path fill="none" stroke="#fff" stroke-linecap="round" stroke-linejoin="round" stroke-miterlimit="50" stroke-width="2" d="M15.37 13.025a2.4 2.4 0 0 1-2.397 2.405 2.4 2.4 0 0 1-2.396-2.405 2.401 2.401 0 0 1 2.396-2.405 2.401 2.401 0 0 1 2.397 2.405zm19.168 0a2.4 2.4 0 0 1-2.396 2.405 2.4 2.4 0 0 1-2.396-2.405 2.401 2.401 0 0 1 2.396-2.405 2.401 2.401 0 0 1 2.396 2.405zm-9.584 0a2.4 2.4 0 0 1-2.396 2.405 2.4 2.4 0 0 1-2.396-2.405 2.401 2.401 0 0 1 2.396-2.405 2.401 2.401 0 0 1 2.396 2.405zm52.713-2.405v57.722c0 5.313-4.291 9.62-9.584 9.62H10.577c-5.293 0-9.584-4.307-9.584-9.62V10.62C.993 5.306 5.284 1 10.577 1h57.506c5.293 0 9.584 4.306 9.584 9.62zm-4.792 14.43H5.785v43.292c0 2.657 2.146 4.81 4.792 4.81h57.506c2.647 0 4.792-2.153 4.792-4.81zm0-14.43c0-2.657-2.145-4.811-4.792-4.811H10.577c-2.646 0-4.792 2.154-4.792 4.81v9.621h67.09z"/></g></g></svg>