<svg xmlns="http://www.w3.org/2000/svg" width="74" height="65" viewBox="0 0 74 65"><g><g><path fill="#f7941d" d="M19.358 42.977L6.933 32.972l12.425-10.01a2.299 2.299 0 0 0 0-3.317 2.46 2.46 0 0 0-3.414 0l-14.34 11.55a2.277 2.277 0 0 0-.682 1.777c-.034.638.18 1.287.682 1.776l14.34 11.547a2.46 2.46 0 0 0 3.414 0c.943-.915.943-2.4 0-3.318zm52.7-11.783l-14.34-11.549a2.466 2.466 0 0 0-3.414 0 2.3 2.3 0 0 0 0 3.318l12.427 10.009L54.304 42.98a2.297 2.297 0 0 0 0 3.315 2.461 2.461 0 0 0 3.414 0l14.34-11.547c.503-.489.717-1.139.684-1.776a2.281 2.281 0 0 0-.684-1.778zM53.491 1.607c-1.145-.647-2.609-.263-3.27.855L20.3 59.897c-.662 1.118-.388 2.827.876 3.193 1.545.444 2.608.263 3.269-.854l29.92-57.438c.662-1.118.27-2.545-.875-3.19z"/><path fill="none" stroke="#fff" stroke-linecap="round" stroke-linejoin="round" stroke-miterlimit="50" stroke-width="2" d="M19.358 42.977L6.933 32.972l12.425-10.01a2.299 2.299 0 0 0 0-3.317 2.46 2.46 0 0 0-3.414 0l-14.34 11.55a2.277 2.277 0 0 0-.682 1.777c-.034.638.18 1.287.682 1.776l14.34 11.547a2.46 2.46 0 0 0 3.414 0c.943-.915.943-2.4 0-3.318zm52.7-11.783l-14.34-11.549a2.466 2.466 0 0 0-3.414 0 2.3 2.3 0 0 0 0 3.318l12.427 10.009L54.304 42.98a2.297 2.297 0 0 0 0 3.315 2.461 2.461 0 0 0 3.414 0l14.34-11.547c.503-.489.717-1.139.684-1.776a2.281 2.281 0 0 0-.684-1.778zM53.491 1.607c-1.145-.647-2.609-.263-3.27.855L20.3 59.897c-.662 1.118-.388 2.827.876 3.193 1.545.444 2.608.263 3.269-.854l29.92-57.438c.662-1.118.27-2.545-.875-3.19z"/></g></g></svg>