<svg xmlns="http://www.w3.org/2000/svg" width="78" height="74" viewBox="0 0 78 74"><g><g ><path fill="#836cfe" d="M21.587 48.272l-2.202 6.733H16.48L23.822 33.6h3.321l7.343 21.406h-2.969l-2.3-6.733zm7.057-2.16l-2.107-6.16c-.48-1.398-.798-2.669-1.118-3.907h-.096a47.056 47.056 0 0 1-1.053 3.874l-2.107 6.193zm6.549 10.163L44.1 33.25h2.17l-8.938 23.025zm13.378-22.39c1.245-.254 3.193-.444 5.109-.444 2.778 0 4.564.476 5.874 1.556 1.15.825 1.82 2.096 1.82 3.779 0 2.065-1.405 3.906-3.64 4.7v.064c2.043.508 4.437 2.16 4.437 5.399 0 1.81-.702 3.208-1.851 4.256-1.468 1.365-3.895 2-7.407 2-1.947 0-3.383-.126-4.342-.254zm2.81 8.798h2.522c2.906 0 4.661-1.557 4.661-3.621 0-2.509-1.916-3.494-4.725-3.494-1.277 0-2.01.096-2.458.191zm0 10.226c.574.095 1.309.127 2.33.127 2.874 0 5.556-1.048 5.556-4.129 0-2.953-2.554-4.16-5.587-4.16H51.38zM66.605 74H11.394C5.112 74 0 68.916 0 62.667v-51.34c0-6.25 5.111-11.334 11.393-11.334h55.211c6.282 0 11.393 5.085 11.393 11.334v51.34c0 6.25-5.111 11.333-11.393 11.333zM11.394 2.484c-4.901 0-8.889 3.967-8.889 8.843v7.127h72.99v-7.127c0-4.876-3.989-8.843-8.89-8.843zM2.505 62.667c0 4.876 3.988 8.843 8.889 8.843h55.211c4.901 0 8.89-3.967 8.89-8.843V20.945H2.504zm12.282-51.58c0 1.201-.98 2.175-2.188 2.175a2.182 2.182 0 0 1-2.187-2.176c0-1.201.98-2.176 2.187-2.176 1.208 0 2.188.975 2.188 2.176zm8.498 0c0 1.201-.979 2.175-2.187 2.175a2.182 2.182 0 0 1-2.187-2.176c0-1.201.98-2.176 2.187-2.176 1.208 0 2.187.975 2.187 2.176zm8.257 0c0 1.201-.98 2.175-2.188 2.175a2.182 2.182 0 0 1-2.187-2.176c0-1.201.98-2.176 2.187-2.176 1.208 0 2.188.975 2.188 2.176z"/></g></g></svg>