<svg xmlns="http://www.w3.org/2000/svg" width="146" height="97" viewBox="0 0 146 97"><g><g ><path fill="#1ca9fb" d="M145.994 88.907a8.649 8.649 0 0 1-2.966 5.964 8.663 8.663 0 0 1-5.701 2.13 8.685 8.685 0 0 1-6.576-2.993l-25.27-33.003a32.192 32.192 0 0 1-14.138 3.29c-11.36 0-21.353-5.935-27.069-14.862H7.952C3.567 49.433 0 45.863 0 41.475V23.086c0-4.388 3.568-7.958 7.953-7.958h56.15C69.787 6.05 79.87-.002 91.342-.002c11.474 0 21.556 6.052 27.241 15.13H131.4c4.386 0 7.954 3.57 7.954 7.958v18.389c0 4.388-3.568 7.958-7.954 7.958h-12.965a32.228 32.228 0 0 1-2.836 3.787l28.257 29.326c1.556 1.79 2.302 4.035 2.139 6.361zm-26.2-71.675a31.956 31.956 0 0 1 3.68 14.914 32.063 32.063 0 0 1-3.812 15.182H131.4a5.859 5.859 0 0 0 5.85-5.853V23.086a5.859 5.859 0 0 0-5.85-5.854zM63.03 47.328a31.961 31.961 0 0 1-3.818-15.182c0-5.38 1.335-10.453 3.68-14.914H7.952a5.859 5.859 0 0 0-5.85 5.854v18.389a5.858 5.858 0 0 0 5.85 5.853zm79.274 36.639l-29.62-30.739.645-.622a29.948 29.948 0 0 0 8.04-20.46c0-16.566-13.47-30.044-30.026-30.044-16.557 0-30.027 13.478-30.027 30.044 0 16.566 13.47 30.043 30.027 30.043 4.943 0 9.843-1.227 14.17-3.55l.508-.388 26.359 34.426c1.11 1.275 2.714 2.074 4.479 2.198a6.547 6.547 0 0 0 4.79-1.593 6.555 6.555 0 0 0 2.246-4.522 6.556 6.556 0 0 0-1.591-4.793zM80.85 51.232l-1.013 1.845a23.915 23.915 0 0 1-8.507-7.914c-7.175-11.04-4.033-25.863 7.002-33.04l1.146 1.764a21.636 21.636 0 0 0-9.43 13.741 21.647 21.647 0 0 0 3.045 16.388 21.807 21.807 0 0 0 7.757 7.216zM8.583 23.086h2.104v18.31H8.583zm130.827 65.4a1.538 1.538 0 1 1-3.075 0 1.538 1.538 0 0 1 3.075 0zm-3.843-4.082a1.537 1.537 0 1 1-3.075 0 1.537 1.537 0 0 1 3.075 0z"/></g></g></svg>