<svg xmlns="http://www.w3.org/2000/svg" width="101" height="115" viewBox="0 0 101 115"><g><g ><path fill="#f87979" d="M27.686 23.234c0-.78.04-1.572.119-2.354a23.28 23.28 0 0 1 .41-2.566C30.514 7.701 40.07-.002 50.935-.002c10.867 0 20.422 7.703 22.72 18.316.189.87.327 1.733.411 2.566.08.782.119 1.574.119 2.354 0 11.793-9.818 39.54-23.25 39.54-13.431 0-23.249-27.747-23.249-39.54zm2.502 0c0 12.196 9.604 37.04 20.748 37.04 11.143 0 20.747-24.844 20.747-37.04a20.889 20.889 0 0 0-.56-4.767A20.666 20.666 0 0 0 50.936 2.499a20.666 20.666 0 0 0-20.188 15.968 20.889 20.889 0 0 0-.56 4.767zm70.823 10.302v48.326c0 8.304-6.76 15.06-15.07 15.06H58.973v6.025h13.522c2.697 0 4.89 2.703 4.89 6.026 0 3.324-2.193 6.028-4.89 6.028H28.51c-2.697 0-4.89-2.704-4.89-6.028 0-3.323 2.193-6.026 4.89-6.026h13.522v-6.025H15.063c-8.31 0-15.07-6.756-15.07-15.06V33.536c0-8.304 6.76-15.06 15.07-15.06h9.279v2.618h-9.28c-6.864 0-12.448 5.582-12.448 12.442V81.6H98.39V33.536c0-6.86-5.585-12.442-12.45-12.442h-8.389v-2.619h8.39c8.309 0 15.07 6.757 15.07 15.061zm-2.92 50.97H2.913c1.218 5.591 6.195 9.797 12.15 9.797H85.94c5.955 0 10.932-4.206 12.15-9.798zm-41.738 21.06v-8.437H44.652v8.437H28.509c-1.209 0-2.27 1.592-2.27 3.407 0 1.816 1.061 3.409 2.27 3.409h43.986c1.21 0 2.27-1.593 2.27-3.409 0-1.815-1.06-3.407-2.27-3.407zM47.31 34.974h-2.106v-16.12h2.106zm5.721 0h-2.106V19.046a24.705 24.705 0 0 1 4.02-.311c2.059 0 3.566.478 4.524 1.34.861.765 1.411 1.937 1.411 3.396 0 1.482-.43 2.63-1.244 3.468-1.1 1.171-2.896 1.769-4.882 1.769-.67 0-1.292-.048-1.723-.12zm0-8.083c.335.095 1.029.143 1.723.143 2.513 0 4.044-1.244 4.044-3.444 0-2.176-1.507-3.205-3.805-3.205-.933 0-1.603.072-1.962.144z"/></g></g></svg>