<svg xmlns="http://www.w3.org/2000/svg" width="105" height="105" viewBox="0 0 105 105"><g><g ><path fill="#f06edc" d="M52.496 104.997C23.55 104.997-.002 81.447-.002 52.5-.002 23.551 23.548.001 52.496.001c.762 0 1.54.018 2.38.056l1.936.087L55.76 1.77a23.98 23.98 0 0 0-3.843 13.042c0 13.274 10.8 24.073 24.073 24.073 2.863 0 5.667-.499 8.332-1.483l.626-.23.498.443a16.783 16.783 0 0 0 11.175 4.256c1.988 0 3.933-.343 5.782-1.02l1.207-.442.264 1.257a52.894 52.894 0 0 1 1.121 10.833c0 28.948-23.55 52.498-52.499 52.498zm0-102.773c-27.721 0-50.275 22.553-50.275 50.275 0 27.722 22.554 50.275 50.275 50.275 27.722 0 50.276-22.553 50.276-50.275 0-3.072-.28-6.146-.834-9.157-1.72.5-3.504.753-5.317.753a19.003 19.003 0 0 1-12.15-4.386 26.218 26.218 0 0 1-8.481 1.399c-14.5 0-26.296-11.797-26.296-26.296 0-4.422 1.105-8.735 3.21-12.586a49.356 49.356 0 0 0-.408-.002zM25.42 70.52a4.606 4.606 0 0 1-4.601-4.601c0-2.537 2.064-4.601 4.6-4.601a4.606 4.606 0 0 1 4.602 4.6c0 2.538-2.065 4.602-4.601 4.602zm0-6.979a2.38 2.38 0 0 0-2.378 2.378 2.38 2.38 0 0 0 2.378 2.378 2.38 2.38 0 0 0 2.377-2.378 2.38 2.38 0 0 0-2.377-2.378zm27.076 3.49a5.876 5.876 0 0 1-5.87-5.87 5.876 5.876 0 0 1 5.87-5.87 5.876 5.876 0 0 1 5.87 5.87 5.876 5.876 0 0 1-5.87 5.87zm0-9.516a3.65 3.65 0 0 0-3.646 3.646 3.65 3.65 0 0 0 3.646 3.646 3.65 3.65 0 0 0 3.647-3.646 3.65 3.65 0 0 0-3.647-3.646zM28.91 49.653c-5.308 0-9.627-4.318-9.627-9.626 0-5.309 4.319-9.627 9.627-9.627 5.308 0 9.627 4.318 9.627 9.627 0 5.308-4.32 9.626-9.627 9.626zm0-17.03c-4.082 0-7.404 3.321-7.404 7.404 0 4.082 3.322 7.403 7.404 7.403s7.403-3.321 7.403-7.403c0-4.083-3.32-7.404-7.403-7.404zm25.65 61.907c-4.374 0-7.932-3.558-7.932-7.932 0-4.373 3.558-7.931 7.931-7.931 4.374 0 7.932 3.558 7.932 7.931 0 4.374-3.558 7.932-7.932 7.932zm0-13.64a5.715 5.715 0 0 0-5.709 5.708 5.715 5.715 0 0 0 5.708 5.709 5.715 5.715 0 0 0 5.709-5.709 5.715 5.715 0 0 0-5.709-5.708zm19.26-56.898c-5.308 0-9.627-4.318-9.627-9.626 0-5.309 4.319-9.627 9.627-9.627 5.308 0 9.627 4.318 9.627 9.627 0 5.308-4.319 9.626-9.627 9.626zm0-17.03c-4.083 0-7.404 3.321-7.404 7.404 0 4.082 3.321 7.403 7.404 7.403 4.082 0 7.404-3.32 7.404-7.403S77.9 6.962 73.819 6.962zM95.622 36.58a5.876 5.876 0 0 1-5.87-5.87 5.876 5.876 0 0 1 5.87-5.87 5.876 5.876 0 0 1 5.87 5.87 5.876 5.876 0 0 1-5.87 5.87zm0-9.516a3.65 3.65 0 0 0-3.646 3.646 3.65 3.65 0 0 0 3.646 3.647 3.65 3.65 0 0 0 3.647-3.647 3.65 3.65 0 0 0-3.647-3.646z"/></g></g></svg>