<svg xmlns="http://www.w3.org/2000/svg" width="77" height="83" viewBox="0 0 77 83"><g><g ><path fill="#1ca9fb" d="M76.966 62.814c0 1.34-.136 2.697-.405 4.035l-.202 1.006h-2.961a17.225 17.225 0 0 1-1.271 3.116l2.094 2.118-.561.855c-.704 1.074-1.54 2.095-2.556 3.122-1.015 1.027-2.025 1.872-3.087 2.582l-.847.568-2.093-2.118c-.979.528-2.01.958-3.083 1.286v2.993l-.995.205c-1.323.271-2.666.41-3.99.41a19.9 19.9 0 0 1-3.99-.41l-.995-.205v-2.993a16.86 16.86 0 0 1-3.083-1.286l-1.117 1.13.015.033c-.025.012-.053.02-.079.031l-.912.924-.52-.348a18.101 18.101 0 0 1-6.195 1.098H18.492C8.27 80.966-.046 72.558-.046 62.224v-3.646c0-7.787 4.84-14.76 11.955-17.51-3.766-4.366-6.077-10.217-6.077-16.644C5.832 10.957 15.962.001 28.415.001c12.453 0 22.583 10.956 22.583 24.423 0 6.173-2.132 11.815-5.638 16.12 2.338.858 4.67 2.25 6.663 3.982v-1.274l.996-.205a19.76 19.76 0 0 1 7.98 0l.995.205v2.993c1.073.328 2.104.758 3.083 1.286l2.094-2.118.846.568c1.062.711 2.072 1.556 3.087 2.583 1.016 1.026 1.852 2.047 2.556 3.121l.56.856-2.093 2.117c.522.989.947 2.032 1.271 3.116h2.96l.203 1.007c.269 1.337.405 2.694.405 4.033zm-68.65-38.39c0 12.082 9.017 21.911 20.099 21.911 11.083 0 20.099-9.829 20.099-21.91 0-12.083-9.016-21.912-20.1-21.912-11.081 0-20.097 9.83-20.097 21.911zm31.817 54.03c1.28 0 2.533-.166 3.754-.465-.325-.292-.65-.595-.974-.923-1.016-1.027-1.852-2.048-2.554-3.122l-.562-.856 2.095-2.117a17.245 17.245 0 0 1-1.272-3.116h-2.96l-.203-1.006a20.555 20.555 0 0 1-.405-4.035c0-1.339.136-2.696.405-4.033l.202-1.007h2.961c.324-1.084.75-2.127 1.272-3.116l-2.095-2.117.562-.856c.702-1.073 1.538-2.094 2.554-3.121 1.017-1.028 2.026-1.872 3.088-2.583l.846-.568 2.094 2.118a16.839 16.839 0 0 1 1.774-.815c-2.115-1.928-4.698-3.422-7.208-4.141-4.003 3.896-9.295 6.272-15.092 6.272-5.552 0-10.639-2.182-14.576-5.789-6.727 2.076-11.4 8.403-11.4 15.52v3.646c0 8.95 7.201 16.23 16.053 16.23zm34.348-15.64c0-.837-.06-1.684-.182-2.527h-2.828l-.23-.962a14.772 14.772 0 0 0-1.724-4.221l-.51-.844 1.996-2.02a18.75 18.75 0 0 0-1.655-1.9 18.728 18.728 0 0 0-1.88-1.674l-1.997 2.019-.835-.516a14.43 14.43 0 0 0-4.176-1.743l-.95-.233v-2.86a17.183 17.183 0 0 0-5.002 0v2.86l-.95.233c-1.489.363-2.894.95-4.176 1.743l-.835.516-1.996-2.019a18.581 18.581 0 0 0-1.881 1.675 18.606 18.606 0 0 0-1.655 1.9l1.996 2.019-.51.844a14.76 14.76 0 0 0-1.724 4.221l-.23.962H39.72c-.121.843-.182 1.69-.182 2.527 0 .838.061 1.685.182 2.529h2.828l.23.961c.36 1.506.94 2.926 1.724 4.222l.51.843-1.996 2.02c.48.638 1.027 1.266 1.655 1.9a18.68 18.68 0 0 0 1.88 1.674l1.997-2.019.835.517a14.444 14.444 0 0 0 4.175 1.742l.951.233v2.86a17.19 17.19 0 0 0 5.001 0v-2.86l.951-.233c1.49-.364 2.894-.95 4.176-1.742l.835-.517 1.997 2.019a18.616 18.616 0 0 0 1.88-1.674 18.747 18.747 0 0 0 1.655-1.9l-1.997-2.02.511-.843a14.772 14.772 0 0 0 1.724-4.222l.23-.961h2.828c.121-.844.182-1.69.182-2.529zm-9.978-7.576c2.336 2.36 3.436 5.629 3.019 8.965-.595 4.754-4.438 8.64-9.14 9.24-.459.058-.918.087-1.372.087a10.49 10.49 0 0 1-7.495-3.139c-2.335-2.36-3.436-5.629-3.019-8.965.594-4.753 4.438-8.639 9.14-9.24 3.301-.418 6.531.691 8.867 3.052zm-1.757 1.776a8.053 8.053 0 0 0-6.799-2.336c-3.594.46-6.532 3.43-6.985 7.063-.32 2.56.522 5.066 2.31 6.873a8.053 8.053 0 0 0 6.798 2.336c3.594-.458 6.532-3.429 6.986-7.062.32-2.56-.522-5.066-2.31-6.874z"/></g></g></svg>