<svg xmlns="http://www.w3.org/2000/svg" width="74" height="80" viewBox="0 0 74 80"><g><g><path fill="#4cb5d2" d="M49.03 64.288v-4.81c0-2.657 2.145-4.81 4.792-4.81h4.792c2.647 0 4.792 2.153 4.792 4.81v4.81c0 2.656-2.145 4.81-4.792 4.81h-4.792c-2.647 0-4.792-2.154-4.792-4.81zm4.792 0h4.792v-4.81h-4.792zm-4.792-19.24v-4.812c0-2.656 2.145-4.81 4.792-4.81h4.792c2.647 0 4.792 2.154 4.792 4.81v4.811c0 2.656-2.145 4.81-4.792 4.81h-4.792c-2.647 0-4.792-2.154-4.792-4.81zm4.792 0h4.792v-4.812h-4.792zm-23.96 19.24v-4.81c0-2.657 2.145-4.81 4.791-4.81h4.792c2.647 0 4.793 2.153 4.793 4.81v4.81c0 2.656-2.146 4.81-4.793 4.81h-4.792c-2.646 0-4.792-2.154-4.792-4.81zm4.791 0h4.792v-4.81h-4.792zM72.99 16.185v52.913c0 5.313-4.29 9.62-9.584 9.62H10.693c-5.293 0-9.585-4.307-9.585-9.62V16.185c0-5.313 4.292-9.62 9.585-9.62h9.584V4.16a2.401 2.401 0 0 1 2.396-2.405 2.4 2.4 0 0 1 2.396 2.405v2.405h23.96V4.16a2.401 2.401 0 0 1 2.397-2.405 2.4 2.4 0 0 1 2.396 2.405v2.405h9.584c5.293 0 9.585 4.307 9.585 9.62zm-4.792 9.621H5.9v43.292c0 2.656 2.146 4.81 4.793 4.81h52.713c2.647 0 4.792-2.154 4.792-4.81zm0-9.62c0-2.657-2.145-4.811-4.792-4.811h-9.584v2.405a2.4 2.4 0 0 1-2.396 2.405 2.4 2.4 0 0 1-2.396-2.405v-2.405H25.069v2.405a2.4 2.4 0 0 1-2.396 2.405 2.4 2.4 0 0 1-2.396-2.405v-2.405h-9.584c-2.647 0-4.793 2.154-4.793 4.81v4.81h62.298zM29.861 45.046v-4.81c0-2.657 2.146-4.81 4.792-4.81h4.792c2.647 0 4.793 2.153 4.793 4.81v4.81c0 2.656-2.146 4.81-4.793 4.81h-4.792c-2.646 0-4.792-2.154-4.792-4.81zm4.792 0h4.792v-4.81h-4.792zm-23.96 19.241v-4.81c0-2.657 2.145-4.81 4.792-4.81h4.792c2.646 0 4.792 2.153 4.792 4.81v4.81c0 2.656-2.146 4.81-4.792 4.81h-4.792c-2.647 0-4.792-2.154-4.792-4.81zm4.792 0h4.792v-4.81h-4.792zm-4.792-19.24v-4.812c0-2.656 2.145-4.81 4.792-4.81h4.792c2.646 0 4.792 2.154 4.792 4.81v4.811c0 2.656-2.146 4.81-4.792 4.81h-4.792c-2.647 0-4.792-2.154-4.792-4.81zm4.792 0h4.792v-4.812h-4.792z"/><path fill="none" stroke="#fff" stroke-linecap="round" stroke-linejoin="round" stroke-miterlimit="50" stroke-width="2" d="M49.03 64.288v-4.81c0-2.657 2.145-4.81 4.792-4.81h4.792c2.647 0 4.792 2.153 4.792 4.81v4.81c0 2.656-2.145 4.81-4.792 4.81h-4.792c-2.647 0-4.792-2.154-4.792-4.81zm4.792 0h4.792v-4.81h-4.792zm-4.792-19.24v-4.812c0-2.656 2.145-4.81 4.792-4.81h4.792c2.647 0 4.792 2.154 4.792 4.81v4.811c0 2.656-2.145 4.81-4.792 4.81h-4.792c-2.647 0-4.792-2.154-4.792-4.81zm4.792 0h4.792v-4.812h-4.792zm-23.96 19.24v-4.81c0-2.657 2.145-4.81 4.791-4.81h4.792c2.647 0 4.793 2.153 4.793 4.81v4.81c0 2.656-2.146 4.81-4.793 4.81h-4.792c-2.646 0-4.792-2.154-4.792-4.81zm4.791 0h4.792v-4.81h-4.792zM72.99 16.185v52.913c0 5.313-4.29 9.62-9.584 9.62H10.693c-5.293 0-9.585-4.307-9.585-9.62V16.185c0-5.313 4.292-9.62 9.585-9.62h9.584V4.16a2.401 2.401 0 0 1 2.396-2.405 2.4 2.4 0 0 1 2.396 2.405v2.405h23.96V4.16a2.401 2.401 0 0 1 2.397-2.405 2.4 2.4 0 0 1 2.396 2.405v2.405h9.584c5.293 0 9.585 4.307 9.585 9.62zm-4.792 9.621H5.9v43.292c0 2.656 2.146 4.81 4.793 4.81h52.713c2.647 0 4.792-2.154 4.792-4.81zm0-9.62c0-2.657-2.145-4.811-4.792-4.811h-9.584v2.405a2.4 2.4 0 0 1-2.396 2.405 2.4 2.4 0 0 1-2.396-2.405v-2.405H25.069v2.405a2.4 2.4 0 0 1-2.396 2.405 2.4 2.4 0 0 1-2.396-2.405v-2.405h-9.584c-2.647 0-4.793 2.154-4.793 4.81v4.81h62.298zM29.861 45.046v-4.81c0-2.657 2.146-4.81 4.792-4.81h4.792c2.647 0 4.793 2.153 4.793 4.81v4.81c0 2.656-2.146 4.81-4.793 4.81h-4.792c-2.646 0-4.792-2.154-4.792-4.81zm4.792 0h4.792v-4.81h-4.792zm-23.96 19.241v-4.81c0-2.657 2.145-4.81 4.792-4.81h4.792c2.646 0 4.792 2.153 4.792 4.81v4.81c0 2.656-2.146 4.81-4.792 4.81h-4.792c-2.647 0-4.792-2.154-4.792-4.81zm4.792 0h4.792v-4.81h-4.792zm-4.792-19.24v-4.812c0-2.656 2.145-4.81 4.792-4.81h4.792c2.646 0 4.792 2.154 4.792 4.81v4.811c0 2.656-2.146 4.81-4.792 4.81h-4.792c-2.647 0-4.792-2.154-4.792-4.81zm4.792 0h4.792v-4.812h-4.792z"/></g></g></svg>