<svg xmlns="http://www.w3.org/2000/svg" width="79" height="80" viewBox="0 0 79 80"><g><g><path fill="#f87979" d="M42.059 13.767v26.515a2.399 2.399 0 0 1-2.396 2.403H18.098a2.399 2.399 0 0 1-2.396-2.403 2.402 2.402 0 0 1 2.396-2.407h19.169V13.767a2.4 2.4 0 0 1 2.396-2.405 2.4 2.4 0 0 1 2.396 2.405zm-4.792 50.507h4.792v4.811h-4.792zM20.775 53.32l3.316 3.335-3.316 3.336-3.316-3.336zm.386-28.16l-3.388-3.4 3.388-3.4 3.388 3.4zM78 40.224c0 21.254-17.163 38.482-38.337 38.482-21.174 0-38.337-17.228-38.337-38.482 0-21.25 17.163-38.482 38.337-38.482C60.837 1.741 78 18.972 78 40.223zm-4.792 0c0-18.595-15.018-33.671-33.545-33.671-18.528 0-33.545 15.076-33.545 33.671 0 18.598 15.017 33.672 33.545 33.672 18.527 0 33.545-15.074 33.545-33.672zm-16.3 12.902l3.388 3.4-3.388 3.402-3.388-3.401zm11.508-15.307v4.81h-4.792v-4.81zM57.538 18.305l3.315 3.335-3.315 3.336-3.316-3.336z"/><path fill="none" stroke="#fff" stroke-linecap="round" stroke-linejoin="round" stroke-miterlimit="50" stroke-width="2" d="M42.059 13.767v26.515a2.399 2.399 0 0 1-2.396 2.403H18.098a2.399 2.399 0 0 1-2.396-2.403 2.402 2.402 0 0 1 2.396-2.407h19.169V13.767a2.4 2.4 0 0 1 2.396-2.405 2.4 2.4 0 0 1 2.396 2.405zm-4.792 50.507h4.792v4.811h-4.792zM20.775 53.32l3.316 3.335-3.316 3.336-3.316-3.336zm.386-28.16l-3.388-3.4 3.388-3.4 3.388 3.4zM78 40.224c0 21.254-17.163 38.482-38.337 38.482-21.174 0-38.337-17.228-38.337-38.482 0-21.25 17.163-38.482 38.337-38.482C60.837 1.741 78 18.972 78 40.223zm-4.792 0c0-18.595-15.018-33.671-33.545-33.671-18.528 0-33.545 15.076-33.545 33.671 0 18.598 15.017 33.672 33.545 33.672 18.527 0 33.545-15.074 33.545-33.672zm-16.3 12.902l3.388 3.4-3.388 3.402-3.388-3.401zm11.508-15.307v4.81h-4.792v-4.81zM57.538 18.305l3.315 3.335-3.315 3.336-3.316-3.336z"/></g></g></svg>