<svg xmlns="http://www.w3.org/2000/svg" width="77" height="78" viewBox="0 0 77 78"><g><g><path fill="#f06edc" d="M40.852 46.66c.86 3.263.054 6.874-2.493 9.432L21.105 73.41a9.732 9.732 0 0 1-13.803 0L3.85 69.945C.04 66.121.04 59.917 3.85 56.092l17.255-17.319c2.547-2.557 6.145-3.366 9.395-2.503L7.302 59.554a4.91 4.91 0 0 0 0 6.928l3.45 3.463a4.866 4.866 0 0 0 6.901 0zm5.271-12.178L34.045 46.605a2.436 2.436 0 0 1-3.45 0 2.458 2.458 0 0 1 0-3.466l12.078-12.122a2.434 2.434 0 0 1 3.45 0 2.458 2.458 0 0 1 0 3.465zm26.744-13.028l-17.254 17.32c-2.549 2.555-6.146 3.362-9.395 2.501l23.198-23.284a4.913 4.913 0 0 0 0-6.928l-3.451-3.465a4.871 4.871 0 0 0-6.902 0L35.866 30.885c-.86-3.262-.056-6.874 2.493-9.431L55.613 4.135a9.732 9.732 0 0 1 13.803 0l3.451 3.463c3.812 3.827 3.812 10.032 0 13.856z"/><path fill="none" stroke="#fff" stroke-linecap="round" stroke-linejoin="round" stroke-miterlimit="50" stroke-width="2" d="M40.852 46.66c.86 3.263.054 6.874-2.493 9.432L21.105 73.41a9.732 9.732 0 0 1-13.803 0L3.85 69.945C.04 66.121.04 59.917 3.85 56.092l17.255-17.319c2.547-2.557 6.145-3.366 9.395-2.503L7.302 59.554a4.91 4.91 0 0 0 0 6.928l3.45 3.463a4.866 4.866 0 0 0 6.901 0zm5.271-12.178L34.045 46.605a2.436 2.436 0 0 1-3.45 0 2.458 2.458 0 0 1 0-3.466l12.078-12.122a2.434 2.434 0 0 1 3.45 0 2.458 2.458 0 0 1 0 3.465zm26.744-13.028l-17.254 17.32c-2.549 2.555-6.146 3.362-9.395 2.501l23.198-23.284a4.913 4.913 0 0 0 0-6.928l-3.451-3.465a4.871 4.871 0 0 0-6.902 0L35.866 30.885c-.86-3.262-.056-6.874 2.493-9.431L55.613 4.135a9.732 9.732 0 0 1 13.803 0l3.451 3.463c3.812 3.827 3.812 10.032 0 13.856z"/></g></g></svg>