<svg xmlns="http://www.w3.org/2000/svg" width="79" height="79" viewBox="0 0 79 79"><g><g><path fill="#00aeef" d="M78.012 20.137V68.24c0 5.313-4.291 9.62-9.584 9.62H10.922c-5.293 0-9.584-4.307-9.584-9.62V10.517c0-5.313 4.291-9.62 9.584-9.62H25.3c5.293 0 9.584 4.307 9.584 9.62h33.545c5.293 0 9.584 4.308 9.584 9.62zm-4.792 9.62H6.13V68.24c0 2.656 2.146 4.81 4.792 4.81h57.506c2.646 0 4.792-2.154 4.792-4.81zm0-9.62c0-2.656-2.146-4.81-4.792-4.81H30.091v-4.81c0-2.656-2.146-4.81-4.792-4.81H10.922c-2.646 0-4.792 2.154-4.792 4.81v14.431h67.09z"/><path fill="none" stroke="#fff" stroke-linecap="round" stroke-linejoin="round" stroke-miterlimit="50" stroke-width="2" d="M78.012 20.137V68.24c0 5.313-4.291 9.62-9.584 9.62H10.922c-5.293 0-9.584-4.307-9.584-9.62V10.517c0-5.313 4.291-9.62 9.584-9.62H25.3c5.293 0 9.584 4.307 9.584 9.62h33.545c5.293 0 9.584 4.308 9.584 9.62zm-4.792 9.62H6.13V68.24c0 2.656 2.146 4.81 4.792 4.81h57.506c2.646 0 4.792-2.154 4.792-4.81zm0-9.62c0-2.656-2.146-4.81-4.792-4.81H30.091v-4.81c0-2.656-2.146-4.81-4.792-4.81H10.922c-2.646 0-4.792 2.154-4.792 4.81v14.431h67.09z"/></g></g></svg>