<svg xmlns="http://www.w3.org/2000/svg" width="58" height="80" viewBox="0 0 58 80"><g><g><path fill="#f87979" d="M25.104 67.919a3.602 3.602 0 0 1 3.594-3.608 3.602 3.602 0 0 1 3.594 3.608 3.602 3.602 0 0 1-3.594 3.607 3.602 3.602 0 0 1-3.594-3.607zm31.149-56.52V69.12c0 5.313-4.292 9.62-9.584 9.62H10.727c-5.292 0-9.584-4.307-9.584-9.62V11.398c0-5.313 4.292-9.62 9.584-9.62H46.67c5.292 0 9.584 4.307 9.584 9.62zM51.46 61.905H5.935v7.215c0 2.656 2.146 4.81 4.792 4.81H46.67c2.646 0 4.792-2.154 4.792-4.81zm0-43.292H5.935v38.482h45.526zm0-7.216c0-2.656-2.146-4.81-4.792-4.81H10.727c-2.646 0-4.792 2.154-4.792 4.81v2.405h45.526z"/><path fill="none" stroke="#fff" stroke-linecap="round" stroke-linejoin="round" stroke-miterlimit="50" stroke-width="2" d="M25.104 67.919a3.602 3.602 0 0 1 3.594-3.608 3.602 3.602 0 0 1 3.594 3.608 3.602 3.602 0 0 1-3.594 3.607 3.602 3.602 0 0 1-3.594-3.607zm31.149-56.52V69.12c0 5.313-4.292 9.62-9.584 9.62H10.727c-5.292 0-9.584-4.307-9.584-9.62V11.398c0-5.313 4.292-9.62 9.584-9.62H46.67c5.292 0 9.584 4.307 9.584 9.62zM51.46 61.905H5.935v7.215c0 2.656 2.146 4.81 4.792 4.81H46.67c2.646 0 4.792-2.154 4.792-4.81zm0-43.292H5.935v38.482h45.526zm0-7.216c0-2.656-2.146-4.81-4.792-4.81H10.727c-2.646 0-4.792 2.154-4.792 4.81v2.405h45.526z"/></g></g></svg>