<svg xmlns="http://www.w3.org/2000/svg" width="79" height="79" viewBox="0 0 79 79"><g><g><path fill="#836cfe" d="M54.039 17.87a2.4 2.4 0 0 1 2.396-2.404h19.168A2.401 2.401 0 0 1 78 17.87a2.4 2.4 0 0 1-2.396 2.405H56.435a2.4 2.4 0 0 1-2.396-2.405zm23.96 28.863a2.4 2.4 0 0 1-2.396 2.405H61.227a2.4 2.4 0 0 1-2.396-2.405 2.4 2.4 0 0 1 2.396-2.406h14.376A2.4 2.4 0 0 1 78 46.733zM78 32.3a2.4 2.4 0 0 1-2.396 2.406H56.435a2.4 2.4 0 0 1-2.396-2.406 2.4 2.4 0 0 1 2.396-2.404h19.168A2.4 2.4 0 0 1 78 32.3zm0 28.862a2.4 2.4 0 0 1-2.396 2.406H61.227a2.4 2.4 0 0 1-2.396-2.406 2.4 2.4 0 0 1 2.396-2.405h14.376A2.4 2.4 0 0 1 78 61.163zm-23.96-7.215v9.62c0 7.97-6.438 14.43-14.377 14.43h-23.96c-7.94 0-14.377-6.46-14.377-14.43v-9.62c0-6.318 4.071-11.63 9.701-13.583-3.065-4.155-4.909-9.477-4.909-15.278 0-13.283 9.655-24.052 21.565-24.052 11.91 0 21.565 10.77 21.565 24.052 0 5.8-1.844 11.123-4.91 15.278 5.63 1.954 9.702 7.265 9.702 13.583zm-26.357-9.62c9.263 0 16.772-8.616 16.772-19.241 0-10.626-7.509-19.242-16.772-19.242-9.264 0-16.773 8.616-16.773 19.242 0 10.625 7.509 19.24 16.773 19.24zM49.247 55.15c0-5.113-3.866-9.37-9.047-10.503-3.533 2.816-7.845 4.49-12.518 4.49-4.673 0-8.985-1.674-12.519-4.49-5.18 1.132-9.046 5.39-9.046 10.503v7.216c0 5.977 5.267 10.823 11.763 10.823h19.604c6.495 0 11.763-4.846 11.763-10.823z"/><path fill="none" stroke="#fff" stroke-linecap="round" stroke-linejoin="round" stroke-miterlimit="50" stroke-width="2" d="M54.039 17.87a2.4 2.4 0 0 1 2.396-2.404h19.168A2.401 2.401 0 0 1 78 17.87a2.4 2.4 0 0 1-2.396 2.405H56.435a2.4 2.4 0 0 1-2.396-2.405zm23.96 28.863a2.4 2.4 0 0 1-2.396 2.405H61.227a2.4 2.4 0 0 1-2.396-2.405 2.4 2.4 0 0 1 2.396-2.406h14.376A2.4 2.4 0 0 1 78 46.733zM78 32.3a2.4 2.4 0 0 1-2.396 2.406H56.435a2.4 2.4 0 0 1-2.396-2.406 2.4 2.4 0 0 1 2.396-2.404h19.168A2.4 2.4 0 0 1 78 32.3zm0 28.862a2.4 2.4 0 0 1-2.396 2.406H61.227a2.4 2.4 0 0 1-2.396-2.406 2.4 2.4 0 0 1 2.396-2.405h14.376A2.4 2.4 0 0 1 78 61.163zm-23.96-7.215v9.62c0 7.97-6.438 14.43-14.377 14.43h-23.96c-7.94 0-14.377-6.46-14.377-14.43v-9.62c0-6.318 4.071-11.63 9.701-13.583-3.065-4.155-4.909-9.477-4.909-15.278 0-13.283 9.655-24.052 21.565-24.052 11.91 0 21.565 10.77 21.565 24.052 0 5.8-1.844 11.123-4.91 15.278 5.63 1.954 9.702 7.265 9.702 13.583zm-26.357-9.62c9.263 0 16.772-8.616 16.772-19.241 0-10.626-7.509-19.242-16.772-19.242-9.264 0-16.773 8.616-16.773 19.242 0 10.625 7.509 19.24 16.773 19.24zM49.247 55.15c0-5.113-3.866-9.37-9.047-10.503-3.533 2.816-7.845 4.49-12.518 4.49-4.673 0-8.985-1.674-12.519-4.49-5.18 1.132-9.046 5.39-9.046 10.503v7.216c0 5.977 5.267 10.823 11.763 10.823h19.604c6.495 0 11.763-4.846 11.763-10.823z"/></g></g></svg>