<svg xmlns="http://www.w3.org/2000/svg" width="67" height="69" viewBox="0 0 67 69"><g><g><path fill="#47b6d4" d="M65.734 54.005c0 5.097-1.074 9.939-2.983 14.33-2.838-14.983-17.134-26.368-32.938-26.368 0 .819-.041 14.104-.041 14.104.082.706-.112 1.436-.658 1.98-.006.006-.014.006-.02.013a2.384 2.384 0 0 1-1.72.74c-.746 0-1.386-.363-1.826-.897L1.758 31.81a2.373 2.373 0 0 1-.687-1.827 2.374 2.374 0 0 1 .688-1.827l23.92-26.24a2.437 2.437 0 0 1 3.435 0c.546.543.74 1.273.658 1.98v14.131c19.86 0 35.962 16.109 35.962 35.978zm-4.795-2.399c-.075-9.015-11.82-28.282-28.731-28.805-1.246-.038-7.231.023-7.231.023V9.867L6.638 29.983 24.977 50.1V37.215s5.664-.04 7.23-.04c9.988 0 23.566 7.794 28.732 14.431z"/><path fill="none" stroke="#fff" stroke-linecap="round" stroke-linejoin="round" stroke-miterlimit="50" stroke-width="2" d="M65.734 54.005c0 5.097-1.074 9.939-2.983 14.33-2.838-14.983-17.134-26.368-32.938-26.368 0 .819-.041 14.104-.041 14.104.082.706-.112 1.436-.658 1.98-.006.006-.014.006-.02.013a2.384 2.384 0 0 1-1.72.74c-.746 0-1.386-.363-1.826-.897L1.758 31.81a2.373 2.373 0 0 1-.687-1.827 2.374 2.374 0 0 1 .688-1.827l23.92-26.24a2.437 2.437 0 0 1 3.435 0c.546.543.74 1.273.658 1.98v14.131c19.86 0 35.962 16.109 35.962 35.978zm-4.795-2.399c-.075-9.015-11.82-28.282-28.731-28.805-1.246-.038-7.231.023-7.231.023V9.867L6.638 29.983 24.977 50.1V37.215s5.664-.04 7.23-.04c9.988 0 23.566 7.794 28.732 14.431z"/></g></g></svg>