<?xml version="1.0" standalone="no"?>
<!DOCTYPE svg PUBLIC "-//W3C//DTD SVG 1.1//EN" "http://www.w3.org/Graphics/SVG/1.1/DTD/svg11.dtd" >
<svg>
<metadata>
Created by FontForge 20090914 at Tue Jan 14 12:09:05 2020
 By www-data
&#194;&#169; 2008 The Monotype Corporation. All Rights Reserved.
</metadata>
<defs>
<font id="MVBoli" horiz-adv-x="1083" >
  <font-face 
    font-family="MV Boli"
    font-weight="400"
    font-style="italic"
    font-stretch="normal"
    units-per-em="2048"
    panose-1="2 0 5 0 3 2 0 9 0 0"
    ascent="1638"
    descent="-410"
    x-height="933.999"
    cap-height="1462"
    bbox="-479.998 -582.996 2460 2102"
    underline-thickness="100"
    underline-position="-290"
    slope="-16"
    unicode-range="U+0020-U+FDF2"
  />
<missing-glyph horiz-adv-x="2048" 
d="M256 0v1536h1536v-1536h-1536zM384 128h1280v1280h-1280v-1280z" />
    <glyph glyph-name="uniFDF2" unicode="&#xfdf2;" horiz-adv-x="1677" arabic-form="isolated" 
d="M834 1464c25.333 0 38 -9.33301 38 -28c0 -126.667 -2.33301 -205.167 -7 -235.5s-18.667 -45.5 -42 -45.5c-26 0 -39 14.333 -39 43l9 211c0 36.667 13.667 55 41 55zM1581 1274c44 0 66 -25.3311 66 -75.998c0 -222.667 -8.5 -421.834 -25.5 -597.501
s-35.333 -277 -55 -304s-42.834 -40.5 -69.501 -40.5c-20 0 -36.667 6.5 -50 19.5s-20 28.5 -20 46.5c0 19.333 5.66699 48.666 17 87.999c35.333 127.333 53 373 53 737c0 36.667 7.33301 67 22 91s35.334 36 62.001 36zM807 846.002
c-18.667 -46.667 -52.667 -69.998 -102 -69.998c-26.667 0 -49.834 12.667 -69.501 38s-29.5 55 -29.5 89c0 30.667 5 57.667 15 81s19 40 27 50s19.333 15 34 15c15.333 0 23 -8.33301 23 -25c0 -10.667 -5.66699 -25.667 -17 -45c-9.33301 -17.333 -14 -39.333 -14 -66
c0 -30 15 -45 45 -45c16 0 29.167 4.83301 39.5 14.5s15.5 22.667 15.5 39s0.5 32.166 1.5 47.499s3.83301 28.333 8.5 39s12.334 16 23.001 16c22 0 33 -7.66699 33 -23c0 -80 19 -120 57 -120c31.333 0 47 19.667 47 59c0 18 -3.66699 41.333 -11 70
c-4.66699 17.333 -7 29.666 -7 36.999c0 20 8.66699 30 26 30c10 0 17.333 -4.83301 22 -14.5s9.66699 -28.667 15 -57s8 -51.5 8 -69.5c0 -98.667 -35.333 -148 -106 -148c-40 0 -68 19.333 -84 58zM389 166.004c-42.667 -51.333 -94.3311 -93.165 -154.998 -125.498
s-114 -48.5 -160 -48.5c-19.333 0 -34.833 6.83301 -46.5 20.5s-17.5 29.834 -17.5 48.501c0 20.667 5.5 39 16.5 55s25.5 26.333 43.5 31c176 54 276.333 164 301 330c2 18 9.66699 33.167 23 45.5s28.666 18.5 45.999 18.5c49.333 0 74 -20 74 -60
c0 -133.333 30.667 -200 92 -200c38 0 69 27.333 93 82s36 114.667 36 180c0 70.667 24 106 72 106c27.333 0 45.666 -5.16699 54.999 -15.5s16 -32.5 20 -66.5c10 -104.667 24.167 -172.834 42.5 -204.501s41.833 -47.5 70.5 -47.5c40.667 0 71.334 16.167 92.001 48.5
s35.167 100.666 43.5 204.999s12.5 209.166 12.5 314.499c0 53.333 23 80 69 80c16.667 0 33.167 -5.83301 49.5 -17.5s24.5 -26.5 24.5 -44.5c0 -118.667 -4.83301 -247 -14.5 -385s-42.5 -247.5 -98.5 -328.5s-122.667 -121.5 -200 -121.5
c-46.667 0 -88.5 15.667 -125.5 47s-62.167 73 -75.5 125c-48.667 -138 -118.334 -207 -209.001 -207c-88.667 0 -146.667 45 -174 135z" />
    <glyph glyph-name=".notdef" horiz-adv-x="2048" 
d="M256 0v1536h1536v-1536h-1536zM384 128h1280v1280h-1280v-1280z" />
    <glyph glyph-name="space" unicode=" " horiz-adv-x="1000" 
 />
    <glyph glyph-name="exclam" unicode="!" horiz-adv-x="745" 
d="M807 1405c0 -28 -13.667 -70.333 -41 -127c-20.667 -43.333 -61.5 -146.5 -122.5 -309.5s-98.167 -263.833 -111.5 -302.5s-25.333 -86 -36 -142c-8.66699 -43.333 -38.667 -65 -90 -65c-66 0 -99 32.667 -99 98c0 68.667 40.833 200.5 122.5 395.5
s144.5 328.667 188.5 401s86.333 108.5 127 108.5c41.333 0 62 -19 62 -57zM475 162c0 -46 -17.668 -85.832 -53.001 -119.499s-75.666 -50.5 -120.999 -50.5c-34.667 0 -64.167 12.167 -88.5 36.5s-36.5 53.833 -36.5 88.5c0 46 18.5 86.5 55.5 121.5
s77.833 52.5 122.5 52.5c34.667 0 63.5 -12.333 86.5 -37s34.5 -55.334 34.5 -92.001z" />
    <glyph glyph-name="quotedbl" unicode="&#x22;" horiz-adv-x="928" 
d="M631 1401c0 -14 -13 -48.333 -39 -103c-56.667 -112.667 -106 -249.667 -148 -411c-10 -42.667 -42.667 -64 -98 -64c-65.333 0 -98 28.667 -98 86c0 46 39.167 150.333 117.5 313s140.833 244 187.5 244c52 0 78 -21.667 78 -65zM1081 1401
c0 -16.667 -12.998 -51 -38.998 -103c-56 -112.667 -105 -249.667 -147 -411c-10.667 -42.667 -43.334 -64 -98.001 -64c-66 0 -99 28.667 -99 86c0 46 39.167 150.333 117.5 313s141.166 244 188.499 244c51.333 0 77 -21.667 77 -65z" />
    <glyph glyph-name="numbersign" unicode="#" horiz-adv-x="1407" 
d="M504 881c-92.667 -14 -148.668 -20.9961 -168.001 -20.9961c-65.333 0 -98 22.667 -98 68c0 37.333 18.5 63.166 55.5 77.499s128.167 25.166 273.5 32.499c50.667 127.333 98 229.833 142 307.5s84.667 116.5 122 116.5c30.667 0 46 -8 46 -24
c0 -24 -3.5 -45.833 -10.5 -65.5s-21.5 -52.5 -43.5 -98.5c-26 -55.333 -58 -130.333 -96 -225c152 5.33301 267.333 8 346 8c76.667 185.333 131.834 299.5 165.501 342.5s63.167 64.5 88.5 64.5c38 0 57 -13.667 57 -41c0 -10.667 -14.333 -46.667 -43 -108
s-64.667 -146 -108 -254h131c60 0 90 -24.667 90 -74c0 -32.667 -16.333 -54.834 -49 -66.501s-84.667 -17.5 -156 -17.5h-73c-30 -79.333 -66.333 -189.333 -109 -330c54 1.33301 127.667 2 221 2c52 0 78 -24.333 78 -73c0 -56 -37.667 -84 -113 -84
c-97.333 0 -173.666 -0.666992 -228.999 -2c-34 -127.333 -59.333 -243.333 -76 -348c-6.66699 -46.667 -35.334 -70 -86.001 -70c-26 0 -47.167 7.66699 -63.5 23s-24.5 35 -24.5 59c0 64 23.333 175.333 70 334l-328 -6c-35.333 -122.667 -63.333 -236.667 -84 -342
c-3.33301 -20 -16.333 -36.333 -39 -49s-45 -19 -67 -19c-49.333 0 -74 26 -74 78c0 40 27.333 147.667 82 323l-176 -14c-38.667 0 -58 30.667 -58 92c0 24 15.5 42.667 46.5 56s111.167 22 240.5 26c54 159.333 93 266.666 117 321.999zM1012 901.004
c-155.333 -2.66699 -268.669 -6.00098 -340.002 -10.001c-39.333 -107.333 -75.666 -216.666 -108.999 -327.999l330 8c29.333 89.333 67.666 195.333 114.999 318c0.666992 1.33301 1.33398 3.33301 2.00098 6s1.33398 4.66699 2.00098 6z" />
    <glyph glyph-name="dollar" unicode="$" horiz-adv-x="1147" 
d="M823 1286c32 70 59.168 118.667 81.501 146s45.166 41 68.499 41c28.667 0 43 -9 43 -27c0 -30 -16.333 -77.667 -49 -143c55.333 2.66699 99 4 131 4c28 0 50.333 -7.16699 67 -21.5s25 -31.833 25 -52.5c0 -26 -8.33301 -51.667 -25 -77s-43.334 -38 -80.001 -38
c-50 4 -117.333 6 -202 6c-44 -106 -84.333 -213.667 -121 -323c188 -66 282 -165 282 -297c0 -82.667 -41.167 -157 -123.5 -223s-195.166 -112 -338.499 -138l-21 -104c-2.66699 -18 -14 -32.333 -34 -43s-40.667 -16 -62 -16c-38 0 -57 23 -57 69
c0 17.333 4 43.333 12 78h-43c-88.667 0 -163.167 13.333 -223.5 40s-90.5 59 -90.5 97c0 22.667 6.66699 41.667 20 57s31.333 23 54 23c15.333 0 41 -5 77 -15c79.333 -22.667 155.333 -34 228 -34h21c32.667 118 73.667 247.667 123 389
c-184.667 64.667 -277 154.667 -277 270c0 76.667 45.167 145 135.5 205s216.5 102.333 378.5 127zM641.001 840c38.667 106 74.334 197.334 107.001 274.001c-84 -13.333 -147.333 -34.333 -190 -63s-64 -58 -64 -88c0 -28 11.167 -51.333 33.5 -70
s60.166 -36.334 113.499 -53.001zM711.001 637.001c-40 -132.667 -70 -239.334 -90 -320.001c73.333 19.333 131.5 44.833 174.5 76.5s64.5 62.834 64.5 93.501c0 34 -12 62 -36 84s-61.667 44 -113 66z" />
    <glyph glyph-name="percent" unicode="%" horiz-adv-x="1438" 
d="M614 1464c62 0 114.833 -20.8311 158.5 -62.498s65.5 -88.834 65.5 -141.501c0 -112.667 -38.333 -210.834 -115 -294.501s-171 -125.5 -283 -125.5c-64.667 0 -118.667 21.5 -162 64.5s-65 95.167 -65 156.5c0 96.667 40.333 188 121 274s174 129 280 129zM586 1325
c-61.333 0 -110.5 -26.167 -147.5 -78.5s-55.5 -107.5 -55.5 -165.5c0 -28 9.16699 -52 27.5 -72s40.5 -30 66.5 -30c48.667 0 92.667 28.667 132 86s59 113.333 59 168c0 22 -7.66699 42.833 -23 62.5s-35 29.5 -59 29.5zM145 70.002
c0 15.333 4.33398 30.668 13.001 46.001c17.333 31.333 90.833 121.5 220.5 270.5s263.5 291.833 401.5 428.5c186.667 184.667 325 317.667 415 399c139.333 126 220 195.167 242 207.5s42 18.5 60 18.5c15.333 0 30.5 -7.16699 45.5 -21.5s22.5 -32.5 22.5 -54.5
c0 -18 -20.667 -44 -62 -78c-218.667 -182 -435 -385.333 -649 -610s-384 -421.334 -510 -590.001c-42.667 -60 -85 -90 -127 -90c-20.667 0 -37.834 7.16699 -51.501 21.5s-20.5 31.833 -20.5 52.5zM1194 616.004c62 0 114.667 -20.667 158 -62s65 -88.666 65 -141.999
c0 -112.667 -38.167 -210.834 -114.5 -294.501s-170.5 -125.5 -282.5 -125.5c-64.667 0 -118.667 21.5 -162 64.5s-65 95.167 -65 156.5c0 96.667 40.167 188 120.5 274s173.833 129 280.5 129zM1165 477.004c-61.333 0 -110.333 -26.168 -147 -78.501
s-55 -107.5 -55 -165.5c0 -27.333 9 -51.166 27 -71.499s40.333 -30.5 67 -30.5c48 0 91.667 28.833 131 86.5s59 113.5 59 167.5c0 22 -7.66699 42.833 -23 62.5s-35 29.5 -59 29.5z" />
    <glyph glyph-name="ampersand" unicode="&#x26;" horiz-adv-x="1499" 
d="M520 838c-30 82 -45 159.671 -45 233.004c0 103.333 45.833 194.666 137.5 273.999s206.167 119 343.5 119c74 0 141.667 -25.833 203 -77.5s92 -111.834 92 -180.501c0 -81.333 -38.167 -154.5 -114.5 -219.5s-203.833 -136.5 -382.5 -214.5
c47.333 -92 134 -210 260 -354c114 102.667 198.667 207.667 254 315c12.667 30 35.667 45 69 45c22.667 0 44.167 -8.16699 64.5 -24.5s30.5 -35.5 30.5 -57.5c0 -16.667 -7 -38.334 -21 -65.001s-47 -70.834 -99 -132.501s-114 -125.5 -186 -191.5
c85.333 -70.667 177 -111 275 -121c60 -5.33301 90 -41.333 90 -108c0 -23.333 -8.16699 -42.833 -24.5 -58.5s-37.5 -23.5 -63.5 -23.5c-131.333 0 -270.666 64.667 -417.999 194c-81.333 -61.333 -169 -109 -263 -143s-183 -51 -267 -51
c-95.333 0 -186.833 35.5 -274.5 106.5s-131.5 156.167 -131.5 255.5c0 95.333 39.167 183 117.5 263s196.166 152.333 353.499 217zM694 909.004c126.667 56 219.499 106.832 278.499 152.499s88.5 93.834 88.5 144.501c0 24 -9.66699 45 -29 63s-44.666 27 -75.999 27
c-86.667 0 -156.667 -20.5 -210 -61.5s-80 -95.5 -80 -163.5c0 -46.667 9.33301 -100.667 28 -162zM581.999 698.003l-4.00098 -2c-117.333 -50 -202.333 -101.833 -255 -155.5s-79 -114.5 -79 -182.5c0 -58 23.833 -103.833 71.5 -137.5s100.167 -50.5 157.5 -50.5
c122 0 253.667 45 395 135c-127.333 138.667 -222.666 269.667 -285.999 393z" />
    <glyph glyph-name="quotesingle" unicode="'" horiz-adv-x="457" 
d="M631 1401c0 -14 -13 -48.333 -39 -103c-56.667 -112.667 -106 -249.667 -148 -411c-10 -42.667 -42.667 -64 -98 -64c-65.333 0 -98 28.667 -98 86c0 46 39.167 150.333 117.5 313s140.833 244 187.5 244c52 0 78 -21.667 78 -65z" />
    <glyph glyph-name="parenleft" unicode="(" horiz-adv-x="1090" 
d="M623 -393c0 -19.333 -8.66797 -35.4961 -26.001 -48.4961s-42.333 -19.5 -75 -19.5c-38.667 0 -84.667 29.667 -138 89s-98.166 139.666 -134.499 240.999s-54.5 205.666 -54.5 312.999c0 212.667 52 412.834 156 600.501s238 348.167 402 481.5s300 200 408 200
c21.333 0 38.333 -5.66699 51 -17s19 -25.333 19 -42c0 -21.333 -6.16699 -38.666 -18.5 -51.999s-35.5 -25.333 -69.5 -36c-79.333 -24.667 -179.333 -89.834 -300 -195.501s-226.167 -247.334 -316.5 -425.001s-135.5 -349.167 -135.5 -514.5
c0 -88.667 16.5 -176.834 49.5 -264.501s73.167 -155.834 120.5 -204.501c41.333 -42.667 62 -78 62 -106z" />
    <glyph glyph-name="parenright" unicode=")" horiz-adv-x="1090" 
d="M565 1395c0 19.333 8.83398 35.3311 26.501 47.998s42.5 19 74.5 19c38.667 0 85.167 -30.5 139.5 -91.5s99.166 -141.833 134.499 -242.5s53 -203.667 53 -309c0 -212 -52 -412 -156 -600s-238 -348.667 -402 -482s-300 -200 -408 -200
c-21.333 0 -38.333 5.83301 -51 17.5s-19 25.834 -19 42.501c0 23.333 7 41.333 21 54s36.333 24 67 34c80 24.667 179.833 89.334 299.5 194.001s225 246 316 424s136.5 350 136.5 516c0 91.333 -16.667 180.5 -50 267.5s-73.333 154.167 -120 201.5
c-41.333 41.333 -62 77 -62 107z" />
    <glyph glyph-name="asterisk" unicode="*" horiz-adv-x="754" 
d="M696 1122c105.333 -86 158 -148 158 -186c0 -16.667 -6 -30.667 -18 -42s-26.333 -17 -43 -17c-27.333 0 -58.666 17.167 -93.999 51.5s-70.333 66.166 -105 95.499c-17.333 -70 -31 -135.667 -41 -197c-10 -50 -34.667 -75 -74 -75c-46 0 -69 30 -69 90
c0 36.667 10 95.334 30 176.001c-17.333 -10 -35 -21.667 -53 -35c-59.333 -45.333 -104.333 -68 -135 -68c-46.667 0 -70 22.667 -70 68c0 14 9 28.833 27 44.5s90.333 56.834 217 123.501c-42 26.667 -74.667 45.667 -98 57c-40 21.333 -60 46 -60 74
c0 18 7.16699 32.667 21.5 44s31.166 17 50.499 17c38 0 97.333 -28.667 178 -86c24.667 69.333 45.667 121.166 63 155.499s35.333 51.5 54 51.5c24.667 0 41 -4.5 49 -13.5s12 -24.167 12 -45.5c0 -28 -12.333 -80.667 -37 -158c112 35.333 179.667 53 203 53
c41.333 0 62 -18.333 62 -55c0 -34 -29 -60 -87 -78z" />
    <glyph glyph-name="plus" unicode="+" horiz-adv-x="1147" 
d="M729 647c-38 -179.333 -56.998 -297.998 -56.998 -355.998c0 -18.667 -11.833 -34 -35.5 -46s-47.5 -18 -71.5 -18c-26.667 0 -48.334 6.66699 -65.001 20s-25 30 -25 50c0 71.333 19 186 57 344c-94 -2 -175.333 -6.66699 -244 -14c-40 -4 -67 -6 -81 -6
c-38 0 -57 33.333 -57 100c0 26 18.5 46.667 55.5 62s161.167 24.666 372.5 27.999c66.667 226 109 352.5 127 379.5s44.333 40.5 79 40.5c54.667 0 82 -13 82 -39c0 -14 -5 -35.333 -15 -64s-38.333 -132.334 -85 -311.001c126 4 229.667 6 311 6c52 0 78 -26 78 -78
c0 -61.333 -38.333 -92 -115 -92c-86.667 0 -190.334 -2 -311.001 -6z" />
    <glyph glyph-name="comma" unicode="," horiz-adv-x="745" 
d="M291 -8c-34 4 -61.667 17.666 -83 40.999s-32 51.333 -32 84c0 46 18.5 86.5 55.5 121.5s77.833 52.5 122.5 52.5c38 0 67.667 -13.333 89 -40s32 -64 32 -112c0 -76 -33.833 -164.167 -101.5 -264.5s-125.834 -150.5 -174.501 -150.5c-16 0 -30.333 5.83301 -43 17.5
s-19 24.834 -19 39.501c0 18.667 4.33301 34.334 13 47.001s27 29 55 49c40.667 29.333 69.334 67.666 86.001 114.999z" />
    <glyph glyph-name="hyphen" unicode="-" horiz-adv-x="942" 
d="M819 834c45.333 0 68 -24.6689 68 -74.002c0 -36 -7.83301 -64.5 -23.5 -85.5s-37.167 -31.5 -64.5 -31.5c-153.333 0 -291.333 -6.66699 -414 -20c-56.667 -7.33301 -101.667 -11 -135 -11c-44 0 -66 32.333 -66 97c0 21.333 8.66699 40.833 26 58.5
s38.833 29.334 64.5 35.001s101 12.334 226 20.001s231.167 11.5 318.5 11.5z" />
    <glyph glyph-name="period" unicode="." horiz-adv-x="745" 
d="M631 713c0 -46 -17.668 -85.832 -53.001 -119.499s-75.666 -50.5 -120.999 -50.5c-34.667 0 -64.167 12.167 -88.5 36.5s-36.5 53.833 -36.5 88.5c0 46 18.5 86.5 55.5 121.5s77.833 52.5 122.5 52.5c34.667 0 63.5 -12.333 86.5 -37s34.5 -55.334 34.5 -92.001z" />
    <glyph glyph-name="slash" unicode="/" horiz-adv-x="1053" 
d="M1276 1380c0 -24 -27.335 -55.999 -82.002 -95.999c-206.667 -185.333 -404 -403 -592 -653s-315.667 -429.667 -383 -539c-20 -32.667 -38.667 -56.167 -56 -70.5s-40.333 -21.5 -69 -21.5c-21.333 0 -39 7.66699 -53 23s-21 33.666 -21 54.999c0 23.333 6 46 18 68
c26.667 50 107 167.333 241 352c97.333 133.333 186 247.666 266 342.999c124.667 148 249.834 285.5 375.501 412.5s197.334 193.833 215.001 200.5s39.167 10 64.5 10c17.333 0 34.333 -7.66699 51 -23s25 -35.666 25 -60.999z" />
    <glyph glyph-name="zero" unicode="0" horiz-adv-x="1438" 
d="M1442 997c0 -147.333 -42.167 -301.167 -126.5 -461.5s-191.833 -291 -322.5 -392s-258.334 -151.5 -383.001 -151.5c-129.333 0 -233.666 43.167 -312.999 129.5s-119 205.5 -119 357.5c0 145.333 44.167 296 132.5 452s200.333 283.833 336 383.5
s263.5 149.5 383.5 149.5c128 0 228.667 -41.667 302 -125s110 -197.333 110 -342zM373 454.999c0 -85.333 22.501 -155.167 67.501 -209.5s102.833 -81.5 173.5 -81.5c94 0 190.5 43.833 289.5 131.5s181 200.5 246 338.5s97.5 268 97.5 390
c0 86 -18.833 152.167 -56.5 198.5s-91.834 69.5 -162.501 69.5c-97.333 0 -197.5 -42.167 -300.5 -126.5s-187.833 -193.333 -254.5 -327s-100 -261.5 -100 -383.5z" />
    <glyph glyph-name="one" unicode="1" horiz-adv-x="827" 
d="M655 1264c-18.667 -6 -54.999 -19.335 -108.999 -40.002c-118 -44.667 -192 -67 -222 -67c-20.667 0 -36.5 6.16699 -47.5 18.5s-16.5 26.833 -16.5 43.5c0 46.667 21 82 63 106s129.333 52.5 262 85.5s212.667 49.5 240 49.5c41.333 0 62 -19 62 -57
c0 -27.333 -14.333 -65.666 -43 -114.999c-68 -116 -150.333 -307.167 -247 -573.5s-156.334 -481.166 -179.001 -644.499c-3.33301 -25.333 -14.833 -44.666 -34.5 -57.999s-42.5 -20 -68.5 -20c-58.667 0 -88 26.667 -88 80c0 87.333 48.333 267.666 145 540.999
s191 490.333 283 651z" />
    <glyph glyph-name="two" unicode="2" horiz-adv-x="1368" 
d="M399 223c41.333 2.66699 72.998 4 94.998 4c56 0 149.5 -5.83301 280.5 -17.5s230.833 -23 299.5 -34s111.334 -21.667 128.001 -32s30 -24.333 40 -42s15 -36.5 15 -56.5c0 -16.667 -12.5 -33.834 -37.5 -51.501s-48.5 -26.5 -70.5 -26.5c-26 0 -65.667 6.33301 -119 19
c-90 22 -197.833 38.667 -323.5 50s-242.5 17 -350.5 17c-48 0 -97.667 -7.33301 -149 -22c-28.667 -10 -56.667 -15 -84 -15c-16.667 0 -31.167 5 -43.5 15s-18.5 23.667 -18.5 41c0 61.333 47.5 135.833 142.5 223.5s228.833 175.834 401.5 264.501
c211.333 108.667 351 199.667 419 273s102 145.333 102 216c0 64.667 -25.167 120.667 -75.5 168s-113.166 71 -188.499 71c-69.333 0 -133.333 -11.667 -192 -35s-115.667 -66 -171 -128c-22.667 -25.333 -43.667 -38 -63 -38c-24 0 -45.667 8.5 -65 25.5
s-29 36.5 -29 58.5c0 68 53.833 133.167 161.5 195.5s234.167 93.5 379.5 93.5c124.667 0 228.834 -37.667 312.501 -113s125.5 -172.666 125.5 -291.999c0 -118.667 -45.5 -227.834 -136.5 -327.501s-261.167 -209.167 -510.5 -328.5
c-106.667 -51.333 -198.334 -110 -275.001 -176z" />
    <glyph glyph-name="three" unicode="3" horiz-adv-x="1368" 
d="M1032 739c56 -23.333 101.503 -61.668 136.503 -115.001s52.5 -106.333 52.5 -159c0 -140 -54.167 -253.833 -162.5 -341.5s-248.833 -131.5 -421.5 -131.5c-134.667 0 -258.834 33.667 -372.501 101s-170.5 138 -170.5 212c0 26 9 49.333 27 70s39 31 63 31
c44.667 0 74 -13.667 88 -41c75.333 -134 199.666 -201 372.999 -201c121.333 0 215.166 27.167 281.499 81.5s99.5 122.833 99.5 205.5c0 42.667 -13.167 79.334 -39.5 110.001s-57.833 51.667 -94.5 63s-104 17 -202 17c-26 0 -46.833 8.83301 -62.5 26.5
s-23.5 38.167 -23.5 61.5c0 21.333 9.83301 40.666 29.5 57.999s46.834 26 81.501 26c26.667 0 52 -0.666992 76 -2l71 -6c10.667 0 45.5 12.167 104.5 36.5s105.167 56.333 138.5 96s50 85.5 50 137.5c0 60 -25.833 110.167 -77.5 150.5s-120.167 60.5 -205.5 60.5
c-146.667 0 -258.334 -51 -335.001 -153c-20.667 -28.667 -47.334 -43 -80.001 -43c-25.333 0 -46.333 7.66699 -63 23s-25 35.666 -25 60.999c0 59.333 53.667 121.5 161 186.5s229 97.5 365 97.5c129.333 0 237.5 -35 324.5 -105s130.5 -157 130.5 -261
c0 -79.333 -27.667 -150.166 -83 -212.499s-133.666 -109.166 -234.999 -140.499z" />
    <glyph glyph-name="four" unicode="4" horiz-adv-x="1397" 
d="M1106 743c110.667 3.33301 179.002 5 205.002 5c24 0 41.833 -4.5 53.5 -13.5s17.5 -27.167 17.5 -54.5c0 -34 -10.333 -61 -31 -81s-49 -30 -85 -30c-94 0 -167 -0.666992 -219 -2c-60 -177.333 -96.667 -309.666 -110 -396.999c-11.333 -72 -23.333 -119.667 -36 -143
s-40 -35 -82 -35c-28.667 0 -50.834 9.5 -66.501 28.5s-23.5 44.167 -23.5 75.5c0 67.333 43.667 223 131 467c-320.667 -8 -511 -12 -571 -12c-32 0 -59.167 12 -81.5 36s-33.5 51 -33.5 81c0 35.333 38 117.833 114 247.5s163.333 247.834 262 354.501
s176.667 160 234 160c56 0 84 -17.333 84 -52c0 -23.333 -16.333 -46.333 -49 -69c-88 -60.667 -177.833 -160.834 -269.5 -300.501s-145.834 -235.5 -162.501 -287.5c57.333 0 236.333 5.33301 537 16c74.667 200.667 136.5 354.667 185.5 462
s85.833 177.666 110.5 210.999s53.667 50 87 50c35.333 0 53 -19 53 -57c0 -22 -15.167 -65.5 -45.5 -130.5s-62.5 -141.833 -96.5 -230.5z" />
    <glyph glyph-name="five" unicode="5" horiz-adv-x="1368" 
d="M506 887c92 42 189.668 63.001 293.001 63.001c137.333 0 248.5 -41.333 333.5 -124s127.5 -178.334 127.5 -287.001c0 -159.333 -60.5 -290.333 -181.5 -393s-284.5 -154 -490.5 -154c-139.333 0 -257.5 34.333 -354.5 103s-145.5 138 -145.5 208
c0 30 8.33301 56.667 25 80s37 35 61 35c49.333 0 78.666 -13 87.999 -39c57.333 -142 179.666 -213 366.999 -213c128 0 232.667 37.167 314 111.5s122 155.166 122 242.499c0 76.667 -24.5 138.5 -73.5 185.5s-126.833 70.5 -233.5 70.5c-54 0 -122.333 -13 -205 -39
c-67.333 -21.333 -119.333 -32 -156 -32c-22 0 -41.167 8.33301 -57.5 25s-24.5 37 -24.5 61c0 39.333 16.5 112.833 49.5 220.5s62.333 187.167 88 238.5s51 90.333 76 117s47.167 42.834 66.5 48.501s117.5 14.5 294.5 26.5s333.167 18 468.5 18c24 0 42 -4.5 54 -13.5
s18 -27.5 18 -55.5c0 -34 -10.667 -61.333 -32 -82s-49.666 -31 -84.999 -31c-253.333 0 -478 -9 -674 -27c-52.667 -108.667 -97 -230 -133 -364z" />
    <glyph glyph-name="six" unicode="6" horiz-adv-x="1368" 
d="M430 770c148 91.333 278.33 137.001 390.997 137.001c138 0 248.333 -36.667 331 -110s124 -173 124 -299c0 -132.667 -64.667 -250.167 -194 -352.5s-268 -153.5 -416 -153.5c-150 0 -270.5 44.167 -361.5 132.5s-136.5 200.5 -136.5 336.5
c0 140.667 42.667 292.667 128 456s196.833 295.333 334.5 396s281.834 151 432.501 151c82.667 0 164.834 -22.167 246.501 -66.5s122.5 -91.833 122.5 -142.5c0 -66.667 -29.667 -100 -89 -100c-38.667 0 -80 23.333 -124 70c-18 18.667 -46 34.5 -84 47.5
s-75 19.5 -111 19.5c-112 0 -218.667 -44.333 -320 -133s-192.666 -218.334 -273.999 -389.001zM800.997 737.001c-57.333 0 -114 -9.00098 -170 -27.001s-111.833 -45.167 -167.5 -81.5s-86.5 -66.166 -92.5 -89.499s-9 -49.333 -9 -78c0 -92 27 -164.5 81 -217.5
s128.333 -79.5 223 -79.5c102.667 0 197.5 34 284.5 102s130.5 145.333 130.5 232c0 159.333 -93.333 239 -280 239z" />
    <glyph glyph-name="seven" unicode="7" horiz-adv-x="1225" 
d="M1135 1292l-752 -0.000976562c-29.333 0 -52.666 9 -69.999 27s-26 40.333 -26 67c0 22.667 6.83301 41.667 20.5 57s31.834 23 54.501 23l701 -8l252 8c62.667 0 94 -23.667 94 -71c0 -17.333 -12.333 -40.666 -37 -69.999
c-175.333 -192.667 -340 -405.834 -494 -639.501s-267 -434.167 -339 -601.5c-14 -31.333 -31 -54.833 -51 -70.5s-42.667 -23.5 -68 -23.5c-65.333 0 -98 30 -98 90c0 16.667 5.83301 44.334 17.5 83.001s74.667 146.667 189 324s224.166 334.5 329.499 471.5
s197.666 248.167 276.999 333.5z" />
    <glyph glyph-name="eight" unicode="8" horiz-adv-x="1346" 
d="M831 805c206.667 -136 310.003 -266.333 310.003 -391c0 -75.333 -27.833 -145.333 -83.5 -210s-130.334 -116.167 -224.001 -154.5s-185.167 -57.5 -274.5 -57.5c-136.667 0 -250 34.333 -340 103s-135 151 -135 247s32.667 179.833 98 251.5
s174.666 148.167 327.999 229.5c-78 70.667 -117 154.667 -117 252c0 110.667 51.167 203.167 153.5 277.5s225.166 111.5 368.499 111.5c104.667 0 199.667 -25.667 285 -77s145.333 -122.333 180 -213c29.333 2.66699 51.333 4 66 4c40.667 0 61 -22.667 61 -68
c0 -83.333 -49.667 -125 -149 -125c-94 0 -269.667 -60 -527 -180zM678.003 907c166 78 341.999 149.667 527.999 215c-37.333 113.333 -139.666 170 -306.999 170c-82 0 -154.667 -22 -218 -66s-95 -94.333 -95 -151c0 -66 30.667 -122 92 -168zM657.002 719
c-128.667 -65.333 -223.832 -128.332 -285.499 -188.999s-92.5 -123.334 -92.5 -188.001c0 -44.667 22.667 -85.5 68 -122.5s116 -55.5 212 -55.5c103.333 0 193.666 25.167 270.999 75.5s116 108.5 116 174.5c0 52 -21.833 99.667 -65.5 143s-118.167 97.333 -223.5 162z
" />
    <glyph glyph-name="nine" unicode="9" horiz-adv-x="1368" 
d="M1087 668c-46 -37.333 -100.668 -67.168 -164.001 -89.501s-122.666 -33.5 -177.999 -33.5c-132 0 -241.333 38.5 -328 115.5s-130 175.5 -130 295.5c0 130 59.5 246.833 178.5 350.5s260.833 155.5 425.5 155.5c144.667 0 259.667 -40.167 345 -120.5
s128 -186.166 128 -317.499c0 -148 -41.667 -306.333 -125 -475s-194.166 -304 -332.499 -406s-288.833 -153 -451.5 -153c-68.667 0 -125.5 10.333 -170.5 31s-67.5 47.667 -67.5 81c0 28 7.66699 50.5 23 67.5s35.666 25.5 60.999 25.5c22 0 53.667 -6 95 -18
c36 -10 62.333 -15 79 -15c108.667 0 222 47 340 141s208.667 215.667 272 365zM765.999 714.998c20.667 0 41.6709 1.66895 63.0039 5.00195s42.666 8.5 63.999 15.5s42.166 15.5 62.499 25.5s40.166 21.167 59.499 33.5s37.833 26.166 55.5 41.499
s36.667 34.666 57 57.999s32.333 47.333 36 72s5.5 44 5.5 58c0 177.333 -92.667 266 -278 266c-121.333 0 -220 -34.667 -296 -104s-114 -146 -114 -230c0 -74.667 26.667 -133.5 80 -176.5s121.666 -64.5 204.999 -64.5z" />
    <glyph glyph-name="colon" unicode=":" horiz-adv-x="745" 
d="M668 840c0 -45.333 -17.668 -84.998 -53.001 -118.998s-75.666 -51 -120.999 -51c-34.667 0 -64.167 12.167 -88.5 36.5s-36.5 53.833 -36.5 88.5c0 45.333 18.333 85.666 55 120.999s77.667 53 123 53c34.667 0 63.5 -12.333 86.5 -37s34.5 -55.334 34.5 -92.001z
M474.999 162.002c0 -46 -17.668 -85.832 -53.001 -119.499s-75.666 -50.5 -120.999 -50.5c-34.667 0 -64.167 12.167 -88.5 36.5s-36.5 53.833 -36.5 88.5c0 46 18.5 86.5 55.5 121.5s77.833 52.5 122.5 52.5c34.667 0 63.5 -12.333 86.5 -37s34.5 -55.334 34.5 -92.001z
" />
    <glyph glyph-name="semicolon" unicode=";" horiz-adv-x="745" 
d="M668 840c0 -45.333 -17.668 -84.998 -53.001 -118.998s-75.666 -51 -120.999 -51c-34.667 0 -64.167 12.167 -88.5 36.5s-36.5 53.833 -36.5 88.5c0 45.333 18.333 85.666 55 120.999s77.667 53 123 53c34.667 0 63.5 -12.333 86.5 -37s34.5 -55.334 34.5 -92.001z
M290.999 -7.99805c-34 4 -61.667 17.666 -83 40.999s-32 51.333 -32 84c0 46 18.5 86.5 55.5 121.5s77.833 52.5 122.5 52.5c38 0 67.667 -13.333 89 -40s32 -64 32 -112c0 -76 -33.833 -164.167 -101.5 -264.5s-125.834 -150.5 -174.501 -150.5
c-16 0 -30.333 5.83301 -43 17.5s-19 24.834 -19 39.501c0 18.667 4.33301 34.334 13 47.001s27 29 55 49c40.667 29.333 69.334 67.666 86.001 114.999z" />
    <glyph glyph-name="less" unicode="&#x3c;" horiz-adv-x="1147" 
d="M420 725c111.333 -59.333 227.832 -117.996 349.499 -175.996s198.834 -92.333 231.501 -103c26 -6.66699 39 -27.667 39 -63c0 -28 -6.66699 -50.667 -20 -68s-32.333 -26 -57 -26c-20 0 -59.333 13.667 -118 41l-196 94l-266 133
c-105.333 53.333 -164.833 84.5 -178.5 93.5s-23.167 19.167 -28.5 30.5s-8 26.666 -8 45.999c0 21.333 3.66699 38.666 11 51.999s18.666 24.666 33.999 33.999s67.333 32.333 156 69l339 138c136 55.333 239.333 95.833 310 121.5s116.334 38.5 137.001 38.5
c19.333 0 34.833 -9.83301 46.5 -29.5s17.5 -42.834 17.5 -69.501c0 -35.333 -29.667 -63.333 -89 -84c-60.667 -17.333 -168 -55.5 -322 -114.5s-283.333 -111.5 -388 -157.5z" />
    <glyph glyph-name="equal" unicode="=" horiz-adv-x="1147" 
d="M1067 1018c52 0 77.9971 -26 77.9971 -78c0 -61.333 -38.333 -92 -115 -92c-104.667 0 -228.667 -3 -372 -9s-242.666 -12 -297.999 -18c-40 -4 -67 -6 -81 -6c-38.667 0 -58 33.333 -58 100c0 22 11.833 39.5 35.5 52.5s57.334 21.667 101.001 26
s151.834 9.5 324.501 15.5s301 9 385 9zM1006 629c51.333 0 77 -26 77 -78c0 -61.333 -37.333 -92 -112 -92c-105.333 0 -230 -3 -374 -9s-244 -12 -300 -18c-38.667 -4 -64.667 -6 -78 -6c-39.333 0 -59 33.333 -59 100c0 22 11.667 39.5 35 52.5s56.833 21.667 100.5 26
s152 9.5 325 15.5s301.5 9 385.5 9z" />
    <glyph glyph-name="greater" unicode="&#x3e;" horiz-adv-x="1147" 
d="M883 741c-112 60 -228.831 118.831 -350.498 176.498s-198.834 91.834 -231.501 102.501c-10.667 3.33301 -19.834 11 -27.501 23s-11.5 25.333 -11.5 40c0 28 6.66699 50.833 20 68.5s32.666 26.5 57.999 26.5c20 0 59 -13.667 117 -41l197 -95l266 -133
c104.667 -53.333 163.834 -84.5 177.501 -93.5s23.334 -19.167 29.001 -30.5s8.5 -26.666 8.5 -45.999c0 -28.667 -7 -50.667 -21 -66s-55.667 -37.333 -125 -66l-321 -132c-144 -59.333 -261.333 -105.5 -352 -138.5s-147 -49.5 -169 -49.5
c-18.667 0 -33.834 9.66699 -45.501 29s-17.5 42.333 -17.5 69c0 36 29.333 64 88 84c61.333 17.333 169 55.5 323 114.5s283.333 111.5 388 157.5z" />
    <glyph glyph-name="question" unicode="?" horiz-adv-x="1113" 
d="M621 431c-14 0 -26.335 5.83203 -37.002 17.499s-19.5 26.167 -26.5 43.5s-12.333 36.5 -16 57.5s-5.5 40.5 -5.5 58.5c0 30 4.66699 54.167 14 72.5s27.666 35.5 54.999 51.5c5.33301 2.66699 15.333 8.5 30 17.5l51.5 31.5l64 39l66 41l58 36.5l40.5 25.5
c18 12 39.333 27.167 64 45.5s48.167 38.5 70.5 60.5s41.333 45.333 57 70s23.5 49.667 23.5 75c0 12.667 -2.16699 24.834 -6.5 36.501s-10 22.167 -17 31.5s-15 16.833 -24 22.5s-17.833 8.5 -26.5 8.5c-46 0 -92.5 -4.83301 -139.5 -14.5s-93.667 -23.167 -140 -40.5
s-92 -37.833 -137 -61.5s-88.833 -49.5 -131.5 -77.5v1c-3.33301 -3.33301 -9 -7.83301 -17 -13.5s-17 -11.167 -27 -16.5s-20.167 -10.166 -30.5 -14.499s-19.5 -6.5 -27.5 -6.5c-7.33301 0 -16.166 1.5 -26.499 4.5s-20.333 7.5 -30 13.5s-18 13.667 -25 23
s-10.5 20.333 -10.5 33s5.5 26 16.5 40s25.167 28.167 42.5 42.5s36.666 28.5 57.999 42.5s42.5 26.833 63.5 38.5s40.667 22 59 31s32.833 15.833 43.5 20.5c76.667 30 151.334 54.833 224.001 74.5s146.667 29.5 222 29.5c31.333 0 63 -7.5 95 -22.5s61 -35 87 -60
s47.167 -53.833 63.5 -86.5s24.5 -66.667 24.5 -102c0 -28.667 -6.66699 -56.834 -20 -84.501s-30.833 -54.5 -52.5 -80.5s-46.167 -51 -73.5 -75s-55.333 -46.833 -84 -68.5s-56.667 -41.667 -84 -60l-73 -49.5c-20.667 -14 -42.667 -28.167 -66 -42.5l-65.5 -41
c-20.333 -13 -38.166 -25.667 -53.499 -38s-25 -23.5 -29 -33.5c-3.33301 -13.333 -5.5 -25.5 -6.5 -36.5s-1.83301 -21.167 -2.5 -30.5c-0.666992 -8.66699 -0.833984 -17.667 -0.500977 -27s-1.66699 -18 -6 -26s-12.166 -14.5 -23.499 -19.5s-28.666 -7.5 -51.999 -7.5z
M704.998 133.999c0 -22.667 -4.83594 -44.3311 -14.5029 -64.998s-22.5 -38.667 -38.5 -54s-34.5 -27.666 -55.5 -36.999s-42.833 -14 -65.5 -14c-17.333 0 -33.666 3.16699 -48.999 9.5s-28.666 15.166 -39.999 26.499s-20.166 24.666 -26.499 39.999
s-9.5 31.666 -9.5 48.999c0 22.667 5.16699 44.5 15.5 65.5s23.833 39.5 40.5 55.5s35.667 28.833 57 38.5s43 14.5 65 14.5c17.333 0 33.333 -3.33301 48 -10s27.5 -15.667 38.5 -27s19.5 -25 25.5 -41s9 -33 9 -51z" />
    <glyph glyph-name="at" unicode="@" horiz-adv-x="1818" 
d="M295 590c22 87.333 50.3301 171.663 84.9971 252.996s75.667 157.666 123 228.999s101 136.166 161 194.499s126.167 108.5 198.5 150.5s150.833 74.5 235.5 97.5s175.667 34.5 273 34.5c49.333 0 98.833 -3.66699 148.5 -11s97 -18.5 142 -33.5s87 -33.833 126 -56.5
s72.833 -49.334 101.5 -80.001s51.167 -65.167 67.5 -103.5s24.5 -80.833 24.5 -127.5c0 -34.667 -4.33301 -69.334 -13 -104.001c-16 -64 -38.667 -121.167 -68 -171.5s-63.666 -97.166 -102.999 -140.499s-83.166 -84.666 -131.499 -123.999l-153.5 -122
c-15.333 -11.333 -31.833 -22.666 -49.5 -33.999s-35.5 -21.5 -53.5 -30.5s-36 -16.333 -54 -22s-35.333 -8.5 -52 -8.5c-21.333 0 -39.166 2.5 -53.499 7.5s-26.666 12.167 -36.999 21.5s-19.333 20.5 -27 33.5l-24.5 42.5h-2c-24.667 -10.667 -48.167 -21.5 -70.5 -32.5
s-44.666 -21.167 -66.999 -30.5s-44.833 -17 -67.5 -23s-46.667 -9 -72 -9c-32.667 0 -61.834 5.33301 -87.501 16s-47.5 25.167 -65.5 43.5s-31.833 40.166 -41.5 65.499s-14.5 52.666 -14.5 81.999c0 39.333 9.33301 79.833 28 121.5s42.667 83 72 124s62 81 98 120
s71.333 75.5 106 109.5c14.667 14.667 34.834 32.5 60.501 53.5s53.667 41.167 84 60.5s61.5 35.833 93.5 49.5s62 20.5 90 20.5c12 0 22.167 -2.33301 30.5 -7s15.833 -10.667 22.5 -18s12.5 -15.5 17.5 -24.5s9.5 -17.833 13.5 -26.5
c6.66699 -13.333 14 -25.166 22 -35.499l23 -30.5c7.33301 -10 13.5 -20.5 18.5 -31.5s7.5 -23.5 7.5 -37.5c0 -21.333 -4.66699 -42.666 -14 -63.999s-20 -44 -32 -68c-8.66699 -15.333 -15.834 -29 -21.501 -41s-10.834 -24.833 -15.501 -38.5s-9.5 -29.667 -14.5 -48
l-18.5 -70.5l-8.5 -37c-3 -13.333 -5.66699 -26.5 -8 -39.5s-4.16602 -25.167 -5.49902 -36.5s-2 -20.666 -2 -27.999v-6c18.667 1.33301 41.334 8.83301 68.001 22.5s54.667 31 84 52s59 44 89 69s57.667 49.833 83 74.5c14.667 12 31.334 28.5 50.001 49.5
s36.667 43.5 54 67.5s33 48 47 72s23.667 45.333 29 64c2.66699 9.33301 4.5 19 5.5 29s1.5 19.667 1.5 29c0 34 -7.5 64.833 -22.5 92.5s-35 52.334 -60 74.001s-53.667 40.5 -86 56.5s-65.833 29.167 -100.5 39.5s-69 18 -103 23s-65.333 7.5 -94 7.5
c-92 0 -175.833 -10 -251.5 -30s-144.334 -48.333 -206.001 -85s-116.667 -80.667 -165 -132s-91.333 -108.333 -129 -171s-70.167 -130 -97.5 -202s-50.666 -147 -69.999 -225c-8 -33.333 -14.167 -65.5 -18.5 -96.5s-6.5 -61.167 -6.5 -90.5
c0 -55.333 7.66699 -106.166 23 -152.499s38.666 -86.166 69.999 -119.499s71 -59.333 119 -78s104.667 -28 170 -28c60 0 120.167 7.5 180.5 22.5s119.666 36 177.999 63s115.166 59.167 170.499 96.5s108 78 158 122c7.33301 5.33301 13 13.333 17 24
s8.5 21.167 13.5 31.5s11.167 19.5 18.5 27.5s18 12 32 12c11.333 0 21.5 -2.33301 30.5 -7s16.667 -11 23 -19s11.166 -17.167 14.499 -27.5s5 -20.833 5 -31.5c0 -12 -3 -27 -9 -45s-13 -34.333 -21 -49c-47.333 -51.333 -104.333 -100 -171 -146
s-137.167 -86.5 -211.5 -121.5s-149.833 -62.667 -226.5 -83s-148.667 -30.5 -216 -30.5c-88 0 -164.667 13.833 -230 41.5s-119.666 65.667 -162.999 114s-75.833 105.333 -97.5 171s-32.5 136.834 -32.5 213.501c0 73.333 9.66699 150.333 29 231zM900.997 554.997
c24.667 0 51.334 4.00098 80.001 12.001s55.667 18.333 81 31s47.166 26.667 65.499 42s29.5 30 33.5 44l9 35c5.33301 21.333 11.666 43.333 18.999 66l21 66l14 43l15.5 48c5 16 9.33301 31.5 13 46.5s5.5 28.167 5.5 39.5c0 5.33301 -1.5 10 -4.5 14s-8.16699 6 -15.5 6
c-13.333 0 -33 -7.5 -59 -22.5s-54.333 -34.833 -85 -59.5s-62.167 -52.667 -94.5 -84s-61.666 -63.333 -87.999 -96s-48 -64.834 -65 -96.501s-25.5 -59.834 -25.5 -84.501c0 -9.33301 2.16699 -17.166 6.5 -23.499s10.166 -11.5 17.499 -15.5s15.833 -6.83301 25.5 -8.5
s19.834 -2.5 30.501 -2.5z" />
    <glyph glyph-name="A" unicode="A" horiz-adv-x="1415" 
d="M1093 -11c-14 0 -26.333 2.66699 -37 8s-19.5 12.333 -26.5 21s-12.333 18.667 -16 30s-5.5 22.666 -5.5 33.999c0 10 2.66699 23.833 8 41.5s12.166 37.5 20.499 59.5s17.5 45 27.5 69l29 69c9.33301 22 17.333 42.333 24 61s11.334 33.334 14.001 44.001l10 43
l13.5 54.5l15 62l15.5 65.5c-9.33301 -2 -20.833 -3.83301 -34.5 -5.5s-28.167 -3.16699 -43.5 -4.5c-22 -2 -43.667 -5 -65 -9s-43.166 -8.5 -65.499 -13.5l-69.5 -16l-77 -17.5c-40 -8.66699 -80 -18.334 -120 -29.001s-81.667 -16 -125 -16
c-13.333 0 -25.666 3.5 -36.999 10.5s-24 12.167 -38 15.5c-13.333 -21.333 -26 -44.166 -38 -68.499s-23 -49.333 -33 -75s-19 -51 -27 -76s-15 -48.5 -21 -70.5c-3.33301 -12 -6.16602 -27.5 -8.49902 -46.5s-4.5 -38.333 -6.5 -58l-6 -56.5c-2 -18 -4 -32.333 -6 -43
c-2 -10 -6 -19.833 -12 -29.5s-13.333 -18.5 -22 -26.5s-18.334 -14.5 -29.001 -19.5s-21.334 -7.5 -32.001 -7.5c-18.667 0 -33.834 5.5 -45.501 16.5s-21 24.667 -28 41s-11.833 34.166 -14.5 53.499s-4 37 -4 53c0 40.667 5 82.834 15 126.501s23.5 88 40.5 133
s37 90.333 60 136s47.833 91.167 74.5 136.5c22 40.667 49.333 87.667 82 141s69.167 108.166 109.5 164.499s84 111.5 131 165.5s95.833 102.167 146.5 144.5s102.667 76.5 156 102.5s106.333 39 159 39c55.333 0 101.5 -10 138.5 -30s66.5 -47 88.5 -81
s37.5 -73.667 46.5 -119s13.5 -93.333 13.5 -144c0 -44.667 -2.83301 -90.667 -8.5 -138s-12.667 -93.666 -21 -138.999s-17.333 -89 -27 -131l-26.5 -114l-35 -136c-1.33301 -4 -3.83301 -12 -7.5 -24s-8.33398 -26.5 -14.001 -43.5l-19 -55l-21 -58l-20 -52.5
c-6.33301 -16 -11.833 -29 -16.5 -39l1 1c-4.66699 -17.333 -9.66699 -35 -15 -53s-12.666 -34.167 -21.999 -48.5s-21.333 -26 -36 -35s-33.667 -13.5 -57 -13.5zM1144 1241c-30 0 -59.832 -6.16504 -89.499 -18.498s-58.834 -28.5 -87.501 -48.5s-56.5 -43.333 -83.5 -70
s-52.667 -54 -77 -82s-47.166 -56.167 -68.499 -84.5l-58 -78.5l-10.5 -15.5c-4.33301 -6.33301 -8.66602 -13.333 -12.999 -21s-8.5 -15.667 -12.5 -24s-7.33301 -15.833 -10 -22.5h103c37.333 0 80 2.66699 128 8s95.5 11.666 142.5 18.999s90.167 14.833 129.5 22.5
l89 17.5c2.66699 8.66699 5.16699 20.334 7.5 35.001s4.5 31 6.5 49s3.5 37.167 4.5 57.5s1.5 41.166 1.5 62.499c0 17.333 -0.666992 37.166 -2 59.499s-5.33301 43.5 -12 63.5s-16.834 36.833 -30.501 50.5s-32.834 20.5 -57.501 20.5z" />
    <glyph glyph-name="B" unicode="B" horiz-adv-x="1239" 
d="M1235 448c0 -48 -14.1689 -97.334 -42.502 -148.001s-73.5 -98 -135.5 -142c-19.333 -13.333 -42.833 -27.833 -70.5 -43.5s-57.667 -31.5 -90 -47.5s-66.333 -31.5 -102 -46.5s-71.667 -28.167 -108 -39.5s-71.833 -20.5 -106.5 -27.5s-67.334 -10.5 -98.001 -10.5
c-15.333 0 -28.5 1.16699 -39.5 3.5s-21.167 6.5 -30.5 12.5s-18.333 14.333 -27 25s-18 24 -28 40c-16 -12 -32.833 -20.833 -50.5 -26.5s-35.5 -8.5 -53.5 -8.5h-28c-5.33301 0 -10.333 1.83301 -15 5.5s-8.83398 8.16699 -12.501 13.5s-6.5 11.166 -8.5 17.499
s-3 12.5 -3 18.5c0 34 4.83301 66.5 14.5 97.5s20.834 61.833 33.501 92.5l57 178.5l56 187.5l51.5 185.5l45.5 173.5l28 116c0 2 -0.333008 7.66699 -1 17s-1.5 19.5 -2.5 30.5s-1.83301 21.167 -2.5 30.5l-1 13l5 17l-1 -1c3.33301 12 8 25.667 14 41
s13.333 29.666 22 42.999s18.167 24.5 28.5 33.5s21.5 13.5 33.5 13.5c11.333 0 25.833 -0.833008 43.5 -2.5s33.5 -2.5 47.5 -2.5c6.66699 0 13.167 0.333008 19.5 1s14.333 2.33398 24 5.00098s22.334 6.5 38.001 11.5l61.5 20.5c38 13.333 72.833 24.5 104.5 33.5
s61.667 16.333 90 22s55.833 9.83398 82.5 12.501s54 4 82 4c35.333 0 69.5 -3.33301 102.5 -10s62.333 -17.5 88 -32.5s46.167 -34.667 61.5 -59s23 -53.833 23 -88.5c0 -59.333 -15.667 -112.666 -47 -159.999s-75.666 -91.333 -132.999 -132
s-126.166 -78.5 -206.499 -113.5s-169.833 -69.5 -268.5 -103.5c78.667 -12 146.5 -26.167 203.5 -42.5s104.167 -35.5 141.5 -57.5s65 -47 83 -75s27 -60 27 -96zM894.998 539.999l-36.498 6.99609c-17.667 3.33301 -38.334 7 -62.001 11l-76.5 12.5
c-27.333 4.33301 -53.333 8.66602 -78 12.999s-47.167 8.5 -67.5 12.5s-35.166 7.33301 -44.499 10c-25.333 -82 -47.5 -160.5 -66.5 -235.5l-57.5 -226.5l66 -7l40.5 -3.5c11.667 -1 18.5 -1.5 20.5 -1.5c26.667 2.66699 56 7.83398 88 15.501s65.167 17.334 99.5 29.001
s69.166 25.334 104.499 41.001s70 32.5 104 50.5c12.667 8 26 17.667 40 29s26.667 23.833 38 37.5s20.666 28.167 27.999 43.5s11 31 11 47c0 26.667 -14 49.834 -42 69.501s-64.333 34.834 -109 45.501zM579 771.995c37.333 12 76.667 26.1699 118 42.5029
s83.833 34.166 127.5 53.499l133 61.5l134.5 65.5h-1c16 8.66699 31.833 19.167 47.5 31.5s29.667 25.666 42 39.999s22.333 29.333 30 45s11.5 31.167 11.5 46.5c0 10 -2.33301 20 -7 30s-12 19 -22 27s-23.167 14.333 -39.5 19s-36.5 7 -60.5 7
c-33.333 0 -71 -4.16699 -113 -12.5s-82.667 -18.833 -122 -31.5s-74.333 -26.667 -105 -42s-51 -30 -61 -44c-2 -3.33301 -4.83301 -10.666 -8.5 -21.999l-12.5 -37.5c-4.66699 -13.667 -9.5 -26.834 -14.5 -39.501s-9.83301 -22 -14.5 -28
c-1.33301 -6.66699 -4 -16.834 -8 -30.501l-14.5 -48.5l-19 -62z" />
    <glyph glyph-name="C" unicode="C" horiz-adv-x="1219" 
d="M236 426c0 38.667 4.6709 82.498 14.0039 131.498s25.666 96.5 48.999 142.5c32 64 67.667 125.833 107 185.5s79.666 114.667 120.999 165s82.666 95 123.999 134s80.666 69.5 117.999 91.5l-1 -1l74 46c26 16 52.667 30.667 80 44s55 24.333 83 33s55.667 13 83 13
c28 0 54.667 -5.66699 80 -17s47.5 -26.833 66.5 -46.5s34 -42.5 45 -68.5s16.5 -53.667 16.5 -83c0 -20.667 -1.16699 -36.834 -3.5 -48.501s-6 -20.5 -11 -26.5s-11.333 -9.66699 -19 -11s-16.5 -2 -26.5 -2c-14.667 0 -26.167 3.16699 -34.5 9.5s-15 14 -20 23
s-8.83301 19 -11.5 30s-5.83398 21 -9.50098 30s-8.33398 16.667 -14.001 23s-13.5 9.5 -23.5 9.5c-26.667 0 -55.5 -6 -86.5 -18s-62.667 -28 -95 -48s-64.666 -42.833 -96.999 -68.5s-63.166 -51.834 -92.499 -78.501s-56.5 -53 -81.5 -79s-46.5 -49.333 -64.5 -70
c-26.667 -34 -51 -68.5 -73 -103.5s-41 -70.667 -57 -107s-28.333 -73.666 -37 -111.999s-13 -78.166 -13 -119.499c0 -32 4.5 -60 13.5 -84s18.833 -44.667 29.5 -62c12.667 -20 28.334 -33.833 47.001 -41.5s41 -11.5 67 -11.5c56.667 0 109 5.33301 157 16s94 25 138 43
s87 39.333 129 64l130 79h26c8.66699 0 17.5 -2.33301 26.5 -7s17 -10.667 24 -18s12.667 -15.666 17 -24.999s6.5 -19 6.5 -29c0 -22 -8.66699 -43.833 -26 -65.5s-39.5 -42.334 -66.5 -62.001s-57.5 -38.167 -91.5 -55.5s-67.5 -32.666 -100.5 -45.999
s-63.833 -24.666 -92.5 -33.999s-51.667 -15.666 -69 -18.999l-42.5 -9.5c-13.667 -3 -29.834 -6 -48.501 -9s-41 -5.33301 -67 -7s-58.667 -2.5 -98 -2.5c-24 0 -46 3.83301 -66 11.5s-37.833 16.667 -53.5 27s-29 21.166 -40 32.499s-19.833 21 -26.5 29
c-39.333 46 -68 91.333 -86 136s-27 93.667 -27 147z" />
    <glyph glyph-name="D" unicode="D" horiz-adv-x="1423" 
d="M148 150c30.667 22 61.8291 35.835 93.4961 41.502s65.167 10.167 100.5 13.5l250 1012c-2.66699 0 -10.167 0.166992 -22.5 0.5s-26 1.33301 -41 3s-29.833 4.5 -44.5 8.5s-25.667 9.66699 -33 17c-3.33301 4.66699 -7.5 10.834 -12.5 18.501s-9.83301 16 -14.5 25
s-8.66699 18.167 -12 27.5s-5 18.666 -5 27.999c0 15.333 6.5 28.166 19.5 38.499s29 18.666 48 24.999s39.5 10.833 61.5 13.5s42 4 60 4c84 0 161.833 -2.5 233.5 -7.5s138.667 -15.833 201 -32.5s121 -40.334 176 -71.001s107.5 -71.667 157.5 -123
c18.667 -19.333 36.5 -41 53.5 -65s32 -50.167 45 -78.5s23.5 -58.666 31.5 -90.999s12 -66.5 12 -102.5c0 -19.333 -1 -39.666 -3 -60.999s-4.66699 -39.666 -8 -54.999c-19.333 -77.333 -46.5 -145.833 -81.5 -205.5s-75.667 -112.667 -122 -159
s-97.166 -86.5 -152.499 -120.5s-112.666 -63.667 -171.999 -89s-119.666 -47.333 -180.999 -66s-121 -35.334 -179 -50.001h1c-26 -8 -54 -15 -84 -21s-60.333 -11 -91 -15s-61.167 -7.16699 -91.5 -9.5s-58.833 -3.5 -85.5 -3.5c-29.333 0 -54 1.83301 -74 5.5
s-36.167 8.66699 -48.5 15s-21.166 13.5 -26.499 21.5s-8 16.667 -8 26c0 13.333 3.83301 27.166 11.5 41.499s20.167 27.833 37.5 40.5zM587.995 437.002l-24.9961 -105.001l-25 -106l23 5c14.667 3.33301 34.5 8.33301 59.5 15s53.833 15 86.5 25s67 22 103 36
s74.167 30.833 114.5 50.5s80.166 42 119.499 67s77 52.167 113 81.5s67.667 60.833 95 94.5s49.166 69 65.499 106s24.5 75.5 24.5 115.5c0 40.667 -8 79.167 -24 115.5s-37.5 70 -64.5 101s-58.333 58.667 -94 83s-72.834 45.166 -111.501 62.499
s-77.834 30.5 -117.501 39.5s-77.167 13.5 -112.5 13.5c-50 -129.333 -92.667 -260.666 -128 -393.999s-69.333 -268.666 -102 -405.999z" />
    <glyph glyph-name="E" unicode="E" horiz-adv-x="1234" 
d="M214 74c0 23.333 3.33789 48.002 10.0049 74.002c22.667 90.667 49.167 179.5 79.5 266.5s57.833 173.5 82.5 259.5l61.5 217.5l43.5 152c12.667 42.333 24.334 78.833 35.001 109.5s22.334 61 35.001 91c8 18 16.833 36.667 26.5 56s20.167 37.166 31.5 53.499
s23.166 29.666 35.499 39.999s25.166 15.5 38.499 15.5c27.333 0 48.166 -4.5 62.499 -13.5s23.166 -17.167 26.499 -24.5l9 -41c10 0.666992 23 2.5 39 5.5l48.5 9.5c16.333 3.33301 31.5 6.66602 45.5 9.99902s24.667 6.33301 32 9c44 12 84.667 22.333 122 31
s72.833 15.834 106.5 21.501s65.834 9.83398 96.501 12.501s61.667 4 93 4c30.667 0 55.667 -1.66699 75 -5s34.666 -7.83301 45.999 -13.5s19.166 -12.334 23.499 -20.001s6.5 -15.834 6.5 -24.501c0 -8 -2.16699 -16.5 -6.5 -25.5s-11.5 -17.5 -21.5 -25.5
s-23 -15 -39 -21s-36 -10 -60 -12c-6 -1.33301 -19.833 -3.83301 -41.5 -7.5l-70.5 -12l-72 -12.5c-22.667 -4 -38.334 -7 -47.001 -9h1c-4 -0.666992 -13.5 -3.16699 -28.5 -7.5l-54.5 -15c-21.333 -5.66699 -44.5 -12.167 -69.5 -19.5l-74 -21.5l-67.5 -20l-50 -15.5
c-40.667 -16 -72.5 -37.167 -95.5 -63.5s-41.167 -55.833 -54.5 -88.5c-2.66699 -6 -6.66699 -16.167 -12 -30.5l-17.5 -49l-20.5 -58.5l-21 -59c-6.66699 -18.667 -12.5 -35.667 -17.5 -51s-8.5 -26.666 -10.5 -33.999c-2 -6.66699 -3.33301 -12.667 -4 -18
s-1 -9.33301 -1 -12c0 -4 1 -6 3 -6c10 0 30.833 4.5 62.5 13.5s68.667 20.167 111 33.5l136 43l139 43c44.333 13.333 83.833 24.5 118.5 33.5s59.667 13.5 75 13.5c23.333 0 39 -3.83301 47 -11.5s12 -16.167 12 -25.5c0 -24 -8.5 -45 -25.5 -63
s-38.167 -33.667 -63.5 -47c-8 -4 -22.833 -9.83301 -44.5 -17.5s-45 -15.5 -70 -23.5l-71.5 -23l-49 -16l-159.5 -62.5l-99.5 -40l-58.5 -23.5c-13.667 -5.33301 -26.334 -9.83301 -38.001 -13.5s-24.5 -7.16699 -38.5 -10.5l-58 -14c-6 -14 -13 -35.167 -21 -63.5
s-15.667 -57.666 -23 -87.999s-13.5 -58.5 -18.5 -84.5s-7.5 -44 -7.5 -54c0 -12 1.66699 -20.833 5 -26.5s7.33301 -9.5 12 -11.5s9.33398 -3 14.001 -3h11c32 0 70.5 4.66699 115.5 14s89.5 21.666 133.5 36.999c42 14.667 78.667 30.667 110 48l88.5 48.5
c27.667 15 54.667 27.667 81 38s55.166 15.833 86.499 16.5c6.66699 0 14.5 -0.666992 23.5 -2s17.5 -3.83301 25.5 -7.5s14.5 -8.5 19.5 -14.5s6.83301 -13.667 5.5 -23c-2.66699 -19.333 -12.334 -38.333 -29.001 -57s-37.667 -36.667 -63 -54s-53.666 -34 -84.999 -50
s-63.333 -31.167 -96 -45.5s-64.667 -27.333 -96 -39l-84 -30.5c-61.333 -21.333 -121 -37 -179 -47s-110 -15 -156 -15c-50.667 0 -89.5 9.5 -116.5 28.5s-40.5 50.5 -40.5 94.5z" />
    <glyph glyph-name="F" unicode="F" horiz-adv-x="1131" 
d="M685 1080c-5.33301 -8 -12.167 -21.8369 -20.5 -41.5039s-17 -42.334 -26 -68.001s-18 -52.834 -27 -81.501l-25 -80.5c-7.66699 -25 -14.167 -47 -19.5 -66s-8.66602 -31.5 -9.99902 -37.5c-1.33301 -7.33301 -3.83301 -18.333 -7.5 -33l-9.5 -38
c74.667 25.333 148.5 46.333 221.5 63s146.167 25 219.5 25c11.333 0 26.333 -0.333008 45 -1s37 -3.16699 55 -7.5s33.5 -11.166 46.5 -20.499s19.5 -22.666 19.5 -39.999c0 -0.666992 -0.333008 -4.83398 -1 -12.501s-2.66699 -16.5 -6 -26.5s-8.5 -20 -15.5 -30
s-16.5 -17.333 -28.5 -22c-7.33301 0.666992 -14.5 1 -21.5 1h-21.5c-47.333 0 -94.833 -4.16699 -142.5 -12.5s-95.667 -19.666 -144 -33.999s-96.5 -31.333 -144.5 -51s-96 -40.5 -144 -62.5l-101 -437c-1.33301 -11.333 -6.83301 -21.5 -16.5 -30.5
s-19.167 -13.5 -28.5 -13.5h-24c-25.333 0 -42.833 10.333 -52.5 31s-14.5 47.334 -14.5 80.001c0 27.333 2.33301 57.166 7 89.499s10 63.833 16 94.5l16 84c4.66699 25.333 7 44.666 7 57.999c-8 11.333 -16 23.333 -24 36s-12 28.334 -12 47.001
c0 29.333 7.66699 52.666 23 69.999s35.666 34.333 60.999 51c2.66699 2 5.5 5.66699 8.5 11s5.66699 11.333 8 18s4.33301 13.334 6 20.001s3.16699 12.334 4.5 17.001l41 148l43 152.5l35 117.5l29.5 93.5l26.5 80.5c2.66699 8.66699 7.16699 21 13.5 37s14 31.667 23 47
s19.167 28.666 30.5 39.999s23.666 17 36.999 17c30 0 50.5 -2.5 61.5 -7.5s18.167 -11.5 21.5 -19.5l9 -22c10.667 1.33301 25.834 3.83301 45.501 7.5s40 7.83398 61 12.501l58.5 13.5c18 4.33301 31 7.83301 39 10.5c44.667 12 85.667 22.333 123 31
s72.666 15.834 105.999 21.501s65.333 9.83398 96 12.501s61.667 4 93 4c14.667 0 28.334 -0.666992 41.001 -2s23.5 -3.83301 32.5 -7.5s16.167 -9 21.5 -16s8 -16.167 8 -27.5c0 -6 -1.33301 -13.5 -4 -22.5s-7 -18 -13 -27s-14.167 -17.5 -24.5 -25.5
s-23.166 -14 -38.499 -18c-4.66699 -1.33301 -13 -3.16602 -25 -5.49902s-25.833 -4.83301 -41.5 -7.5l-50 -8.5l-50.5 -8.5l-85.5 -19.5c-31.667 -7 -64.667 -14.833 -99 -23.5s-68.833 -18 -103.5 -28s-67.334 -20.333 -98.001 -31s-58.167 -21.667 -82.5 -33
s-43.5 -23 -57.5 -35z" />
    <glyph glyph-name="G" unicode="G" horiz-adv-x="1395" 
d="M1311 709c-8 -2 -22.334 -6.33691 -43.001 -13.0039l-70 -23.5l-82.5 -29l-82.5 -29l-68 -23.5c-19.333 -6.66699 -32.333 -11 -39 -13c-4.66699 -0.666992 -10.667 -2.66699 -18 -6l-22.5 -10l-22 -9.5c-7 -3 -12.5 -4.5 -16.5 -4.5c-14 0 -26.5 2.83301 -37.5 8.5
s-20.5 13.167 -28.5 22.5s-14 20.333 -18 33s-6 25.667 -6 39c0 27.333 7.66699 49 23 65s33.5 28.167 54.5 36.5s42.833 13.833 65.5 16.5s41.334 5 56.001 7c2 0 6 1 12 3l20 7c7.33301 2.66699 14.666 5 21.999 7s13.333 3 18 3l56 24c25.333 10.667 53 21.5 83 32.5
s59.833 20.667 89.5 29s55.167 12.5 76.5 12.5c24 0 45.333 -3.83301 64 -11.5s34.667 -18.334 48 -32.001s23.5 -29.667 30.5 -48s10.5 -38.5 10.5 -60.5c0 -9.33301 -0.666992 -18.833 -2 -28.5s-3.66602 -21.5 -6.99902 -35.5c-20 -74.667 -50.5 -144.167 -91.5 -208.5
s-89.167 -122.666 -144.5 -174.999s-116.333 -98.5 -183 -138.5s-135.334 -73 -206.001 -99l1 1c-11.333 -4.66699 -25.166 -9.5 -41.499 -14.5s-33.333 -9.66699 -51 -14s-35 -7.83301 -52 -10.5s-31.833 -4 -44.5 -4c-26 0 -48 0.833008 -66 2.5s-33.167 3.66699 -45.5 6
s-22.666 5.16602 -30.999 8.49902s-15.833 6.66602 -22.5 9.99902c-38 17.333 -72.833 38.166 -104.5 62.499s-58.834 52.5 -81.501 84.5s-40.334 67.5 -53.001 106.5s-19 81.5 -19 127.5c0 49.333 8 100.833 24 154.5s38 107.834 66 162.501s60.833 108.667 98.5 162
s78.5 104.5 122.5 153.5s89.833 94.5 137.5 136.5s95.167 79 142.5 111c28.667 19.333 59.5 39 92.5 59s66.833 38 101.5 54s69.834 29.167 105.501 39.5s70.5 15.5 104.5 15.5c27.333 0 54.333 -4 81 -12s50.667 -19.167 72 -33.5s38.666 -31.833 51.999 -52.5
s20 -43.667 20 -69c0 -11.333 -1.66699 -23.666 -5 -36.999c-1.33301 -5.33301 -4 -14.666 -8 -27.999s-9 -23.666 -15 -30.999l2 2c-2.66699 -8.66699 -7.16699 -13.667 -13.5 -15s-12.833 -2 -19.5 -2c-20 0 -37 5 -51 15s-27 20.833 -39 32.5s-23.833 22.5 -35.5 32.5
s-25.5 15 -41.5 15h-27c-52 -11.333 -107.333 -32.5 -166 -63.5s-117.167 -68.667 -175.5 -113s-114.166 -93.833 -167.499 -148.5s-100.333 -111.334 -141 -170.001s-73.167 -118.167 -97.5 -178.5s-36.5 -118.166 -36.5 -173.499c0 -45.333 10.333 -84.166 31 -116.499
s50.667 -64.166 90 -95.499h-1c20.667 -13.333 43.167 -24.666 67.5 -33.999s48.166 -14 71.499 -14c24 0 50.167 4.66699 78.5 14s56.666 21 84.999 35s56 29.333 83 46l73.5 46c70.667 46 130.334 100.667 179.001 164s88.667 129 120 197l4 10
c1.33301 2.66699 2.33301 5.5 3 8.5s1.33398 5.5 2.00098 7.5z" />
    <glyph glyph-name="H" unicode="H" horiz-adv-x="1492" 
d="M166 30c0 7.33301 1.16309 17.1709 3.49609 29.5039s5.16602 25 8.49902 38s6.83301 25.5 10.5 37.5s6.5 21.667 8.5 29l405 1329c3.33301 4.66699 7 8.66699 11 12c3.33301 3.33301 7.83301 6.16602 13.5 8.49902s12.5 3.5 20.5 3.5h17c14.667 0 27 -2.5 37 -7.5
s18 -11.667 24 -20s10.167 -18 12.5 -29s3.5 -22.833 3.5 -35.5c0 -10.667 -0.833008 -21.834 -2.5 -33.501s-3.5 -23 -5.5 -34s-4.16699 -21.167 -6.5 -30.5l-5.5 -22l-208 -710l95 9l324.5 72.5l324.5 72.5c12 6 22.667 18.333 32 37s18.5 43 27.5 73
s18.833 65.167 29.5 105.5s23.667 85.166 39 134.499l21 69c8.66699 33.333 16.5 67.5 23.5 102.5s15.5 66.833 25.5 95.5s22.667 52.167 38 70.5s35 27.5 59 27.5c34 0 60.333 -10.833 79 -32.5s28 -48.834 28 -81.501c0 -20.667 -7.83301 -55.334 -23.5 -104.001
l-58.5 -178l-28 -80s-19.167 -53.5 -27.5 -78.5s-15.166 -48 -20.499 -69s-8 -37.833 -8 -50.5c0 -12 1.66699 -23.833 5 -35.5s5 -24.167 5 -37.5c0 -30 -8 -55 -24 -75s-38 -40.333 -66 -61c-1.33301 -5.33301 -3.16602 -13.666 -5.49902 -24.999
s-5.16602 -23 -8.49902 -35l-13 -51c-9.33301 -36.667 -17.166 -73.334 -23.499 -110.001s-12 -73 -17 -109s-10.333 -72 -16 -108s-12.834 -71.667 -21.501 -107c-3.33301 -13.333 -9.16602 -25.166 -17.499 -35.499s-18 -19.166 -29 -26.499s-22.5 -13 -34.5 -17
s-23.333 -6 -34 -6c-16 0 -29 3.66699 -39 11s-17.833 16 -23.5 26s-9.5 20.333 -11.5 31s-3 19.667 -3 27c0 8 1.16699 21.167 3.5 39.5s5.5 39.833 9.5 64.5s8.66699 51.334 14 80.001l16 87c12.667 68 27.334 142.333 44.001 223h-7c-17.333 0 -36 -1.83301 -56 -5.5
s-44 -8.83398 -72 -15.501c-12.667 -4 -31.5 -9.33301 -56.5 -16l-85.5 -23l-103.5 -28l-110.5 -30l-271 -74c-12.667 -26 -24.5 -54.167 -35.5 -84.5s-21.167 -61 -30.5 -92s-17.833 -61.5 -25.5 -91.5l-21.5 -85c-2 -7.33301 -6.16699 -15.333 -12.5 -24
s-13.666 -16.667 -21.999 -24s-17 -13.333 -26 -18s-17.5 -7 -25.5 -7c-14.667 0 -26.834 3.16699 -36.501 9.5s-17.5 14.666 -23.5 24.999s-10.167 22 -12.5 35s-3.5 25.833 -3.5 38.5z" />
    <glyph glyph-name="I" unicode="I" horiz-adv-x="599" 
d="M343 574c6 26 13.1699 54.8311 21.5029 86.498l27 98.5l29.5 103l29.5 100l26.5 89.5l21 70.5c12.667 43.333 24.667 86.833 36 130.5s22.333 89.5 33 137.5c13.333 26 31.333 44.5 54 55.5s47.334 16.5 74.001 16.5c21.333 -11.333 38.166 -26.833 50.499 -46.5
s18.5 -41.834 18.5 -66.501c0 -17.333 -2.83301 -37.166 -8.5 -59.499s-12.834 -46.333 -21.501 -72s-18.334 -52.667 -29.001 -81s-21 -57.5 -31 -87.5l-56 -164c-18.667 -54.667 -37 -112.334 -55 -173.001c-4.66699 -16 -9.66699 -32 -15 -48l-16.5 -52l-18.5 -62.5
c-6.66699 -23 -13.334 -49.5 -20.001 -79.5c-8 -35.333 -15 -70.833 -21 -106.5s-11.667 -71.5 -17 -107.5s-11.333 -72.333 -18 -109s-14.667 -73.667 -24 -111c-3.33301 -13.333 -9.16602 -25.166 -17.499 -35.499s-17.833 -19.166 -28.5 -26.499s-22 -13 -34 -17
s-23.333 -6 -34 -6s-20.834 0.833008 -30.501 2.5s-17.167 5.5 -22.5 11.5c-8 8.66699 -14.333 18.334 -19 29.001s-7 22 -7 34c0 3.33301 0.166992 6.5 0.5 9.5s0.833008 6.16699 1.5 9.5z" />
    <glyph glyph-name="J" unicode="J" horiz-adv-x="1395" 
d="M290 454c10.667 0 19.165 -4.17188 25.498 -12.5049s11.166 -18.5 14.499 -30.5s5.5 -25 6.5 -39s1.5 -27 1.5 -39v-38c14 -22 31.833 -45.833 53.5 -71.5s46.5 -49.667 74.5 -72s58.5 -41 91.5 -56s68.167 -22.5 105.5 -22.5c40 0 77.5 9.33301 112.5 28
s67.5 43.5 97.5 74.5s57.667 66.5 83 106.5s48.166 81.5 68.499 124.5s38.333 85.833 54 128.5s29.167 82 40.5 118s20.333 67.167 27 93.5l14 54.5c17.333 70.667 32.166 138.334 44.499 203.001s18.5 128.334 18.5 191.001c0 15.333 -4.66699 24 -14 26l-248 -70
c-14 -4 -25.333 -6 -34 -6c-25.333 0 -46.5 8 -63.5 24s-25.5 39 -25.5 69s2.83301 54.167 8.5 72.5s14.667 32.166 27 41.499s28.5 15.5 48.5 18.5s44.333 4.5 73 4.5h14c16 3.33301 36.5 8 61.5 14l83.5 20.5l98 25l105 27l105.5 26.5l98.5 24
c2 0.666992 8.66699 2.33398 20 5.00098s24 5.5 38 8.5l40 8.5c12.667 2.66699 21 4 25 4c8 0 15.333 -2.33301 22 -7s12.167 -10.5 16.5 -17.5s7.83301 -15 10.5 -24s4 -17.5 4 -25.5c0 -20 -7.66699 -37.333 -23 -52s-34.666 -27.5 -57.999 -38.5
s-48.833 -20.667 -76.5 -29l-77.5 -23.5c-24 -7.33301 -44.5 -14.5 -61.5 -21.5s-26.5 -14.833 -28.5 -23.5c-3.33301 -29.333 -6.66602 -62 -9.99902 -98s-7 -70.333 -11 -103c-1.33301 -8 -4.16602 -27.333 -8.49902 -58s-10.333 -68 -18 -112s-17 -92.167 -28 -144.5
s-23.5 -103.833 -37.5 -154.5c-15.333 -55.333 -35.5 -114.333 -60.5 -177s-54.667 -123.667 -89 -183s-73.166 -114.833 -116.499 -166.5s-90.333 -94.167 -141 -127.5c-12 -7.33301 -26 -14.666 -42 -21.999s-33.5 -13.666 -52.5 -18.999s-39 -9.66602 -60 -12.999
s-41.833 -5 -62.5 -5c-34.667 0 -72.167 4.66699 -112.5 14s-80.833 22.666 -121.5 39.999s-79.834 38.166 -117.501 62.499s-71.167 51.333 -100.5 81s-52.666 61.5 -69.999 95.5s-26 69.667 -26 107c0 28.667 2.83301 53.334 8.5 74.001s14.834 37.334 27.501 50.001
s29.5 22 50.5 28s46.5 9 76.5 9z" />
    <glyph glyph-name="K" unicode="K" horiz-adv-x="1410" 
d="M617 1381c17.333 0 31.4971 -1.83398 42.4971 -5.50098s19.5 -9.5 25.5 -17.5s10.167 -18.333 12.5 -31s3.5 -27.667 3.5 -45c0 -15.333 -0.5 -29.833 -1.5 -43.5s-2.66699 -27.5 -5 -41.5s-5.16602 -28.667 -8.49902 -44l-11 -50
c-12.667 -53.333 -27.834 -106.5 -45.501 -159.5l-52.5 -163.5l-37 -122c38 10 73.833 24 107.5 42s66.5 39 98.5 63s63.333 50.833 94 80.5l94 93.5l149 159.5c49.333 55 97 111.167 143 168.5c7.33301 9.33301 15 22.666 23 39.999s17.5 34.666 28.5 51.999
s23.833 32.333 38.5 45s32.334 19 53.001 19c13.333 0 25.166 -4.33301 35.499 -13s18.833 -19.5 25.5 -32.5s11.667 -27.333 15 -43s5 -30.167 5 -43.5c0 -11.333 -1 -21 -3 -29c-37.333 -56 -77.333 -109.833 -120 -161.5s-87.167 -101.5 -133.5 -149.5
s-94 -94.833 -143 -140.5l-148.5 -134.5c68.667 -23.333 131.5 -53.666 188.5 -90.999s107.333 -82.5 151 -135.5s80.5 -114.5 110.5 -184.5s52 -149 66 -237c-4 -12 -9.66699 -23.5 -17 -34.5s-16 -20.667 -26 -29s-21.333 -15.166 -34 -20.499s-26.334 -8 -41.001 -8
c-23.333 0 -41.5 4.83301 -54.5 14.5s-23 21.834 -30 36.501s-12 31 -15 49l-8.5 51l-4 25c-7.33301 44.667 -20.833 86.5 -40.5 125.5s-42.667 73.833 -69 104.5s-55 56.834 -86 78.501s-61.5 38.167 -91.5 49.5l-29 11l-40.5 15c-15 5.33301 -30.333 10.333 -46 15
s-30.834 8.5 -45.501 11.5s-27.667 4.5 -39 4.5c-6.66699 0 -19.667 -3.83301 -39 -11.5l-63.5 -25.5l-67.5 -27c-22 -8.66699 -38.333 -14.334 -49 -17.001l-25 -102c-7.33301 -30 -12.5 -58.833 -15.5 -86.5s-5.16699 -53.834 -6.5 -78.501
c-0.666992 -20.667 -1.5 -43 -2.5 -67s-4.5 -46.333 -10.5 -67s-16.167 -38 -30.5 -52s-35.5 -21 -63.5 -21c-17.333 0 -31.166 5 -41.499 15s-18.166 22.5 -23.499 37.5s-8.66602 31 -9.99902 48s-2 32.5 -2 46.5c0 17.333 1.16699 36.833 3.5 58.5
s5.33301 43.834 9 66.501s7.83398 45.167 12.501 67.5s9.33398 42.833 14.001 61.5l233 938c12 48 43.333 72 94 72z" />
    <glyph glyph-name="L" unicode="L" horiz-adv-x="1234" 
d="M325 516l85.9951 264.998c27.333 84.667 51.5 163 72.5 235s37.667 135.667 50 191s19.166 99.333 20.499 132c8 31.333 22.167 56.333 42.5 75s43.833 28 70.5 28c16 0 29.667 -3.66699 41 -11s20.5 -17 27.5 -29s12.167 -25.5 15.5 -40.5s5 -30.167 5 -45.5
c0 -11.333 -0.666992 -21.666 -2 -30.999s-3 -18.333 -5 -27c-15.333 -61.333 -33.666 -124.666 -54.999 -189.999l-65.5 -198.5l-66.5 -201.5c-22 -67.333 -41.667 -133.333 -59 -198l-18 -68c-9.33301 -34.667 -17.333 -67.667 -24 -99s-10 -56.666 -10 -75.999
c0 -10.667 2 -19.167 6 -25.5s11.667 -9.5 23 -9.5c27.333 0 59.333 4.5 96 13.5s74.667 20 114 33s78.5 27.333 117.5 43l107.5 44.5l44.5 19l46 19.5l73.5 30.5l127 53l24.5 8.5c7 2.33301 13.5 3.5 19.5 3.5c10.667 0 19.834 -2 27.501 -6s13.667 -9.33301 18 -16
s7.5 -14.334 9.5 -23.001s3 -17.334 3 -26.001c0 -14.667 -1.16699 -27.5 -3.5 -38.5s-4.83301 -20.167 -7.5 -27.5c-8 -12.667 -18.333 -24.167 -31 -34.5s-26 -19.333 -40 -27s-27.667 -14.167 -41 -19.5s-24.333 -9.33301 -33 -12l-42.5 -16l-57.5 -22l-64 -24.5
l-62 -23.5l-51.5 -19.5c-15 -5.66699 -25.5 -9.5 -31.5 -11.5l-95.5 -36l-104.5 -38c-34.667 -12 -67.5 -22.167 -98.5 -30.5s-56.833 -12.5 -77.5 -12.5c-25.333 0 -45.166 2 -59.499 6s-27.166 9.5 -38.499 16.5s-22.833 15.5 -34.5 25.5s-27.167 21 -46.5 33
c-17.333 10.667 -29.666 25.334 -36.999 44.001s-11 38.667 -11 60c0 10.667 0.833008 23 2.5 37s3.83398 28.667 6.50098 44s5.66699 30.333 9 45s7 27.667 11 39z" />
    <glyph glyph-name="M" unicode="M" horiz-adv-x="1896" 
d="M148 88c12.667 50.667 30.332 106.999 52.999 168.999s48.834 126.667 78.501 194s62.334 135.666 98.001 204.999s72.667 136.833 111 202.5s77.666 127.667 117.999 186s80.166 110.5 119.499 156.5l42.5 47c17 18.667 36 38 57 58s43 39.833 66 59.5
s46.167 37.334 69.5 53.001s46 28.334 68 38.001s42.333 14.5 61 14.5c25.333 0 48.5 -4.33301 69.5 -13s39 -21 54 -37s26.667 -35.167 35 -57.5s12.5 -46.833 12.5 -73.5c0 -11.333 -0.833008 -22.666 -2.5 -33.999s-3.83398 -23 -6.50098 -35l-111 -558l42 62.5l61 88
l71 101l72.5 101.5l65.5 89.5l49 65.5l18 23l44 54c17.333 20.667 36.5 42.334 57.5 65.001s43.167 45 66.5 67s47 41.667 71 59s47.667 31.5 71 42.5s45.666 16.5 66.999 16.5c16 0 29.333 -3.66699 40 -11s19.334 -17.166 26.001 -29.499s11.334 -26.833 14.001 -43.5
s4 -34 4 -52c0 -28 -2.33301 -56.333 -7 -85s-10 -54.667 -16 -78c-3.33301 -18.667 -7.83301 -45.334 -13.5 -80.001l-20 -119.5l-24.5 -146l-26.5 -159.5l-27 -160l-25 -147.5l-21 -122.5c-6.33301 -36 -11.5 -64 -15.5 -84c-2 -9.33301 -5.16699 -22 -9.5 -38
s-10.666 -31.667 -18.999 -47s-19.333 -28.666 -33 -39.999s-30.5 -17 -50.5 -17c-10.667 0 -20.834 3.5 -30.501 10.5s-18.334 15.833 -26.001 26.5s-13.667 22.167 -18 34.5s-6.83301 23.5 -7.5 33.5l208 988c2 9.33301 3.66699 17.666 5 24.999s2 14.333 2 21
c0 7.33301 -0.833008 14 -2.5 20s-3.16699 11.667 -4.5 17c-2 6 -4 11.333 -6 16c-30 -22.667 -62.167 -51.5 -96.5 -86.5s-69 -74 -104 -117s-70 -88.667 -105 -137s-68.167 -96.833 -99.5 -145.5l-79.5 -120l-85.5 -126.5l-83.5 -127
c-27 -42.333 -51.5 -82.833 -73.5 -121.5c-10.667 -18.667 -21.667 -42.667 -33 -72s-23.833 -58 -37.5 -86s-28.334 -52 -44.001 -72s-33.5 -30 -53.5 -30c-15.333 0 -28.166 2.33301 -38.499 7s-18.5 10.834 -24.5 18.501s-10.333 16.667 -13 27s-4 21.5 -4 33.5
c0 15.333 1.5 30.666 4.5 45.999s6.16699 30 9.5 44c14 58.667 28.667 117 44 175l47.5 178l50.5 188.5l53 207.5l16 69.5c6 25.667 11.667 51.667 17 78s9.66602 51.833 12.999 76.5s5 46.667 5 66c0 17.333 -1.33301 31.166 -4 41.499s-7.66699 15.5 -15 15.5
c-24.667 0 -50.667 -9.16699 -78 -27.5s-55 -42.5 -83 -72.5s-55.667 -64.333 -83 -103s-53.333 -78.5 -78 -119.5s-47.667 -81.5 -69 -121.5s-39.666 -76 -54.999 -108c-3.33301 -6.66699 -8.16602 -15.834 -14.499 -27.501s-14.666 -28 -24.999 -49l-38 -80.5
c-15 -32.667 -32.667 -74 -53 -124l-70.5 -179l-90 -244c-6 -16 -16.5 -29 -31.5 -39s-30.5 -15 -46.5 -15c-34.667 0 -60.167 9.33301 -76.5 28s-24.5 41.667 -24.5 69c0 12 1.66699 25.333 5 40z" />
    <glyph glyph-name="N" unicode="N" horiz-adv-x="1617" 
d="M524 1210c4 17.333 8.99609 35.833 14.9961 55.5s14 37.667 24 54s23 30 39 41s36.333 16.5 61 16.5c23.333 0 44.166 -6.5 62.499 -19.5s34.833 -26.167 49.5 -39.5c17.333 -11.333 34 -34.333 50 -69s32.5 -77.334 49.5 -128.001l55 -172
c19.667 -64 41.334 -131 65.001 -201s50.167 -141.5 79.5 -214.5s62.666 -144.167 99.999 -213.5l21 -37.5c8 -14.333 16.167 -27.833 24.5 -40.5s16 -23.334 23 -32.001s12.167 -13 15.5 -13c2 0 4.33301 5 7 15s5.66699 22 9 36l10.5 43
c3.66699 14.667 7.16699 26.667 10.5 36l41.5 105.5c15 39.667 31.667 87.667 50 144s38.5 123.166 60.5 200.499s46.333 169 73 275c6.66699 26 13.834 55.5 21.501 88.5s15 66.667 22 101s13.167 67.833 18.5 100.5s9 61 11 85c0 4 0.333008 11 1 21
s1.83398 21.333 3.50098 34s3.83398 25.834 6.50098 39.501s6.16699 26.167 10.5 37.5s9.83301 20.666 16.5 27.999s14.667 11 24 11s20.833 -1.33301 34.5 -4s26.167 -6.66699 37.5 -12c12.667 -17.333 24.167 -38.166 34.5 -62.499s15.5 -57.166 15.5 -98.499
c0 -26 -2.66699 -57.167 -8 -93.5s-12.166 -75.333 -20.499 -117s-17.666 -84.5 -27.999 -128.5s-20.833 -86.167 -31.5 -126.5l-30.5 -111l-24.5 -83.5l-37.5 -119.5c-13 -41 -27.333 -84 -43 -129l-51 -143l-61.5 -161.5c-10 -26 -21.5 -52 -34.5 -78
s-27.833 -49.5 -44.5 -70.5s-35.5 -38 -56.5 -51s-44.5 -19.5 -70.5 -19.5c-15.333 0 -31.166 2.16699 -47.499 6.5s-30.166 13.166 -41.499 26.499c-54.667 63.333 -103.334 135.166 -146.001 215.499s-80.834 164.333 -114.501 252s-63.5 176.334 -89.5 266.001
s-49.667 175.5 -71 257.5l-6 23c-2.66699 9.33301 -5.16699 18.833 -7.5 28.5s-4.66602 18.5 -6.99902 26.5s-5 14.5 -8 19.5s-6.5 7.5 -10.5 7.5s-9 -7.33301 -15 -22s-12 -31.167 -18 -49.5s-11.5 -36.166 -16.5 -53.499l-9.5 -33l-21 -74.5l-31.5 -109.5l-38 -129
l-39.5 -131.5l-36 -117.5l-28 -87c-6 -17.333 -13.333 -39.666 -22 -66.999l-26 -82.5l-24 -75.5c-7.33301 -22.667 -12 -37.667 -14 -45c-8 -25.333 -19.833 -44.5 -35.5 -57.5s-31.5 -19.5 -47.5 -19.5c-10 0 -20 3.5 -30 10.5s-18.833 15.5 -26.5 25.5
s-14 20.833 -19 32.5s-7.5 22.167 -7.5 31.5c0 5.33301 1.66699 13.833 5 25.5s8.66602 31.5 15.999 59.5l26 103zM851.996 1464z" />
    <glyph glyph-name="O" unicode="O" horiz-adv-x="1458" 
d="M229 509c12 50 29.3311 101.164 51.998 153.497s49.334 104.833 80.001 157.5s64.834 104.5 102.501 155.5s77.667 100.333 120 148s86 92.667 131 135s90.167 81.166 135.5 116.499c21.333 14.667 41 24.334 59 29.001s37 7 57 7c21.333 0 40.333 -3.16699 57 -9.5
s33.334 -17.833 50.001 -34.5c5.33301 -6 11 -11.333 17 -16s11.667 -7 17 -7c1.33301 0 3 1.5 5 4.5s4.16699 6.5 6.5 10.5s5.16602 8.16699 8.49902 12.5s7.33301 7.5 12 9.5c11.333 5.33301 24.833 8.83301 40.5 10.5s31.5 2.5 47.5 2.5c30 0 59 -5.5 87 -16.5
s52.667 -26.5 74 -46.5c50.667 -47.333 89.167 -104 115.5 -170s39.5 -137 39.5 -213c0 -68 -10 -141.333 -30 -220c-17.333 -69.333 -42.166 -136.666 -74.499 -201.999s-70.333 -126.666 -114 -183.999s-92.334 -109.666 -146.001 -156.999s-110.834 -88 -171.501 -122
s-124 -60.5 -190 -79.5s-133 -28.5 -201 -28.5c-63.333 0 -120.166 9.66699 -170.499 29s-93 46.666 -128 81.999s-61.667 77.333 -80 126s-27.5 102.667 -27.5 162c0 25.333 1.5 50.833 4.5 76.5s7.83301 51.834 14.5 78.501zM397.998 441.997
c-7.33301 -33.333 -10.998 -63.3311 -10.998 -89.998c0 -37.333 6.5 -70.166 19.5 -98.499s31.333 -52 55 -71s52 -33.333 85 -43s69.167 -14.5 108.5 -14.5c46.667 0 94.167 7.33301 142.5 22s95.5 36 141.5 64s90.333 61.667 133 101s82.167 84 118.5 134
s68.666 104.333 96.999 163s51.166 121 68.499 187c6.66699 24 11.5 49 14.5 75s4.5 51 4.5 75c0 38.667 -4.33301 75.667 -13 111s-23 66.666 -43 93.999s-46.333 49.166 -79 65.499s-72.667 24.5 -120 24.5c-6.66699 0 -11.834 -2.83301 -15.501 -8.5
s-7.5 -12.834 -11.5 -21.501c-3.33301 -7.33301 -7.16602 -15 -11.499 -23s-10 -15.167 -17 -21.5s-15.667 -11.5 -26 -15.5s-23.166 -6 -38.499 -6c-11.333 0 -21.333 2.5 -30 7.5s-17.334 11.833 -26.001 20.5c-4 4 -7.33301 7.16699 -10 9.5s-5.66699 3.5 -9 3.5
c-6 0 -13.833 -2.66699 -23.5 -8s-19.667 -11.666 -30 -18.999s-20.333 -15 -30 -23s-17.167 -15 -22.5 -21c-45.333 -46.667 -90.5 -97.5 -135.5 -152.5s-86.5 -111.833 -124.5 -170.5s-71.167 -117.834 -99.5 -177.501s-48.833 -117.167 -61.5 -172.5zM1126 1464z" />
    <glyph glyph-name="P" unicode="P" horiz-adv-x="1347" 
d="M196 47c2.66699 12 6.5 23.3369 11.5 34.0039l16.5 36c6 13.333 12.333 29.166 19 47.499s13.334 41.166 20.001 68.499l39 160l29 118.5l35 136.5c10.667 40.667 23.5 83.167 38.5 127.5l47 137.5l49.5 146c16.667 50 31.667 101.667 45 155c0.666992 2 1 4.66699 1 8
c0 5.33301 -1.66699 8.66602 -5 9.99902s-7.66602 2 -12.999 2c-16.667 0 -30.5 2.5 -41.5 7.5s-19.667 11.5 -26 19.5s-10.833 17.167 -13.5 27.5s-4 21.166 -4 32.499c0 29.333 3.5 52.833 10.5 70.5s16 31.334 27 41.001s23 16.667 36 21s25.667 7.83301 38 10.5
s23.166 5.5 32.499 8.5s16 8.5 20 16.5c6.66699 14 12.834 28.833 18.501 44.5s12.834 30.167 21.501 43.5s19.334 24.333 32.001 33s29.334 13 50.001 13c14.667 0 27.667 -4 39 -12s21.166 -18 29.499 -30s15.5 -24.833 21.5 -38.5l16 -37.5
c68.667 -2 128.167 -6 178.5 -12s88.166 -11.333 113.499 -16c50 -9.33301 100.167 -23.333 150.5 -42s95.666 -42.834 135.999 -72.501s73.333 -64.667 99 -105s38.5 -86.5 38.5 -138.5c0 -26.667 -3 -54.334 -9 -83.001l-7 -35c-5.33301 -28 -16.5 -54 -33.5 -78
s-36.167 -45.667 -57.5 -65c-59.333 -54.667 -124.333 -100.5 -195 -137.5s-144.334 -68.167 -221.001 -93.5s-155 -46.666 -235 -63.999l-237 -49l-28 -4c-15.333 -2 -24.333 -7.66699 -27 -17c-13.333 -46 -23.833 -86.333 -31.5 -121l-21.5 -99.5l-20 -95
c-6.66699 -31.667 -15 -66.834 -25 -105.501c-3.33301 -12.667 -9.33301 -27.667 -18 -45s-19 -33.666 -31 -48.999s-25.833 -28.5 -41.5 -39.5s-32.167 -16.5 -49.5 -16.5c-12 0 -22.333 3.33301 -31 10s-15.834 15.167 -21.501 25.5s-10 21.5 -13 33.5
s-4.5 23.333 -4.5 34v11.5c0 3.66699 0.666992 7.16699 2 10.5zM593 786.004c-1.33301 -4.66699 -3.1709 -10.5029 -5.50391 -17.5029s-4.5 -14.333 -6.5 -22s-3.66699 -14.667 -5 -21s-2 -10.833 -2 -13.5c0 -3.33301 0.5 -6.16602 1.5 -8.49902s3.16699 -3.5 6.5 -3.5
c2 0 8.33301 0.833008 19 2.5s23.5 3.83398 38.5 6.50098l48.5 9l50 10c43.333 9.33301 89.666 21.166 138.999 35.499s98.5 30.5 147.5 48.5s95.833 37.333 140.5 58s84.334 42.667 119.001 66c36.667 24.667 66 49.334 88 74.001s33 51 33 79
c0 16.667 -2.16699 31.5 -6.5 44.5s-9.16602 24.833 -14.499 35.5c-20 32.667 -45 58.334 -75 77.001s-62.667 32.667 -98 42s-72.333 15.333 -111 18s-76.667 4 -114 4c-10 0 -25.167 -0.666992 -45.5 -2s-41.666 -3 -63.999 -5s-43 -4.5 -62 -7.5
s-31.833 -6.5 -38.5 -10.5c-3.33301 -2 -6.16602 -5.33301 -8.49902 -10s-4.16602 -8.66699 -5.49902 -12l-22 -55.5l-30 -79.5l-33.5 -93l-33.5 -95.5l-29.5 -87c-9 -27 -15.833 -49.167 -20.5 -66.5z" />
    <glyph glyph-name="Q" unicode="Q" horiz-adv-x="1426" 
d="M1176 -143c5.33301 -5.33301 9.16211 -11.6582 11.4951 -18.9912s3.5 -14.666 3.5 -21.999c0 -16.667 -5.5 -31.667 -16.5 -45s-24 -24.5 -39 -33.5s-30.5 -15.833 -46.5 -20.5s-29 -7 -39 -7c-10.667 0 -21 2.66699 -31 8s-19 11.666 -27 18.999s-15 14.666 -21 21.999
l-13 16c-17.333 24 -33.166 48.5 -47.499 73.5s-27.5 51.167 -39.5 78.5s-23.5 56 -34.5 86s-21.833 62 -32.5 96c-10 -1.33301 -21.667 -2.66602 -35 -3.99902s-27 -2.5 -41 -3.5s-27.667 -1.83301 -41 -2.5s-24.666 -1 -33.999 -1c-72.667 0 -135.834 11.667 -189.501 35
s-99.5 62 -137.5 116c-24.667 34.667 -43.5 74.167 -56.5 118.5s-19.5 93.166 -19.5 146.499c0 50 7.33301 101.667 22 155s34.834 106.666 60.501 159.999s56.334 105.666 92.001 156.999s74.334 100.166 116.001 146.499s85.667 89.166 132 128.499
s93.5 73.166 141.5 101.499s95.667 50.5 143 66.5s93 24 137 24c18 0 32.5 -2.16699 43.5 -6.5l36.5 -14.5l33 -14c18.667 -3.33301 35.834 -6.83301 51.501 -10.5s30.834 -8 45.501 -13s29.5 -11.167 44.5 -18.5s31.167 -16.333 48.5 -27
c28 -17.333 52.167 -41.333 72.5 -72s37 -64.667 50 -102s22.667 -76.833 29 -118.5s9.5 -82.167 9.5 -121.5c0 -77.333 -14.667 -151.833 -44 -223.5s-68.833 -139.667 -118.5 -204s-107.5 -124.333 -173.5 -180s-135.333 -105.834 -208 -150.501
c-6.66699 -3.33301 -11.5 -6.33301 -14.5 -9s-4.5 -6.33398 -4.5 -11.001c9.33301 -35.333 19.333 -66.333 30 -93s23 -51.334 37 -74.001s30.167 -44.5 48.5 -65.5s40.166 -43.5 65.499 -67.5zM427.996 603.008c-4.66699 -18.667 -8.33594 -37.001 -11.0029 -55.001
s-4 -35.333 -4 -52c0 -30 4.33301 -58.167 13 -84.5s21.834 -49.166 39.501 -68.499s40.167 -34.5 67.5 -45.5s60 -16.5 98 -16.5c14.667 0 27.834 0.333008 39.501 1s22.5 1.5 32.5 2.5s19.833 2.5 29.5 4.5l29.5 6l-7.5 43.5c-3 17 -5.83301 34.333 -8.5 52
s-4.83398 34 -6.50098 49s-2.5 26.5 -2.5 34.5s0.666992 17.667 2 29s5.16602 22.166 11.499 32.499s15.833 19.166 28.5 26.499s30.334 11 53.001 11c25.333 0 44.333 -7.83301 57 -23.5s22.5 -35.167 29.5 -58.5s12.5 -48.5 16.5 -75.5s10 -52.167 18 -75.5
c44.667 26.667 89.167 57.5 133.5 92.5s85.833 74.167 124.5 117.5s73.167 91.5 103.5 144.5s53.833 111.5 70.5 175.5c4 16.667 7.16699 33.334 9.5 50.001s3.5 33.334 3.5 50.001c0 34 -4.66699 68.167 -14 102.5s-23.833 65.166 -43.5 92.499s-45 49.666 -76 66.999
s-67.833 26 -110.5 26c-30 0 -58.833 -2.16699 -86.5 -6.5s-55.5 -11.5 -83.5 -21.5s-57.167 -23.167 -87.5 -39.5s-62.833 -36.5 -97.5 -60.5c-42.667 -29.333 -83.667 -64.166 -123 -104.499s-75.166 -83.666 -107.499 -129.999s-60.666 -94.5 -84.999 -144.5
s-42.833 -99.333 -55.5 -148z" />
    <glyph glyph-name="R" unicode="R" horiz-adv-x="1428" 
d="M238 126l118.003 452.501l118 452.5c4.66699 20 9.33398 39 14.001 57s9 36 13 54s7.16699 36.167 9.5 54.5s3.5 37.5 3.5 57.5c0 15.333 -1 29.333 -3 42s-3 27 -3 43c0 15.333 2 31.666 6 48.999c10 40.667 24.167 71 42.5 91s46.166 30 83.499 30
c15.333 0 30.166 -1.5 44.499 -4.5s28.5 -6.5 42.5 -10.5c15.333 -4.66699 31.166 -8.66699 47.499 -12s32.833 -5 49.5 -5c13.333 0 26.333 0.666992 39 2s27.167 2.66602 43.5 3.99902s35.666 2.66602 57.999 3.99902s50.5 2 84.5 2c18.667 0 40.667 -0.666992 66 -2
s51.666 -4.33301 78.999 -9s55 -11.5 83 -20.5s54.167 -21.167 78.5 -36.5s45.833 -34.166 64.5 -56.499s32.667 -49.166 42 -80.499c4.66699 -15.333 7.83398 -29.333 9.50098 -42s2.5 -25 2.5 -37c0 -40.667 -10.333 -80.667 -31 -120
c-23.333 -44.667 -54.833 -86.5 -94.5 -125.5s-85.834 -75.833 -138.501 -110.5c-20.667 -14 -44.667 -28.5 -72 -43.5l-80.5 -43l-71 -37.5c-21 -11.333 -35.5 -20 -43.5 -26l70 -35.5c23.333 -12.333 47.166 -27.166 71.499 -44.499s49 -38.333 74 -63
s51 -54.834 78 -90.501s55 -77.834 84 -126.501s59.167 -106 90.5 -172c8 -16 12 -33 12 -51c0 -14 -2.83301 -28 -8.5 -42s-13.334 -26.667 -23.001 -38s-21.167 -20.5 -34.5 -27.5s-27.666 -10.5 -42.999 -10.5c-23.333 0 -42.666 8.66699 -57.999 26s-30 40 -44 68
s-28.5 59.667 -43.5 95s-33.5 71 -55.5 107c-24 38.667 -50.5 75.334 -79.5 110.001s-59.833 64.667 -92.5 90s-66.334 45.5 -101.001 60.5s-69.334 22.5 -104.001 22.5h-15c-20.667 0 -39.167 -1.83301 -55.5 -5.5s-32.166 -6.83398 -47.499 -9.50098
c-20.667 7.33301 -35.667 19.333 -45 36s-14 35.334 -14 56.001v14l-80 -315l-11 -41l-16 -57l-18.5 -65l-18 -64l-15 -54c-4.33301 -16 -7.5 -28 -9.5 -36c-9.33301 -16.667 -21.166 -29.834 -35.499 -39.501s-29.833 -14.5 -46.5 -14.5
c-29.333 0 -49.666 8.83301 -60.999 26.5s-17 38.167 -17 61.5c0 9.33301 0.666992 18.833 2 28.5s3 18.834 5 27.501zM729.003 1254l-17.501 -57.998l-25.5 -86l-30 -103l-32 -110.5l-31 -107.5l-27 -93c13.333 17.333 33.333 32.833 60 46.5s56.667 26.5 90 38.5
c26 9.33301 58 22.5 96 39.5s77.833 36.5 119.5 58.5s83.334 45.833 125.001 71.5s79 52 112 79s59.833 54 80.5 81s31 53.167 31 78.5c0 24.667 -8.66699 44.167 -26 58.5s-39 25.166 -65 32.499s-54.5 12.166 -85.5 14.499s-59.833 3.5 -86.5 3.5c-48 0 -96 -3 -144 -9
s-96 -17.667 -144 -35z" />
    <glyph glyph-name="S" unicode="S" horiz-adv-x="1253" 
d="M205 231c22.667 -8 45.8311 -17.3301 69.498 -27.9971s48.167 -20.834 73.5 -30.501s51.833 -17.834 79.5 -24.501s57.167 -10 88.5 -10c36.667 0 73.667 4.33301 111 13s73.833 21.5 109.5 38.5s69.834 37.667 102.501 62s62.667 52.5 90 84.5c30 34 55 64.833 75 92.5
s36.167 52.334 48.5 74.001s21.166 40.334 26.499 56.001s8 29.167 8 40.5c0 16.667 -5.66699 31.167 -17 43.5s-26.5 22.5 -45.5 30.5s-40.5 13.833 -64.5 17.5s-49 5.5 -75 5.5c-15.333 0 -33.333 -0.5 -54 -1.5l-63 -3c-21.333 -1 -42 -1.83301 -62 -2.5
s-37.333 -1 -52 -1c-22 0 -44.833 2.5 -68.5 7.5s-46.834 13.167 -69.501 24.5s-43.667 26.666 -63 45.999s-35.333 43.333 -48 72c-4 9.33301 -7.66699 20.333 -11 33s-5 26.334 -5 41.001c0 16 1.16699 31.167 3.5 45.5s5.16602 28.166 8.49902 41.499
c9.33301 33.333 24.833 67.166 46.5 101.499s47.667 67.833 78 100.5s63.333 64.334 99 95.001s72.334 59.5 110.001 86.5s74.667 51.333 111 73s70.166 40.167 101.499 55.5c44 21.333 88.833 36.833 134.5 46.5s90.834 14.5 135.501 14.5c26.667 0 52 -3.5 76 -10.5
s45.167 -17.167 63.5 -30.5s32.833 -29.833 43.5 -49.5s16 -42.167 16 -67.5c0 -14.667 -1.66699 -27 -5 -37s-7.66602 -18.167 -12.999 -24.5s-11.166 -10.833 -17.499 -13.5s-12.833 -4 -19.5 -4c-18 0 -34.5 2 -49.5 6s-29.5 8.5 -43.5 13.5s-28 9.66699 -42 14
s-29.333 6.5 -46 6.5c-49.333 0 -99.5 -9.83301 -150.5 -29.5s-100.667 -44.667 -149 -75s-94 -64.166 -137 -101.499s-81.5 -73.666 -115.5 -108.999c-18 -18.667 -31.167 -37.334 -39.5 -56.001s-12.5 -36.334 -12.5 -53.001c0 -24.667 10.667 -44 32 -58
s47.333 -21 78 -21c18 0 38.333 0.333008 61 1s45.834 1.5 69.501 2.5l69 3c22.333 1 42.166 1.5 59.499 1.5c41.333 0 81 -5.83301 119 -17.5s71.667 -28.834 101 -51.501s52.833 -50.834 70.5 -84.501s26.5 -72.167 26.5 -115.5c0 -26.667 -4 -53.667 -12 -81
s-19 -54.833 -33 -82.5s-30 -55 -48 -82s-37 -53.5 -57 -79.5c-36 -46.667 -76.167 -90.667 -120.5 -132s-91.5 -77.333 -141.5 -108s-102.833 -55 -158.5 -73s-112.834 -27 -171.501 -27c-25.333 0 -51.333 2.33301 -78 7s-53 11.5 -79 20.5s-50.5 20.333 -73.5 34
s-43.167 29.167 -60.5 46.5s-31.166 36.5 -41.499 57.5s-15.5 43.833 -15.5 68.5c0 12 1.83301 23.5 5.5 34.5s12.834 16.5 27.501 16.5zM712.997 1464z" />
    <glyph glyph-name="T" unicode="T" horiz-adv-x="1313" 
d="M644 161c25.333 110.667 53.8301 222.336 85.4971 335.003l92.5 335l33.5 125.5c9.66699 37.667 17.834 71.834 24.501 102.501s11.667 58.5 15 83.5s5 48.167 5 69.5v13.5c0 5 -0.333008 11.167 -1 18.5c-6.66699 0 -21.5 -3.66699 -44.5 -11s-50 -17 -81 -29
s-63.667 -25.5 -98 -40.5s-66.166 -30.167 -95.499 -45.5l-58.5 -30c-15.667 -8 -29.167 -14.167 -40.5 -18.5s-21.666 -7.33301 -30.999 -9s-19 -2.5 -29 -2.5c-20.667 0 -38.5 8 -53.5 24s-22.5 36.667 -22.5 62c0 14.667 1.5 27.5 4.5 38.5s7.66699 20.833 14 29.5
s14.833 16.834 25.5 24.501s23.667 15.5 39 23.5c168.667 88 339.334 152.5 512.001 193.5s346 61.5 520 61.5c14 0 30.667 -0.333008 50 -1s39.166 -1.83398 59.499 -3.50098s40.166 -4 59.499 -7s36.333 -6.5 51 -10.5c15.333 -4.66699 28.666 -14.334 39.999 -29.001
s17 -30.334 17 -47.001c0 -13.333 -1.16699 -26.333 -3.5 -39s-6.5 -23.667 -12.5 -33s-13.833 -16.833 -23.5 -22.5s-21.5 -8.5 -35.5 -8.5c-24 2.66699 -51.5 6 -82.5 10s-62.167 6 -93.5 6c-62.667 0 -125.167 -1.5 -187.5 -4.5s-126.166 -11.833 -191.499 -26.5
c-3.33301 -1.33301 -5.5 -4.83301 -6.5 -10.5s-1.83301 -12.834 -2.5 -21.501c-2 -36 -5 -67.667 -9 -95s-9.5 -54.666 -16.5 -81.999s-15.5 -56.833 -25.5 -88.5l-35 -114l-46.5 -159c-17.667 -61.667 -37.167 -136.167 -58.5 -223.5l-48 -194
c-11.333 -44.667 -20.166 -84.834 -26.499 -120.501s-11.833 -70.834 -16.5 -105.501c-2.66699 -11.333 -12.834 -22 -30.501 -32s-38.5 -15 -62.5 -15c-14 0 -26.667 3.83301 -38 11.5s-20.666 17.5 -27.999 29.5s-12.333 25.167 -15 39.5s-2 28.5 2 42.5z" />
    <glyph glyph-name="U" unicode="U" horiz-adv-x="1444" 
d="M320 481c14.667 67.333 30.5049 127.494 47.5049 180.494s33.833 102.333 50.5 148l47.5 131c15 41.667 28.167 84.834 39.5 129.501l12 48c2.66699 12 5 27 7 45l6.5 56.5c2.33301 19.667 5.5 39.167 9.5 58.5s9.83301 36.666 17.5 51.999s17.5 27.833 29.5 37.5
s27.333 14.5 46 14.5c20.667 0 38.167 -3.66699 52.5 -11s25.833 -17 34.5 -29s15 -25.833 19 -41.5s6 -31.834 6 -48.501c0 -14 -0.833008 -28 -2.5 -42s-4.16699 -27 -7.5 -39c-7.33301 -30 -19.333 -65 -36 -105l-55 -132.5c-20 -48.333 -40.333 -100.666 -61 -156.999
s-39 -115.833 -55 -178.5c-9.33301 -35.333 -17.5 -74 -24.5 -116s-10.5 -80 -10.5 -114c0 -27.333 2.33301 -53.166 7 -77.499s13 -45.666 25 -63.999s28.167 -32.833 48.5 -43.5s46.166 -16 77.499 -16c24 0 48.833 2 74.5 6s56.167 13.667 91.5 29
c52 23.333 101.167 53.5 147.5 90.5s89.333 79.167 129 126.5s76.334 98.333 110.001 153s64.167 111.334 91.5 170.001s51.5 118 72.5 178s38.833 119 53.5 177c6 24.667 10.667 47.834 14 69.501s5.83301 43.834 7.5 66.501s3 47 4 73s2.83301 55.667 5.5 89
c2 26.667 9.5 49.834 22.5 69.501s32.833 29.5 59.5 29.5c16.667 0 31.167 -6.66699 43.5 -20s22.5 -29.833 30.5 -49.5s14 -40.5 18 -62.5s6 -41.667 6 -59c0 -33.333 -3.33301 -69.333 -10 -108s-14.667 -75.667 -24 -111c-19.333 -76.667 -42.5 -153.667 -69.5 -231
s-59.167 -153 -96.5 -227s-80.833 -145.833 -130.5 -215.5s-106.834 -134.834 -171.501 -195.501c-32 -30 -66.667 -59.5 -104 -88.5s-76.333 -55.167 -117 -78.5s-82.334 -42.166 -125.001 -56.499s-85 -21.5 -127 -21.5c-60.667 0 -113.334 8.5 -158.001 25.5
s-81.834 40.833 -111.501 71.5s-51.834 67.167 -66.501 109.5s-22 88.833 -22 139.5c0 24 2 50.5 6 79.5s9 57.5 15 85.5z" />
    <glyph glyph-name="V" unicode="V" horiz-adv-x="1333" 
d="M397 1132c0 16 -0.834961 30.166 -2.50195 42.499s-3.5 24 -5.5 35s-3.83301 21.833 -5.5 32.5s-2.5 22.334 -2.5 35.001c0 16.667 1.5 32.834 4.5 48.501s8 29.667 15 42s16.5 22.333 28.5 30s27.333 11.5 46 11.5c26.667 0 48 -5.66699 64 -17s28.333 -25.833 37 -43.5
s14.5 -37.667 17.5 -60s4.5 -44.5 4.5 -66.5c0 -19.333 -1.83301 -49.333 -5.5 -90s-7.5 -91.334 -11.5 -152.001s-7.83301 -131 -11.5 -211s-5.5 -168.333 -5.5 -265c0 -30.667 1.33301 -64.834 4 -102.501s8 -73.5 16 -107.5s19.333 -63.833 34 -89.5
s34.334 -42.167 59.001 -49.5c61.333 57.333 117.5 119.333 168.5 186s97.167 134 138.5 202s78.666 134.667 111.999 200l90 179l68.5 143.5l55 119.5c16.333 36.667 30.666 70.834 42.999 102.501s23.5 62.167 33.5 91.5c2.66699 6.66699 7 16.334 13 29.001
s15.667 23.667 29 33c17.333 12.667 45 19 83 19c23.333 0 40.333 -5.16699 51 -15.5s16 -24.833 16 -43.5c0 -6.66699 -0.166992 -14.5 -0.5 -23.5s-2.16602 -17.167 -5.49902 -24.5c-15.333 -40.667 -35.666 -87.167 -60.999 -139.5l-79 -166.5l-81 -169.5l-86 -170
l-88.5 -160c-29.667 -51 -58.834 -97.833 -87.501 -140.5c-25.333 -38 -60 -86.833 -104 -146.5s-102.333 -131.167 -175 -214.5l-34 -36.5c-11.333 -11.667 -23.333 -22.167 -36 -31.5s-26.334 -16.833 -41.001 -22.5s-30.667 -8.5 -48 -8.5c-26.667 0 -50 5.66699 -70 17
s-37.833 25.5 -53.5 42.5s-29.167 35.833 -40.5 56.5s-21.666 40.667 -30.999 60c-12 24 -22.167 50.333 -30.5 79s-15.166 58.5 -20.499 89.5s-9.33301 62.667 -12 95s-4 64.166 -4 95.499c0 4 0.166992 15.833 0.5 35.5s0.833008 45 1.5 76s1.33398 66.167 2.00098 105.5
l2 123.5c0.666992 43 1.16699 87 1.5 132s0.5 88.167 0.5 129.5v48z" />
    <glyph glyph-name="W" unicode="W" horiz-adv-x="1894" 
d="M272 448c14.667 60.667 33.833 124.006 57.5 190.006l74.5 202l77 209.5c25.333 71 47 141.833 65 212.5c4.66699 17.333 8.66699 33.333 12 48s6.66602 30.334 9.99902 47.001c8 17.333 18.833 30.666 32.5 39.999s28.5 14 44.5 14c14.667 0 28.5 -2.33301 41.5 -7
s24.333 -12.167 34 -22.5s17.334 -23.5 23.001 -39.5s8.5 -35 8.5 -57c0 -24 -3.66699 -51.333 -11 -82l-79 -196l-77.5 -188c-25 -61.333 -48.167 -122 -69.5 -182s-39.666 -119.333 -54.999 -178c-1.33301 -4.66699 -4 -14.834 -8 -30.501s-8.16699 -34.5 -12.5 -56.5
s-8.16602 -45.5 -11.499 -70.5s-5 -49.167 -5 -72.5c0 -16 1 -31.167 3 -45.5s5.33301 -26.833 10 -37.5s11 -19 19 -25s18 -9 30 -9c25.333 0 56.333 13.167 93 39.5s76.334 62.166 119.001 107.499s86.5 98.333 131.5 159s88.833 125.667 131.5 195
s82.334 140.666 119.001 213.999s67.667 145.666 93 216.999c6 12.667 13.333 20.834 22 24.501s20 5.5 34 5.5c26 0 47.833 -7.83301 65.5 -23.5s26.5 -35.834 26.5 -60.501c0 -6 -0.666992 -11.667 -2 -17s-3.33301 -11.666 -6 -18.999l-14 -41l-30.5 -86.5
c-9.66699 -26.333 -17.5 -51.166 -23.5 -74.499c-8.66699 -33.333 -15.667 -63.833 -21 -91.5s-9.5 -53.667 -12.5 -78s-5 -48.166 -6 -71.499s-1.5 -47 -1.5 -71c0 -9.33301 0.833008 -23 2.5 -41s4.16699 -37.833 7.5 -59.5s7.83301 -43.667 13.5 -66
s12.334 -42.833 20.001 -61.5s16.667 -33.834 27 -45.501s22.166 -17.5 35.499 -17.5c20.667 0 42.5 8.5 65.5 25.5s46.167 40.333 69.5 70s46.833 64.5 70.5 104.5s46.667 83 69 129s43.666 93.667 63.999 143s39 98.166 56 146.499s32 95 45 140s23.5 86.167 31.5 123.5
c7.33301 35.333 13.666 69.666 18.999 102.999l16 100c5.33301 33.333 11.166 66.833 17.499 100.5s14.166 68.167 23.499 103.5c3.33301 12.667 8.33301 25.667 15 39s14.834 25.5 24.501 36.5s20.167 20 31.5 27s23 10.5 35 10.5c30 0 50.333 -8.16699 61 -24.5
s16 -43.5 16 -81.5c0 -28 -2.5 -60.667 -7.5 -98s-11.333 -76.5 -19 -117.5s-16.167 -82.5 -25.5 -124.5s-18.666 -81.667 -27.999 -119c-18.667 -76 -43.334 -154.833 -74.001 -236.5s-64.834 -161.334 -102.501 -239.001s-77.667 -150.834 -120 -219.501
s-84.833 -127.667 -127.5 -177c-14.667 -17.333 -32 -35 -52 -53s-41.5 -34.333 -64.5 -49s-46.333 -26.834 -70 -36.501s-46.5 -14.5 -68.5 -14.5c-46 0 -84.5 13.5 -115.5 40.5s-56.333 63 -76 108s-34.667 96.333 -45 154s-17.833 117.167 -22.5 178.5l-102.5 -148
c-31 -43.333 -62.5 -83.333 -94.5 -120l-81 -88.5c-30 -31.667 -61.833 -61 -95.5 -88s-68.167 -49.333 -103.5 -67s-70 -26.5 -104 -26.5c-39.333 0 -72.166 6.83301 -98.499 20.5s-47.5 32.5 -63.5 56.5s-27.5 52.333 -34.5 85s-10.5 68 -10.5 106
c0 44 3.66699 89.333 11 136s16.666 93.334 27.999 140.001z" />
    <glyph glyph-name="X" unicode="X" horiz-adv-x="1458" 
d="M1099 49c-5.33301 20 -12.667 43.168 -22 69.501s-20.166 54 -32.499 83s-25.666 58.667 -39.999 89s-28.833 59.5 -43.5 87.5s-29.167 53.833 -43.5 77.5s-27.5 43.5 -39.5 59.5l-65 -52l-75 -60.5l-79.5 -63c-27 -21 -53.5 -40.5 -79.5 -58.5l-72.5 -50l-87.5 -58
l-94 -58.5c-32 -19 -62.667 -36 -92 -51s-56.5 -27.167 -81.5 -36.5s-45.5 -14 -61.5 -14c-25.333 0 -43.5 8.16699 -54.5 24.5s-16.5 34.5 -16.5 54.5c0 18.667 2.16699 34.334 6.5 47.001s14.833 23 31.5 31c139.333 67.333 271.333 143.833 396 229.5
s238.334 180.5 341.001 284.5l-20.5 57l-27 75.5l-30.5 84l-31 84l-28 74l-21 54.5c-13.333 33.333 -28 61 -44 83l-45 60c-14 18 -25.667 35.667 -35 53s-14 38 -14 62c0 10.667 2.33301 21.834 7 33.501s11.334 22.5 20.001 32.5s19 18.167 31 24.5s25.333 9.5 40 9.5
c16 0 31.167 -3 45.5 -9s27.333 -13.667 39 -23s22.167 -20 31.5 -32s17.333 -24 24 -36c22.667 -41.333 44.167 -88.333 64.5 -141s39.166 -104.834 56.499 -156.501l48 -142.5c14.667 -43.333 27.667 -76.333 39 -99l129.5 140.5c40.333 45 78 89 113 132
s67.167 85.5 96.5 127.5s55.333 84.667 78 128c11.333 21.333 20.666 42.833 27.999 64.5s17 41.167 29 58.5c9.33301 10 21 18.167 35 24.5s30.667 9.5 50 9.5c14 0 25.833 -2.83301 35.5 -8.5s17.5 -13.167 23.5 -22.5s10.333 -20 13 -32s4 -24.333 4 -37
c0 -9.33301 -0.5 -18.5 -1.5 -27.5s-2.5 -17.167 -4.5 -24.5c-10 -34.667 -23.667 -67.667 -41 -99s-37.333 -62.333 -60 -93s-47.334 -61.334 -74.001 -92.001l-83 -96l-113.5 -129l-89 -98l-61 -67c-15.667 -17.333 -25.834 -30 -30.501 -38
c0 -6.66699 2 -13.834 6 -21.501s8.33301 -15.167 13 -22.5c53.333 -84 97.5 -157.167 132.5 -219.5s63 -115.333 84 -159s35.667 -78.667 44 -105s12.5 -45.5 12.5 -57.5c0 -10.667 -1.5 -22.167 -4.5 -34.5s-8 -23.833 -15 -34.5s-16 -19.667 -27 -27
s-24.167 -11 -39.5 -11c-64 0 -106.667 29.333 -128 88z" />
    <glyph glyph-name="Y" unicode="Y" horiz-adv-x="1395" 
d="M290 -153c0 16 4.16699 32.165 12.5 48.498s19.666 33.333 33.999 51s31 36.167 50 55.5l59.5 61l124 125c43.333 43.333 84.666 88 123.999 134l40 49c10 12.667 17.5 23.167 22.5 31.5s8.33301 15.5 10 21.5s2.83398 12 3.50098 18c-28 36 -52.833 75 -74.5 117
s-41 85.833 -58 131.5s-32.333 91.834 -46 138.501l-38.5 137c-11.333 40.667 -22.166 81.667 -32.499 123s-23.833 77 -40.5 107c-12.667 22.667 -23.5 46.167 -32.5 70.5s-13.5 51.166 -13.5 80.499c0 12.667 1.5 27.5 4.5 44.5s8.33301 32.833 16 47.5
s17.667 27.167 30 37.5s27.5 15.5 45.5 15.5c19.333 0 37.333 -6.66699 54 -20s31.667 -30.166 45 -50.499s24.666 -42.333 33.999 -66s16.666 -45.5 21.999 -65.5l24.5 -107l29 -131l28.5 -127c9.33301 -40 17.666 -72 24.999 -96c8.66699 -30 18 -58.167 28 -84.5
s20 -49 30 -68s19.833 -34 29.5 -45s18.834 -16.5 27.501 -16.5c6.66699 0 17 9 31 27l170.5 233.5l172.5 246.5l55 83c16 25.333 30.5 49.5 43.5 72.5s24.833 45.333 35.5 67s20.667 43.5 30 65.5l26 105c2.66699 10.667 7.16699 21.5 13.5 32.5s13.666 21 21.999 30
s18 16.333 29 22s23.167 8.5 36.5 8.5c17.333 0 32.333 -3.5 45 -10.5s23 -16.167 31 -27.5s14 -24.5 18 -39.5s6 -30.5 6 -46.5c0 -18 -3.5 -38.667 -10.5 -62s-16.167 -47.333 -27.5 -72s-24 -49 -38 -73s-27.667 -45.667 -41 -65l-290.5 -413.5
c-98.333 -139.667 -198.166 -273.5 -299.499 -401.5c-90 -114 -178.167 -219.667 -264.5 -317s-165.166 -182.333 -236.499 -255c-15.333 -15.333 -32.666 -29.666 -51.999 -42.999s-39.666 -20 -60.999 -20c-11.333 0 -20.833 2.5 -28.5 7.5s-13.834 11.5 -18.501 19.5
s-8.16699 17.167 -10.5 27.5s-3.5 20.5 -3.5 30.5z" />
    <glyph glyph-name="Z" unicode="Z" horiz-adv-x="1690" 
d="M172 108c7.33301 30 20.8379 57.332 40.5049 81.999s40.167 44.667 61.5 60c7.33301 4.66699 18.166 13.167 32.499 25.5l49.5 43l60 53l64 57.5l61.5 55l52.5 46l288.5 252.5l228 200l172 151l121.5 105.5l75 64.5l33 28.5c-15.333 2 -31.333 3.33301 -48 4
s-32.334 1 -47.001 1c-30.667 0 -59.5 -1.16699 -86.5 -3.5s-52.833 -5.66602 -77.5 -9.99902s-48.667 -9.16602 -72 -14.499l-71 -17l-96.5 -26l-86 -25c-26.333 -8 -50 -15.5 -71 -22.5l-52.5 -17.5c-15.333 -5.33301 -32.833 -10.833 -52.5 -16.5s-42.5 -8.5 -68.5 -8.5
c-17.333 0 -32.166 3.66699 -44.499 11s-22.5 16.666 -30.5 27.999s-13.833 23.5 -17.5 36.5s-5.5 25.5 -5.5 37.5s1.83301 24.167 5.5 36.5s9 23.833 16 34.5s15.5 19.334 25.5 26.001s21.667 10 35 10c10 0 25.833 0.833008 47.5 2.5s44.5 4.5 68.5 8.5
c6 0.666992 17.833 3.16699 35.5 7.5s38.5 9.16602 62.5 14.499l76 17.5l76 18.5c33.333 8 64.5 15 93.5 21s60.5 10.667 94.5 14s73.167 5.83301 117.5 7.5s98.5 2.5 162.5 2.5c36.667 0 68.167 -1.16699 94.5 -3.5s49 -6.83301 68 -13.5s35 -16 48 -28
s24.5 -27.667 34.5 -47c4 -8 6.66699 -15.167 8 -21.5s2 -12.166 2 -17.499c0 -19.333 -3.33301 -36.666 -10 -51.999s-15.334 -29.333 -26.001 -42s-22.167 -24.334 -34.5 -35.001l-35.5 -31l-587 -512l-583 -510c44.667 4.66699 95 9.66699 151 15s114.5 11.333 175.5 18
s123 14.334 186 23.001s123.833 19 182.5 31c25.333 6.66699 49.166 14.167 71.499 22.5s42.166 16.333 59.499 24s31.833 14.667 43.5 21s19.5 10.833 23.5 13.5c7.33301 3.33301 18.666 11.333 33.999 24s32.5 26 51.5 40s38.833 26.5 59.5 37.5s40.334 16.5 59.001 16.5
c16 0 31 -5.33301 45 -16s21 -25.334 21 -44.001c0 -13.333 -5.5 -28.166 -16.5 -44.499s-25.833 -33.833 -44.5 -52.5s-40.834 -37.834 -66.501 -57.501s-52.834 -38.834 -81.501 -57.501c-4.66699 -3.33301 -11.167 -7.33301 -19.5 -12l-28 -15.5
c-10.333 -5.66699 -21 -11.167 -32 -16.5s-21.5 -10 -31.5 -14c-70.667 -28.667 -135.167 -49.5 -193.5 -62.5s-113.333 -22.5 -165 -28.5s-101.667 -10.667 -150 -14s-97.833 -9.33301 -148.5 -18l-104 -18.5l-110 -19.5c-35.333 -6 -67.166 -11.167 -95.499 -15.5
s-47.833 -6.5 -58.5 -6.5c-45.333 0 -78.5 8.5 -99.5 25.5s-31.5 40.5 -31.5 70.5c0 7.33301 0.333008 14.5 1 21.5s2 13.833 4 20.5z" />
    <glyph glyph-name="bracketleft" unicode="[" horiz-adv-x="885" 
d="M262 -268c33.333 -1.33301 80.332 -3.66797 140.999 -7.00098l151 -11c40.667 -2.66699 65.167 -6 73.5 -10s15.5 -10 21.5 -18s10.333 -17 13 -27s4 -20.667 4 -32c0 -22 -10 -42.167 -30 -60.5s-46.333 -27.5 -79 -27.5c-24 0 -106 3 -246 9s-219 14.5 -237 25.5
s-27 30.167 -27 57.5c0 28.667 19.167 126.5 57.5 293.5s89.5 366.5 153.5 598.5s125.833 434.167 185.5 606.5s95.5 266.5 107.5 282.5s28.333 28 49 36s44 12 70 12c73.333 0 150.333 -1.5 231 -4.5s130.167 -7.5 148.5 -13.5s31.333 -15.167 39 -27.5
s11.5 -28.5 11.5 -48.5c0 -62.667 -34.333 -94 -103 -94c-36 0 -83.5 2 -142.5 6s-111.167 6 -156.5 6c-61.333 -148.667 -144.666 -414.667 -249.999 -798s-167.333 -634.666 -186 -753.999z" />
    <glyph glyph-name="backslash" unicode="\" horiz-adv-x="1053" 
d="M772 0c-72 0 -111.667 26.002 -119 78.002c-20 168 -57.167 364.667 -111.5 590s-121.166 428.333 -200.499 609c-25.333 57.333 -38 93.666 -38 108.999c0 26 9.83301 45.5 29.5 58.5s38.5 19.5 56.5 19.5c27.333 0 47.166 -2.5 59.499 -7.5s23.833 -20.167 34.5 -45.5
c40.667 -92 78.5 -190 113.5 -294s73 -230.5 114 -379.5s74.833 -287.833 101.5 -416.5s40 -208.334 40 -239.001c0 -21.333 -7.66699 -40.333 -23 -57s-34.333 -25 -57 -25z" />
    <glyph glyph-name="bracketright" unicode="]" horiz-adv-x="885" 
d="M721 1272c-225.333 4.66699 -349.667 12.498 -373 23.498s-35 35.833 -35 74.5c0 24 10.167 44.667 30.5 62s46.5 26 78.5 26c48.667 0 128 -1.66699 238 -5s177.667 -6.66602 203 -9.99902s42.5 -10.5 51.5 -21.5s13.5 -27.5 13.5 -49.5
c0 -38.667 -39.667 -190.667 -119 -456c-82 -273.333 -145.667 -497.5 -191 -672.5s-90.333 -364.5 -135 -568.5c-9.33301 -41.333 -18.166 -69.666 -26.499 -84.999s-20.333 -27.666 -36 -36.999s-33.5 -14 -53.5 -14c-248.667 0 -392.167 5.66699 -430.5 17
s-57.5 36.333 -57.5 75c0 26 9.16699 48.667 27.5 68s43.5 29 75.5 29c28.667 0 75.667 -1.83301 141 -5.5s122.666 -5.5 171.999 -5.5c139.333 629.333 281.333 1147.67 426 1555z" />
    <glyph glyph-name="asciicircum" unicode="^" horiz-adv-x="991" 
d="M822 1528c16.667 0 33.335 -3.00098 50.002 -9.00098s28.667 -12.667 36 -20c12.667 -19.333 23.5 -40 32.5 -62s20.167 -46 33.5 -72c20 -38.667 41.667 -75.667 65 -111s46.333 -72 69 -110c13.333 -21.333 27.833 -42.833 43.5 -64.5s35.167 -41.167 58.5 -58.5
c6 -10 9 -20.667 9 -32c0 -13.333 -2.83301 -26.333 -8.5 -39s-13.334 -23.834 -23.001 -33.501s-21.334 -17.5 -35.001 -23.5s-28.5 -9 -44.5 -9c-22 0 -37.833 4.5 -47.5 13.5s-19.5 22.5 -29.5 40.5l-22 42c-6.66699 13.333 -14.834 28.833 -24.501 46.5l-35.5 63
l-55 91.5l-35 59c-10.667 18.667 -19.667 33.334 -27 44.001c-5.33301 8 -10.333 14.5 -15 19.5s-10.667 7.5 -18 7.5c-17.333 0 -33.833 -6.5 -49.5 -19.5s-35.167 -32.167 -58.5 -57.5c-20 -22 -40.333 -47.667 -61 -77l-63 -91.5l-64.5 -94
c-21.667 -31 -43.167 -58.667 -64.5 -83s-42.666 -44 -63.999 -59s-42.333 -22.5 -63 -22.5c-17.333 0 -32 5 -44 15s-18 23.667 -18 41c0 10.667 3.16699 21.834 9.5 33.501s16.833 27.834 31.5 48.501l43.5 60.5l50.5 69.5l51.5 71.5l47.5 66.5l46 62
c17.333 22.667 35.833 45.667 55.5 69s40 46.166 61 68.499s42 42 63 59s41.167 30.667 60.5 41s37 15.5 53 15.5z" />
    <glyph glyph-name="underscore" unicode="_" horiz-adv-x="978" 
d="M0 -328c-16 0 -28.166 6 -36.499 18s-12.5 26.333 -12.5 43c0 10.667 2 21.667 6 33s10.167 21.666 18.5 30.999s18.833 16.833 31.5 22.5s27.667 8.5 45 8.5c46 0 94 -1.83301 144 -5.5s104.333 -5.5 163 -5.5h152c22 0 46.167 0.666992 72.5 2s52.5 2.5 78.5 3.5
s50.5 2.16699 73.5 3.5s41.5 2 55.5 2h99c15.333 0 26.833 -5 34.5 -15s11.5 -22.333 11.5 -37c0 -11.333 -2 -23.166 -6 -35.499s-9.5 -23.5 -16.5 -33.5s-15.5 -18.333 -25.5 -25s-20.667 -10 -32 -10h-40c-68.667 0 -137.5 -1.83301 -206.5 -5.5
s-139.167 -5.5 -210.5 -5.5c-66 0 -131.833 1.83301 -197.5 5.5s-132.834 5.5 -201.501 5.5z" />
    <glyph glyph-name="grave" unicode="`" 
d="M645 1350c5.33301 20 15.501 36.333 30.501 49s30.833 19 47.5 19c16 0 27.333 -1.66699 34 -5s13 -7.66602 19 -12.999l78 -66l106 -88l40 -33c9.33301 -7.33301 18.333 -17.333 27 -30s13 -27.667 13 -45c0 -8.66699 -1.33301 -17.5 -4 -26.5s-6.83398 -17 -12.501 -24
s-12.834 -12.833 -21.501 -17.5s-19 -7 -31 -7c-12.667 0 -23.667 1.66699 -33 5s-18.666 8 -27.999 14l-220 147c-16 11.333 -28.5 23.166 -37.5 35.499s-13.5 27.833 -13.5 46.5c0 12 2 25 6 39z" />
    <glyph glyph-name="a" unicode="a" horiz-adv-x="993" 
d="M682 43c0 19.333 2.33398 42.502 7.00098 69.502s7 60.5 7 100.5c-22 -16 -46.333 -35 -73 -57s-54.334 -43 -83.001 -63s-57.167 -36.833 -85.5 -50.5s-54.833 -20.5 -79.5 -20.5c-20 0 -39 3 -57 9s-33.333 14 -46 24c-35.333 28 -60.833 56 -76.5 84
s-23.5 60.667 -23.5 98c0 16.667 1.5 34 4.5 52s7.5 38.667 13.5 62c25.333 105.333 68.833 202.833 130.5 292.5s138.167 166.167 229.5 229.5c35.333 24.667 70.666 40.5 105.999 47.5s70.333 10.5 105 10.5c15.333 0 32.5 -1 51.5 -3s36.167 -4 51.5 -6
c15.333 3.33301 27.833 5.66602 37.5 6.99902s19.834 2 30.501 2c20 0 36.667 -2.66699 50 -8s24 -12.5 32 -21.5s13.833 -19.333 17.5 -31s5.5 -23.834 5.5 -36.501c0 -17.333 -2.66699 -33.833 -8 -49.5l-16 -47.5l-132 -527c-2.66699 -28.667 -5 -55 -7 -79
s-6 -46.333 -12 -67l-7.5 -22.5c-3 -9 -7.83301 -17.667 -14.5 -26s-15 -15.5 -25 -21.5s-23 -9 -39 -9c-20.667 0 -37.167 1.33301 -49.5 4s-21.833 6.5 -28.5 11.5s-11 11 -13 18s-3 15.167 -3 24.5zM350.001 345.002
c-2.66699 -9.33301 -5.49609 -22.666 -8.49609 -39.999s-4.5 -34.666 -4.5 -51.999c0 -18 2.66699 -34.167 8 -48.5s17 -21.5 35 -21.5c28 0 54.167 6.16699 78.5 18.5s47.166 27.166 68.499 44.499c28.667 23.333 57.834 49.5 87.501 78.5s57.667 59.5 84 91.5
s49.666 64.833 69.999 98.5s35.166 67.167 44.499 100.5c5.33301 19.333 9.83301 41.666 13.5 66.999s5.5 48 5.5 68c0 8.66699 -2 17.167 -6 25.5s-11.667 12.5 -23 12.5c-32.667 0 -65.5 -6.33301 -98.5 -19s-64.833 -29.667 -95.5 -51s-59.834 -46.5 -87.501 -75.5
s-52.834 -60 -75.501 -93s-42.167 -67 -58.5 -102s-28.833 -69.167 -37.5 -102.5z" />
    <glyph glyph-name="b" unicode="b" horiz-adv-x="1094" 
d="M252 328c13.333 54 28.6641 112.829 45.9971 176.496l54 195l55.5 197.5l50.5 185c15.333 58 28.5 110.333 39.5 157s18.5 84.334 22.5 113.001l11 81l6.5 20c2.33301 7.33301 5.83301 14.166 10.5 20.499s10.834 11.833 18.501 16.5s17.167 7 28.5 7
c20.667 0 38 -3.66699 52 -11s25.167 -17.166 33.5 -29.499s14.166 -26.5 17.499 -42.5s5 -32.667 5 -50s-1.33301 -34.833 -4 -52.5s-5.66699 -33.5 -9 -47.5c-22 -91.333 -47.167 -183.5 -75.5 -276.5s-53.833 -186.5 -76.5 -280.5c26 24.667 54 48.167 84 70.5
s61.5 42 94.5 59s66.833 30.5 101.5 40.5s69.334 15 104.001 15c36.667 0 68.334 -5.33301 95.001 -16s48.667 -25.167 66 -43.5s30.166 -40.166 38.499 -65.499s12.5 -52.666 12.5 -81.999c0 -14 -0.833008 -28.5 -2.5 -43.5s-4.16699 -29.5 -7.5 -43.5
c-17.333 -69.333 -41.833 -131.333 -73.5 -186s-67.667 -103.5 -108 -146.5s-84 -81 -131 -114s-94.5 -62.5 -142.5 -88.5c-31.333 -16.667 -61.5 -29.5 -90.5 -38.5s-57.5 -13.5 -85.5 -13.5c-27.333 0 -48.166 2.83301 -62.499 8.5s-27.166 14.167 -38.499 25.5
c-3.33301 -6.66699 -7.5 -13.667 -12.5 -21s-11 -14.166 -18 -20.499s-15.333 -11.5 -25 -15.5s-20.5 -6 -32.5 -6c-38 0 -65 9.5 -81 28.5s-24 44.5 -24 76.5c0 11.333 0.833008 22.833 2.5 34.5s4.16699 23.167 7.5 34.5zM887.998 734.996
c-31.333 0 -65.5 -7.99902 -102.5 -23.999s-74.167 -35.833 -111.5 -59.5s-73.333 -49 -108 -76l-92 -72.5l-24 -79l-23.5 -77c-7.66699 -26 -14.667 -52.667 -21 -80s-11.833 -56.333 -16.5 -87l-6 -39l6 -18c14 8 26.833 14 38.5 18s23 7.5 34 10.5l34.5 9.5
c12 3.33301 25.333 8 40 14c104.667 42 192.5 98.333 263.5 169s119.5 157.667 145.5 261c3.33301 14.667 6 27.667 8 39s3 21.666 3 30.999c0 20 -5.33301 35 -16 45s-28 15 -52 15zM827.998 933.997z" />
    <glyph glyph-name="c" unicode="c" horiz-adv-x="870" 
d="M199 391c12.667 51.333 31.5 105 56.5 161s55.167 110.167 90.5 162.5s75.5 100.666 120.5 144.999s94.167 80.5 147.5 108.5c17.333 9.33301 36.333 16.333 57 21s41.667 7 63 7c22 0 42.5 -2 61.5 -6s35.333 -10.667 49 -20s24.5 -21.333 32.5 -36s12 -32.667 12 -54
c0 -16 -2.33301 -32.167 -7 -48.5s-11.667 -31 -21 -44s-21 -23.5 -35 -31.5s-30.333 -12 -49 -12c-14.667 0 -28.167 2.66699 -40.5 8s-24.166 11.333 -35.499 18c-6 4 -11.667 7.5 -17 10.5s-11.666 5.83301 -18.999 8.5c-26.667 -12 -51.834 -27.833 -75.501 -47.5
s-45.667 -41.5 -66 -65.5s-39 -49.667 -56 -77s-32.333 -54.666 -46 -81.999s-25.334 -54.166 -35.001 -80.499s-17.5 -50.5 -23.5 -72.5c-4.66699 -16 -8.83398 -34.167 -12.501 -54.5s-5.5 -40.166 -5.5 -59.499c0 -13.333 1.16699 -26 3.5 -38s6.5 -22.667 12.5 -32
s14 -16.666 24 -21.999s22.333 -8 37 -8c23.333 0 46.5 3 69.5 9s45.5 13.667 67.5 23s43.5 20.166 64.5 32.499l61.5 37.5l38 25c12.667 8.66699 24.667 16.334 36 23.001s21.833 12.167 31.5 16.5s18.167 6.5 25.5 6.5c10 0 19.333 -2.5 28 -7.5s13 -13.5 13 -25.5
c0 -8.66699 -2 -18.334 -6 -29.001c-9.33301 -26 -22 -49.333 -38 -70s-33.833 -39.167 -53.5 -55.5s-40.667 -30.833 -63 -43.5s-44.5 -24.334 -66.5 -35.001c-41.333 -22 -83.166 -38.5 -125.499 -49.5s-77.833 -16.5 -106.5 -16.5c-9.33301 0 -20.333 1 -33 3
s-23.667 5 -33 9c-54 23.333 -93.333 54.666 -118 93.999s-37 86 -37 140c0 23.333 1.83301 47.833 5.5 73.5s9.16699 52.5 16.5 80.5z" />
    <glyph glyph-name="d" unicode="d" horiz-adv-x="1118" 
d="M185 343c8.66699 36 20.1631 71.999 34.4961 107.999s32.166 71.667 53.499 107s46.666 69.833 75.999 103.5s63.666 65.834 102.999 96.501c26.667 21.333 54.834 41.5 84.501 60.5s59.834 35.5 90.501 49.5s61.5 25.167 92.5 33.5s61.5 12.5 91.5 12.5
c22 0 41.5 -1.83301 58.5 -5.5s33.167 -8.83398 48.5 -15.501l53.5 188c29 102 64.5 244 106.5 426c7.33301 18 17.666 33 30.999 45s29.333 18 48 18c13.333 0 26.333 -1.16699 39 -3.5s24 -7 34 -14s18 -16.5 24 -28.5s9 -27.667 9 -47l-201 -803
c-6 -22.667 -11.667 -53.167 -17 -91.5s-10.333 -78.833 -15 -121.5s-8.33398 -84.834 -11.001 -126.501s-4 -77.5 -4 -107.5c0 -37.333 -4.33301 -74.333 -13 -111c-4 -16 -8.16699 -29.5 -12.5 -40.5s-10.166 -20 -17.499 -27s-16.5 -12 -27.5 -15
s-24.833 -4.5 -41.5 -4.5c-19.333 0 -34.333 2 -45 6s-18.667 9.5 -24 16.5s-8.5 15 -9.5 24s-1.66699 18.667 -2 29s-1 21 -2 32s-3.83301 21.5 -8.5 31.5l-33 -21l-42.5 -26.5l-40.5 -25c-12.667 -7.66699 -22 -13.167 -28 -16.5
c-15.333 -8.66699 -32.666 -17.834 -51.999 -27.501s-40.166 -18.667 -62.499 -27s-45.666 -15.166 -69.999 -20.499s-48.833 -8 -73.5 -8c-30 0 -59.167 5 -87.5 15s-53.666 25.333 -75.999 46s-40.166 46.834 -53.499 78.501s-20 68.834 -20 111.501
c0 15.333 0.833008 30.5 2.5 45.5s4.83398 31.833 9.50098 50.5zM357.996 350.999c-5.33301 -20 -7.99707 -39.333 -7.99707 -58c0 -19.333 1.66699 -37.5 5 -54.5s9.5 -31.833 18.5 -44.5s21 -22.834 36 -30.501s34.5 -11.5 58.5 -11.5c13.333 0 27.666 2.33301 42.999 7
s30.5 10.5 45.5 17.5s29 14.333 42 22s24.167 14.5 33.5 20.5c25.333 16.667 48.833 33 70.5 49s41.167 33.333 58.5 52s32.5 39.5 45.5 62.5s23.5 49.5 31.5 79.5c6.66699 26.667 12.5 51 17.5 73s9.5 43.5 13.5 64.5s7.66699 42.5 11 64.5s6.66602 46.333 9.99902 73
c-3.33301 4 -7.83301 7.83301 -13.5 11.5s-14.167 5.5 -25.5 5.5c-26.667 0 -56 -4.5 -88 -13.5s-64.833 -21.833 -98.5 -38.5s-66.667 -37 -99 -61s-62.333 -50.833 -90 -80.5s-51.834 -62.167 -72.501 -97.5s-35.667 -72.666 -45 -111.999z" />
    <glyph glyph-name="e" unicode="e" horiz-adv-x="1012" 
d="M182 386c0 28.667 7.65918 52.998 22.9922 72.998s35.666 33.333 60.999 40c7.33301 14.667 18.666 34.5 33.999 59.5s34.333 52.167 57 81.5s48.5 58.833 77.5 88.5s61 56.667 96 81s72.667 44.166 113 59.499s83.166 23 128.499 23
c38.667 0 72.334 -4.66699 101.001 -14s52.334 -22.333 71.001 -39s32.667 -36.5 42 -59.5s14 -47.833 14 -74.5c0 -22.667 -3 -44.334 -9 -65.001c-9.33301 -37.333 -26.666 -70 -51.999 -98s-55.166 -52.5 -89.499 -73.5s-71.666 -38.5 -111.999 -52.5
s-80.666 -25.667 -120.999 -35s-79.166 -16.5 -116.499 -21.5s-69.666 -8.83301 -96.999 -11.5c-6 -12 -11.167 -27.167 -15.5 -45.5s-6.5 -36.166 -6.5 -53.499c0 -38.667 15.333 -68.667 46 -90s73 -32 127 -32c31.333 0 61.333 3.5 90 10.5s55.834 16 81.501 27
s49.834 23 72.501 36s43.334 25.833 62.001 38.5c24 16 46.833 29.5 68.5 40.5s40.834 16.5 57.501 16.5s27.334 -4.16699 32.001 -12.5s7 -17.166 7 -26.499c0 -5.33301 -0.166992 -10.5 -0.5 -15.5s-0.833008 -9.16699 -1.5 -12.5
c-3.33301 -17.333 -10 -34.666 -20 -51.999s-22.667 -32.333 -38 -45c-69.333 -54.667 -140.5 -93.667 -213.5 -117s-150.833 -35 -233.5 -35c-16 0 -34.833 1 -56.5 3s-44.167 6 -67.5 12s-46.333 14.667 -69 26s-42.834 26.333 -60.501 45s-32 41.667 -43 69
s-16.5 60.333 -16.5 99c0 31.333 4.33301 66.333 13 105c-8.66699 1.33301 -16.834 5.83301 -24.501 13.5s-11.5 18.834 -11.5 33.501zM807.992 662.998c1.33301 3.33301 2 6.33203 2 8.99902v9c0 18 -6.66699 31.5 -20 40.5s-29.333 13.5 -48 13.5
c-29.333 0 -58.166 -7.66699 -86.499 -23s-55 -34.5 -80 -57.5s-47.167 -47.667 -66.5 -74s-34.333 -50.166 -45 -71.499c48 4 92 10.5 132 19.5s74.833 20.333 104.5 34s53.667 29 72 46s30.166 35.167 35.499 54.5zM691.992 933.997z" />
    <glyph glyph-name="f" unicode="f" horiz-adv-x="811" 
d="M384 -92c-16.667 0 -31.4912 3.16992 -44.4912 9.50293s-24 15 -33 26s-16 23.5 -21 37.5s-7.5 29 -7.5 45c0 11.333 1.33301 23.833 4 37.5s6.66699 30.167 12 49.5l9 39c4 17.333 8 37 12 59l12.5 70c4.33301 24.667 8.33301 48.667 12 72s6.5 45 8.5 65s3 36.667 3 50
c0 8.66699 -0.333008 14.334 -1 17.001c-1.33301 10 -8.5 16.833 -21.5 20.5l-42 12c-15 4.33301 -28.667 11.333 -41 21s-18.5 25.5 -18.5 47.5c0 18 4.16699 35 12.5 51s19.166 27.333 32.499 34c15.333 7.33301 32.5 11.333 51.5 12s37.833 2.66699 56.5 6
c10.667 1.33301 18.167 7.66602 22.5 18.999s7.83301 22.333 10.5 33l26 99.5c9.33301 35.667 20.166 72 32.499 109s26 73.167 41 108.5s31.833 68 50.5 98c30 40.667 62.167 78.667 96.5 114s71 66.166 110 92.499s80.333 47 124 62s90.167 22.5 139.5 22.5
c59.333 0 107.666 -10 144.999 -30s67.666 -50 90.999 -90c5.33301 -9.33301 9 -18.833 11 -28.5s3 -19.5 3 -29.5c0 -18 -2.5 -34.833 -7.5 -50.5s-11.833 -29.334 -20.5 -41.001s-18.834 -20.834 -30.501 -27.501s-23.834 -10 -36.501 -10c-18 0 -32 3.66699 -42 11
s-18.167 16.333 -24.5 27s-11.333 22.5 -15 35.5s-7.66699 24.833 -12 35.5s-10.166 19.667 -17.499 27s-17.666 11 -30.999 11s-28.5 -1.66699 -45.5 -5s-33.167 -9 -48.5 -17c-40.667 -21.333 -78.334 -45.166 -113.001 -71.499s-66.834 -59.833 -96.501 -100.5
s-57 -90.334 -82 -149.001s-48.167 -131 -69.5 -217c-0.666992 -1.33301 -1.33398 -3 -2.00098 -5s-1 -3.33301 -1 -4c0 -1.33301 2.66699 -2 8 -2c20 0 39.167 1.16699 57.5 3.5s36.5 5 54.5 8s36.167 5.66699 54.5 8s37.833 3.5 58.5 3.5
c15.333 0 29.666 -0.666992 42.999 -2s24.833 -4.16602 34.5 -8.49902s17.334 -10.5 23.001 -18.5s8.5 -18.667 8.5 -32c0 -8 -1.16699 -17.833 -3.5 -29.5s-6 -23 -11 -34s-11.333 -20.833 -19 -29.5s-17.167 -14 -28.5 -16c-20 -4 -40.667 -7.16699 -62 -9.5l-70 -8
c-25.333 -3 -53.333 -7.33301 -84 -13s-65 -13.834 -103 -24.501c-12 -45.333 -21.167 -90.166 -27.5 -134.499s-11.833 -88.5 -16.5 -132.5s-9.83398 -88.167 -15.501 -132.5s-13.834 -88.833 -24.501 -133.5c-2 -8.66699 -5.5 -17.334 -10.5 -26.001s-11 -16.5 -18 -23.5
s-15 -12.667 -24 -17s-18.5 -6.5 -28.5 -6.5z" />
    <glyph glyph-name="g" unicode="g" horiz-adv-x="969" 
d="M252 -462c-5.33301 0 -11.332 1.16406 -17.999 3.49707s-12.834 6 -18.501 11s-10.5 11.333 -14.5 19s-6 16.834 -6 27.501c0 7.33301 1 15 3 23c5.33301 22 11 39.833 17 53.5s14.667 25.167 26 34.5s26.666 17.166 45.999 23.499s44.666 12.833 75.999 19.5
c20 4 38.833 8.5 56.5 13.5s32.167 11.167 43.5 18.5c34 30 62.833 61 86.5 93s43.667 65.167 60 99.5s30 69.5 41 105.5s21.5 72.667 31.5 110c4 12.667 7.5 25.834 10.5 39.501s6.83301 29.167 11.5 46.5l-79 -66c-27.333 -22 -55.333 -41.667 -84 -59
s-57.834 -31.5 -87.501 -42.5s-59.167 -16.5 -88.5 -16.5c-17.333 0 -36.833 5.33301 -58.5 16s-42.167 24.667 -61.5 42s-35.666 37.5 -48.999 60.5s-20 47.167 -20 72.5c0 16 2 33.333 6 52l11 50c10.667 44 26.334 86.667 47.001 128s44.667 80.666 72 117.999
s57.333 72.833 90 106.5s66.667 64.834 102 93.501c44 36 88 62 132 78s90.667 24 140 24c20.667 0 40.5 -1 59.5 -3s37 -6.16699 54 -12.5s32.833 -15.666 47.5 -27.999s28 -28.5 40 -48.5c2.66699 -4.66699 4.83398 -10.167 6.50098 -16.5s2.5 -11.833 2.5 -16.5
c0 -5.33301 -1.5 -18.5 -4.5 -39.5s-7 -47 -12 -78s-11 -65.667 -18 -104l-21.5 -116l-22 -115c-7.33301 -37.667 -14.333 -71.5 -21 -101.5c-11.333 -52.667 -25.5 -107 -42.5 -163s-37.667 -110.667 -62 -164s-52.833 -103.666 -85.5 -150.999
s-70.667 -88.833 -114 -124.5s-92.333 -64 -147 -85s-116 -31.5 -184 -31.5zM351.001 365.997c-2 -8 -3.83301 -16.1709 -5.5 -24.5039s-2.5 -16.5 -2.5 -24.5c0 -14.667 2.66699 -27.334 8 -38.001s15 -16 29 -16c22 0 47.833 7.83301 77.5 23.5s59.334 35.5 89.001 59.5
s57.667 50 84 78s47.166 54.667 62.499 80l26.5 44c11 18.667 22 38.834 33 60.501s20.833 43.334 29.5 65.001s14 40.834 16 57.501c0 11.333 -2.33301 21.833 -7 31.5s-8.66699 23.167 -12 40.5h-9c-16 0 -34.333 -5.16699 -55 -15.5s-42.5 -23.833 -65.5 -40.5
s-46.167 -35.5 -69.5 -56.5s-45.333 -42.333 -66 -64s-39.5 -42.667 -56.5 -63s-30.167 -38.166 -39.5 -53.499c-14 -22 -26.833 -44.167 -38.5 -66.5s-21.167 -48.166 -28.5 -77.499z" />
    <glyph glyph-name="h" unicode="h" horiz-adv-x="1126" 
d="M886 -57c-41.333 0 -69.665 9.00391 -84.998 27.0039s-23 42.667 -23 74c0 16.667 1.66699 34.667 5 54s7.66602 39.333 12.999 60c9.33301 35.333 19.833 70.5 31.5 105.5l35 106l34 107c11 35.667 20.833 71.5 29.5 107.5c0.666992 3.33301 1 7.66602 1 12.999
c0 9.33301 -2.33301 16.666 -7 21.999s-11.667 8 -21 8c-14.667 0 -30.5 -3 -47.5 -9s-31.167 -12.667 -42.5 -20c-44.667 -30 -83.834 -59.667 -117.501 -89s-64.5 -60 -92.5 -92s-54.5 -66.167 -79.5 -102.5l-78.5 -119.5
c-23.333 -43.333 -40.666 -80.166 -51.999 -110.499s-21.833 -54.833 -31.5 -73.5s-20.5 -32.167 -32.5 -40.5s-30 -12.5 -54 -12.5c-26.667 0 -45.5 7.66699 -56.5 23s-16.5 35.333 -16.5 60c0 19.333 3 41 9 65l330 1322c2 8 5.33301 16.667 10 26s11 18 19 26
s17.5 14.667 28.5 20s23.5 8 37.5 8c10.667 0 22 -0.5 34 -1.5s22.833 -3 32.5 -6s17.667 -7.83301 24 -14.5s9.5 -15.334 9.5 -26.001c0 -2.66699 -0.666992 -8.16699 -2 -16.5s-3.33301 -17.833 -6 -28.5l-115.5 -452l-124.5 -475c40.667 50 83 95.833 127 137.5
s89.167 77.5 135.5 107.5s94.333 53.5 144 70.5s101.167 25.5 154.5 25.5c34 0 60.333 -10.833 79 -32.5s28 -49.167 28 -82.5c0 -15.333 -2 -30.333 -6 -45c-8 -30.667 -17 -60.834 -27 -90.501l-31 -89.5l-32 -91.5c-10.667 -31 -20 -62.833 -28 -95.5
c-10.667 -42 -18 -81.833 -22 -119.5s-6.66699 -67.834 -8 -90.501c-1.33301 -19.333 -4.33301 -38 -9 -56s-11.5 -33.833 -20.5 -47.5s-20.333 -24.667 -34 -33s-29.834 -12.5 -48.501 -12.5zM932.001 934.004z" />
    <glyph glyph-name="i" unicode="i" horiz-adv-x="518" 
d="M194 183l36.002 135.001l44.5 163l47.5 176l45 175c0.666992 2.66699 3 7.16699 7 13.5s9.66699 12.666 17 18.999s16.666 11.833 27.999 16.5s24.666 7 39.999 7c11.333 0 22.333 -1.16699 33 -3.5s20.167 -5.83301 28.5 -10.5s15 -10.834 20 -18.501
s7.5 -16.5 7.5 -26.5v-6.5c0 -2.33301 -0.333008 -4.5 -1 -6.5l-28 -106l-95.5 -357l-94.5 -359c-1.33301 -4 -3.33301 -9 -6 -15s-6.33398 -12 -11.001 -18s-10.334 -11 -17.001 -15s-14.667 -6 -24 -6c-17.333 0 -32.666 3.5 -45.999 10.5s-24.666 15.833 -33.999 26.5
s-16.333 22.334 -21 35.001s-7 24.667 -7 36v9c0 2.66699 0.666992 5.66699 2 9zM455.002 1218c3.33301 14 9.33203 31.0029 17.999 51.0029s24 38 46 54c10.667 6 23.667 11.5 39 16.5s26.333 7.5 33 7.5s13.5 -2.33301 20.5 -7s13.167 -9.66699 18.5 -15
c6.66699 -6.66699 13 -14 19 -22c16.667 -1.33301 27.5 -7.33301 32.5 -18s7.5 -23.334 7.5 -38.001c0 -10.667 -1 -20.334 -3 -29.001l-5 -21c-4 -14 -11.667 -26.833 -23 -38.5s-24.333 -21.667 -39 -30s-30 -14.833 -46 -19.5s-30 -7 -42 -7
c-15.333 0 -27.166 2.66699 -35.499 8s-18.833 16.666 -31.5 33.999c-7.33301 10 -11.5 17.833 -12.5 23.5s-1.5 10.5 -1.5 14.5c0 7.33301 0.5 13.833 1.5 19.5s2.16699 11.167 3.5 16.5z" />
    <glyph glyph-name="j" unicode="j" horiz-adv-x="522" 
d="M-122 -462c-27.333 0 -47.832 7.49512 -61.499 22.4951s-20.5 31.167 -20.5 48.5c0 28 8.16699 52.167 24.5 72.5s35.833 38.333 58.5 54s45.834 29.667 69.501 42s42.5 24.5 56.5 36.5c30 25.333 56.667 54.333 80 87s41.666 63 54.999 91
c21.333 44 41.5 92.667 60.5 146s36.5 108.5 52.5 165.5s30.5 114.833 43.5 173.5s24.5 115.334 34.5 170.001c3.33301 16 5.16602 31.167 5.49902 45.5s0.833008 28.5 1.5 42.5c1.33301 34.667 4.66602 62.5 9.99902 83.5s12.833 37.167 22.5 48.5
s21.334 18.833 35.001 22.5s29.5 5.5 47.5 5.5c37.333 0 63.333 -9.16699 78 -27.5s22 -45.166 22 -80.499c0 -19.333 -2.83301 -48.333 -8.5 -87s-14 -83.667 -25 -135s-24.5 -107 -40.5 -167s-34.333 -121 -55 -183s-43.5 -123 -68.5 -183s-51.833 -115.667 -80.5 -167
c-6.66699 -11.333 -14.5 -23.166 -23.5 -35.499s-18.5 -24.666 -28.5 -36.999l-29.5 -35.5l-26.5 -31c-26.667 -31.333 -51.667 -58.666 -75 -81.999s-46.5 -42.833 -69.5 -58.5s-46.167 -27.5 -69.5 -35.5s-48.333 -12 -75 -12zM398.001 1175
c0 24.667 6.33105 46.001 18.998 64.001s28.334 33 47.001 45c14.667 9.33301 27.834 16.833 39.501 22.5s24.167 8.5 37.5 8.5c18 0 33.167 -2.83301 45.5 -8.5s22.166 -13.334 29.499 -23.001s12.5 -20.334 15.5 -32.001s4.5 -23.5 4.5 -35.5
c0 -24 -4.33301 -46.667 -13 -68s-25.667 -42 -51 -62c-9.33301 -7.33301 -18.666 -13.166 -27.999 -17.499s-19 -6.5 -29 -6.5c-34 0 -62 10 -84 30s-33 47.667 -33 83z" />
    <glyph glyph-name="k" unicode="k" horiz-adv-x="987" 
d="M616 484c-13.333 0 -28.3369 -3.16992 -45.0039 -9.50293s-33.334 -13.833 -50.001 -22.5s-32.667 -17.667 -48 -27s-28.666 -16.666 -39.999 -21.999l-91 -360c-3.33301 -14 -11.666 -24.667 -24.999 -32s-25.666 -11 -36.999 -11c-36 0 -60.5 7.16699 -73.5 21.5
s-19.5 33.166 -19.5 56.499c0 10 0.833008 20.167 2.5 30.5s3.83398 21.166 6.50098 32.499l4 17c4 18 9.5 40.667 16.5 68l22.5 86.5l24.5 92l23.5 85.5l32.5 113l48 168l55 194.5l54 193.5l45.5 163.5c13.333 47.667 22.666 82.834 27.999 105.501
c6 9.33301 15.333 17 28 23s27.667 9 45 9c12 0 24.333 -1.5 37 -4.5s24.167 -7.66699 34.5 -14s18.833 -14.333 25.5 -24s10 -20.834 10 -33.501c0 -8.66699 -2 -19 -6 -31l-119 -360.5c-39.333 -124.333 -75 -250.166 -107 -377.499c8.66699 5.33301 24.667 16.333 48 33
l77.5 58l85.5 69c28.667 24 52.667 45.667 72 65l40.5 41.5l39 41l32.5 35l22 24.5c12.667 14.667 26.5 26.834 41.5 36.501s30.167 14.5 45.5 14.5c14.667 0 28 -2.33301 40 -7s22.333 -10.5 31 -17.5s15.334 -15 20.001 -24s7 -17.5 7 -25.5
c0 -10 -2.33301 -20.667 -7 -32s-10.167 -22.333 -16.5 -33s-13.166 -20.5 -20.499 -29.5s-13.666 -15.833 -18.999 -20.5l-61 -52.5l-71 -58l-75.5 -59l-74.5 -56.5c42 -23.333 76.5 -54.5 103.5 -93.5s48.5 -82.333 64.5 -130s27 -97.834 33 -150.501s9 -104 9 -154
c0 -4 -0.333008 -10.167 -1 -18.5s-2 -16.166 -4 -23.499c-3.33301 -12 -7.33301 -23 -12 -33s-10.834 -18.5 -18.501 -25.5s-17 -12.5 -28 -16.5s-24.5 -6 -40.5 -6c-15.333 0 -28.333 2.66699 -39 8s-19.5 12.333 -26.5 21s-12.167 18.334 -15.5 29.001
s-5 21.334 -5 32.001c0 33.333 -1 67.833 -3 103.5s-6 70.167 -12 103.5s-14.167 64.833 -24.5 94.5s-23.833 55.167 -40.5 76.5c-12 15.333 -23.167 27.333 -33.5 36s-22.833 13 -37.5 13h-8zM805.996 933.997z" />
    <glyph glyph-name="l" unicode="l" horiz-adv-x="516" 
d="M501 1371c3.33301 26.667 8.66992 51.3301 16.0029 73.9971s17.166 41.5 29.499 56.5s28.166 22.5 47.499 22.5c10.667 0 22.5 -2 35.5 -6s25.333 -9.5 37 -16.5s21.5 -15.5 29.5 -25.5s12 -21 12 -33c0 -5.33301 -1 -11.5 -3 -18.5s-3.66699 -13.833 -5 -20.5
l-250 -1002c-10 -40 -18.333 -78.167 -25 -114.5s-11.667 -66.166 -15 -89.499v-24c0 -20 -1.33301 -41.833 -4 -65.5s-7.66699 -45.667 -15 -66s-17.5 -37.333 -30.5 -51s-29.833 -20.5 -50.5 -20.5c-18 0 -33.667 3.83301 -47 11.5s-24.333 17.5 -33 29.5
s-15 24.833 -19 38.5s-6 26.5 -6 38.5c0 10.667 1 23.834 3 39.501s4.5 32 7.5 49s6.16699 34 9.5 51s6.66602 31.833 9.99902 44.5l258 1024c2 22.667 4.66699 47.334 8 74.001z" />
    <glyph glyph-name="m" unicode="m" horiz-adv-x="1759" 
d="M197 66l57.998 217.999l54.5 193.5l51.5 179.5c16.667 58 32.667 117 48 177c6 23.333 9.5 45.833 10.5 67.5s4.16699 44.167 9.5 67.5c2.66699 8 7.5 15.167 14.5 21.5s14.833 11.833 23.5 16.5s17.834 8.33398 27.501 11.001s18.834 4 27.501 4
c18.667 0 34.167 -2.16699 46.5 -6.5s22.333 -10.166 30 -17.499s13 -16.166 16 -26.499s4.5 -21.833 4.5 -34.5c0 -22.667 -3.66699 -45.5 -11 -68.5s-16.333 -48.167 -27 -75.5c31.333 24.667 63.5 48 96.5 70s67 41.333 102 58s70.833 30 107.5 40s74.667 15 114 15
c18 0 36 -2.83301 54 -8.5s34.167 -14.5 48.5 -26.5s26.333 -27.667 36 -47s15.167 -43 16.5 -71l89 58.5c30.667 19.667 61.834 37.334 93.501 53.001s63.334 28.334 95.001 38.001s62.5 14.5 92.5 14.5c44.667 0 81.5 -5.83301 110.5 -17.5s52 -27.334 69 -47.001
s29 -42.5 36 -68.5s10.5 -53.667 10.5 -83c0 -32 -3 -65 -9 -99s-12.667 -66.333 -20 -97c-19.333 -77.333 -41 -150.5 -65 -219.5s-50 -138.833 -78 -209.5l-21 -53c-7.33301 -18.667 -15.833 -35.834 -25.5 -51.501s-21 -28.667 -34 -39s-28.167 -15.5 -45.5 -15.5
c-39.333 0 -66.333 6.66699 -81 20s-22 32.333 -22 57c0 6.66699 0.333008 14.334 1 23.001s2.33398 17 5.00098 25c2.66699 10 8.66699 24.5 18 43.5l30.5 61.5l32.5 66.5c10.667 22.333 18.667 41.833 24 58.5l30.5 99.5c11.667 37.667 22.834 75.667 33.501 114
s19.5 74.666 26.5 108.999s10.5 62.166 10.5 83.499c0 10 -1 20 -3 30s-5.5 18.667 -10.5 26s-12 13.333 -21 18s-20.5 7 -34.5 7c-20 0 -43.833 -5.66699 -71.5 -17s-56.334 -26.166 -86.001 -44.499s-58.5 -39 -86.5 -62s-52 -45.833 -72 -68.5
c-14 -16 -27.333 -29 -40 -39s-25.334 -17.667 -38.001 -23c-1.33301 -2.66699 -4.66602 -11.5 -9.99902 -26.5l-19 -54l-23 -68l-22.5 -68l-17.5 -53c-4.66699 -14.333 -7 -22.166 -7 -23.499c-4.66699 -18.667 -8.66699 -37.834 -12 -57.501s-6.33301 -38.5 -9 -56.5
s-5.16699 -37.167 -7.5 -57.5s-7 -39.333 -14 -57s-17.667 -32.167 -32 -43.5s-34.5 -17 -60.5 -17c-13.333 0 -25.5 3.33301 -36.5 10s-20.5 15.167 -28.5 25.5s-14.333 22 -19 35s-7.33398 26.167 -8.00098 39.5c15.333 60 30.333 114 45 162l44 138l42.5 132.5
c13.667 44.333 27.167 93.166 40.5 146.499c3.33301 12.667 6 25.167 8 37.5s3 23.166 3 32.499c0 16 -3.33301 29.167 -10 39.5s-18.334 15.5 -35.001 15.5c-27.333 0 -54.5 -5.5 -81.5 -16.5s-56.167 -28.167 -87.5 -51.5s-66.166 -53 -104.499 -89l-132.5 -129
c-5.33301 -10 -12.333 -28.667 -21 -56l-26.5 -87l-24.5 -85.5c-7.33301 -26.333 -12 -43.833 -14 -52.5c-7.33301 -28 -12.333 -51.5 -15 -70.5l-7 -51.5c-1.33301 -8 -3.33301 -21.167 -6 -39.5s-7.5 -36.833 -14.5 -55.5s-16.833 -35.167 -29.5 -49.5
s-29.334 -21.5 -50.001 -21.5c-30.667 0 -55.834 8.33301 -75.501 25s-29.5 37.667 -29.5 63c0 4.66699 0.333008 9 1 13s1.66699 8.33301 3 13z" />
    <glyph glyph-name="n" unicode="n" horiz-adv-x="1131" 
d="M906 821c-23.333 0 -48.3291 -5.49902 -74.9961 -16.499s-54.334 -25.833 -83.001 -44.5s-57.834 -39.834 -87.501 -63.501s-58.834 -48.167 -87.501 -73.5c-14.667 -12.667 -28.667 -24.167 -42 -34.5s-26.666 -18.166 -39.999 -23.499
c-9.33301 -15.333 -19.166 -35.5 -29.499 -60.5s-20.5 -52.333 -30.5 -82s-19.5 -60 -28.5 -91s-16.5 -59.833 -22.5 -86.5c-3.33301 -14 -6 -27.667 -8 -41s-4.33301 -27.5 -7 -42.5s-5.83398 -31.167 -9.50098 -48.5s-8.16699 -36.666 -13.5 -57.999
c-3.33301 -12.667 -8.66602 -22.834 -15.999 -30.501s-15 -13.5 -23 -17.5s-15.667 -6.5 -23 -7.5s-13 -1.5 -17 -1.5c-25.333 0 -46 6 -62 18s-24 35.333 -24 70c0 9.33301 0.333008 19.166 1 29.499s2.66699 21.833 6 34.5c14.667 63.333 28.834 120.333 42.501 171
s27.5 97.667 41.5 141s28.167 84.166 42.5 122.499l44 116l47 121l52.5 138.5c4 11.333 14.5 20.833 31.5 28.5s35.167 11.5 54.5 11.5c25.333 0 46.166 -5.66699 62.499 -17s24.5 -27.666 24.5 -48.999c0 -2 -0.666992 -5.66699 -2 -11s-3.33301 -11 -6 -17l-44 -104
l87.5 66c30.333 22 61.5 41.833 93.5 59.5s64.167 32 96.5 43s64.166 16.5 95.499 16.5c64 0 114 -17.167 150 -51.5s54 -87.5 54 -159.5c0 -41.333 -7.16699 -88.333 -21.5 -141s-32.333 -109.167 -54 -169.5l-70 -190c-25 -66.333 -48.167 -133.833 -69.5 -202.5
c-6 -18.667 -12.167 -34.334 -18.5 -47.001s-13.833 -22.834 -22.5 -30.501s-18.834 -13.167 -30.501 -16.5s-25.834 -5 -42.501 -5c-26 0 -44 4.83301 -54 14.5s-15 25.167 -15 46.5c0 18.667 2.83301 41.5 8.5 68.5s13.667 56.667 24 89s22.333 66.833 36 103.5
s28.5 74 44.5 112l37.5 92c12.333 30.667 23.333 60.334 33 89.001s17.5 56 23.5 82s9 50 9 72c0 20.667 -4.5 38.834 -13.5 54.501s-25.833 23.5 -50.5 23.5z" />
    <glyph glyph-name="o" unicode="o" 
d="M206 383c10 40.667 25.5029 83.832 46.5029 129.499s48.5 91.834 82.5 138.501s74.833 92.334 122.5 137.001s102.834 86.334 165.501 125.001c10 6 25.333 12.5 46 19.5s42 11.167 64 12.5c26 28 61 42 105 42c52 0 95.833 -13.167 131.5 -39.5
s65.167 -62.166 88.5 -107.499c7.33301 -14.667 14.166 -29 20.499 -43s11.666 -28.833 15.999 -44.5s7.83301 -32.5 10.5 -50.5s4 -38.333 4 -61c0 -52.667 -8.33301 -106.334 -25 -161.001s-40.334 -108 -71.001 -160s-67.834 -101.833 -111.501 -149.5
s-92.167 -90.5 -145.5 -128.5c-36 -26 -75.833 -46.167 -119.5 -60.5s-92.5 -21.5 -146.5 -21.5c-51.333 0 -95.833 6.83301 -133.5 20.5s-69 33.167 -94 58.5s-43.667 55.666 -56 90.999s-18.5 74.666 -18.5 117.999c0 42 6 87 18 135zM372.003 369.998
c-4 -15.333 -6.83008 -29.8311 -8.49707 -43.498s-2.5 -26.834 -2.5 -39.501c0 -22 2.83301 -42.5 8.5 -61.5s14.834 -35.333 27.501 -49s28.5 -24.334 47.5 -32.001s42.167 -11.5 69.5 -11.5c50.667 0 97.834 12.833 141.501 38.5s82.5 57.834 116.5 96.501
s62.5 80.167 85.5 124.5s39.167 85.166 48.5 122.499c6 23.333 11.167 45.333 15.5 66s6.5 39.667 6.5 57s-3.16699 33.5 -9.5 48.5s-14.5 31.833 -24.5 50.5l-18 35.5c-6 12.333 -11.333 24.5 -16 36.5c-5.33301 -9.33301 -11 -17.5 -17 -24.5s-15 -13.333 -27 -19
s-28.333 -10.834 -49 -15.501s-47.667 -8.66699 -81 -12c-22 -7.33301 -44.333 -18.666 -67 -33.999s-44.834 -33.333 -66.501 -54s-42.334 -43 -62.001 -67s-37.334 -48.5 -53.001 -73.5s-29.334 -49.5 -41.001 -73.5s-19.834 -46 -24.501 -66z" />
    <glyph glyph-name="p" unicode="p" horiz-adv-x="1156" 
d="M109 -370l35.5 148.496l28.5 127l24.5 115l23 112l24 117.5l27.5 133l48 232c8 39.333 13.5 73.166 16.5 101.499s4.5 54.5 4.5 78.5c0 25.333 0.666992 47.833 2 67.5s5 36.334 11 50.001s14.833 24 26.5 31s27.834 10.5 48.501 10.5c30 0 53.333 -4.16699 70 -12.5
s29 -19.166 37 -32.499s12.833 -28.666 14.5 -45.999s2.5 -35.333 2.5 -54c22.667 16 49.167 30.333 79.5 43s61.833 23.167 94.5 31.5s65.667 14.833 99 19.5s64.666 7 93.999 7c48 0 90 -8.5 126 -25.5s66 -39.667 90 -68s42 -61 54 -98s18 -75.167 18 -114.5
c0 -46 -7.33301 -89.333 -22 -130s-34.667 -78.667 -60 -114s-54.833 -68.166 -88.5 -98.499s-70 -58.166 -109 -83.499s-79.333 -48.5 -121 -69.5s-82.834 -39.833 -123.501 -56.5c-27.333 -11.333 -53.166 -19.833 -77.499 -25.5s-46.166 -8.5 -65.499 -8.5
c-27.333 0 -53.833 3 -79.5 9s-50.5 16 -74.5 30c-13.333 -45.333 -24.5 -88.666 -33.5 -129.999s-16.167 -78 -21.5 -110c-3.33301 -20 -7.33301 -41 -12 -63l-14 -64.5l-13.5 -59.5c-4.33301 -18.667 -7.83301 -34.667 -10.5 -48c-2 -8 -6.83301 -14.667 -14.5 -20
s-16.834 -9.83301 -27.501 -13.5s-21.5 -6.33398 -32.5 -8.00098s-20.833 -2.5 -29.5 -2.5c-49.333 0 -74 19.333 -74 58c0 10.667 1.66699 22 5 34zM419 209.996c10 -1.33301 20.6592 -3 31.9922 -5l33 -6c10.667 -2 19.834 -3.83301 27.501 -5.5s12.834 -2.5 15.501 -2.5
c12.667 0 26.834 1.66699 42.501 5s31.334 7.66602 47.001 12.999s30.834 11.166 45.501 17.499s27.667 12.5 39 18.5c32.667 16.667 67.5 36.834 104.5 60.501s71.333 50.834 103 81.501s57.834 65 78.501 103s31 80 31 126c0 18.667 -2.33301 36 -7 52s-11.667 30 -21 42
s-21.5 21.5 -36.5 28.5s-32.833 10.5 -53.5 10.5c-22.667 0 -44 -1.5 -64 -4.5s-39.667 -7.83301 -59 -14.5s-38.666 -15.167 -57.999 -25.5s-39.333 -22.833 -60 -37.5c-18.667 -15.333 -39.667 -28.833 -63 -40.5s-48.666 -19.167 -75.999 -22.5z" />
    <glyph glyph-name="q" unicode="q" horiz-adv-x="1081" 
d="M777 169c-28 -16.667 -60.3291 -34.8311 -96.9961 -54.498s-74.167 -38 -112.5 -55s-75.5 -31.167 -111.5 -42.5s-67.333 -17 -94 -17c-68.667 0 -119.834 16.167 -153.501 48.5s-50.5 77.166 -50.5 134.499c0 13.333 0.833008 27.166 2.5 41.499
s4.16699 28.166 7.5 41.499c14.667 54.667 36.167 111.334 64.5 170.001s61.333 114 99 166s79 98.333 124 139s91.5 70.334 139.5 89.001c28 11.333 68.167 20.666 120.5 27.999s122.166 13.333 209.499 18l15 42c4.66699 13.333 10.5 25.333 17.5 36
s16.167 19.834 27.5 27.501s26.333 13.834 45 18.501c32 -0.666992 54.833 -8.5 68.5 -23.5s20.5 -41.5 20.5 -79.5c0 -4.66699 -0.166992 -10.334 -0.5 -17.001s-1.16602 -12.667 -2.49902 -18l-16 -64.5l-25.5 -101.5l-30 -120.5l-30 -121l-25.5 -103.5
c-7.33301 -30.667 -12.333 -53.334 -15 -68.001l-29 -141c-12.667 -61.333 -26.667 -136.333 -42 -225l-22.5 -132c-7 -39.333 -12.167 -67.666 -15.5 -84.999c5.33301 -9.33301 9.66602 -20.833 12.999 -34.5s5.66602 -26.167 6.99902 -37.5l-2 -11
c-2 -10 -6.5 -19.667 -13.5 -29s-15.5 -17.833 -25.5 -25.5s-21.167 -13.667 -33.5 -18s-24.5 -6.5 -36.5 -6.5c-17.333 0 -32 3 -44 9s-21.833 14 -29.5 24s-13.334 21.667 -17.001 35s-5.5 27.333 -5.5 42c0 9.33301 0.833008 18.166 2.5 26.499s3.16699 16.5 4.5 24.5
c15.333 88 31 170.667 47 248l46 216zM336.004 262.003c-2.66699 -10.667 -3.99609 -20.665 -3.99609 -29.998c0 -19.333 5.33301 -34.833 16 -46.5s26 -17.5 46 -17.5c30 0 66 7.66699 108 23s87.333 35 136 59c26 12.667 50.167 25.667 72.5 39s41.666 25.333 57.999 36
s29.166 19.667 38.499 27l14 10l66 297c0.666992 2 1 5.33301 1 10c0 9.33301 -3.83301 16.333 -11.5 21s-16.834 7 -27.501 7c-66.667 0 -118.167 -4.5 -154.5 -13.5s-63.833 -20.5 -82.5 -34.5c-35.333 -26.667 -67.333 -53.334 -96 -80.001
s-54.334 -55.334 -77.001 -86.001s-42.5 -64 -59.5 -100s-31.5 -76.333 -43.5 -121z" />
    <glyph glyph-name="r" unicode="r" horiz-adv-x="872" 
d="M216 103l29.999 154.001l35 170l35 169c11.333 55.333 21 106 29 152c-0.666992 6.66699 -1 12.5 -1 17.5v16.5c0 20.667 1.33301 41.334 4 62.001s6.33398 39.667 11.001 57c7.33301 25.333 15.5 42.5 24.5 51.5s23.5 13.5 43.5 13.5
c19.333 0 34.833 -3.83301 46.5 -11.5s20.834 -17.834 27.501 -30.501s11 -27.167 13 -43.5s3 -33.166 3 -50.499c0 -9.33301 -0.333008 -19.666 -1 -30.999s-1 -20.333 -1 -27l59.5 59.5c21 20.333 43.333 38.666 67 54.999s48.667 29.833 75 40.5s53.833 16 82.5 16
c11.333 0 22.5 -1 33.5 -3s22.167 -4.66699 33.5 -8c13.333 -3.33301 27.166 -7.83301 41.499 -13.5s28.166 -13.5 41.499 -23.5c22 -16.667 40.5 -37.5 55.5 -62.5s22.5 -50.5 22.5 -76.5c0 -10 -2 -20.833 -6 -32.5s-9.5 -22.334 -16.5 -32.001s-15.167 -17.667 -24.5 -24
s-19.666 -9.5 -30.999 -9.5s-25.166 2.83301 -41.499 8.5s-29.833 13.167 -40.5 22.5c-4.66699 4 -9.5 9.66699 -14.5 17s-9.66699 14.666 -14 21.999l-12 20.5c-3.66699 6.33301 -6.5 10.5 -8.5 12.5c-3.33301 0.666992 -7 1.16699 -11 1.5s-7.66699 0.5 -11 0.5
c-34 0 -66.333 -8.66699 -97 -26s-59.334 -38.5 -86.001 -63.5s-51.167 -51.667 -73.5 -80l-58.5 -76.5l-44.5 -172.5c-16.333 -61 -32.5 -124.833 -48.5 -191.5v-25c0 -20 -0.666992 -40.333 -2 -61s-5.33301 -39 -12 -55c-7.33301 -10 -17.833 -18.5 -31.5 -25.5
s-29.5 -10.5 -47.5 -10.5c-28 0 -49 9.16699 -63 27.5s-21 39.833 -21 64.5c0 11.333 1.66699 23 5 35z" />
    <glyph glyph-name="s" unicode="s" horiz-adv-x="847" 
d="M220 177c5.33301 0 10.166 -0.666016 14.499 -1.99902l14.5 -4.5c5.33301 -1.66699 11.333 -3.16699 18 -4.5s15.334 -2 26.001 -2c31.333 0 66.166 3.33301 104.499 10s74.5 15.334 108.5 26.001s63.167 22.834 87.5 36.501s38.166 27.834 41.499 42.501c2 8 3 15 3 21
c0 11.333 -5.5 22.166 -16.5 32.499s-24.833 20.166 -41.5 29.499s-34.667 18 -54 26l-54 22l-34 14c-17.333 6.66699 -34.333 14.834 -51 24.501s-32.167 20.834 -46.5 33.501s-27 27.5 -38 44.5s-19.167 36.5 -24.5 58.5
c-2.66699 9.33301 -4.83398 18.666 -6.50098 27.999s-2.5 19.333 -2.5 30c0 17.333 5.83301 37.166 17.5 59.499s27.334 44.5 47.001 66.5s42 43 67 63s51.167 36.667 78.5 50c20 14 39.333 26.667 58 38s37.5 21 56.5 29s38.333 14.333 58 19s40.5 7 62.5 7
c20 0 41.667 -1 65 -3s44.666 -6.66699 63.999 -14s35.5 -18.166 48.5 -32.499s19.5 -33.5 19.5 -57.5c0 -7.33301 -1 -17 -3 -29s-5.33301 -24 -10 -36s-10.334 -22.333 -17.001 -31s-14.667 -13 -24 -13c-15.333 0 -28 3 -38 9s-19 12.5 -27 19.5s-16.333 13.5 -25 19.5
s-19.334 9 -32.001 9c-15.333 0 -33.166 -2.83301 -53.499 -8.5s-41.166 -13.334 -62.499 -23.001s-42.166 -20.834 -62.499 -33.501s-38.666 -25.667 -54.999 -39s-29.5 -26.5 -39.5 -39.5s-15 -24.833 -15 -35.5c0 -11.333 3.66699 -20.666 11 -27.999
s16.666 -13.666 27.999 -18.999c14.667 -8 31.5 -16 50.5 -24l57.5 -24l56.5 -24c18.333 -8 34.166 -15.333 47.499 -22c18 -9.33301 34.167 -18.5 48.5 -27.5s26.5 -18.833 36.5 -29.5s17.667 -22.667 23 -36s8 -29 8 -47c0 -8.66699 -0.666992 -17.334 -2 -26.001
s-3.33301 -18.667 -6 -30c-2 -10 -5.5 -21.667 -10.5 -35s-10.333 -26.5 -16 -39.5s-11.5 -24.667 -17.5 -35s-11 -17.166 -15 -20.499c-26 -24 -56.667 -46.5 -92 -67.5s-72.166 -39.333 -110.499 -55s-76.666 -28.167 -114.999 -37.5s-73.5 -14 -105.5 -14
c-16 0 -33.667 3.16699 -53 9.5s-37.166 14.666 -53.499 24.999s-30 22.166 -41 35.499s-16.5 26.666 -16.5 39.999c0 6.66699 2 14.167 6 22.5s9 16 15 23s12.5 13 19.5 18s13.5 7.5 19.5 7.5z" />
    <glyph glyph-name="t" unicode="t" horiz-adv-x="1081" 
d="M339 311c0 56 6.33008 114.166 18.9971 174.499s26 118.166 40 173.499c-17.333 0.666992 -35 3.33398 -53 8.00098s-34.333 11 -49 19s-26.667 17.833 -36 29.5s-14 25.167 -14 40.5c0 6 1.33301 13.667 4 23s6.5 18.5 11.5 27.5s11.5 16.667 19.5 23s17 9.5 27 9.5h134
c12.667 0 21.334 5.5 26.001 16.5s8.33398 21.833 11.001 32.5c8.66699 38.667 16.834 72.167 24.501 100.5l19.5 72c5.33301 19.667 9.5 35.667 12.5 48s4.5 22.166 4.5 29.499c0 8.66699 -0.333008 17 -1 25s-1 19 -1 33v10c0 5.33301 0.5 12.333 1.5 21
s4.16699 21 9.5 37c4 12.667 11.333 24.667 22 36s26.334 17 47.001 17c18 0 33.333 -3.66699 46 -11s23 -17 31 -29s14 -25.667 18 -41s6 -30.666 6 -45.999c0 -16.667 -1.66699 -31.667 -5 -45l-73 -280c36 6 68 11.667 96 17l84 16c30.667 6 57.167 11.667 79.5 17
l57.5 13.5l40.5 9c11 2.33301 20.167 3.5 27.5 3.5c10.667 0 21.5 -0.833008 32.5 -2.5s20.667 -4.5 29 -8.5s15.166 -9.66699 20.499 -17s8 -17 8 -29c0 -16 -3.16699 -30.167 -9.5 -42.5s-14.5 -23 -24.5 -32s-21.333 -16.333 -34 -22s-25.334 -9.83398 -38.001 -12.501
c-10.667 -2 -24.5 -5 -41.5 -9l-56 -13l-63.5 -15l-64 -16l-78.5 -20c-21.667 -5.33301 -40.167 -9.33301 -55.5 -12s-27.833 -4.66699 -37.5 -6s-17.5 -2 -23.5 -2c-12.667 -38 -23.667 -75.333 -33 -112s-17.166 -70.834 -23.499 -102.501s-11 -60 -14 -85
s-4.5 -44.5 -4.5 -58.5c0 -18 1.66699 -35.167 5 -51.5s9 -30.5 17 -42.5s18.833 -21.5 32.5 -28.5s30.834 -10.5 51.501 -10.5c35.333 0 70 9.66699 104 29s66.5 43.833 97.5 73.5s60.333 62.167 88 97.5l76.5 101c8 12 18.333 18 31 18c4 0 8.83301 -0.666992 14.5 -2
s11.167 -3.66602 16.5 -6.99902s9.83301 -7.66602 13.5 -12.999s5.5 -11.666 5.5 -18.999c0 -5.33301 -0.333008 -9.33301 -1 -12c-10.667 -41.333 -27.167 -82.833 -49.5 -124.5l-68.5 -125.5c-8 -14.667 -18.5 -29 -31.5 -43s-27.167 -27.5 -42.5 -40.5
s-31.333 -25.333 -48 -37s-32.334 -22.167 -47.001 -31.5c-25.333 -16 -53 -27 -83 -33s-59 -9 -87 -9c-43.333 0 -81.833 7.83301 -115.5 23.5s-62 37 -85 64s-40.5 58.5 -52.5 94.5s-18 74.667 -18 116z" />
    <glyph glyph-name="u" unicode="u" horiz-adv-x="1135" 
d="M370 890c2.66699 10.667 6.50293 19.8359 11.5029 27.5029s10.333 13.834 16 18.501s10.834 8 15.501 10s8.33398 3 11.001 3c7.33301 0 16 -0.833008 26 -2.5s19.667 -3.16699 29 -4.5l31 -6c17.333 -0.666992 29.833 -7.66699 37.5 -21s11.5 -29.333 11.5 -48
c0 -14.667 -2 -28.334 -6 -41.001c-22.667 -83.333 -43.334 -155.833 -62.001 -217.5l-47.5 -157.5c-13 -43.333 -23 -78.666 -30 -105.999s-10.5 -48 -10.5 -62s1.83301 -29.667 5.5 -47s9.16699 -33.5 16.5 -48.5s16.666 -27.5 27.999 -37.5s25 -15 41 -15
c28 0 56.333 8.66699 85 26s56 38.5 82 63.5s49.5 51.667 70.5 80s38.167 53.5 51.5 75.5l26 45c16 28 30.833 60.167 44.5 96.5s25.667 72.833 36 109.5s19.166 71.167 26.499 103.5s13 58.166 17 77.499l26 133c5.33301 25.333 13.5 42.833 24.5 52.5s29.5 14.5 55.5 14.5
c16.667 0 31.667 -1.83301 45 -5.5s24.666 -10.167 33.999 -19.5s16.333 -21.833 21 -37.5s7 -35.834 7 -60.501c0 -28.667 -4.5 -63.834 -13.5 -105.501s-18.833 -83.5 -29.5 -125.5l-18.5 -78.5c-6.33301 -27.667 -12 -55.334 -17 -83.001s-9 -54 -12 -79
s-4.5 -47.5 -4.5 -67.5c0 -34 1.16699 -68 3.5 -102s3.5 -70 3.5 -108c0 -17.333 -0.5 -32.666 -1.5 -45.999s-2.5 -23.333 -4.5 -30c-7.33301 -26 -16.833 -45.333 -28.5 -58s-31.5 -19 -59.5 -19c-19.333 0 -34.666 2.16699 -45.999 6.5s-20.166 10.166 -26.499 17.499
s-10.5 15.5 -12.5 24.5s-3.33301 18.167 -4 27.5l-11 189l-9 -3l-72 -94c-26 -34.667 -54.667 -67 -86 -97s-65.5 -55.167 -102.5 -75.5s-77.167 -30.5 -120.5 -30.5c-8.66699 0 -19.834 2.16699 -33.501 6.5s-27.834 9.83301 -42.501 16.5s-28.667 14.167 -42 22.5
s-24 16.166 -32 23.499c-36.667 34 -62.667 72.333 -78 115s-23 86 -23 130c0 24.667 2 49.334 6 74.001s8.66699 48.5 14 71.5s11.166 44.667 17.499 65s11.5 38.5 15.5 54.5l34 132l26.5 100l19.5 73.5z" />
    <glyph glyph-name="v" unicode="v" horiz-adv-x="1002" 
d="M517 -40c-3.33301 -0.666992 -6.1709 -1.16504 -8.50391 -1.49805s-4.83301 -0.5 -7.5 -0.5c-14 0 -26.333 3 -37 9s-19.834 13.5 -27.501 22.5s-13.5 18.667 -17.5 29s-6 20.166 -6 29.499l-14 60l-20.5 88l-24 105.5l-24.5 113.5c-8 38 -15.333 75 -22 111
s-12.334 69 -17.001 99c-3.33301 21.333 -7 41.333 -11 60l-11 53.5c-3.33301 17 -6.16602 33.667 -8.49902 50s-3.5 32.833 -3.5 49.5c0 18.667 2 36.5 6 53.5s9.83301 32 17.5 45s17 23.5 28 31.5s23.167 12 36.5 12c26.667 0 47.834 -6.5 63.501 -19.5
s27.834 -30.333 36.501 -52s14.834 -46.834 18.501 -75.501s6.5 -58.334 8.5 -89.001c2.66699 -38.667 7 -80.5 13 -125.5s12.667 -90 20 -135s14.833 -88.333 22.5 -130l20.5 -110.5c20 20.667 55 66.667 105 138l68.5 96l59.5 84.5c18.667 27 36.334 53.833 53.001 80.5
s32.834 54.334 48.501 83.001s31 59.167 46 91.5s30.167 68.166 45.5 107.499c4.66699 8 10.334 16.5 17.001 25.5s14.5 17 23.5 24s19.333 12.833 31 17.5s24.834 7 39.501 7c30.667 0 51.5 -7.66699 62.5 -23s16.5 -34.666 16.5 -57.999
c0 -31.333 -5.5 -61.833 -16.5 -91.5s-28.5 -61.5 -52.5 -95.5l-469 -662c-9.33301 -20 -19 -36.667 -29 -50s-19.833 -24 -29.5 -32s-18.834 -14 -27.501 -18s-16.334 -6.66699 -23.001 -8z" />
    <glyph glyph-name="w" unicode="w" horiz-adv-x="1503" 
d="M324 894c12 26 25.668 43.498 41.001 52.498s33 13.5 53 13.5c19.333 0 35.666 -3 48.999 -9s24 -14 32 -24s13.667 -21.667 17 -35s5 -27.666 5 -42.999v-13.5c0 -4.33301 -0.333008 -8.83301 -1 -13.5c-0.666992 -6 -2.33398 -16.833 -5.00098 -32.5l-9.5 -55.5
l-12 -67.5l-12 -67.5l-10 -56c-3 -16 -5.16699 -27 -6.5 -33c-1.33301 -6.66699 -3 -16.334 -5 -29.001s-4 -27.167 -6 -43.5s-3.66699 -33.833 -5 -52.5s-2 -37.334 -2 -56.001c0 -18 0.666992 -35.167 2 -51.5s3.83301 -30.666 7.5 -42.999
s8.33398 -22.166 14.001 -29.499s12.834 -11 21.501 -11c6 0 14.833 4.83301 26.5 14.5s24 21.167 37 34.5s25.833 27.5 38.5 42.5l31 37.5c43.333 53.333 83.166 107.5 119.499 162.5s70.166 110.5 101.499 166.5c12 22 21.167 44.333 27.5 67s13.833 43.167 22.5 61.5
s20.834 33.333 36.501 45s39.167 17.5 70.5 17.5c16.667 0 33.667 -5.66699 51 -17s29.333 -27.666 36 -48.999c-2 -24.667 -5 -50 -9 -76s-7.66699 -52.5 -11 -79.5s-6.33301 -53.833 -9 -80.5s-4 -52.667 -4 -78c0 -39.333 4 -75.833 12 -109.5s22.667 -62.167 44 -85.5
c26 32.667 51.833 69.667 77.5 111s50.834 84.333 75.501 129s48.167 89.834 70.5 135.501l62.5 130.5c1.33301 3.33301 2.16602 6.5 2.49902 9.5s0.5 6.16699 0.5 9.5v9c0 20.667 5.83301 42 17.5 64s25.5 42 41.5 60s32.5 32.667 49.5 44s31.167 17 42.5 17
c28 0 50 -7.66699 66 -23s24 -35.666 24 -60.999c0 -8 -1.5 -18 -4.5 -30s-7.83301 -24 -14.5 -36l-337 -594l-25 -49l-31.5 -60c-10.333 -19.333 -21.666 -36.333 -33.999 -51s-26 -26.334 -41 -35.001s-32.167 -13 -51.5 -13c-26 0 -49.167 7.33301 -69.5 22
s-37.833 32.667 -52.5 54s-26.834 44.5 -36.501 69.5s-16.834 47.5 -21.501 67.5l-37 160c-2 0 -9 -7 -21 -21l-45 -54l-59 -72.5l-62.5 -76l-56 -66c-17 -19.667 -30.167 -33.5 -39.5 -41.5s-19.166 -16 -29.499 -24s-20.5 -15 -30.5 -21s-19.5 -11 -28.5 -15
s-16.5 -6 -22.5 -6c-44 0 -80.5 10.333 -109.5 31s-52 47.667 -69 81s-28.833 70.5 -35.5 111.5s-10 82.167 -10 123.5c0 36.667 1.83301 73.667 5.5 111s8 74.166 13 110.499s10.333 71.5 16 105.5s10.5 65.667 14.5 95c0.666992 5.33301 1.16699 11.5 1.5 18.5
s0.5 14.167 0.5 21.5v26c0 10.667 0.166992 20.5 0.5 29.5s1.5 15.167 3.5 18.5z" />
    <glyph glyph-name="x" unicode="x" horiz-adv-x="996" 
d="M167 40c-15.333 -12 -35.6699 -18.0029 -61.0029 -18.0029c-11.333 0 -21.5 2.33301 -30.5 7s-16.667 10.834 -23 18.501s-11.166 16.334 -14.499 26.001s-5 19.5 -5 29.5c0 14 2.83301 25.833 8.5 35.5s12.667 18 21 25s17.333 12.833 27 17.5s18.5 8.66699 26.5 12
c26.667 17.333 56.667 38.666 90 63.999l103 81.5l105.5 88.5l99.5 86l45 40c-10 34 -20 63.167 -30 87.5s-20 46.166 -30 65.499s-20.167 37.5 -30.5 54.5l-33.5 54.5l-24.5 40c-5.66699 9.33301 -8.5 18.666 -8.5 27.999c0 6.66699 1.66699 14.834 5 24.501
s8.5 19 15.5 28s16 16.667 27 23s23.833 9.5 38.5 9.5c21.333 0 40.166 -4.5 56.499 -13.5s30.833 -20.5 43.5 -34.5s23.667 -29.167 33 -45.5s17.666 -31.833 24.999 -46.5c4 -8 8.33301 -18.667 13 -32s9.16699 -27.5 13.5 -42.5l12.5 -44
c4 -14.333 7.33301 -26.833 10 -37.5c29.333 28 57.833 57.333 85.5 88l92.5 107l33.5 41c11.667 14.667 23.834 28.167 36.501 40.5s25.667 22.5 39 30.5s27.666 12 42.999 12c26 0 44.5 -6.66699 55.5 -20s16.5 -30.666 16.5 -51.999
c0 -22.667 -4.16699 -43.5 -12.5 -62.5s-19.166 -33.833 -32.499 -44.5c-19.333 -15.333 -40.5 -33.833 -63.5 -55.5l-70 -68.5l-70.5 -71l-64 -63c-8 -7.33301 -14.833 -14.666 -20.5 -21.999s-8.5 -16.666 -8.5 -27.999c0 -6.66699 1.83301 -15 5.5 -25
s8.33398 -20.667 14.001 -32l17 -34.5c5.66699 -11.667 10.5 -22.167 14.5 -31.5c8 -18 19.167 -39.333 33.5 -64l43 -77.5c14.333 -27 26.833 -54.5 37.5 -82.5s16 -54.667 16 -80c0 -16 -2.33301 -30.833 -7 -44.5s-10.667 -25.667 -18 -36s-15.5 -18.5 -24.5 -24.5
s-17.5 -9 -25.5 -9c-17.333 0 -31.166 2 -41.499 6s-19.166 10 -26.499 18s-13.5 17.833 -18.5 29.5l-16.5 40.5c-8.66699 24.667 -20 53 -34 85l-43.5 95l-42.5 87.5l-31 61.5l-57.5 -45.5l-76.5 -60.5l-119.5 -94z" />
    <glyph glyph-name="y" unicode="y" horiz-adv-x="1081" 
d="M190 -462c-10 0 -18.999 2.67383 -26.999 8.00684s-14.833 12.333 -20.5 21s-10.167 18.167 -13.5 28.5s-5 20.5 -5 30.5c0 12.667 1.66699 23.667 5 33s7.5 17.5 12.5 24.5s10.333 12.5 16 16.5s10.834 7 15.501 9c16 4 34.667 8.33301 56 13s44.5 11.5 69.5 20.5
s51.667 20.667 80 35s57.5 33.166 87.5 56.499s61.5 50.5 94.5 81.5s64.833 67.333 95.5 109s59.334 89.334 86.001 143.001s48.667 115.167 66 184.5l-43.5 -47.5c-16.333 -17.667 -33.833 -35.667 -52.5 -54s-38 -36 -58 -53s-40 -32.333 -60 -46s-39.5 -24.5 -58.5 -32.5
s-36.833 -12 -53.5 -12c-44.667 0 -82.667 10.167 -114 30.5s-60.333 53.833 -87 100.5c-7.33301 13.333 -13 30.666 -17 51.999s-6 43 -6 65c0 36 1.66699 71 5 105s8.33301 69.333 15 106s14.5 75.167 23.5 115.5l30.5 133.5c0.666992 12.667 1.66699 24.667 3 36
c1.33301 9.33301 2.16602 18.333 2.49902 27s0.833008 14 1.5 16c1.33301 11.333 5.16602 22 11.499 32s14 18.667 23 26s18.667 13 29 17s20.5 6 30.5 6c14 0 28 -1.16699 42 -3.5s25 -7.5 33 -15.5c11.333 -12 19.833 -27.667 25.5 -47s8.5 -36.666 8.5 -51.999
c0 -6 -2.83301 -18 -8.5 -36s-13.834 -36.667 -24.501 -56c-16 -60 -29 -110.833 -39 -152.5s-17.833 -76.334 -23.5 -104.001s-9.66699 -49.667 -12 -66s-3.5 -28.833 -3.5 -37.5c0 -36 6 -64.667 18 -86s26.667 -32 44 -32c10 0 21.5 2 34.5 6s26.833 10.667 41.5 20
c56 34.667 104.167 72.5 144.5 113.5s75 86.333 104 136s54 104.167 75 163.5s40.167 124.666 57.5 195.999c1.33301 4.66699 4.5 9.33398 9.5 14.001s11 8.66699 18 12s14.5 6.16602 22.5 8.49902s15.667 3.5 23 3.5c35.333 0 62.5 -9.5 81.5 -28.5s28.5 -44.5 28.5 -76.5
c0 -12 -3 -31.333 -9 -58s-13 -54.834 -21 -84.501s-16.167 -58 -24.5 -85s-14.833 -46.833 -19.5 -59.5l-48 -139l-59.5 -173c-17.667 -52.667 -36.5 -101.834 -56.5 -147.501s-42.5 -88.834 -67.5 -129.501s-55.167 -80.334 -90.5 -119.001s-77.333 -77.5 -126 -116.5
s-106.667 -79.5 -174 -121.5c-41.333 -24.667 -81.833 -44.834 -121.5 -60.501s-81.5 -23.5 -125.5 -23.5z" />
    <glyph glyph-name="z" unicode="z" horiz-adv-x="1038" 
d="M114 103c4 14.667 11.6699 29.498 23.0029 44.498s23.833 29.5 37.5 43.5s27.334 26.667 41.001 38l34.5 28l112 105.5l130 125.5l126.5 129c40.333 42.667 74.5 81.334 102.5 116.001c-20 -0.666992 -43.833 -1.33398 -71.5 -2.00098l-83 -2
c-27.667 -0.666992 -53.5 -1.33398 -77.5 -2.00098s-42 -1 -54 -1c-14 0 -27.167 1.66699 -39.5 5s-23.166 8.83301 -32.499 16.5s-16.833 17.334 -22.5 29.001s-8.5 25.834 -8.5 42.501s5 32 15 46s22.667 22.333 38 25c11.333 -1.33301 22.833 -2.33301 34.5 -3
s24.167 -1 37.5 -1c39.333 0 81.333 2.5 126 7.5s89.167 10.5 133.5 16.5s87.5 11.5 129.5 16.5s80 7.5 114 7.5c13.333 0 24.5 -1.16699 33.5 -3.5s17 -6 24 -11s13.5 -11.5 19.5 -19.5s12.667 -18 20 -30c3.33301 -5.33301 5.33301 -9.83301 6 -13.5s1 -7.16699 1 -10.5
c0 -15.333 -3.33301 -29.5 -10 -42.5s-16.334 -26.167 -29.001 -39.5c-7.33301 -1.33301 -18 -6.83301 -32 -16.5s-30 -21.667 -48 -36s-36.833 -30.333 -56.5 -48l-57.5 -52l-51 -47.5l-37 -35l-10 -9l-45.5 -43.5l-68.5 -67.5l-79.5 -80.5l-80 -82l-70 -72
c-21 -21.667 -37.167 -38.834 -48.5 -51.501c3.33301 -1.33301 8 -2.16602 14 -2.49902s11.667 -0.5 17 -0.5c20.667 0 44.167 2.33301 70.5 7s52.5 8.66699 78.5 12l271 38c9.33301 5.33301 23.166 10.666 41.499 15.999s35.833 10 52.5 14l30 7
c14.667 3.33301 26.834 6.83301 36.501 10.5l25.5 10c7.33301 3 14.166 5.33301 20.499 7s13.833 2.5 22.5 2.5c14 0 25.5 -2.5 34.5 -7.5s16.167 -11.833 21.5 -20.5s9.66602 -18.834 12.999 -30.501s6.66602 -24.167 9.99902 -37.5
c-2.66699 -11.333 -6.83398 -22.5 -12.501 -33.5s-12.5 -20.667 -20.5 -29s-16.667 -15.166 -26 -20.499s-19 -8 -29 -8c-6 0 -13 1.66699 -21 5c-11.333 -2 -28.166 -5.16699 -50.499 -9.5l-90 -17l-139 -25l-197.5 -33.5
c-7.33301 -1.33301 -20.833 -3.16602 -40.5 -5.49902s-40.5 -4.66602 -62.5 -6.99902s-42.833 -4.33301 -62.5 -6s-33.167 -2.5 -40.5 -2.5c-20.667 0 -42.5 2.33301 -65.5 7s-44.333 12 -64 22s-35.834 22.833 -48.501 38.5s-19 34.167 -19 55.5c0 6.66699 1 14.667 3 24z
" />
    <glyph glyph-name="braceleft" unicode="{" horiz-adv-x="934" 
d="M422 551c34 -13.333 60.5049 -37.5 79.5049 -72.5s28.5 -70.833 28.5 -107.5c0 -65.333 -20.333 -176.666 -61 -333.999c-22 -85.333 -33 -149 -33 -191c0 -32 16.833 -60.833 50.5 -86.5s98.834 -41.834 195.501 -48.501c44 -3.33301 66 -31.333 66 -84
c0 -22.667 -9.83301 -43 -29.5 -61s-46.167 -27 -79.5 -27c-106.667 0 -198.167 29 -274.5 87s-114.5 127.333 -114.5 208c0 56 14.333 139.333 43 250c34 132.667 51 220.667 51 264c0 34 -15.333 62.5 -46 85.5s-73.334 36.833 -128.001 41.5c-18.667 2 -35 10.667 -49 26
s-21 32 -21 50c0 56 30 86 90 90c103.333 6.66699 175.666 21.167 216.999 43.5s71.166 55.333 89.499 99s40.166 121.167 65.499 232.5c20.667 89.333 38 151.5 52 186.5s37 69.667 69 104s69.5 64 112.5 89s90.667 42.667 143 53s107.5 15.5 165.5 15.5
c23.333 0 42.166 -8.16699 56.499 -24.5s21.5 -37.5 21.5 -63.5c0 -60 -30 -90 -90 -90c-68 0 -124.667 -8.83301 -170 -26.5s-81.333 -42 -108 -73s-44.834 -64.667 -54.501 -101s-20.5 -80.5 -32.5 -132.5c-28.667 -119.333 -51.5 -197 -68.5 -233s-47.833 -71 -92.5 -105
s-92.667 -55.333 -144 -64z" />
    <glyph glyph-name="bar" unicode="|" horiz-adv-x="893" 
d="M870 1411c0 -27.333 -13.002 -70.999 -39.002 -130.999c-85.333 -196.667 -179.666 -459 -282.999 -787s-167.333 -574.333 -192 -739c-6.66699 -50.667 -40 -76 -100 -76c-58.667 0 -88 26 -88 78c0 83.333 35.833 252.333 107.5 507s158.334 508.167 260.001 760.5
s164.5 389.166 188.5 410.499s51 32 81 32c43.333 0 65 -18.333 65 -55z" />
    <glyph glyph-name="braceright" unicode="}" horiz-adv-x="934" 
d="M594 438c-38.667 12 -69.1689 37.3369 -91.502 76.0039s-33.5 76.334 -33.5 113.001c0 55.333 21 165.666 63 330.999c15.333 56 23 111.333 23 166c0 45.333 -9.66699 79.5 -29 102.5s-42.166 39 -68.499 48s-66.833 16.167 -121.5 21.5
c-23.333 2 -41.833 10.333 -55.5 25s-20.5 32.334 -20.5 53.001c0 60 46.333 90 139 90c100 0 182 -29.167 246 -87.5s96 -131.5 96 -219.5c0 -54.667 -14.333 -136 -43 -244c-32.667 -125.333 -49 -214.666 -49 -267.999c0 -24.667 11.5 -49.667 34.5 -75
s83.833 -42 182.5 -50c42.667 -3.33301 64 -24.333 64 -63c0 -62 -32 -95.667 -96 -101c-77.333 -6.66699 -139 -16.834 -185 -30.501s-82.167 -33.834 -108.5 -60.501s-44.166 -56.834 -53.499 -90.501s-21 -87.834 -35 -162.501
c-14.667 -81.333 -27.334 -139.5 -38.001 -174.5s-31.834 -74 -63.501 -117s-69 -78.333 -112 -106s-92.5 -47.167 -148.5 -58.5s-114 -17 -174 -17c-26.667 0 -49.667 8.83301 -69 26.5s-29 38.167 -29 61.5c0 61.333 30.667 92 92 92c74 0 128.333 5.16699 163 15.5
s65.834 26.5 93.501 48.5s47.667 49.333 60 82s28.5 94 48.5 184c24 109.333 44.333 182.166 61 218.499s47.834 71.666 93.501 105.999s100.5 55.833 164.5 64.5z" />
    <glyph glyph-name="asciitilde" unicode="~" horiz-adv-x="1234" 
d="M256 520c6.66699 26 19.6621 52.1631 38.9951 78.4961s42.666 51.666 69.999 75.999s57.333 46.833 90 67.5s65.334 38.667 98.001 54s64.334 27.333 95.001 36s58 13 82 13c46 0 82.833 -7.33301 110.5 -22s48.834 -36.667 63.501 -66
c4.66699 -9.33301 9.66699 -18.833 15 -28.5s10.833 -18.5 16.5 -26.5s11.167 -14.5 16.5 -19.5s10 -7.5 14 -7.5c15.333 0 33.333 6.33301 54 19s42.167 28.5 64.5 47.5s44.5 39.5 66.5 61.5l61 61.5c18.667 19 34.834 34.833 48.501 47.5s23.167 19 28.5 19
c17.333 0 32.5 -6.66699 45.5 -20s19.5 -29.666 19.5 -48.999c0 -14.667 -8 -34 -24 -58s-36.667 -49.5 -62 -76.5s-54 -54.5 -86 -82.5s-64 -53.167 -96 -75.5s-62.5 -40.5 -91.5 -54.5s-53.5 -21 -73.5 -21c-20.667 0 -37.5 4.83301 -50.5 14.5
s-24.167 21.834 -33.5 36.501s-17.666 30.334 -24.999 47.001s-15.5 32.334 -24.5 47.001s-19.667 26.834 -32 36.501s-28.166 14.5 -47.499 14.5c-8.66699 0 -20.5 -2 -35.5 -6s-32.667 -11.167 -53 -21.5s-42.833 -24.5 -67.5 -42.5s-50.334 -41.333 -77.001 -70
c-13.333 -14 -25.666 -28.5 -36.999 -43.5s-23.5 -28.833 -36.5 -41.5s-27.167 -23.167 -42.5 -31.5s-33 -12.5 -53 -12.5c-9.33301 0 -17.333 2.33301 -24 7s-12.167 10.667 -16.5 18s-7.5 15.5 -9.5 24.5s-3 17.833 -3 26.5c0 8 1 15.667 3 23z" />
    <glyph glyph-name="nonbreakingspace" unicode="&#xa0;" horiz-adv-x="1000" 
 />
    <glyph glyph-name="exclamdown" unicode="&#xa1;" horiz-adv-x="518" 
d="M237 -334c-3.33301 -11.333 -10.333 -23.8311 -21 -37.498s-23.5 -26.334 -38.5 -38.001s-31.667 -21.5 -50 -29.5s-37.166 -12 -56.499 -12c-9.33301 0 -18.833 3.83301 -28.5 11.5s-14.5 19.167 -14.5 34.5c0 2.66699 0.166992 5.16699 0.5 7.5
s0.833008 5.16602 1.5 8.49902c7.33301 29.333 17.333 65.833 30 109.5l43 145l52 169l58 183l60.5 187l58.5 180.5c7.33301 23.333 19.166 43 35.499 59s36.833 24 61.5 24c14.667 0 26.667 -3.5 36 -10.5s16.833 -15.333 22.5 -25s9.66699 -19.5 12 -29.5
s3.5 -17.667 3.5 -23l-33.5 -114l-34 -119l-37.5 -131.5l-43.5 -152.5l-52.5 -181zM498 849.002c-9.33301 0 -20.499 1.83008 -33.499 5.49707s-25.5 9.33398 -37.5 17.001s-22.333 17 -31 28s-13 24.167 -13 39.5v9.5c0 3 0.666992 6.16699 2 9.5
c6 23.333 15.167 44.5 27.5 63.5s26.666 35.333 42.999 49s34 24.167 53 31.5s38.167 11 57.5 11c16 0 29.5 -3.16699 40.5 -9.5s19.833 -14.5 26.5 -24.5s11.5 -21 14.5 -33s4.5 -23.667 4.5 -35c0 -20 -4.5 -39.667 -13.5 -59s-20.833 -36.666 -35.5 -51.999
s-31.167 -27.666 -49.5 -36.999s-36.833 -14 -55.5 -14z" />
    <glyph glyph-name="cent" unicode="&#xa2;" horiz-adv-x="862" 
d="M673 1286c3.33301 30 8.49902 61 15.499 93s14.167 61 21.5 87c0.666992 4 2.66699 8.66699 6 14s7.33301 10.5 12 15.5s10 9.16699 16 12.5s12 5 18 5c7.33301 0 15.833 -1.66699 25.5 -5s18.667 -8.16602 27 -14.499s15.333 -14 21 -23s8.5 -19.167 8.5 -30.5
c0 -4 -0.666992 -9.33301 -2 -16l-29 -118c23.333 -1.33301 45 -4.33301 65 -9s37.167 -11.5 51.5 -20.5s25.5 -20.5 33.5 -34.5s12 -31 12 -51c0 -43.333 -10.833 -74.166 -32.5 -92.499s-50.834 -27.5 -87.501 -27.5c-22.667 0 -40.834 4.16699 -54.501 12.5
s-26.167 15.5 -37.5 21.5l-149 -596c18 6.66699 40.833 16.834 68.5 30.501l84 41.5c28.333 14 54.5 26.167 78.5 36.5s40.667 15.5 50 15.5c14 0 23.667 -1.33301 29 -4s8 -7.66699 8 -15c0 -4 -0.666992 -8.5 -2 -13.5s-2.66602 -11.167 -3.99902 -18.5
c-6.66699 -30 -18.334 -55.667 -35.001 -77s-36.834 -40.333 -60.501 -57s-49.5 -31.667 -77.5 -45s-57 -26.333 -87 -39c-15.333 -7.33301 -31.166 -13.833 -47.499 -19.5l-45.5 -15.5c-3.33301 -19.333 -6.66602 -36.666 -9.99902 -51.999
s-5.66602 -26.666 -6.99902 -33.999c-2 -24 -4.83301 -49.5 -8.5 -76.5s-9 -51.833 -16 -74.5s-16 -41.5 -27 -56.5s-24.833 -22.5 -41.5 -22.5c-12 0 -22.5 3.33301 -31.5 10s-16.333 15.167 -22 25.5s-9.83398 21.666 -12.501 33.999s-4 24.166 -4 35.499
c0 10.667 1 23.5 3 38.5s4.83301 31 8.5 48l11.5 52.5l12 53c-32 0 -63.167 5.5 -93.5 16.5s-57 27 -80 48s-41.5 46.333 -55.5 76s-21 63.5 -21 101.5c0 58 10.333 120.667 31 188s51.834 134.166 93.501 200.499s93.334 129.666 155.001 189.999
s133.5 112.166 215.5 155.499zM442.999 462l11.502 0.000976562c3.66699 0 7.5 0.333008 11.5 1l147 586c-48.667 -38 -90 -78.5 -124 -121.5s-61.5 -85.5 -82.5 -127.5s-36.333 -82.333 -46 -121s-14.5 -72.334 -14.5 -101.001c0 -15.333 1.5 -29.833 4.5 -43.5
s8.16699 -26 15.5 -37s17.166 -19.667 29.499 -26s28.166 -9.5 47.499 -9.5z" />
    <glyph glyph-name="sterling" unicode="&#xa3;" horiz-adv-x="1234" 
d="M127 -25c3.33301 14 7.49707 27.168 12.4971 39.501s11.5 24.166 19.5 35.499s18.333 22.333 31 33s28.667 21.667 48 33c9.33301 22.667 19 47.5 29 74.5s19.667 54.5 29 82.5l26.5 82c8.33301 26.667 15.5 51 21.5 73c-16 2.66699 -31.833 4.33398 -47.5 5.00098
s-29.667 2.16699 -42 4.5s-22.166 6.33301 -29.499 12s-11 14.834 -11 27.501c0 28.667 10.833 53.5 32.5 74.5s51.5 37.167 89.5 48.5c14 4 27.5 8.83301 40.5 14.5s21.167 12.167 24.5 19.5c2 4.66699 5.33301 14.334 10 29.001l14.5 47l14.5 47
c4.66699 14.667 7.66699 24.334 9 29.001c42.667 129.333 89 236.166 139 320.499s104 151.166 162 200.499s120 83.833 186 103.5s136.667 29.5 212 29.5c12 0 26.333 -1.16699 43 -3.5s32.834 -7 48.501 -14s28.834 -17.333 39.501 -31s16 -31.5 16 -53.5
c0 -10 -1.33301 -20.333 -4 -31s-7.33398 -20.667 -14.001 -30s-15.834 -17 -27.501 -23s-26.5 -9 -44.5 -9c-16.667 0 -33.5 2.66699 -50.5 8s-35.833 12 -56.5 20l-13 5c-50.667 0 -97.334 -8.5 -140.001 -25.5s-83.167 -45.833 -121.5 -86.5
s-75.333 -94.334 -111 -161.001s-71.834 -149.334 -108.501 -248.001c-7.33301 -18.667 -13.666 -37.667 -18.999 -57l-13 -46c60.667 4.66699 116.334 8.16699 167.001 10.5s102.667 3.5 156 3.5c8.66699 0 19.834 -0.333008 33.501 -1s27 -3 40 -7
s24.167 -10.333 33.5 -19s14 -21 14 -37c0 -8 -1.5 -16.667 -4.5 -26s-6.66699 -18 -11 -26s-9.16602 -14.5 -14.499 -19.5s-10.333 -7.5 -15 -7.5c-22 0 -51 -1.33301 -87 -4s-74.667 -6.66699 -116 -12s-83.5 -11.833 -126.5 -19.5s-81.833 -16.167 -116.5 -25.5
c-6 -22 -13.5 -47.667 -22.5 -77s-18.167 -57.333 -27.5 -84l-33 -94c27.333 9.33301 53.166 16.333 77.499 21s46.833 7 67.5 7c36.667 0 67.334 -6.16699 92.001 -18.5s46 -25.666 64 -39.999l49.5 -40c15 -12.333 31.5 -18.5 49.5 -18.5c14 0 30.167 5 48.5 15
s37.166 22.333 56.499 37s38.666 30.834 57.999 48.501l54 48.5c16.667 14.667 31.334 27 44.001 37s22 15 28 15c10 0 19.333 -2 28 -6s16.334 -9.5 23.001 -16.5s12 -15 16 -24s6 -18.833 6 -29.5c0 -3.33301 -0.166992 -6.33301 -0.5 -9s-0.833008 -5.66699 -1.5 -9
c-3.33301 -12.667 -12 -28.167 -26 -46.5s-31.833 -37.333 -53.5 -57s-46.167 -39.5 -73.5 -59.5s-55.666 -37.833 -84.999 -53.5s-59.166 -28.334 -89.499 -38.001s-59.166 -14.5 -86.499 -14.5c-30 0 -54.833 6 -74.5 18s-38.334 25.167 -56.001 39.5s-36 27.5 -55 39.5
s-42.5 18 -70.5 18c-9.33301 0 -19.333 -0.666992 -30 -2s-23 -4.66602 -37 -9.99902s-30 -13.833 -48 -25.5s-39 -27.5 -63 -47.5c-12.667 -10.667 -24.334 -21.834 -35.001 -33.501s-22 -22.334 -34 -32.001s-25.5 -17.667 -40.5 -24s-33.167 -9.5 -54.5 -9.5
c-10.667 0 -20 2.16699 -28 6.5s-14.833 10 -20.5 17s-9.83398 14.667 -12.501 23s-4 16.5 -4 24.5c0 3.33301 0.666992 8.33301 2 15z" />
    <glyph glyph-name="currency" unicode="&#xa4;" horiz-adv-x="1243" 
d="M368 599c8 32 19.1641 65.5 33.4971 100.5s32.166 70.5 53.499 106.5s46.833 72 76.5 108s63.834 71 102.501 105l-43 73c-8.66699 10.667 -16 20.667 -22 30s-9 20.666 -9 33.999c0 4.66699 1.5 11.834 4.5 21.501s8 19.334 15 29.001s16.167 18.167 27.5 25.5
s25 11 41 11c13.333 0 26.5 -3.16699 39.5 -9.5s25.5 -14.833 37.5 -25.5s23.5 -22.5 34.5 -35.5s21.5 -26.167 31.5 -39.5c12.667 6 29.334 12.167 50.001 18.5s39 10.166 55 11.499c15.333 13.333 31.5 23.833 48.5 31.5s36.5 11.5 58.5 11.5
c24.667 0 50.334 -4.33301 77.001 -13s49.667 -21.334 69 -38.001c10.667 12.667 23.834 27.334 39.501 44.001s31.834 32.5 48.501 47.5s33.167 27.5 49.5 37.5s31.166 15 44.499 15c25.333 0 43.333 -6.33301 54 -19s16 -29.334 16 -50.001c0 -24 -3.83301 -44 -11.5 -60
s-18.5 -31.167 -32.5 -45.5s-31 -29.333 -51 -45s-42 -35.167 -66 -58.5c11.333 -21.333 19.166 -45 23.499 -71s6.5 -52.667 6.5 -80c0 -37.333 -4 -75.333 -12 -114s-19.5 -77 -34.5 -115s-33.333 -75.167 -55 -111.5s-46.5 -70.833 -74.5 -103.5
c10.667 -23.333 19.5 -45.833 26.5 -67.5s10.5 -42.167 10.5 -61.5c0 -10 -2 -21.5 -6 -34.5s-9 -25.333 -15 -37s-12.667 -21.667 -20 -30s-14.333 -12.5 -21 -12.5h-22c-15.333 0 -28 2.33301 -38 7s-18.5 11 -25.5 19s-12.833 17.5 -17.5 28.5s-9 23.167 -13 36.5l-4 13
c-24.667 -20 -48.834 -36.667 -72.501 -50s-47.834 -24.166 -72.501 -32.499s-49.667 -14.333 -75 -18s-51.666 -5.5 -78.999 -5.5c-62 0 -114 9.66699 -156 29s-74.667 47 -98 83l-82 -65c-5.33301 -5.33301 -13.666 -9.33301 -24.999 -12s-23.333 -4 -36 -4
c-21.333 0 -38.166 8 -50.499 24s-18.5 33.667 -18.5 53c0 11.333 2.5 21.5 7.5 30.5s11.333 17.333 19 25s16.5 14.5 26.5 20.5s20 11.333 30 16c9.33301 4.66699 21.5 12 36.5 22s30.5 21 46.5 33c-0.666992 3.33301 -1 6.83301 -1 10.5v11.5
c0 21.333 1.66699 43.833 5 67.5s8 48.167 14 73.5zM532.997 591c-7.33301 -30.667 -11.0029 -58.335 -11.0029 -83.002c0 -22.667 3 -43.667 9 -63s15.5 -36 28.5 -50s29.5 -24.833 49.5 -32.5s43.667 -11.5 71 -11.5c50 0 96.5 12.833 139.5 38.5s81.5 57.667 115.5 96
s62.5 79.5 85.5 123.5s39.167 84.667 48.5 122c6 23.333 10.833 46.833 14.5 70.5s5.5 46.834 5.5 69.501c0 20.667 -2.16699 40.334 -6.5 59.001s-11.5 35 -21.5 49s-23.167 25 -39.5 33s-36.833 12 -61.5 12c-31.333 0 -62.666 -6.5 -93.999 -19.5
s-61.5 -30.333 -90.5 -52s-56.5 -47 -82.5 -76s-49.667 -59.667 -71 -92s-39.666 -65 -54.999 -98s-26.666 -64.833 -33.999 -95.5z" />
    <glyph glyph-name="yen" unicode="&#xa5;" horiz-adv-x="1367" 
d="M402 575c3.33301 11.333 11.3311 23.6641 23.998 36.9971s27.667 23.333 45 30l179 11l-41.5 112.5l-35.5 102l-34.5 104.5l-37.5 120c-6.66699 22 -14.5 42.333 -23.5 61l-26 55.5c-8.33301 18.333 -15.333 37 -21 56s-8.5 40.167 -8.5 63.5c0 14 1.66699 29.667 5 47
s8.66602 33.5 15.999 48.5s17.333 27.5 30 37.5s28.334 15 47.001 15c30.667 0 55.334 -11.167 74.001 -33.5s35.334 -54.5 50.001 -96.5s29 -93.5 43 -154.5s31.667 -130.5 53 -208.5l24 -87c13.333 -50 26.5 -94.167 39.5 -132.5s24.167 -69.166 33.5 -92.499l243 352
l53 80.5l62.5 102l60 105c19 34.333 34.5 64.5 46.5 90.5l26 105c6 24.667 17.833 46.5 35.5 65.5s39.5 28.5 65.5 28.5c17.333 0 32.166 -3.5 44.499 -10.5s22.5 -16.167 30.5 -27.5s13.833 -24.333 17.5 -39s5.5 -30 5.5 -46c0 -17.333 -3.66699 -38.166 -11 -62.499
s-16.833 -49.333 -28.5 -75s-24.667 -50.834 -39 -75.501s-28.5 -46.334 -42.5 -65.001l-395 -533h162c26 0 47.333 -6.33301 64 -19s25 -28 25 -46c0 -14 -3.16699 -25.333 -9.5 -34s-14.666 -15.5 -24.999 -20.5s-22 -8.66699 -35 -11s-25.833 -4.16602 -38.5 -5.49902
c-14 -2 -30.5 -4 -49.5 -6s-39.667 -4 -62 -6l-70 -6.5c-24.333 -2.33301 -48.5 -4.5 -72.5 -6.5l-15.5 -62.5l-15.5 -67.5c18 2 37.167 4.33301 57.5 7s40.5 5.16699 60.5 7.5s39.167 4.16602 57.5 5.49902s34.166 2 47.499 2c42 0 72 -3 90 -9s27 -18.333 27 -37
c0 -14 -3.5 -26.333 -10.5 -37s-16.167 -19.667 -27.5 -27s-24.166 -13.166 -38.499 -17.499s-29.166 -7.5 -44.499 -9.5c-13.333 -2.66699 -29.666 -5.66699 -48.999 -9l-63 -10.5l-70 -11l-70 -10.5l-22 -95l-21 -85c-3.33301 -13.333 -9.33301 -25.333 -18 -36
s-18.5 -19.834 -29.5 -27.501s-22.667 -13.667 -35 -18s-23.5 -6.5 -33.5 -6.5c-14.667 0 -27 2.33301 -37 7s-18 10.5 -24 17.5s-10.333 14.833 -13 23.5s-4 17 -4 25c0 7.33301 1 15 3 23l34 153c-13.333 -1.33301 -28.5 -3 -45.5 -5s-34.5 -3.66699 -52.5 -5
s-35.333 -2.5 -52 -3.5s-31.334 -1.5 -44.001 -1.5c-28 9.33301 -48.667 20.833 -62 34.5s-20 30.834 -20 51.501c0 22.667 7.5 42 22.5 58s36.5 24 64.5 24c18 0 35.667 -1.16699 53 -3.5s34.666 -4.5 51.999 -6.5l120 11l15 68.5l9 40.5l6 25
c-14 -1.33301 -26.333 -2.16602 -37 -2.49902l-32 -1c-10.667 -0.333008 -22.334 -0.5 -35.001 -0.5h-46c-2.66699 0 -8.16699 0.166992 -16.5 0.5s-17.5 0.5 -27.5 0.5s-19.5 0.166992 -28.5 0.5s-15.833 0.5 -20.5 0.5c-9.33301 0 -17.666 2.16699 -24.999 6.5
s-13.5 9.83301 -18.5 16.5s-8.83301 14.334 -11.5 23.001s-4 17 -4 25c0 3.33301 0.166992 6.33301 0.5 9s0.833008 5.66699 1.5 9z" />
    <glyph glyph-name="brokenbar" unicode="&#xa6;" horiz-adv-x="1099" 
d="M986 1406c-8 -37.333 -17.832 -77.498 -29.499 -120.498l-37 -135.5c-13 -47.333 -25.833 -96.5 -38.5 -147.5s-24 -103.167 -34 -156.5c-7.33301 -16.667 -19.333 -32.167 -36 -46.5s-40 -21.5 -70 -21.5c-6.66699 0 -14.334 1.5 -23.001 4.5s-17 7.5 -25 13.5
s-14.833 13.167 -20.5 21.5s-8.5 17.833 -8.5 28.5c0 7.33301 3 14.666 9 21.999s9.33301 11.666 10 12.999l20.5 87.5l28 119l33 139.5l36 149l36.5 147l34 134c1.33301 5.33301 8 9.66602 20 12.999s22.667 5 32 5c16.667 0 31.667 -2 45 -6s24.5 -9.16699 33.5 -15.5
s15.833 -13.166 20.5 -20.499s7 -14 7 -20v-4zM680.001 127.002c-2 -5.33301 -5.50391 -16.5029 -10.5039 -33.5029l-16 -55.5l-16.5 -58.5c-5.33301 -19 -9.33301 -32.833 -12 -41.5c-2 -6 -4.66699 -16 -8 -30l-12 -49l-14 -58.5l-13.5 -58.5
c-4.33301 -18.667 -8 -35.167 -11 -49.5s-4.83301 -24.5 -5.5 -30.5l-10.5 -18c-3.66699 -6 -8.5 -11.333 -14.5 -16s-14 -8.33398 -24 -11.001s-22.333 -4 -37 -4c-30.667 0 -54.667 5.33301 -72 16s-26 22.334 -26 35.001c0 2.66699 1.33301 8.5 4 17.5
s5.83398 19.167 9.50098 30.5l11.5 34.5l11 31.5c0.666992 2.66699 1.66699 6 3 10c3.33301 10.667 8.16602 29.667 14.499 57l20 89.5l21 95c7 31 12.833 55.5 17.5 73.5c2 8.66699 5.66699 22.834 11 42.501l17.5 67l20.5 79l20 78l16 65l10 40.5
c0.666992 2.66699 2.83398 6.33398 6.50098 11.001s7.83398 9.33398 12.501 14.001s9.83398 8.66699 15.501 12s10.834 5 15.501 5c41.333 0 70.5 -7.5 87.5 -22.5s25.5 -31.833 25.5 -50.5c0 -4 -0.666992 -9.33301 -2 -16z" />
    <glyph glyph-name="section" unicode="&#xa7;" horiz-adv-x="847" 
d="M195 198c8 0 14.502 -0.672852 19.502 -2.00586s10 -2.83301 15 -4.5s10.833 -3.16699 17.5 -4.5s15.334 -2 26.001 -2c31.333 0 66 3.16699 104 9.5s73.833 14.833 107.5 25.5s62.5 22.834 86.5 36.501s37.667 27.5 41 41.5c2 6.66699 3 13 3 19
c0 10.667 -4.83301 21.167 -14.5 31.5s-22.334 20.5 -38.001 30.5s-33.667 19.5 -54 28.5s-40.833 17.5 -61.5 25.5l-32 12c-19.333 7.33301 -37.833 15.833 -55.5 25.5s-33.5 21.334 -47.5 35.001s-26.167 30 -36.5 49s-18.166 41.5 -23.499 67.5
c-1.33301 4 -2.5 9.66699 -3.5 17s-1.5 13 -1.5 17c0 24.667 7 49.334 21 74.001s32.833 48.667 56.5 72s51 46 82 68s63.5 42.333 97.5 61c-23.333 16.667 -43 36.5 -59 59.5s-29 52.5 -39 88.5c-1.33301 4.66699 -2.5 10.334 -3.5 17.001s-1.5 12 -1.5 16
c0 24.667 6.83301 49.167 20.5 73.5s31 47.333 52 69s44 41.5 69 59.5s48.5 33 70.5 45h-1c40.667 28 79 50.333 115 67s76.333 25 121 25c20 0 41.333 -1 64 -3s43.5 -6.5 62.5 -13.5s34.833 -17.333 47.5 -31s19 -31.834 19 -54.501c0 -9.33301 -1.16699 -20.5 -3.5 -33.5
s-5.83301 -25.167 -10.5 -36.5s-10.334 -21 -17.001 -29s-14.334 -12 -23.001 -12c-16 0 -28.833 3 -38.5 9s-18.667 12.667 -27 20s-16.833 14 -25.5 20s-19.334 9 -32.001 9c-14 0 -30.833 -2.66699 -50.5 -8s-40.167 -12.333 -61.5 -21s-42.333 -19 -63 -31
s-39.334 -24.833 -56.001 -38.5s-30.167 -27.667 -40.5 -42s-15.5 -28.166 -15.5 -41.499c0 -11.333 4.66699 -20.666 14 -27.999s20 -14.333 32 -21s23.5 -12.167 34.5 -16.5l42.5 -17.5l94.5 -40.5c29.667 -12.333 55.667 -25.5 78 -39.5s40 -29.833 53 -47.5
s19.5 -39.5 19.5 -65.5c0 -11.333 -2.16699 -26.333 -6.5 -45s-9.83301 -37.5 -16.5 -56.5s-14 -36.667 -22 -53s-15.667 -27.833 -23 -34.5c-27.333 -24.667 -60.166 -48 -98.499 -70s-76.833 -41 -115.5 -57l13 -6c35.333 -16 63.333 -34.167 84 -54.5s31 -47.5 31 -81.5
c0 -12 -2.16699 -27.167 -6.5 -45.5s-9.66602 -37 -15.999 -56s-13.5 -36.5 -21.5 -52.5s-15.333 -27 -22 -33c-26 -23.333 -56.833 -45.666 -92.5 -66.999s-72.834 -40 -111.501 -56s-77.5 -28.667 -116.5 -38s-74.5 -14 -106.5 -14c-17.333 0 -35.333 3.16699 -54 9.5
s-35.667 14.5 -51 24.5s-28.166 21.5 -38.499 34.5s-15.5 26.167 -15.5 39.5c0 8 2.33301 16.333 7 25s10 16.5 16 23.5s12.167 12.667 18.5 17s11.166 6.5 14.499 6.5zM766.002 773.994c0 10.667 -2.99805 20.166 -8.99805 28.499s-13.833 15.833 -23.5 22.5
s-20.5 13 -32.5 19l-36 18c-21.333 -4 -44.5 -11.167 -69.5 -21.5s-48.833 -22.5 -71.5 -36.5s-42.334 -29.5 -59.001 -46.5s-27 -34.5 -31 -52.5l-3.5 -19c-1 -5.33301 -1.5 -10.666 -1.5 -15.999c0 -19.333 5 -34 15 -44s23 -18.667 39 -26
c30 4.66699 60.667 11.667 92 21s60.166 19.833 86.499 31.5s48.333 24.167 66 37.5s28.167 26.333 31.5 39c4.66699 18 7 33 7 45z" />
    <glyph glyph-name="dieresis" unicode="&#xa8;" 
d="M555 1215c3.33301 14.667 9.16895 31.666 17.502 50.999s22.166 36.333 41.499 51c13.333 7.33301 28.166 13.833 44.499 19.5s27.166 8.5 32.499 8.5c11.333 0 22 -4.66699 32 -14s18.667 -19.333 26 -30c14 -2 23.333 -8.33301 28 -19s7 -22.667 7 -36
c0 -9.33301 -0.666992 -18.333 -2 -27s-2.66602 -15.667 -3.99902 -21c-4 -14 -11.667 -27 -23 -39s-24.166 -22.167 -38.499 -30.5s-29 -14.833 -44 -19.5s-27.5 -7 -37.5 -7h-24c-8.66699 0 -17.5 4.66699 -26.5 14s-16.5 18.333 -22.5 27s-9.66699 15.834 -11 21.501
s-2 10.5 -2 14.5c0 6.66699 0.666992 13 2 19s2.66602 11.667 3.99902 17zM968.003 1215c3.33301 14.667 9.16895 31.666 17.502 50.999s22.166 36.333 41.499 51c13.333 7.33301 28.166 13.833 44.499 19.5s27.166 8.5 32.499 8.5c11.333 0 22 -4.66699 32 -14
s18.667 -19.333 26 -30c14 -2 23.333 -8.33301 28 -19s7 -22.667 7 -36c0 -9.33301 -0.666992 -18.333 -2 -27s-2.66602 -15.667 -3.99902 -21c-4 -14 -11.667 -27 -23 -39s-24.166 -22.167 -38.499 -30.5s-29 -14.833 -44 -19.5s-27.5 -7 -37.5 -7h-24
c-8.66699 0 -17.5 4.66699 -26.5 14s-16.5 18.333 -22.5 27s-9.66699 15.834 -11 21.501s-2 10.5 -2 14.5c0 6.66699 0.666992 13 2 19s2.66602 11.667 3.99902 17z" />
    <glyph glyph-name="copyright" unicode="&#xa9;" horiz-adv-x="1821" 
d="M705 336c-14 20.667 -24.9951 39.165 -32.9951 55.498s-14.167 31 -18.5 44s-7.16602 25 -8.49902 36s-2 22.167 -2 33.5c0 13.333 0.833008 26.833 2.5 40.5s4.5 28.334 8.5 44.001s9 32.5 15 50.5s13.333 38.333 22 61c7.33301 20 18.333 42.667 33 68
s31.334 51.5 50.001 78.5s38.667 54.167 60 81.5s43 53.166 65 77.499s43.5 46 64.5 65s40.5 34.167 58.5 45.5l52 32.5c18.667 11.667 38 22.167 58 31.5s40.167 17.166 60.5 23.499s40.5 9.5 60.5 9.5c22 0 42.5 -4.33301 61.5 -13s35.833 -20.167 50.5 -34.5
s26.167 -31.333 34.5 -51s12.5 -40.5 12.5 -62.5c0 -18 -1.66699 -32.5 -5 -43.5s-8 -19.5 -14 -25.5s-13 -10.167 -21 -12.5s-16.667 -3.5 -26 -3.5c-18 0 -31 4.5 -39 13.5s-13.833 18.667 -17.5 29s-6.66699 20 -9 29s-6.5 13.5 -12.5 13.5
c-25.333 0 -54.166 -8.33301 -86.499 -25s-64.166 -37.167 -95.499 -61.5s-60.833 -50 -88.5 -77s-49.834 -50.833 -66.501 -71.5c-37.333 -46.667 -66.333 -94 -87 -142s-31 -98 -31 -150c0 -38.667 8 -69.667 24 -93s37.333 -35 64 -35c34 0 67.167 3.83301 99.5 11.5
s64.166 18 95.499 31s62.5 28 93.5 45s61.5 35.167 91.5 54.5h23c8.66699 0 17 -2.16699 25 -6.5s15 -9.66602 21 -15.999s10.667 -13.666 14 -21.999s5 -16.5 5 -24.5c0 -16.667 -6.33301 -33.5 -19 -50.5s-28.834 -33.5 -48.501 -49.5s-42 -31 -67 -45
s-49.667 -26.5 -74 -37.5s-47.5 -20.333 -69.5 -28s-40 -12.5 -54 -14.5c-10 -2 -19.333 -3.66699 -28 -5s-18.334 -2.5 -29.001 -3.5s-22.834 -1.66699 -36.501 -2s-30.834 -0.5 -51.501 -0.5c-16 0 -32.833 2.16699 -50.5 6.5s-34.834 10.833 -51.501 19.5
s-32.334 19.334 -47.001 32.001s-27.334 27 -38.001 43zM228.005 534.998c19.333 72.667 49.5039 148.003 90.5039 226.003s89.667 154.167 146 228.5s118.666 144.833 186.999 211.5s139.666 125.167 213.999 175.5s150.166 90.166 227.499 119.499s152.666 44 225.999 44
c20.667 0 39 -1.5 55 -4.5s31.333 -6.16699 46 -9.5c26 -6 48.667 -10.333 68 -13l55.5 -7.5c17.667 -2.33301 35.5 -5.5 53.5 -9.5s38 -10.333 60 -19c20.667 -8 40.167 -19.833 58.5 -35.5s35 -32.834 50 -51.501s28.333 -37.5 40 -56.5s20.834 -36.5 27.501 -52.5
c22.667 -53.333 40.667 -108.333 54 -165s20 -115.334 20 -176.001c0 -64 -7.83301 -126.167 -23.5 -186.5s-36.834 -117.5 -63.501 -171.5c-9.33301 -18.667 -20.333 -37.667 -33 -57s-26 -38.5 -40 -57.5s-28.5 -37.167 -43.5 -54.5s-29.5 -33.333 -43.5 -48
c-61.333 -65.333 -128.5 -126 -201.5 -182s-149 -104.5 -228 -145.5s-159.667 -73.333 -242 -97s-163.5 -35.5 -243.5 -35.5c-24.667 0 -53 2 -85 6s-64 10 -96 18c-44 10.667 -87.5 28.667 -130.5 54s-81.5 56.833 -115.5 94.5s-61.5 80.667 -82.5 129
s-31.5 101.166 -31.5 158.499c0 27.333 2 54.833 6 82.5s10 56.834 18 87.501zM372.009 514.001c-7.33301 -26.667 -13.5049 -54.002 -18.5049 -82.002s-7.5 -55.667 -7.5 -83c0 -20 1.66699 -39.167 5 -57.5s10 -35.166 20 -50.499c20.667 -31.333 43.667 -59.333 69 -84
s54 -45.334 86 -62.001s67.5 -29.334 106.5 -38.001s82.833 -13 131.5 -13c74.667 0 149 12.5 223 37.5s146.667 59.833 218 104.5c40 25.333 81.667 53.833 125 85.5s85.5 65.834 126.5 102.501s79.833 75.5 116.5 116.5s68.834 83.167 96.501 126.5s49.5 87.5 65.5 132.5
s24 89.833 24 134.5c0 30.667 -2.5 63.834 -7.5 99.501s-13 71.334 -24 107.001s-25.167 70.167 -42.5 103.5s-38.166 62.833 -62.499 88.5s-52.833 46.334 -85.5 62.001s-69.334 23.5 -110.001 23.5h-4c-18.667 -6.66699 -36.667 -10 -54 -10
c-9.33301 0 -17.666 3 -24.999 9s-12 13.333 -14 22c-45.333 -0.666992 -91.166 -8.33398 -137.499 -23.001s-90.5 -33.667 -132.5 -57c-44 -24.667 -89.667 -53.667 -137 -87s-94.166 -70.166 -140.499 -110.499s-91 -83.833 -134 -130.5s-82.667 -95.334 -119 -146.001
s-68.166 -103 -95.499 -157s-48 -108.667 -62 -164z" />
    <glyph glyph-name="ordfeminine" unicode="&#xaa;" horiz-adv-x="795" 
d="M748 809c0 15.333 1.66699 30.9971 5 46.9971s5 35.333 5 58v10.5c0 3.66699 -0.333008 7.5 -1 11.5l-60.5 -46c-21 -16.667 -42.333 -32.167 -64 -46.5s-43 -26.5 -64 -36.5s-41.5 -15 -61.5 -15c-33.333 0 -62 3.83301 -86 11.5s-43.667 18.5 -59 32.5
s-26.5 30.833 -33.5 50.5s-10.5 41.5 -10.5 65.5c0 46 8.83301 91.833 26.5 137.5s41.167 89.334 70.5 131.001s63 80.667 101 117s77.667 68.5 119 96.5c28 18.667 56.667 30.667 86 36s58 8 86 8c13.333 0 27.166 -0.833008 41.499 -2.5l38.5 -4.5
c3.33301 0.666992 11.166 2 23.499 4s22.833 3 31.5 3c16 0 29.5 -2 40.5 -6s19.833 -9.33301 26.5 -16s11.334 -14.5 14.001 -23.5s4 -18.167 4 -27.5c0 -17.333 -2.5 -32.833 -7.5 -46.5s-9.16699 -23.167 -12.5 -28.5l-98 -391c-1.33301 -17.333 -2.5 -31 -3.5 -41
l-2.5 -25.5c-0.666992 -7 -1.66699 -13.667 -3 -20l-5 -24.5c-1.33301 -5.33301 -3.5 -11.666 -6.5 -18.999s-6.5 -14.166 -10.5 -20.499s-8.66699 -11.833 -14 -16.5s-10.666 -7 -15.999 -7h-31c-14.667 0 -26.5 1 -35.5 3s-16 5 -21 9s-8.33301 8.66699 -10 14
s-2.5 11.333 -2.5 18zM482 1039l-4.99805 -28.498c-2 -11.667 -3 -23.834 -3 -36.501c0 -14.667 2.16699 -27.667 6.5 -39s12.833 -17 25.5 -17c24.667 0 46.334 4.33301 65.001 13s36 19.334 52 32.001c32 24.667 62.167 50 90.5 76s53.166 53.667 74.499 83
s38.166 61.166 50.499 95.499s18.5 72.166 18.5 113.499c0 7.33301 -1 14.333 -3 21s-6.33301 10 -13 10c-41.333 0 -81.666 -10.5 -120.999 -31.5s-75.333 -47.5 -108 -79.5s-60.334 -66.833 -83.001 -104.5s-38.334 -73.5 -47.001 -107.5z" />
    <glyph glyph-name="guillemotleft" unicode="&#xab;" horiz-adv-x="1229" 
d="M297 487c70.667 -99.333 147.663 -195.331 230.996 -287.998c22 -24 33 -54 33 -90c0 -45.333 -28 -68 -84 -68c-24 0 -47.167 9.16699 -69.5 27.5s-63.666 68.166 -123.999 149.499s-101.5 140 -123.5 176s-33 73.333 -33 112c0 20 7.5 40 22.5 60s45.667 49.667 92 89
s112.333 91.333 198 156s139.834 103 162.501 115s41 18 55 18c24 0 43.667 -6.5 59 -19.5s23 -29.833 23 -50.5c0 -19.333 -4.16699 -35.833 -12.5 -49.5s-27.166 -30.5 -56.499 -50.5c-135.333 -90.667 -259.666 -186.334 -372.999 -287.001zM787.996 487.002
c70.667 -99.333 147.999 -195.331 231.999 -287.998c22 -24 33 -54 33 -90c0 -45.333 -28 -68 -84 -68c-24.667 0 -48 9.16699 -70 27.5s-63.167 68.166 -123.5 149.499s-101.666 140 -123.999 176s-33.5 73.333 -33.5 112c0 20 7.66699 40 23 60s46.166 49.667 92.499 89
s112.333 91.333 198 156s139.834 103 162.501 115s41 18 55 18c24 0 43.667 -6.5 59 -19.5s23 -29.833 23 -50.5c0 -21.333 -5 -38.833 -15 -52.5s-28.333 -29.5 -55 -47.5c-134.667 -90.667 -259 -186.334 -373 -287.001z" />
    <glyph glyph-name="logicalnot" unicode="&#xac;" horiz-adv-x="1246" 
d="M995 368c6 26.667 13.6689 53.666 23.002 80.999l29 81.5l29 82c9.33301 27.667 17.333 55.5 24 83.5l14 59v1c0 0.666992 0.166992 1 0.5 1s0.5 0.333008 0.5 1c0 3.33301 -1.66699 6.66602 -5 9.99902c-11.333 0 -25 -1.33301 -41 -4s-32.833 -5.83398 -50.5 -9.50098
s-35.5 -7.66699 -53.5 -12s-34 -7.83301 -48 -10.5l-629 -132h-17c-24 0 -41.5 7.66699 -52.5 23s-16.5 33.666 -16.5 54.999c0 18 2.5 33.5 7.5 46.5s11.833 23.667 20.5 32s18.834 15 30.501 20s24.167 8.83301 37.5 11.5l405 79l401 79
c4 0.666992 10.5 2.33398 19.5 5.00098s19.333 5.5 31 8.5l35 9c11.667 3 22.167 5.5 31.5 7.5c5.33301 1.33301 10.333 2 15 2c10 0 20.167 -2.66699 30.5 -8s19.666 -12 27.999 -20s15.166 -16.667 20.499 -26s8 -17.666 8 -24.999v-5
c-1.33301 -3.33301 -2.33301 -7.83301 -3 -13.5s-2 -13.5 -4 -23.5c-2.66699 -13.333 -5.16699 -25 -7.5 -35l-7 -29c-2.33301 -9.33301 -5 -19.333 -8 -30s-6.83301 -23 -11.5 -37c-2 -7.33301 -6.16699 -20.666 -12.5 -39.999l-22 -67.5l-27.5 -82.5l-28.5 -84.5
l-25.5 -73.5c-8 -22 -14.333 -38.333 -19 -49c-4 -10 -9 -20 -15 -30s-12.833 -19 -20.5 -27s-16.334 -14.667 -26.001 -20s-20.5 -8 -32.5 -8c-26.667 0 -44.667 6 -54 18s-14 26.667 -14 44c0 9.33301 1 19.333 3 30s4.33301 21.334 7 32.001z" />
    <glyph glyph-name="uni00AD" unicode="&#xad;" horiz-adv-x="761" 
d="M206 499c1.33301 6 4.33594 13.3291 9.00293 21.9961s10 17.334 16 26.001s12.5 16 19.5 22s13.833 9 20.5 9h143c21.333 0 43.5 1.33301 66.5 4s46.167 5.66699 69.5 9s47 6.33301 71 9s48 4 72 4c36.667 0 64 -2.66699 82 -8s27 -18.666 27 -39.999
c0 -25.333 -6.33301 -46.833 -19 -64.5s-29.667 -32 -51 -43s-46.666 -19.167 -75.999 -24.5s-60.333 -8 -93 -8c-26 -6 -52.333 -11.167 -79 -15.5s-52.334 -7.66602 -77.001 -9.99902s-47.334 -4.16602 -68.001 -5.49902s-38.334 -2 -53.001 -2
c-12.667 0 -24.334 0.666992 -35.001 2s-20 4 -28 8s-14.167 10.167 -18.5 18.5s-6.5 19.5 -6.5 33.5c0 12.667 2.66699 30.667 8 54z" />
    <glyph glyph-name="registered" unicode="&#xae;" horiz-adv-x="1838" 
d="M232 549c25.333 94.667 64.8379 182.998 118.505 264.998s116 157.667 187 227s147.833 132.333 230.5 189s165.667 107.334 249 152.001c19.333 10.667 39.166 19.667 59.499 27s42.5 13.666 66.5 18.999c10.667 13.333 25.5 26 44.5 38s40.833 18 65.5 18
c4.66699 0 13 -0.5 25 -1.5s25.833 -2.5 41.5 -4.5s32.167 -4.33301 49.5 -7s33.666 -5.66699 48.999 -9c78 -18 148.5 -40.667 211.5 -68s116.667 -61.166 161 -101.499s78.666 -88 102.999 -143s36.5 -119.167 36.5 -192.5c0 -96 -15.667 -188 -47 -276
s-74.166 -169.667 -128.499 -245s-117.833 -143.5 -190.5 -204.5s-150.334 -113.167 -233.001 -156.5s-168.334 -76.666 -257.001 -99.999s-175.667 -35 -261 -35c-82 0 -159.5 8.83301 -232.5 26.5s-136.833 45 -191.5 82s-98 83.833 -130 140.5s-48 123.667 -48 201
c0 24.667 1.66699 50.167 5 76.5s8.66602 53.833 15.999 82.5zM364.005 486.998c-4 -15.333 -8.00195 -32.833 -12.002 -52.5s-6 -38.167 -6 -55.5c0 -36 7.5 -68.5 22.5 -97.5s35.167 -54.667 60.5 -77s54.333 -41.5 87 -57.5s67 -29 103 -39s72 -17.333 108 -22
s69.667 -7 101 -7c72.667 0 146.334 10.333 221.001 31s147 49.334 217 86.001c-12 34 -26.167 66.5 -42.5 97.5s-35.5 59.833 -57.5 86.5s-47.333 50.167 -76 70.5s-61.667 36.833 -99 49.5h-14c-13.333 0 -24.5 -1.5 -33.5 -4.5s-20.5 -4.5 -34.5 -4.5
c-4.66699 0 -9.16699 1.16699 -13.5 3.5s-8.16602 4.83301 -11.499 7.5l-29 -116l-10 -38c-4.66699 -18 -10 -37.333 -16 -58l-17.5 -60c-5.66699 -19.333 -10.167 -34 -13.5 -44c-12.667 -15.333 -24.334 -26.666 -35.001 -33.999s-23.667 -11 -39 -11
c-22.667 0 -38.5 6.5 -47.5 19.5s-13.5 28.5 -13.5 46.5c0 6.66699 0.666992 13.334 2 20.001l4 20l141 544l9.5 38c3 12 5.66699 24.167 8 36.5s4.33301 25.333 6 39s2.83398 28.5 3.50098 44.5l-4 16c-1.33301 5.33301 -2 11.333 -2 18c0 8 1 16 3 24
c4 15.333 8.16699 28.833 12.5 40.5s10.333 21.334 18 29.001s17 13.5 28 17.5s25.167 6 42.5 6c18 0 36 -3.16699 54 -9.5s36.667 -9.5 56 -9.5c8 0 16.5 0.5 25.5 1.5l30 3.5c11 1.33301 23.167 2.5 36.5 3.5s29 1.5 47 1.5c24 0 50.167 -1.83301 78.5 -5.5
s55 -10.334 80 -20.001s47 -22.834 66 -39.501s31.167 -37.667 36.5 -63c3.33301 -14 5.33301 -25.167 6 -33.5s1 -15.166 1 -20.499v-11v-9.5c0 -3 -0.666992 -6.16699 -2 -9.5c-7.33301 -26 -19.5 -51.833 -36.5 -77.5s-35.833 -49.5 -56.5 -71.5s-42 -41.333 -64 -58
s-41.667 -29 -59 -37l-38.5 -19c-9.66699 -4.66699 -17.5 -8.16699 -23.5 -10.5s-10.5 -4.16602 -13.5 -5.49902s-5.5 -2.33301 -7.5 -3h-2c26 -12.667 50.5 -27.334 73.5 -44.001s45.333 -37 67 -61s42.667 -52 63 -84s41.166 -69.333 62.499 -112v-2
c50 37.333 97.333 79.666 142 126.999s83.5 97.666 116.5 150.999s59.167 108.833 78.5 166.5s29 115.834 29 174.501c0 46.667 -7.33301 88.667 -22 126s-35.5 70.666 -62.5 99.999s-59.333 54.666 -97 75.999s-79.167 39 -124.5 53
c-7.33301 -23.333 -18.5 -43.666 -33.5 -60.999s-34.5 -26 -58.5 -26c-4 0 -7.66699 0.166992 -11 0.5s-6.66602 0.833008 -9.99902 1.5c-7.33301 14 -14.666 26.5 -21.999 37.5s-15.666 20 -24.999 27s-20.166 12.333 -32.499 16s-27.5 5.5 -45.5 5.5
c-34.667 0 -70.334 -6.33301 -107.001 -19s-71.334 -27.334 -104.001 -44.001c-46 -23.333 -92.5 -50.333 -139.5 -81s-93 -64.334 -138 -101.001s-87.833 -76 -128.5 -118s-77.834 -85.833 -111.501 -131.5s-63 -92.667 -88 -141s-43.833 -97.166 -56.5 -146.499z
M1148 929.998c-28 0 -55.4971 -2.66895 -82.4971 -8.00195s-49.833 -10.333 -68.5 -15l-15 -50l-19.5 -68l-22 -77l-21.5 -76c7.33301 5.33301 16.333 10.666 27 15.999s20.667 9.66602 30 12.999c19.333 6 40.5 14.167 63.5 24.5s45.667 21.333 68 33
s43.166 23.5 62.499 35.5s35 23 47 33c0.666992 0.666992 1.16699 1.33398 1.5 2.00098s1.16602 1.33398 2.49902 2.00098c18.667 14.667 35.834 29.334 51.501 44.001s23.5 29.667 23.5 45c0 10.667 -4 19.334 -12 26.001c-18.667 8.66699 -39.334 14.167 -62.001 16.5
s-47.334 3.5 -74.001 3.5z" />
    <glyph glyph-name="macron" unicode="&#xaf;" 
d="M535 1213c2 6 5.33496 13.667 10.002 23s10.167 18.333 16.5 27s13.166 16 20.499 22s14 9 20 9h195c22 0 43.667 1.33301 65 4l65 8.5c22 3 44.167 5.83301 66.5 8.5s45.5 4 69.5 4c37.333 0 64.666 -2.83301 81.999 -8.5s26 -19.167 26 -40.5
c0 -27.333 -6.16699 -49 -18.5 -65s-29 -28 -50 -36s-45.833 -13.167 -74.5 -15.5s-59 -3.5 -91 -3.5c-54 -11.333 -105.833 -19.666 -155.5 -24.999s-90.167 -8 -121.5 -8c-13.333 0 -27.5 0.833008 -42.5 2.5s-28.833 5.16699 -41.5 10.5s-23.167 12.666 -31.5 21.999
s-12.5 22 -12.5 38c0 6 1 13.667 3 23z" />
    <glyph glyph-name="degree" unicode="&#xb0;" horiz-adv-x="867" 
d="M369 1140c8 30.667 20 63.334 36 98.001s37.333 69.5 64 104.5s59 69.5 97 103.5s82.667 65.333 134 94c23.333 15.333 49.666 25.666 78.999 30.999s58 8 86 8c28.667 0 54 -3 76 -9s41.333 -15.333 58 -28s31.5 -28.334 44.5 -47.001s25.167 -40.334 36.5 -65.001
c6.66699 -14.667 11.334 -29.5 14.001 -44.5s4 -29.5 4 -43.5c0 -39.333 -6.66699 -80.166 -20 -122.499s-32.333 -83.666 -57 -123.999s-54.5 -78.5 -89.5 -114.5s-73.833 -68 -116.5 -96c-56 -41.333 -127 -62 -213 -62c-41.333 0 -77.5 5.33301 -108.5 16
s-56.667 25.5 -77 44.5s-35.5 42 -45.5 69s-15 57.167 -15 90.5c0 15.333 1 31 3 47s5.33301 32.667 10 50zM519 1134c-4 -12.667 -6.66602 -24.667 -7.99902 -36s-2 -22.333 -2 -33c0 -32 8.66699 -58.167 26 -78.5s46.666 -30.5 87.999 -30.5c40 0 76.5 9.5 109.5 28.5
s62.167 42.833 87.5 71.5s46.166 59.5 62.499 92.5s28.166 63.167 35.499 90.5c4.66699 17.333 8.16699 33.833 10.5 49.5s3.5 29.167 3.5 40.5c0 34 -10.667 58.5 -32 73.5s-52 22.5 -92 22.5c-22.667 0 -48.167 -8 -76.5 -24s-56.166 -37.333 -83.499 -64
s-52.666 -57.5 -75.999 -92.5s-41 -71.833 -53 -110.5z" />
    <glyph glyph-name="plusminus" unicode="&#xb1;" horiz-adv-x="1210" 
d="M568 355c1.33301 2.66699 3.16797 7.49707 5.50098 14.4971s5.16602 14.167 8.49902 21.5s6.5 16.166 9.5 26.499s5.83301 21.5 8.5 33.5l8 37c2.66699 12.667 5.66699 25 9 37c-10 -0.666992 -20.5 -1.66699 -31.5 -3s-23 -2.66602 -36 -3.99902s-27.5 -2.5 -43.5 -3.5
s-34 -1.5 -54 -1.5c-20.667 0 -41.5 0.5 -62.5 1.5s-40 4.33301 -57 10s-30.833 14.5 -41.5 26.5s-16 28.667 -16 50c0 18.667 2.66699 34.334 8 47.001s11.333 23 18 31s13.334 13.667 20.001 17l14 7l293 12c17.333 0.666992 31.833 3.83398 43.5 9.50098
s19.5 15.834 23.5 30.501l95 346c2.66699 8.66699 9.83398 16.667 21.501 24s23.167 11 34.5 11s22.5 -4.16699 33.5 -12.5s20.667 -18.833 29 -31.5s15 -26.5 20 -41.5s7.5 -29.5 7.5 -43.5c0 -8.66699 -1 -17 -3 -25c-3.33301 -14 -8.83301 -33.833 -16.5 -59.5
l-22.5 -76.5c-8.66699 -30 -18.334 -61.333 -29.001 -94c9.33301 1.33301 22.333 3.83301 39 7.5l55 12.5l63.5 15l63.5 15l54 13c16 4 28.333 7.33301 37 10c4 0.666992 9.66699 1.66699 17 3l22.5 4c7.66699 1.33301 14.334 2.33301 20.001 3s8.83398 1 9.50098 1
c14 0 24.667 -6.33301 32 -19s11 -27 11 -43s-2.5 -29.833 -7.5 -41.5s-11.667 -21.5 -20 -29.5s-17.833 -14.5 -28.5 -19.5s-21.334 -9.16699 -32.001 -12.5l-88 -27c-40.667 -12.667 -78.334 -23.834 -113.001 -33.501l-92.5 -26c-27 -7.66699 -49.5 -14.5 -67.5 -20.5
s-30.667 -11 -38 -15c-2.66699 -4 -5.5 -10 -8.5 -18l-9 -25l-8.5 -25l-6 -18l-6.5 -19.5l-10 -31.5l-12.5 -39.5c-4.66699 -14.333 -9 -28.833 -13 -43.5c-3.33301 -12 -7.5 -24.667 -12.5 -38s-11.5 -25.666 -19.5 -36.999s-17.667 -20.833 -29 -28.5
s-25.333 -11.5 -42 -11.5c-24.667 0 -41.834 8.33301 -51.501 25s-14.5 35.667 -14.5 57c0 16.667 2 32.667 6 48zM198.002 68.9971c4 16.667 14.002 30.5059 30.002 41.5059s31.333 16.5 46 16.5c17.333 0 32 -1 44 -3s27 -5.33301 45 -10c35.333 3.33301 73 7.5 113 12.5
l121 15l119 15l106.5 13.5c32.333 4 60.166 7.16699 83.499 9.5s40 3.5 50 3.5c12 0 24.167 -1 36.5 -3s23.5 -5.33301 33.5 -10s18 -11.167 24 -19.5s9 -18.833 9 -31.5c0 -14.667 -3.83301 -27.834 -11.5 -39.501s-17.334 -21.834 -29.001 -30.501
s-24.5 -15.834 -38.5 -21.501s-27 -9.83398 -39 -12.501c-9.33301 -2 -23.666 -4.66699 -42.999 -8s-41.5 -6.83301 -66.5 -10.5l-80.5 -11.5l-84 -12l-107 -14.5c-26.667 -3.66699 -48.834 -6.83398 -66.501 -9.50098s-32.667 -4.83398 -45 -6.50098
s-26.333 -3.33398 -42 -5.00098l-58.5 -6c-23.333 -2.33301 -54.333 -5.16602 -93 -8.49902c-21.333 11.333 -37.333 24.833 -48 40.5s-16 34.5 -16 56.5c0 16 2.33301 32.333 7 49z" />
    <glyph glyph-name="twosuperior" unicode="&#xb2;" horiz-adv-x="1000" 
d="M1116 747c-10 -34 -31.335 -57.8311 -64.002 -71.498s-77.334 -21.834 -134.001 -24.501c-38.667 -5.33301 -78.5 -12.5 -119.5 -21.5s-82 -19 -123 -30s-81.167 -22.667 -120.5 -35s-76 -24.5 -110 -36.5l-35 -12c-4 -1.33301 -8.33301 -2.16602 -13 -2.49902
s-10.667 -0.5 -18 -0.5c-9.33301 0 -18 3 -26 9s-14.833 13.5 -20.5 22.5s-10.167 19 -13.5 30s-5 21.167 -5 30.5c0 10.667 3.33301 20.667 10 30s15.167 18 25.5 26s21.666 15.167 33.999 21.5l35.5 17.5c40 22 77.167 44 111.5 66s66.666 45 96.999 69s59 49.667 86 77
s53.167 57.666 78.5 90.999c32 41.333 61 83.333 87 126s43.667 84 53 124c0.666992 3.33301 1.16699 6.33301 1.5 9s0.5 5.66699 0.5 9c0 22 -10 39.5 -30 52.5s-44.333 19.5 -73 19.5c-26.667 0 -51.167 -2.66699 -73.5 -8s-42.166 -12 -59.499 -20
c-32 -19.333 -62.333 -42.166 -91 -68.499s-51 -56.833 -67 -91.5c-3.33301 -16 -5.5 -29.833 -6.5 -41.5s-1.66699 -22.667 -2 -33s-1 -21.333 -2 -33s-3.5 -25.834 -7.5 -42.501c-2.66699 -10.667 -8 -20.5 -16 -29.5s-17 -16.833 -27 -23.5s-19.667 -12 -29 -16
s-16.666 -6 -21.999 -6c-14 0 -25.667 2.5 -35 7.5s-16.833 11.667 -22.5 20s-9.5 17.833 -11.5 28.5s-3 22 -3 34c0 16 1.33301 32 4 48s5.66699 29.667 9 41c6.66699 24.667 13 49.834 19 75.501s16.333 50.5 31 74.5c18.667 32.667 43.5 64.167 74.5 94.5
s65.167 57.166 102.5 80.499s77 42 119 56s83.667 21 125 21c34.667 0 67 -5 97 -15s56 -24.167 78 -42.5s39.167 -40.833 51.5 -67.5s18.5 -57 18.5 -91c0 -43.333 -10.167 -88 -30.5 -134s-45.666 -91.167 -75.999 -135.5s-63.166 -86.333 -98.499 -126
s-68.333 -74.834 -99 -105.501l-11 -11c28 2 58.333 6 91 12s63.334 14 92.001 24c11.333 4 23.833 7.83301 37.5 11.5s27.167 5.5 40.5 5.5c30 0 52.167 -6.5 66.5 -19.5s21.5 -29.167 21.5 -48.5c0 -7.33301 -1 -14.333 -3 -21z" />
    <glyph glyph-name="threesuperior" unicode="&#xb3;" horiz-adv-x="950" 
d="M263 557c0 6.66699 1.99902 14.9971 5.99902 24.9971s9.83301 19.667 17.5 29s16.5 17.166 26.5 23.499s21 9.5 33 9.5c4 0 10 -0.833008 18 -2.5s14 -3.83398 18 -6.50098l14 -9c11.333 -7.33301 25 -15 41 -23s33.333 -12 52 -12c10 0 25.833 1.16699 47.5 3.5
s46.334 7 74.001 14s56.667 16.833 87 29.5s59.333 29.334 87 50.001s52.5 45.834 74.5 75.501s38 65.167 48 106.5c0.666992 3.33301 1.16699 6.33301 1.5 9s0.5 5.66699 0.5 9c0 12.667 -3.5 23.667 -10.5 33s-16 17 -27 23s-23.167 10.5 -36.5 13.5s-26.333 4.5 -39 4.5
c-14 0 -28.333 -2 -43 -6s-29 -8.16699 -43 -12.5l-41 -12.5c-13.333 -4 -25.666 -6 -36.999 -6c-20.667 0 -37.5 5.83301 -50.5 17.5s-19.5 26.167 -19.5 43.5c0 16.667 4.66699 30 14 40s21.333 19.667 36 29l65 39c28.667 17.333 58 36.833 88 58.5
s57.333 44.334 82 68.001s44.834 47.5 60.501 71.5s23.5 46.667 23.5 68c0 10 -4.33301 19 -13 27s-21.334 12 -38.001 12c-21.333 0 -48.166 -6.16699 -80.499 -18.5s-65.833 -28.666 -100.5 -48.999s-68 -43.166 -100 -68.499s-58.333 -51 -79 -77
c-2.66699 -10 -6.83398 -22.833 -12.501 -38.5s-12.667 -31 -21 -46s-17.5 -27.833 -27.5 -38.5s-20.667 -16 -32 -16c-13.333 0 -24.166 2.83301 -32.499 8.5s-15 13.167 -20 22.5s-8.5 20 -10.5 32s-3 24.333 -3 37c0 20.667 1.83301 39.5 5.5 56.5s7.66699 31.5 12 43.5
s8.5 21.667 12.5 29s6.66699 11.666 8 12.999c27.333 32 62.166 64 104.499 96s88 60.833 137 86.5s99.333 46.334 151 62.001s100.5 23.5 146.5 23.5c24.667 0 46.5 -4.16699 65.5 -12.5s34.833 -19.666 47.5 -33.999s22.334 -30.666 29.001 -48.999s10 -37.5 10 -57.5
c0 -23.333 -4.66699 -48 -14 -74s-22 -52 -38 -78s-34.667 -51.333 -56 -76s-44 -47 -68 -67c20.667 -5.33301 40.667 -12.666 60 -21.999s36.5 -21.333 51.5 -36s27 -31.834 36 -51.501s13.5 -42.5 13.5 -68.5c0 -16.667 -2.66699 -36.334 -8 -59.001
c-14 -56 -39.833 -109.667 -77.5 -161s-83.334 -96.833 -137.001 -136.5s-113.334 -71.334 -179.001 -95.001s-133.5 -35.5 -203.5 -35.5c-26 0 -51.333 2.16699 -76 6.5s-46.667 11 -66 20s-35 20.667 -47 35s-18 31.5 -18 51.5z" />
    <glyph glyph-name="acute" unicode="&#xb4;" 
d="M1266 1346c-7.33301 -29.333 -19.835 -53 -37.502 -71s-39.5 -33.667 -65.5 -47l-314 -156c-12 -6.66699 -28 -10 -48 -10c-15.333 0 -26.333 3.5 -33 10.5s-10 16.167 -10 27.5c0 14 2.83301 26.667 8.5 38s12.834 21.666 21.501 30.999s18 17.5 28 24.5l27 18.5l76 45
l94 56.5c30.667 19 59.334 36 86.001 51s50.667 27.333 72 37s38 14.5 50 14.5c13.333 0 24.5 -4.66699 33.5 -14s13.5 -21.666 13.5 -36.999v-9.5c0 -3 -0.666992 -6.16699 -2 -9.5z" />
    <glyph glyph-name="mu" unicode="&#xb5;" horiz-adv-x="1135" 
d="M370 890c2.66699 10.667 6.50488 19.8389 11.5049 27.5059s10.333 13.834 16 18.501s10.834 8 15.501 10s8.33398 3 11.001 3c7.33301 0 16 -0.833008 26 -2.5s19.667 -3.16699 29 -4.5l31 -6c17.333 -0.666992 29.833 -7.66699 37.5 -21s11.5 -29.333 11.5 -48
c0 -14.667 -2 -28.334 -6 -41.001c-22.667 -83.333 -43.334 -155.833 -62.001 -217.5l-47.5 -157.5c-13 -43.333 -23 -78.666 -30 -105.999s-10.5 -48 -10.5 -62s1.83301 -29.667 5.5 -47s9.16699 -33.5 16.5 -48.5s16.666 -27.5 27.999 -37.5s25 -15 41 -15
c28 0 56.333 8.66699 85 26s56 38.5 82 63.5s49.5 51.667 70.5 80s38.167 53.5 51.5 75.5l26 45c16 28 30.833 60.167 44.5 96.5s25.667 72.833 36 109.5s19.166 71.167 26.499 103.5s13 58.166 17 77.499l26 133c5.33301 25.333 13.5 42.833 24.5 52.5s29.5 14.5 55.5 14.5
c16.667 0 31.667 -1.83301 45 -5.5s24.666 -10.167 33.999 -19.5s16.333 -21.833 21 -37.5s7 -35.834 7 -60.501c0 -28.667 -4.5 -63.834 -13.5 -105.501s-18.833 -83.5 -29.5 -125.5l-18.5 -78.5c-6.33301 -27.667 -12 -55.334 -17 -83.001s-9 -54 -12 -79
s-4.5 -47.5 -4.5 -67.5c0 -34 1.16699 -68 3.5 -102s3.5 -70 3.5 -108c0 -17.333 -0.5 -32.666 -1.5 -45.999s-2.5 -23.333 -4.5 -30c-7.33301 -26 -16.833 -45.333 -28.5 -58s-31.5 -19 -59.5 -19c-19.333 0 -34.666 2.16699 -45.999 6.5s-20.166 10.166 -26.499 17.499
s-10.5 15.5 -12.5 24.5s-3.33301 18.167 -4 27.5l-11 189l-9 -3l-72 -94c-26 -34.667 -54.667 -67 -86 -97s-65.5 -55.167 -102.5 -75.5s-77.167 -30.5 -120.5 -30.5c-10 0 -21 2.16699 -33 6.5s-24.667 10.5 -38 18.5s-26.5 17.5 -39.5 28.5s-25.5 23.5 -37.5 37.5
l-16 -64.5l-16.5 -64c-5.66699 -21 -11.5 -40.833 -17.5 -59.5s-12 -35 -18 -49c-0.666992 -2 -3.16699 -7.66699 -7.5 -17l-15 -33.5l-18 -41.5l-18.5 -41.5l-15.5 -33.5c-4.33301 -9.33301 -6.83301 -14.666 -7.5 -15.999c-20.667 -32 -38.5 -60.667 -53.5 -86
s-30.333 -47 -46 -65s-33.167 -31.667 -52.5 -41s-43.666 -14 -72.999 -14c-14.667 0 -27.334 5.83301 -38.001 17.5s-16 28.5 -16 50.5c0 15.333 3.66699 32.166 11 50.499s16.666 37.166 27.999 56.499s23.666 38.166 36.999 56.499l38 50.5
c8.66699 10.667 18.5 27.5 29.5 50.5s22.333 49 34 78s22.667 59.5 33 91.5s19.166 63 26.499 93c9.33301 40 18.166 74.167 26.499 102.5l24.5 81.5l25 83c8.66699 29.333 18 65.666 28 108.999c3.33301 15.333 7.16602 30.833 11.499 46.5l12.5 44.5l14 52l34 132
l26.5 100l19.5 73.5z" />
    <glyph glyph-name="mu" unicode="&#x3bc;" horiz-adv-x="1135" 
d="M370 890c2.66699 10.667 6.50488 19.8389 11.5049 27.5059s10.333 13.834 16 18.501s10.834 8 15.501 10s8.33398 3 11.001 3c7.33301 0 16 -0.833008 26 -2.5s19.667 -3.16699 29 -4.5l31 -6c17.333 -0.666992 29.833 -7.66699 37.5 -21s11.5 -29.333 11.5 -48
c0 -14.667 -2 -28.334 -6 -41.001c-22.667 -83.333 -43.334 -155.833 -62.001 -217.5l-47.5 -157.5c-13 -43.333 -23 -78.666 -30 -105.999s-10.5 -48 -10.5 -62s1.83301 -29.667 5.5 -47s9.16699 -33.5 16.5 -48.5s16.666 -27.5 27.999 -37.5s25 -15 41 -15
c28 0 56.333 8.66699 85 26s56 38.5 82 63.5s49.5 51.667 70.5 80s38.167 53.5 51.5 75.5l26 45c16 28 30.833 60.167 44.5 96.5s25.667 72.833 36 109.5s19.166 71.167 26.499 103.5s13 58.166 17 77.499l26 133c5.33301 25.333 13.5 42.833 24.5 52.5s29.5 14.5 55.5 14.5
c16.667 0 31.667 -1.83301 45 -5.5s24.666 -10.167 33.999 -19.5s16.333 -21.833 21 -37.5s7 -35.834 7 -60.501c0 -28.667 -4.5 -63.834 -13.5 -105.501s-18.833 -83.5 -29.5 -125.5l-18.5 -78.5c-6.33301 -27.667 -12 -55.334 -17 -83.001s-9 -54 -12 -79
s-4.5 -47.5 -4.5 -67.5c0 -34 1.16699 -68 3.5 -102s3.5 -70 3.5 -108c0 -17.333 -0.5 -32.666 -1.5 -45.999s-2.5 -23.333 -4.5 -30c-7.33301 -26 -16.833 -45.333 -28.5 -58s-31.5 -19 -59.5 -19c-19.333 0 -34.666 2.16699 -45.999 6.5s-20.166 10.166 -26.499 17.499
s-10.5 15.5 -12.5 24.5s-3.33301 18.167 -4 27.5l-11 189l-9 -3l-72 -94c-26 -34.667 -54.667 -67 -86 -97s-65.5 -55.167 -102.5 -75.5s-77.167 -30.5 -120.5 -30.5c-10 0 -21 2.16699 -33 6.5s-24.667 10.5 -38 18.5s-26.5 17.5 -39.5 28.5s-25.5 23.5 -37.5 37.5
l-16 -64.5l-16.5 -64c-5.66699 -21 -11.5 -40.833 -17.5 -59.5s-12 -35 -18 -49c-0.666992 -2 -3.16699 -7.66699 -7.5 -17l-15 -33.5l-18 -41.5l-18.5 -41.5l-15.5 -33.5c-4.33301 -9.33301 -6.83301 -14.666 -7.5 -15.999c-20.667 -32 -38.5 -60.667 -53.5 -86
s-30.333 -47 -46 -65s-33.167 -31.667 -52.5 -41s-43.666 -14 -72.999 -14c-14.667 0 -27.334 5.83301 -38.001 17.5s-16 28.5 -16 50.5c0 15.333 3.66699 32.166 11 50.499s16.666 37.166 27.999 56.499s23.666 38.166 36.999 56.499l38 50.5
c8.66699 10.667 18.5 27.5 29.5 50.5s22.333 49 34 78s22.667 59.5 33 91.5s19.166 63 26.499 93c9.33301 40 18.166 74.167 26.499 102.5l24.5 81.5l25 83c8.66699 29.333 18 65.666 28 108.999c3.33301 15.333 7.16602 30.833 11.499 46.5l12.5 44.5l14 52l34 132
l26.5 100l19.5 73.5z" />
    <glyph glyph-name="paragraph" unicode="&#xb6;" horiz-adv-x="1350" 
d="M591 -217c0 28.667 0.329102 66.667 0.996094 114s1.5 99.5 2.5 156.5l3 178l3 178.5c1 57.333 1.83301 110.166 2.5 158.499s1 87.833 1 118.5v115l-3 3l-49 -40c-15.333 -12 -31.333 -22.167 -48 -30.5s-34.667 -14.833 -54 -19.5s-41.666 -7 -66.999 -7
c-36 0 -66.5 4.33301 -91.5 13s-47 21.334 -66 38.001s-35.833 37.5 -50.5 62.5s-29 53.833 -43 86.5c-12 27.333 -19.167 55.333 -21.5 84s-3.5 58 -3.5 88c0 58 6.5 110.5 19.5 157.5s30 88.667 51 125s44.5 67.5 70.5 93.5s52.333 47.5 79 64.5s52.334 29.5 77.001 37.5
s45.667 12 63 12c27.333 0 50.333 -2.16699 69 -6.5s36 -9.83301 52 -16.5c14.667 0 27 1.66699 37 5s21.667 5 35 5c14.667 0 29.334 -3.33301 44.001 -10s28 -15.5 40 -26.5s21.667 -23.333 29 -37s11 -27.5 11 -41.5v-304c0 -36.667 -0.166992 -77 -0.5 -121
s-0.833008 -90.833 -1.5 -140.5s-1.16699 -101.5 -1.5 -155.5s-0.833008 -109 -1.5 -165c-1.33301 -88 -2.33301 -175.667 -3 -263s-1 -175.666 -1 -264.999c0 -112.667 1 -226.334 3 -341.001c-5.33301 -10.667 -14.333 -19.667 -27 -27s-23 -11 -31 -11
c-43.333 0 -75.666 11.5 -96.999 34.5s-32 56.167 -32 99.5zM907.996 -192c0 2.66699 0.500977 8.99707 1.50098 18.9971s2.33301 20.667 4 32s3 22 4 32s1.5 16 1.5 18v732c0 62.667 -0.5 123.334 -1.5 182.001s-2.5 116.834 -4.5 174.501s-4.16699 115.5 -6.5 173.5
l-7.5 179l-3 68c0 0.666992 -0.5 4.5 -1.5 11.5l-3.5 23.5c-1.33301 8.66699 -2.5 17 -3.5 25s-1.5 13.333 -1.5 16v27c0 19.333 4.5 32.833 13.5 40.5s23.833 11.5 44.5 11.5c34 0 61.167 -4.66699 81.5 -14s35.833 -22.166 46.5 -38.499s17.667 -35.5 21 -57.5
s5 -46 5 -72c0 -4 -1.33301 -7 -4 -9v-491c0 -8 0.166992 -16.167 0.5 -24.5s1.5 -16.5 3.5 -24.5v-1073c0 -18 -3.16699 -33 -9.5 -45s-14 -21.5 -23 -28.5s-18.333 -11.833 -28 -14.5s-17.834 -4 -24.501 -4c-16 0 -30.333 4.16699 -43 12.5s-23.667 18.833 -33 31.5
s-16.5 26.667 -21.5 42s-7.5 30.333 -7.5 45z" />
    <glyph glyph-name="uni00B7" unicode="&#xb7;" horiz-adv-x="745" 
d="M565 551c0 -46 -17.668 -85.8311 -53.001 -119.498s-75.666 -50.5 -120.999 -50.5c-34.667 0 -64.167 12.167 -88.5 36.5s-36.5 53.833 -36.5 88.5c0 45.333 18.5 85.666 55.5 120.999s77.833 53 122.5 53c34.667 0 63.5 -12.333 86.5 -37s34.5 -55.334 34.5 -92.001z
" />
    <glyph glyph-name="cedilla" unicode="&#xb8;" horiz-adv-x="716" 
d="M105 -331c0 18 4.66797 35.0029 14.001 51.0029s25 24 47 24c7.33301 0 14.166 -1.33301 20.499 -4s13.5 -4 21.5 -4c7.33301 0 17 1.83301 29 5.5s23.833 8.66699 35.5 15s21.667 13.5 30 21.5s12.5 16.333 12.5 25c0 20 -22.667 37 -68 51
c-23.333 4 -40.333 11.667 -51 23s-16 24 -16 38c0 16 6.33301 31.333 19 46l43.5 68.5l41.5 69.5c9.33301 15.333 21.166 26.166 35.499 32.499s26.833 9.5 37.5 9.5c18.667 0 33.167 -6.33301 43.5 -19s15.5 -25.667 15.5 -39c0 -8.66699 -2 -16.334 -6 -23.001l-27.5 -44
c-9 -14.667 -17.167 -29.334 -24.5 -44.001c14 -7.33301 27.333 -15.5 40 -24.5s23.834 -19 33.501 -30s17.167 -23.167 22.5 -36.5s8 -28.333 8 -45c0 -33.333 -9.16699 -64.166 -27.5 -92.499s-41 -52.833 -68 -73.5s-56 -36.834 -87 -48.501s-59.5 -17.5 -85.5 -17.5
c-11.333 0 -22.333 1.16699 -33 3.5s-20.167 6 -28.5 11s-15 11.667 -20 20s-7.5 18.5 -7.5 30.5z" />
    <glyph glyph-name="onesuperior" unicode="&#xb9;" horiz-adv-x="718" 
d="M573 544c-24.667 0 -43.1709 6.83203 -55.5039 20.499s-18.5 30.5 -18.5 50.5c0 4.66699 0.333008 9.5 1 14.5s1.66699 10.167 3 15.5l152 594c-33.333 -21.333 -65.166 -42.833 -95.499 -64.5l-91.5 -64.5c-11.333 -8 -24.166 -14.167 -38.499 -18.5
s-26.833 -6.5 -37.5 -6.5c-25.333 0 -43.666 7.33301 -54.999 22s-17 31.667 -17 51c0 24 4.66699 42.5 14 55.5s17.666 22.167 24.999 27.5c10.667 4 25.667 11.167 45 21.5s40.5 22.5 63.5 36.5s47 29.5 72 46.5s48.833 34.167 71.5 51.5s43 34.166 61 50.499
s32 31.166 42 44.499l16 21c4.66699 6 9.83398 11.167 15.501 15.5s12.167 7.66602 19.5 9.99902s16 3.5 26 3.5c8 0 17.167 -2.5 27.5 -7.5s20.333 -11.833 30 -20.5s17.667 -19 24 -31s9.5 -25.333 9.5 -40c0 -7.33301 -0.666992 -14.666 -2 -21.999s-3 -15.333 -5 -24
c-9.33301 -37.333 -20.166 -75.166 -32.499 -113.499l-38 -115.5l-38.5 -115c-12.667 -38 -23.667 -75.667 -33 -113c-7.33301 -28 -13.166 -55.333 -17.499 -82l-12.5 -80l-12.5 -80.5c-4.33301 -27 -9.83301 -54.167 -16.5 -81.5
c-2 -7.33301 -6.33301 -15.166 -13 -23.499s-14.834 -16.166 -24.501 -23.499s-20 -13.333 -31 -18s-21.833 -7 -32.5 -7z" />
    <glyph glyph-name="ordmasculine" unicode="&#xba;" horiz-adv-x="867" 
d="M350 1063c7.33301 30 19.501 62.1699 36.501 96.5029s39.167 69.166 66.5 104.499s59.833 70.166 97.5 104.499s81.167 66.166 130.5 95.499c2.66699 2 7.16699 4.33301 13.5 7s13.5 5.33398 21.5 8.00098s16.667 5 26 7s18.333 3 27 3
c11.333 9.33301 24 17.166 38 23.499s28 9.5 42 9.5c50 -0.666992 91.833 -14.667 125.5 -42s62.5 -71.333 86.5 -132c5.33301 -13.333 8.66602 -28 9.99902 -44s2 -32.667 2 -50c0 -40 -6.5 -80.667 -19.5 -122s-31.5 -81.5 -55.5 -120.5s-53.167 -76 -87.5 -111
s-72.833 -65.833 -115.5 -92.5c-56 -42 -126.667 -63 -212 -63c-41.333 0 -77.5 5.33301 -108.5 16s-56.667 25.667 -77 45s-35.5 42.5 -45.5 69.5s-15 56.833 -15 89.5c0 31.333 4.33301 64 13 98zM499.001 1056c-6 -24 -8.99902 -46.334 -8.99902 -67.001
c0 -32 8.66699 -58.167 26 -78.5s46.666 -30.5 87.999 -30.5c34.667 0 66.334 7 95.001 21s54.5 32 77.5 54s43.167 46.667 60.5 74s31.666 54.5 42.999 81.5s19.833 52.5 25.5 76.5s8.5 43.667 8.5 59c0 9.33301 -1.5 19.666 -4.5 30.999s-6.83301 22.833 -11.5 34.5
s-9.66699 23.334 -15 35.001s-10 22.834 -14 33.501c-4.66699 -7.33301 -9.66699 -13.5 -15 -18.5s-13 -9.5 -23 -13.5s-23 -7.5 -39 -10.5s-37 -5.83301 -63 -8.5c-24.667 -8 -49.667 -22.5 -75 -43.5s-48.5 -44.833 -69.5 -71.5s-39 -54 -54 -82s-25.5 -53.333 -31.5 -76z
" />
    <glyph glyph-name="guillemotright" unicode="&#xbb;" horiz-adv-x="1229" 
d="M981 498c-70.667 99.333 -147.663 195.333 -230.996 288c-22 24 -33 54.333 -33 91c0 44.667 28 67 84 67c24 0 47.167 -9.16699 69.5 -27.5s63.666 -68 123.999 -149s101.5 -139.667 123.5 -176s33 -73.833 33 -112.5c0 -20 -7.5 -40 -22.5 -60s-45.667 -49.667 -92 -89
s-112.333 -91.333 -198 -156s-139.834 -103 -162.501 -115s-41 -18 -55 -18c-24 0 -43.667 6.5 -59 19.5s-23 29.833 -23 50.5c0 20 4.16699 36.667 12.5 50s27.166 30 56.499 50c135.333 91.333 259.666 187 372.999 287zM489.004 498
c-70.667 99.333 -147.666 195.333 -230.999 288c-22 24 -33 54.333 -33 91c0 44.667 28 67 84 67c24.667 0 48 -9.16699 70 -27.5s63.167 -68 123.5 -149s101.5 -139.667 123.5 -176s33 -73.833 33 -112.5c0 -20 -7.5 -40 -22.5 -60s-45.667 -49.667 -92 -89
s-112.333 -91.333 -198 -156s-139.834 -103 -162.501 -115s-41 -18 -55 -18c-24 0 -43.667 6.5 -59 19.5s-23 29.833 -23 50.5c0 20 4.16699 36.667 12.5 50s27.5 30 57.5 50c134.667 91.333 258.667 187 372 287z" />
    <glyph glyph-name="onequarter" unicode="&#xbc;" horiz-adv-x="2005" 
d="M521 544c-24.667 0 -43.1709 6.83203 -55.5039 20.499s-18.5 30.5 -18.5 50.5c0 4.66699 0.333008 9.5 1 14.5s1.66699 10.167 3 15.5l152 594c-33.333 -21.333 -65.166 -42.833 -95.499 -64.5l-91.5 -64.5c-11.333 -8 -24.166 -14.167 -38.499 -18.5
s-26.833 -6.5 -37.5 -6.5c-25.333 0 -43.666 7.33301 -54.999 22s-17 31.667 -17 51c0 24 4.66699 42.5 14 55.5s17.666 22.167 24.999 27.5c10.667 4 25.667 11.167 45 21.5s40.5 22.5 63.5 36.5s47 29.5 72 46.5s48.833 34.167 71.5 51.5s43 34.166 61 50.499
s32 31.166 42 44.499l16 21c4.66699 6 9.83398 11.167 15.501 15.5s12.167 7.66602 19.5 9.99902s16 3.5 26 3.5c8 0 17.167 -2.5 27.5 -7.5s20.333 -11.833 30 -20.5s17.667 -19 24 -31s9.5 -25.333 9.5 -40c0 -7.33301 -0.666992 -14.666 -2 -21.999s-3 -15.333 -5 -24
c-9.33301 -37.333 -20.166 -75.166 -32.499 -113.499l-38 -115.5l-38.5 -115c-12.667 -38 -23.667 -75.667 -33 -113c-7.33301 -28 -13.166 -55.333 -17.499 -82l-12.5 -80l-12.5 -80.5c-4.33301 -27 -9.83301 -54.167 -16.5 -81.5
c-2 -7.33301 -6.33301 -15.166 -13 -23.499s-14.834 -16.166 -24.501 -23.499s-20 -13.333 -31 -18s-21.833 -7 -32.5 -7zM394.996 -193.001c-17.333 0 -32.998 4.16602 -46.998 12.499s-21 22.166 -21 41.499c0 4.66699 0.833008 9.83398 2.5 15.501
s5.16699 13.834 10.5 24.501c4 8 11.667 20.5 23 37.5l40 58l50.5 69.5l54.5 74l51 71l42 60l640 931c19.333 28 39.833 61.167 61.5 99.5s42.167 76.833 61.5 115.5l19 36.5c6.66699 12.333 14.5 23.833 23.5 34.5s19.667 19.334 32 26.001s26.5 10 42.5 10
c10 0 20.333 -1 31 -3s20.167 -5.33301 28.5 -10s15.166 -11.167 20.499 -19.5s8 -18.5 8 -30.5c0 -23.333 -8.16699 -49.5 -24.5 -78.5s-34.5 -58.167 -54.5 -87.5l-988 -1447c-7.33301 -10 -15.333 -17.833 -24 -23.5s-17.834 -9.83398 -27.501 -12.501
s-19.167 -4.16699 -28.5 -4.5s-18.333 -0.5 -27 -0.5zM1460 73.998c6 24.667 11.667 46.1729 17 64.5059l15 50l13 43.5c4 14 8 29 12 45c-24.667 -8.66699 -49.834 -15 -75.501 -19s-49.5 -6 -71.5 -6c-38 0 -69.833 4.5 -95.5 13.5s-46.334 21.333 -62.001 37
s-26.667 33.5 -33 53.5s-9.5 41 -9.5 63c0 12 0.666992 24.167 2 36.5s3.66602 23.833 6.99902 34.5c11.333 41.333 24 79.166 38 113.499l41 99.5c4.66699 12 9.5 23.167 14.5 33.5s9.83301 21 14.5 32s9.33398 22.667 14.001 35l15 41.5c1.33301 4 4.5 8.16699 9.5 12.5
s11 8.16602 18 11.499s14.167 6.16602 21.5 8.49902s14 3.5 20 3.5h16c21.333 0 39 -5.66699 53 -17s21 -27 21 -47c0 -12.667 -1.33301 -23.334 -4 -32.001c-5.33301 -20 -13.5 -41.5 -24.5 -64.5l-35.5 -71l-37 -74c-12 -25 -21 -49.5 -27 -73.5
c-4.66699 -18.667 -7 -34 -7 -46c0 -17.333 4.16699 -29 12.5 -35s17.833 -9 28.5 -9c14.667 0 31.334 1.33301 50.001 4s37.834 6.5 57.501 11.5s38.834 11.333 57.501 19s35 16.167 49 25.5l230 508c3.33301 7.33301 8.33301 13.5 15 18.5s13.834 9 21.501 12
s15.167 5.16699 22.5 6.5s13.666 2 18.999 2c13.333 0 25.166 -3.16699 35.499 -9.5s19 -14.5 26 -24.5s12.333 -20.833 16 -32.5s5.5 -22.834 5.5 -33.501c0 -5.33301 -2 -12.5 -6 -21.5s-9.16699 -19.333 -15.5 -31l-21 -37c-7.66699 -13 -14.834 -25.833 -21.501 -38.5
l-7 -13c-6 -10.667 -14 -26.167 -24 -46.5l-32 -65l-33 -69l-26 -57.5l39 6c5.33301 1.33301 11.333 2.16602 18 2.49902s17.667 0.5 33 0.5c16.667 0 28 -3 34 -9s9 -14.333 9 -25c0 -16.667 -3 -31.167 -9 -43.5s-14.5 -23 -25.5 -32s-24 -17 -39 -24
s-31.5 -13.5 -49.5 -19.5l-12 -4c-27.333 -9.33301 -48.5 -18.833 -63.5 -28.5s-23.5 -18.5 -25.5 -26.5c-9.33301 -20 -18.666 -42.333 -27.999 -67s-18.166 -50.5 -26.499 -77.5s-15.5 -54.5 -21.5 -82.5s-9.66699 -55 -11 -81l-3 -55
c-7.33301 -30 -19.333 -51.667 -36 -65s-37.667 -20 -63 -20c-15.333 0 -27.833 2.33301 -37.5 7s-17.334 10.834 -23.001 18.501s-9.66699 16.667 -12 27s-3.5 21.166 -3.5 32.499c0 16 1.66699 32 5 48l10 46z" />
    <glyph glyph-name="onehalf" unicode="&#xbd;" horiz-adv-x="2005" 
d="M521 544c-24.667 0 -43.1709 6.83203 -55.5039 20.499s-18.5 30.5 -18.5 50.5c0 4.66699 0.333008 9.5 1 14.5s1.66699 10.167 3 15.5l152 594c-33.333 -21.333 -65.166 -42.833 -95.499 -64.5l-91.5 -64.5c-11.333 -8 -24.166 -14.167 -38.499 -18.5
s-26.833 -6.5 -37.5 -6.5c-25.333 0 -43.666 7.33301 -54.999 22s-17 31.667 -17 51c0 24 4.66699 42.5 14 55.5s17.666 22.167 24.999 27.5c10.667 4 25.667 11.167 45 21.5s40.5 22.5 63.5 36.5s47 29.5 72 46.5s48.833 34.167 71.5 51.5s43 34.166 61 50.499
s32 31.166 42 44.499l16 21c4.66699 6 9.83398 11.167 15.501 15.5s12.167 7.66602 19.5 9.99902s16 3.5 26 3.5c8 0 17.167 -2.5 27.5 -7.5s20.333 -11.833 30 -20.5s17.667 -19 24 -31s9.5 -25.333 9.5 -40c0 -7.33301 -0.666992 -14.666 -2 -21.999s-3 -15.333 -5 -24
c-9.33301 -37.333 -20.166 -75.166 -32.499 -113.499l-38 -115.5l-38.5 -115c-12.667 -38 -23.667 -75.667 -33 -113c-7.33301 -28 -13.166 -55.333 -17.499 -82l-12.5 -80l-12.5 -80.5c-4.33301 -27 -9.83301 -54.167 -16.5 -81.5
c-2 -7.33301 -6.33301 -15.166 -13 -23.499s-14.834 -16.166 -24.501 -23.499s-20 -13.333 -31 -18s-21.833 -7 -32.5 -7zM394.996 -193.001c-17.333 0 -32.998 4.16602 -46.998 12.499s-21 22.166 -21 41.499c0 4.66699 0.833008 9.83398 2.5 15.501
s5.16699 13.834 10.5 24.501c4 8 11.667 20.5 23 37.5l40 58l50.5 69.5l54.5 74l51 71l42 60l640 931c19.333 28 39.833 61.167 61.5 99.5s42.167 76.833 61.5 115.5l19 36.5c6.66699 12.333 14.5 23.833 23.5 34.5s19.667 19.334 32 26.001s26.5 10 42.5 10
c10 0 20.333 -1 31 -3s20.167 -5.33301 28.5 -10s15.166 -11.167 20.499 -19.5s8 -18.5 8 -30.5c0 -23.333 -8.16699 -49.5 -24.5 -78.5s-34.5 -58.167 -54.5 -87.5l-988 -1447c-7.33301 -10 -15.333 -17.833 -24 -23.5s-17.834 -9.83398 -27.501 -12.501
s-19.167 -4.16699 -28.5 -4.5s-18.333 -0.5 -27 -0.5zM1907 126.998c-10 -34 -31.335 -57.8311 -64.002 -71.498s-77.334 -21.834 -134.001 -24.501c-38.667 -5.33301 -78.5 -12.5 -119.5 -21.5s-82 -19 -123 -30s-81.167 -22.667 -120.5 -35s-76 -24.5 -110 -36.5l-35 -12
c-4 -1.33301 -8.33301 -2.16602 -13 -2.49902s-10.667 -0.5 -18 -0.5c-9.33301 0 -18 3 -26 9s-14.833 13.5 -20.5 22.5s-10.167 19 -13.5 30s-5 21.167 -5 30.5c0 10.667 3.33301 20.667 10 30s15.167 18 25.5 26s21.666 15.167 33.999 21.5l35.5 17.5
c40 22 77.167 44 111.5 66s66.666 45 96.999 69s59 49.667 86 77s53.167 57.666 78.5 90.999c32 41.333 61 83.333 87 126s43.667 84 53 124c0.666992 3.33301 1.16699 6.33301 1.5 9s0.5 5.66699 0.5 9c0 22 -10 39.5 -30 52.5s-44.333 19.5 -73 19.5
c-26.667 0 -51.167 -2.66699 -73.5 -8s-42.166 -12 -59.499 -20c-32 -19.333 -62.333 -42.166 -91 -68.499s-51 -56.833 -67 -91.5c-3.33301 -16 -5.5 -29.833 -6.5 -41.5s-1.66699 -22.667 -2 -33s-1 -21.333 -2 -33s-3.5 -25.834 -7.5 -42.501
c-2.66699 -10.667 -8 -20.5 -16 -29.5s-17 -16.833 -27 -23.5s-19.667 -12 -29 -16s-16.666 -6 -21.999 -6c-14 0 -25.667 2.5 -35 7.5s-16.833 11.667 -22.5 20s-9.5 17.833 -11.5 28.5s-3 22 -3 34c0 16 1.33301 32 4 48s5.66699 29.667 9 41
c6.66699 24.667 13 49.834 19 75.501s16.333 50.5 31 74.5c18.667 32.667 43.5 64.167 74.5 94.5s65.167 57.166 102.5 80.499s77 42 119 56s83.667 21 125 21c34.667 0 67 -5 97 -15s56 -24.167 78 -42.5s39.167 -40.833 51.5 -67.5s18.5 -57 18.5 -91
c0 -43.333 -10.167 -88 -30.5 -134s-45.666 -91.167 -75.999 -135.5s-63.166 -86.333 -98.499 -126s-68.333 -74.834 -99 -105.501l-11 -11c28 2 58.333 6 91 12s63.334 14 92.001 24c11.333 4 23.833 7.83301 37.5 11.5s27.167 5.5 40.5 5.5c30 0 52.167 -6.5 66.5 -19.5
s21.5 -29.167 21.5 -48.5c0 -7.33301 -1 -14.333 -3 -21z" />
    <glyph glyph-name="threequarters" unicode="&#xbe;" horiz-adv-x="2186" 
d="M208 557c0 6.66699 1.99902 14.9971 5.99902 24.9971s9.83301 19.667 17.5 29s16.5 17.166 26.5 23.499s21 9.5 33 9.5c4 0 10 -0.833008 18 -2.5s14 -3.83398 18 -6.50098l14 -9c11.333 -7.33301 25 -15 41 -23s33.333 -12 52 -12c10 0 25.833 1.16699 47.5 3.5
s46.334 7 74.001 14s56.667 16.833 87 29.5s59.333 29.334 87 50.001s52.5 45.834 74.5 75.501s38 65.167 48 106.5c0.666992 3.33301 1.16699 6.33301 1.5 9s0.5 5.66699 0.5 9c0 12.667 -3.5 23.667 -10.5 33s-16 17 -27 23s-23.167 10.5 -36.5 13.5s-26.333 4.5 -39 4.5
c-14 0 -28.333 -2 -43 -6s-29 -8.16699 -43 -12.5l-41 -12.5c-13.333 -4 -25.666 -6 -36.999 -6c-20.667 0 -37.5 5.83301 -50.5 17.5s-19.5 26.167 -19.5 43.5c0 16.667 4.66699 30 14 40s21.333 19.667 36 29l65 39c28.667 17.333 58 36.833 88 58.5
s57.333 44.334 82 68.001s44.834 47.5 60.501 71.5s23.5 46.667 23.5 68c0 10 -4.33301 19 -13 27s-21.334 12 -38.001 12c-21.333 0 -48.166 -6.16699 -80.499 -18.5s-65.833 -28.666 -100.5 -48.999s-68 -43.166 -100 -68.499s-58.333 -51 -79 -77
c-2.66699 -10 -6.83398 -22.833 -12.501 -38.5s-12.667 -31 -21 -46s-17.5 -27.833 -27.5 -38.5s-20.667 -16 -32 -16c-13.333 0 -24.166 2.83301 -32.499 8.5s-15 13.167 -20 22.5s-8.5 20 -10.5 32s-3 24.333 -3 37c0 20.667 1.83301 39.5 5.5 56.5s7.66699 31.5 12 43.5
s8.5 21.667 12.5 29s6.66699 11.666 8 12.999c27.333 32 62.166 64 104.499 96s88 60.833 137 86.5s99.333 46.334 151 62.001s100.5 23.5 146.5 23.5c24.667 0 46.5 -4.16699 65.5 -12.5s34.833 -19.666 47.5 -33.999s22.334 -30.666 29.001 -48.999s10 -37.5 10 -57.5
c0 -23.333 -4.66699 -48 -14 -74s-22 -52 -38 -78s-34.667 -51.333 -56 -76s-44 -47 -68 -67c20.667 -5.33301 40.667 -12.666 60 -21.999s36.5 -21.333 51.5 -36s27 -31.834 36 -51.501s13.5 -42.5 13.5 -68.5c0 -16.667 -2.66699 -36.334 -8 -59.001
c-14 -56 -39.833 -109.667 -77.5 -161s-83.334 -96.833 -137.001 -136.5s-113.334 -71.334 -179.001 -95.001s-133.5 -35.5 -203.5 -35.5c-26 0 -51.333 2.16699 -76 6.5s-46.667 11 -66 20s-35 20.667 -47 35s-18 31.5 -18 51.5zM576.999 -193.003
c-17.333 0 -32.998 4.16602 -46.998 12.499s-21 22.166 -21 41.499c0 4.66699 0.833008 9.83398 2.5 15.501s5.16699 13.834 10.5 24.501c4 8 11.667 20.5 23 37.5l40 58l50.5 69.5l54.5 74l51 71l42 60l640 931c19.333 28 39.833 61.167 61.5 99.5
s42.167 76.833 61.5 115.5l19 36.5c6.66699 12.333 14.5 23.833 23.5 34.5s19.667 19.334 32 26.001s26.5 10 42.5 10c10 0 20.333 -1 31 -3s20.167 -5.33301 28.5 -10s15.166 -11.167 20.499 -19.5s8 -18.5 8 -30.5c0 -23.333 -8.16699 -49.5 -24.5 -78.5
s-34.5 -58.167 -54.5 -87.5l-988 -1447c-7.33301 -10 -15.333 -17.833 -24 -23.5s-17.834 -9.83398 -27.501 -12.501s-19.167 -4.16699 -28.5 -4.5s-18.333 -0.5 -27 -0.5zM1641 73.9961c6 24.667 11.6641 46.1729 16.9971 64.5059l15 50l13 43.5c4 14 8 29 12 45
c-24.667 -8.66699 -49.834 -15 -75.501 -19s-49.5 -6 -71.5 -6c-38 0 -69.833 4.5 -95.5 13.5s-46.334 21.333 -62.001 37s-26.667 33.5 -33 53.5s-9.5 41 -9.5 63c0 12 0.666992 24.167 2 36.5s3.66602 23.833 6.99902 34.5c11.333 41.333 24 79.166 38 113.499l41 99.5
c4.66699 12 9.5 23.167 14.5 33.5s9.83301 21 14.5 32s9.33398 22.667 14.001 35l15 41.5c1.33301 4 4.5 8.16699 9.5 12.5s11 8.16602 18 11.499s14.167 6.16602 21.5 8.49902s14 3.5 20 3.5h16c21.333 0 39 -5.66699 53 -17s21 -27 21 -47
c0 -12.667 -1.33301 -23.334 -4 -32.001c-5.33301 -20 -13.5 -41.5 -24.5 -64.5l-35.5 -71l-37 -74c-12 -25 -21 -49.5 -27 -73.5c-4.66699 -18.667 -7 -34 -7 -46c0 -17.333 4.16699 -29 12.5 -35s17.833 -9 28.5 -9c14.667 0 31.334 1.33301 50.001 4
s37.834 6.5 57.501 11.5s38.834 11.333 57.501 19s35 16.167 49 25.5l230 508c3.33301 7.33301 8.33301 13.5 15 18.5s13.834 9 21.501 12s15.167 5.16699 22.5 6.5s13.666 2 19 2c13.333 0 25.166 -3.16699 35.5 -9.5c10.333 -6.33301 19 -14.5 26 -24.5
s12.333 -20.833 16 -32.5s5.5 -22.834 5.5 -33.501c0 -5.33301 -2 -12.5 -6 -21.5s-9.16699 -19.333 -15.5 -31l-21 -37c-7.66699 -13 -14.834 -25.833 -21.501 -38.5l-7 -13c-6 -10.667 -14 -26.167 -24 -46.5l-32 -65l-33 -69l-26 -57.5l39 6
c5.33301 1.33301 11.333 2.16602 18 2.49902s17.667 0.5 33.001 0.5c16.667 0 28 -3 34 -9s9 -14.333 9 -25c0 -16.667 -3 -31.167 -9 -43.5s-14.5 -23 -25.5 -32s-24 -17 -39 -24s-31.5 -13.5 -49.5 -19.5l-12 -4c-27.333 -9.33301 -48.5 -18.833 -63.5 -28.5
s-23.5 -18.5 -25.5 -26.5c-9.33301 -20 -18.666 -42.333 -27.999 -67s-18.166 -50.5 -26.499 -77.5s-15.5 -54.5 -21.5 -82.5s-9.66699 -55 -11 -81l-3 -55c-7.33301 -30 -19.333 -51.667 -36 -65s-37.667 -20 -63 -20c-15.333 0 -27.833 2.33301 -37.5 7
s-17.334 10.834 -23.001 18.501s-9.66699 16.667 -12 27s-3.5 21.166 -3.5 32.499c0 16 1.66699 32 5 48l10 46z" />
    <glyph glyph-name="questiondown" unicode="&#xbf;" horiz-adv-x="1113" 
d="M756 464.5c10.667 -11.667 19.498 -26.1621 26.498 -43.4951s12.333 -36.5 16 -57.5s5.5 -40.5 5.5 -58.5c0 -30 -4.66699 -54.167 -14 -72.5s-27.666 -35.5 -54.999 -51.5c-5.33301 -2.66699 -15.333 -8.5 -30 -17.5l-51.5 -31.5l-64 -39l-66 -41l-58 -36.5l-40.5 -25.5
c-18 -12 -39.333 -27.167 -64 -45.5s-48.167 -38.5 -70.5 -60.5s-41.333 -45.5 -57 -70.5s-23.5 -49.833 -23.5 -74.5c0 -12.667 2.16699 -24.834 6.5 -36.501s10 -22.167 17 -31.5s14.833 -16.833 23.5 -22.5s17.667 -8.5 27 -8.5c46 0 92.5 4.83301 139.5 14.5
s93.667 23.167 140 40.5s92 37.833 137 61.5s88.833 49.5 131.5 77.5v-1c2.66699 2.66699 8.16699 7 16.5 13s17.5 11.667 27.5 17s20.167 10.166 30.5 14.499s19.5 6.5 27.5 6.5c7.33301 0 16.166 -1.5 26.499 -4.5s20.333 -7.5 30 -13.5s18 -13.667 25 -23
s10.5 -20.333 10.5 -33s-5.5 -26 -16.5 -40s-25.167 -28.167 -42.5 -42.5s-36.666 -28.333 -57.999 -42s-42.666 -26.334 -63.999 -38.001s-41.166 -22 -59.499 -31s-32.833 -15.5 -43.5 -19.5c-76.667 -31.333 -151.167 -56.833 -223.5 -76.5
s-146.166 -29.5 -221.499 -29.5c-31.333 0 -63 7.5 -95 22.5s-61 35 -87 60s-47.167 53.833 -63.5 86.5s-24.5 66.667 -24.5 102c0 38.667 11.833 76.667 35.5 114s53.167 72.666 88.5 105.999s73.166 64.666 113.499 93.999l111.5 78c7.33301 4.66699 14 9.16699 20 13.5
l18 12.5c20.667 14 42.667 28.167 66 42.5l65.5 41c20.333 13 38.166 25.667 53.499 38s25 23.5 29 33.5c3.33301 13.333 5.5 25.5 6.5 36.5s1.83301 21.167 2.5 30.5v16c0 8 0.5 15.833 1.5 23.5s4.16699 14.5 9.5 20.5s13.5 10.833 24.5 14.5s26.5 5.5 46.5 5.5
c14 0 26.333 -5.83301 37 -17.5zM634.998 779.005c0 22.667 4.83594 44.3311 14.5029 64.998s22.5 38.667 38.5 54s34.5 27.666 55.5 36.999s42.833 14 65.5 14c17.333 0 33.666 -3.16699 48.999 -9.5s28.666 -15.166 39.999 -26.499s20.166 -24.666 26.499 -39.999
s9.5 -31.666 9.5 -48.999c0 -22.667 -5.16699 -44.5 -15.5 -65.5s-23.833 -39.5 -40.5 -55.5s-35.667 -28.833 -57 -38.5s-43 -14.5 -65 -14.5c-17.333 0 -33.333 3.33301 -48 10s-27.5 15.667 -38.5 27s-19.5 25 -25.5 41s-9 33 -9 51z" />
    <glyph glyph-name="Agrave" unicode="&#xc0;" horiz-adv-x="1415" 
d="M1093 -11c-14 0 -26.333 2.66699 -37 8s-19.5 12.333 -26.5 21s-12.333 18.667 -16 30s-5.5 22.666 -5.5 33.999c0 10 2.66699 23.833 8 41.5s12.166 37.5 20.499 59.5s17.5 45 27.5 69l29 69c9.33301 22 17.333 42.333 24 61s11.334 33.334 14.001 44.001l10 43
l13.5 54.5l15 62l15.5 65.5c-9.33301 -2 -20.833 -3.83301 -34.5 -5.5s-28.167 -3.16699 -43.5 -4.5c-22 -2 -43.667 -5 -65 -9s-43.166 -8.5 -65.499 -13.5l-69.5 -16l-77 -17.5c-40 -8.66699 -80 -18.334 -120 -29.001s-81.667 -16 -125 -16
c-13.333 0 -25.666 3.5 -36.999 10.5s-24 12.167 -38 15.5c-13.333 -21.333 -26 -44.166 -38 -68.499s-23 -49.333 -33 -75s-19 -51 -27 -76s-15 -48.5 -21 -70.5c-3.33301 -12 -6.16602 -27.5 -8.49902 -46.5s-4.5 -38.333 -6.5 -58l-6 -56.5c-2 -18 -4 -32.333 -6 -43
c-2 -10 -6 -19.833 -12 -29.5s-13.333 -18.5 -22 -26.5s-18.334 -14.5 -29.001 -19.5s-21.334 -7.5 -32.001 -7.5c-18.667 0 -33.834 5.5 -45.501 16.5s-21 24.667 -28 41s-11.833 34.166 -14.5 53.499s-4 37 -4 53c0 40.667 5 82.834 15 126.501s23.5 88 40.5 133
s37 90.333 60 136s47.833 91.167 74.5 136.5c22 40.667 49.333 87.667 82 141s69.167 108.166 109.5 164.499s84 111.5 131 165.5s95.833 102.167 146.5 144.5s102.667 76.5 156 102.5s106.333 39 159 39c55.333 0 101.5 -10 138.5 -30s66.5 -47 88.5 -81
s37.5 -73.667 46.5 -119s13.5 -93.333 13.5 -144c0 -44.667 -2.83301 -90.667 -8.5 -138s-12.667 -93.666 -21 -138.999s-17.333 -89 -27 -131l-26.5 -114l-35 -136c-1.33301 -4 -3.83301 -12 -7.5 -24s-8.33398 -26.5 -14.001 -43.5l-19 -55l-21 -58l-20 -52.5
c-6.33301 -16 -11.833 -29 -16.5 -39l1 1c-4.66699 -17.333 -9.66699 -35 -15 -53s-12.666 -34.167 -21.999 -48.5s-21.333 -26 -36 -35s-33.667 -13.5 -57 -13.5zM1144 1241c-30 0 -59.832 -6.16504 -89.499 -18.498s-58.834 -28.5 -87.501 -48.5s-56.5 -43.333 -83.5 -70
s-52.667 -54 -77 -82s-47.166 -56.167 -68.499 -84.5l-58 -78.5l-10.5 -15.5c-4.33301 -6.33301 -8.66602 -13.333 -12.999 -21s-8.5 -15.667 -12.5 -24s-7.33301 -15.833 -10 -22.5h103c37.333 0 80 2.66699 128 8s95.5 11.666 142.5 18.999s90.167 14.833 129.5 22.5
l89 17.5c2.66699 8.66699 5.16699 20.334 7.5 35.001s4.5 31 6.5 49s3.5 37.167 4.5 57.5s1.5 41.166 1.5 62.499c0 17.333 -0.666992 37.166 -2 59.499s-5.33301 43.5 -12 63.5s-16.834 36.833 -30.501 50.5s-32.834 20.5 -57.501 20.5zM909.001 1890
c5.33301 20 15.501 36.333 30.501 49s30.833 19 47.5 19c16 0 27.333 -1.66699 34 -5s13 -7.66602 19 -12.999l78 -66l106 -88l40 -33c9.33301 -7.33301 18.333 -17.333 27 -30s13 -27.667 13 -45c0 -8.66699 -1.33301 -17.5 -4 -26.5s-6.83398 -17 -12.501 -24
s-12.834 -12.833 -21.501 -17.5s-19 -7 -31 -7c-12.667 0 -23.667 1.66699 -33 5s-18.666 8 -27.999 14l-220 147c-16 11.333 -28.5 23.166 -37.5 35.499s-13.5 27.833 -13.5 46.5c0 12 2 25 6 39z" />
    </font>
</defs>
</svg>
