<svg xmlns="http://www.w3.org/2000/svg" width="27" height="21" viewBox="0 0 27 21"><g><g><path fill="#4cb5d2" d="M.35 12.837c1.356 1.081 2.548 2.363 3.64 3.71C5.003 17.8 5.95 19.15 6.685 20.59c.084.164.856-.024.908-.033.705-.113 1.403-.28 2.093-.463s1.38-.384 2.048-.636c.15-.056.727-.214.803-.436.364-1.059.81-2.093 1.27-3.112 1.062-2.356 2.301-4.636 3.743-6.78.484-.72.996-1.422 1.533-2.103L19 7.132c1.038-1.31 2.176-2.538 3.448-3.619a17.955 17.955 0 0 1 1.947-1.44 15.631 15.631 0 0 1 .876-.518c.183-.095.369-.185.555-.273.15-.07.842-.356.206-.099.005-.002.845-.275.803-.436-.042-.161-.907.018-.911.019-1.388.223-2.836.57-4.142 1.1-1.572.636-3.044 1.437-4.392 2.478-1.197.925-2.276 2.002-3.267 3.147-1.838 2.125-3.375 4.506-4.7 6.984-.042.077-1.862-2.113-3.216-3.193-.19-.151-.737-.009-.912.02-.705.112-1.403.28-2.093.463s-1.38.384-2.048.636c.085-.032-.902.357-.803.436z"/></g></g></svg>