<svg xmlns="http://www.w3.org/2000/svg" width="136" height="239" viewBox="0 0 136 239"><g><g><path fill="#fff" d="M23.636 198.539l-1.619 1.19a102.105 102.105 0 0 1-3.411-5.003l1.686-1.092a99.599 99.599 0 0 0 3.344 4.905zM74.118 17.494l.86 1.807a149.617 149.617 0 0 0-10.145 5.4l-.997-1.735c1.236-.72 2.49-1.428 3.766-2.123a154.246 154.246 0 0 1 6.516-3.349zm-18.96 13.393a132.447 132.447 0 0 0-9.115 6.984l-1.278-1.536a134.384 134.384 0 0 1 9.256-7.092zM95.706 8.87l.602 1.91c-3.68 1.19-7.318 2.5-10.813 3.892l-.726-1.865A176.415 176.415 0 0 1 95.706 8.87zm22.474-5.802l.375 1.968c-3.789.751-7.56 1.608-11.207 2.547l-.484-1.945c3.682-.947 7.49-1.813 11.316-2.57zM37.583 45.642a122.462 122.462 0 0 0-7.703 8.519l-1.54-1.27a124.72 124.72 0 0 1 7.831-8.662zM23.021 63.375a119.176 119.176 0 0 0-5.943 9.833l-1.757-.948a121.487 121.487 0 0 1 6.043-10zM12.114 83.568a120.54 120.54 0 0 0-3.944 10.79l-1.91-.589c1.158-3.708 2.509-7.4 4.013-10.972zM5.27 105.471a123.078 123.078 0 0 0-1.843 11.334l-1.987-.217a124.92 124.92 0 0 1 1.873-11.52zm-2.625 22.785c-.083 3.812.012 7.67.28 11.467l-1.995.156a126.82 126.82 0 0 1-.285-11.653zm1.623 22.849c.625 3.772 1.434 7.54 2.404 11.199l-1.934.53a123.32 123.32 0 0 1-2.443-11.387zm5.873 22.102a111.738 111.738 0 0 0 4.54 10.489l-1.793.904c-1.7-3.43-3.256-7.023-4.621-10.676zM135.697.305l.224 1.993c-1.993.238-3.989.501-5.932.783l-.273-1.987c1.96-.284 3.972-.55 5.981-.79z"/></g><g><path fill="#f5989d" d="M14.99 219.165l15.017-5.91 12.945 16.836.178-.118-10.499-18.455 11.295-11.51 5.066 38.986z"/></g></g></svg>