<svg xmlns="http://www.w3.org/2000/svg" width="221" height="193" viewBox="0 0 221 193"><defs><mask id="unwmb" width="2" height="2" x="-1" y="-1"><path fill="#fff" d="M29.9 6.9h184.2v152.2H29.9z"/><path d="M155.671 25.38C123.736-1.617 75.89 2.294 48.802 34.115c-27.087 31.82-23.158 79.501 8.778 106.499 31.934 26.997 79.783 23.088 106.87-8.733 10.93-12.839 16.801-28.259 17.83-43.86l30.912-14.013-33.489-11.153c-3.91-14.13-11.97-27.278-24.032-37.475z"/></mask><filter id="unwma" width="245.9" height="218" x="-11.9" y="-13" filterUnits="userSpaceOnUse"><feOffset dx="-21.9" dy="26" in="SourceGraphic" result="FeOffset1102Out"/><feGaussianBlur in="FeOffset1102Out" result="FeGaussianBlur1103Out" stdDeviation="3.96 3.96"/></filter><clipPath id="unwmc"><path fill="#fff" d="M23 166V0h198v166zM155.671 25.38C123.736-1.617 75.89 2.294 48.802 34.115c-27.087 31.82-23.158 79.501 8.778 106.499 31.934 26.997 79.783 23.088 106.87-8.733 10.93-12.839 16.801-28.259 17.83-43.86l30.912-14.013-33.489-11.153c-3.91-14.13-11.97-27.278-24.032-37.475z"/></clipPath></defs><g><g><g filter="url(#unwma)"><path fill="none" stroke="#000" stroke-opacity=".16" stroke-width=".2" d="M155.671 25.38C123.736-1.617 75.89 2.294 48.802 34.115c-27.087 31.82-23.158 79.501 8.778 106.499 31.934 26.997 79.783 23.088 106.87-8.733 10.93-12.839 16.801-28.259 17.83-43.86l30.912-14.013v0l-33.489-11.153c-3.91-14.13-11.97-27.278-24.032-37.475z" mask="url(&quot;#unwmb&quot;)"/><path fill-opacity=".16" d="M155.671 25.38C123.736-1.617 75.89 2.294 48.802 34.115c-27.087 31.82-23.158 79.501 8.778 106.499 31.934 26.997 79.783 23.088 106.87-8.733 10.93-12.839 16.801-28.259 17.83-43.86l30.912-14.013-33.489-11.153c-3.91-14.13-11.97-27.278-24.032-37.475z"/></g><path fill="#fff" d="M155.671 25.38C123.736-1.617 75.89 2.294 48.802 34.115c-27.087 31.82-23.158 79.501 8.778 106.499 31.934 26.997 79.783 23.088 106.87-8.733 10.93-12.839 16.801-28.259 17.83-43.86l30.912-14.013-33.489-11.153c-3.91-14.13-11.97-27.278-24.032-37.475z"/><path fill="none" stroke="#f68e56" stroke-linecap="round" stroke-linejoin="round" stroke-miterlimit="50" stroke-width="14" d="M155.671 25.38C123.736-1.617 75.89 2.294 48.802 34.115c-27.087 31.82-23.158 79.501 8.778 106.499 31.934 26.997 79.783 23.088 106.87-8.733 10.93-12.839 16.801-28.259 17.83-43.86l30.912-14.013v0l-33.489-11.153c-3.91-14.13-11.97-27.278-24.032-37.475z" clip-path="url(&quot;#unwmc&quot;)"/></g></g></svg>