<svg xmlns="http://www.w3.org/2000/svg" width="308" height="240" viewBox="0 0 308 240"><defs><mask id="lo36b" width="2" height="2" x="-1" y="-1"><path fill="#fff" d="M28.9 6.9h272.2v201.2H28.9z"/><path d="M113.048 182.284c46.243 37.017 117.456 33.679 159.06-7.453 41.605-41.132 37.847-104.483-8.396-141.5C217.47-3.685 146.253-.35 104.649 40.781 87.862 57.377 78.473 77.589 76.267 98.229l-46.51 17.381 49.24 16.076c5.19 18.878 16.585 36.617 34.05 50.598z"/></mask><filter id="lo36a" width="336" height="265" x="-15" y="-13" filterUnits="userSpaceOnUse"><feOffset dx="-24" dy="24" in="SourceGraphic" result="FeOffset1194Out"/><feGaussianBlur in="FeOffset1194Out" result="FeGaussianBlur1195Out" stdDeviation="3.96 3.96"/></filter><clipPath id="lo36c"><path fill="#fff" d="M22 215V0h286v215zm91.048-32.716c46.243 37.017 117.456 33.679 159.06-7.453 41.605-41.132 37.847-104.483-8.396-141.5C217.47-3.685 146.253-.35 104.649 40.781 87.862 57.377 78.473 77.589 76.267 98.229l-46.51 17.381 49.24 16.076c5.19 18.878 16.585 36.617 34.05 50.598z"/></clipPath></defs><g><g><g filter="url(#lo36a)"><path fill="none" stroke="#000" stroke-opacity=".14" stroke-width=".2" d="M113.048 182.284c46.243 37.017 117.456 33.679 159.06-7.453 41.605-41.132 37.847-104.483-8.396-141.5C217.47-3.685 146.253-.35 104.649 40.781 87.862 57.377 78.473 77.589 76.267 98.229l-46.51 17.381v0l49.24 16.076c5.19 18.878 16.585 36.617 34.05 50.598z" mask="url(&quot;#lo36b&quot;)"/><path fill-opacity=".14" d="M113.048 182.284c46.243 37.017 117.456 33.679 159.06-7.453 41.605-41.132 37.847-104.483-8.396-141.5C217.47-3.685 146.253-.35 104.649 40.781 87.862 57.377 78.473 77.589 76.267 98.229l-46.51 17.381 49.24 16.076c5.19 18.878 16.585 36.617 34.05 50.598z"/></g><path fill="#fff" d="M113.048 182.284c46.243 37.017 117.456 33.679 159.06-7.453 41.605-41.132 37.847-104.483-8.396-141.5C217.47-3.685 146.253-.35 104.649 40.781 87.862 57.377 78.473 77.589 76.267 98.229l-46.51 17.381 49.24 16.076c5.19 18.878 16.585 36.617 34.05 50.598z"/><path fill="none" stroke="#00bff3" stroke-linecap="round" stroke-linejoin="round" stroke-miterlimit="50" stroke-width="14" d="M113.048 182.284c46.243 37.017 117.456 33.679 159.06-7.453 41.605-41.132 37.847-104.483-8.396-141.5C217.47-3.685 146.253-.35 104.649 40.781 87.862 57.377 78.473 77.589 76.267 98.229l-46.51 17.381v0l49.24 16.076c5.19 18.878 16.585 36.617 34.05 50.598z" clip-path="url(&quot;#lo36c&quot;)"/></g></g></svg>