<svg xmlns="http://www.w3.org/2000/svg" width="286" height="233" viewBox="0 0 286 233"><defs><mask id="fhnmb" width="2" height="2" x="-1" y="-1"><path fill="#fff" d="M28.9 6.9h250.2v201.2H28.9z"/><path d="M137.437 204.17c60.196 13.962 121.713-18.127 137.404-71.67 15.692-53.542-20.384-108.265-80.58-122.226C134.067-3.687 72.545 28.4 56.853 81.942c-6.33 21.604-4.224 43.393 4.483 62.625l-32.322 34.457 52.035-5.862c14.366 14.642 33.652 25.735 56.388 31.008z"/></mask><filter id="fhnma" width="312.9" height="258.9" x="-13.9" y="-13" filterUnits="userSpaceOnUse"><feOffset dx="-22.9" dy="17.9" in="SourceGraphic" result="FeOffset1171Out"/><feGaussianBlur in="FeOffset1171Out" result="FeGaussianBlur1172Out" stdDeviation="3.96 3.96"/></filter><clipPath id="fhnmc"><path fill="#fff" d="M22 213.367V1.633h264v211.734zm115.437-9.197c60.196 13.962 121.713-18.127 137.404-71.67 15.692-53.542-20.384-108.265-80.58-122.226C134.067-3.687 72.545 28.4 56.853 81.942c-6.33 21.604-4.224 43.393 4.483 62.625l-32.322 34.457 52.035-5.862c14.366 14.642 33.652 25.735 56.388 31.008z"/></clipPath></defs><g><g><g filter="url(#fhnma)"><path fill="none" stroke="#000" stroke-opacity=".14" stroke-width=".2" d="M137.437 204.17c60.196 13.962 121.713-18.127 137.404-71.67 15.692-53.542-20.384-108.265-80.58-122.226C134.067-3.687 72.545 28.4 56.853 81.942c-6.33 21.604-4.224 43.393 4.483 62.625l-32.322 34.457v0l52.035-5.862c14.366 14.642 33.652 25.735 56.388 31.008z" mask="url(&quot;#fhnmb&quot;)"/><path fill-opacity=".14" d="M137.437 204.17c60.196 13.962 121.713-18.127 137.404-71.67 15.692-53.542-20.384-108.265-80.58-122.226C134.067-3.687 72.545 28.4 56.853 81.942c-6.33 21.604-4.224 43.393 4.483 62.625l-32.322 34.457 52.035-5.862c14.366 14.642 33.652 25.735 56.388 31.008z"/></g><path fill="#fff" d="M137.437 204.17c60.196 13.962 121.713-18.127 137.404-71.67 15.692-53.542-20.384-108.265-80.58-122.226C134.067-3.687 72.545 28.4 56.853 81.942c-6.33 21.604-4.224 43.393 4.483 62.625l-32.322 34.457 52.035-5.862c14.366 14.642 33.652 25.735 56.388 31.008z"/><path fill="none" stroke="#7cc576" stroke-linecap="round" stroke-linejoin="round" stroke-miterlimit="50" stroke-width="14" d="M137.437 204.17c60.196 13.962 121.713-18.127 137.404-71.67 15.692-53.542-20.384-108.265-80.58-122.226C134.067-3.687 72.545 28.4 56.853 81.942c-6.33 21.604-4.224 43.393 4.483 62.625l-32.322 34.457v0l52.035-5.862c14.366 14.642 33.652 25.735 56.388 31.008z" clip-path="url(&quot;#fhnmc&quot;)"/></g></g></svg>