<svg xmlns="http://www.w3.org/2000/svg" width="228" height="204" viewBox="0 0 228 204"><defs><mask id="1ed9b" width="2" height="2" x="-1" y="-1"><path fill="#fff" d="M27.9 6.9h194.2v165.2H27.9z"/><path d="M149.87 17.262C110.225-4.682 60.3 9.666 38.36 49.307c-21.94 39.64-7.589 89.564 32.058 111.507 39.645 21.943 89.574 7.598 111.514-32.043 8.852-15.994 11.788-33.66 9.547-50.487l29.803-21.498-37.911-4.745c-7.166-14.21-18.525-26.491-33.5-34.78z"/></mask><filter id="1ed9a" width="254.1" height="229.9" x="-12.1" y="-13" filterUnits="userSpaceOnUse"><feOffset dx="-20.1" dy="24.9" in="SourceGraphic" result="FeOffset1079Out"/><feGaussianBlur in="FeOffset1079Out" result="FeGaussianBlur1080Out" stdDeviation="3.96 3.96"/></filter><clipPath id="1ed9c"><path fill="#fff" d="M21 179V0h208v179zM149.87 17.262C110.225-4.682 60.3 9.666 38.36 49.307c-21.94 39.64-7.589 89.564 32.058 111.507 39.645 21.943 89.574 7.598 111.514-32.043 8.852-15.994 11.788-33.66 9.547-50.487l29.803-21.498-37.911-4.745c-7.166-14.21-18.525-26.491-33.5-34.78z"/></clipPath></defs><g><g><g filter="url(#1ed9a)"><path fill="none" stroke="#000" stroke-opacity=".15" stroke-width=".2" d="M149.87 17.262C110.225-4.682 60.3 9.666 38.36 49.307c-21.94 39.64-7.589 89.564 32.058 111.507 39.645 21.943 89.574 7.598 111.514-32.043 8.852-15.994 11.788-33.66 9.547-50.487l29.803-21.498v0L183.37 52.04c-7.166-14.21-18.525-26.491-33.5-34.78z" mask="url(&quot;#1ed9b&quot;)"/><path fill-opacity=".15" d="M149.87 17.262C110.225-4.682 60.3 9.666 38.36 49.307c-21.94 39.64-7.589 89.564 32.058 111.507 39.645 21.943 89.574 7.598 111.514-32.043 8.852-15.994 11.788-33.66 9.547-50.487l29.803-21.498-37.911-4.745c-7.166-14.21-18.525-26.491-33.5-34.78z"/></g><path fill="#fff" d="M149.87 17.262C110.225-4.682 60.3 9.666 38.36 49.307c-21.94 39.64-7.589 89.564 32.058 111.507 39.645 21.943 89.574 7.598 111.514-32.043 8.852-15.994 11.788-33.66 9.547-50.487l29.803-21.498-37.911-4.745c-7.166-14.21-18.525-26.491-33.5-34.78z"/><path fill="none" stroke="#7159f3" stroke-linecap="round" stroke-linejoin="round" stroke-miterlimit="50" stroke-width="14" d="M149.87 17.262C110.225-4.682 60.3 9.666 38.36 49.307c-21.94 39.64-7.589 89.564 32.058 111.507 39.645 21.943 89.574 7.598 111.514-32.043 8.852-15.994 11.788-33.66 9.547-50.487l29.803-21.498v0L183.37 52.04c-7.166-14.21-18.525-26.491-33.5-34.78z" clip-path="url(&quot;#1ed9c&quot;)"/></g></g></svg>