<svg xmlns="http://www.w3.org/2000/svg" width="237" height="253" viewBox="0 0 237 253"><defs><mask id="8gdqb" width="2" height="2" x="-1" y="-1"><path fill="#fff" d="M27.9 6.9h202.2v213.2H27.9z"/><path d="M205.706 161.342C242 122.119 237.082 63.087 194.723 29.489 152.365-4.109 88.605.449 52.31 39.673 16.016 78.895 20.931 137.93 63.29 171.528c17.09 13.556 37.665 20.89 58.512 22.252l18.531 26.218 15.125-29.243c18.912-4.738 36.54-14.599 50.248-29.413z"/></mask><filter id="8gdqa" width="261.9" height="279.4" x="-11.9" y="-13" filterUnits="userSpaceOnUse"><feOffset dx="-19.9" dy="26.4" in="SourceGraphic" result="FeOffset1148Out"/><feGaussianBlur in="FeOffset1148Out" result="FeGaussianBlur1149Out" stdDeviation="3.96 3.96"/></filter><clipPath id="8gdqc"><path fill="#fff" d="M21 227V0h216v227zm184.706-65.658C242 122.119 237.082 63.087 194.723 29.489 152.365-4.109 88.605.449 52.31 39.673 16.016 78.895 20.931 137.93 63.29 171.528c17.09 13.556 37.665 20.89 58.512 22.252l18.531 26.218 15.125-29.243c18.912-4.738 36.54-14.599 50.248-29.413z"/></clipPath></defs><g><g><g filter="url(#8gdqa)"><path fill="none" stroke="#000" stroke-opacity=".16" stroke-width=".2" d="M205.706 161.342C242 122.119 237.082 63.087 194.723 29.489 152.365-4.109 88.605.449 52.31 39.673 16.016 78.895 20.931 137.93 63.29 171.528c17.09 13.556 37.665 20.89 58.512 22.252l18.531 26.218v0l15.125-29.243c18.912-4.738 36.54-14.599 50.248-29.413z" mask="url(&quot;#8gdqb&quot;)"/><path fill-opacity=".16" d="M205.706 161.342C242 122.119 237.082 63.087 194.723 29.489 152.365-4.109 88.605.449 52.31 39.673 16.016 78.895 20.931 137.93 63.29 171.528c17.09 13.556 37.665 20.89 58.512 22.252l18.531 26.218 15.125-29.243c18.912-4.738 36.54-14.599 50.248-29.413z"/></g><path fill="#fff" d="M205.706 161.342C242 122.119 237.082 63.087 194.723 29.489 152.365-4.109 88.605.449 52.31 39.673 16.016 78.895 20.931 137.93 63.29 171.528c17.09 13.556 37.665 20.89 58.512 22.252l18.531 26.218 15.125-29.243c18.912-4.738 36.54-14.599 50.248-29.413z"/><path fill="none" stroke="#de6372" stroke-linecap="round" stroke-linejoin="round" stroke-miterlimit="50" stroke-width="14" d="M205.706 161.342C242 122.119 237.082 63.087 194.723 29.489 152.365-4.109 88.605.449 52.31 39.673 16.016 78.895 20.931 137.93 63.29 171.528c17.09 13.556 37.665 20.89 58.512 22.252l18.531 26.218v0l15.125-29.243c18.912-4.738 36.54-14.599 50.248-29.413z" clip-path="url(&quot;#8gdqc&quot;)"/></g></g></svg>