<svg xmlns="http://www.w3.org/2000/svg" width="508" height="217" viewBox="0 0 508 217"><g><g opacity=".3"><path fill="#f2a8a7" d="M347.9 106.715c-1.39 5.266-8.126 16.441-13.497 17.021-62.984 6.81-275.555 4.54-316.045 0-5.198-.583-15.526-7.382-16.87-12.482-3.558-13.502 9.168-47.272 22.494-51.065 21.932-6.24 30.926 9.308 40.49 5.674 7.649-2.907 13.307-23.61 21.37-24.965 23.618-3.972 26.768 16.283 37.677 15.32 13.737-1.214 16.871-26.667 43.302-28.937 10.987-.944 30.616 15.564 41.614 14.752C231.492 40.33 229.252 1.964 269.17.047c35.428-1.703 59.472 36.09 70.856 55.603 6.496 11.134 11.168 38.58 7.873 51.065z"/></g><g opacity=".39"><path fill="#f2a8a7" d="M306.784 214.863c-8.2 0-8.477-14.696-7.175-18.456 2.934-8.477 19.805-20.383 28.7-21.532 7.41-.955 20.213 11.621 27.677 11.28 7.785-.358 13.855-13.491 27.675-14.356 16.4-1.025 27.572 8.312 36.901 7.178 11.496-1.398 22.038-20.494 41.514-19.994 19.988.513 31.364 16.257 37.926 25.633 3.636 5.195 9.354 19.136 6.15 24.608-1.476 2.522-7.843 7.067-10.762 7.177-54.327 2.05-156.567-1.538-188.606-1.538z"/></g></g></svg>