<svg xmlns="http://www.w3.org/2000/svg" width="691" height="476" viewBox="0 0 691 476"><defs><filter id="z92fa" width="200%" height="200%" x="-50%" y="-50%"><feGaussianBlur in="SourceGraphic" result="FeGaussianBlur1023Out" stdDeviation="4.5 4.5"/></filter><mask id="z92fb"><path fill="#fff" d="M48 43h596v383H48z"/></mask><clipPath id="z92fc"><path fill="#fff" d="M45 429V40h602v389zm3-3h596V43H48z"/></clipPath><mask id="z92fe" width="2" height="2" x="-1" y="-1"><path fill="#fff" d="M232.9 121.9h230.2v230.2H232.9z"/><path d="M462.995 236.992c0-63.518-51.492-115.007-115.01-115.007-63.516 0-115.008 51.489-115.008 115.007 0 63.516 51.492 115.01 115.008 115.01 25.628 0 49.29-8.39 68.408-22.562l46.602 21.958-19.917-49.715c12.563-18.434 19.917-40.701 19.917-64.691z"/></mask><filter id="z92fd" width="286" height="300" x="197" y="102" filterUnits="userSpaceOnUse"><feOffset dx="-16" dy="30" in="SourceGraphic" result="FeOffset1041Out"/><feGaussianBlur in="FeOffset1041Out" result="FeGaussianBlur1042Out" stdDeviation="3.96 3.96"/></filter><clipPath id="z92ff"><path fill="#fff" d="M226 359V115h244v244zm236.995-122.008c0-63.518-51.492-115.007-115.01-115.007-63.516 0-115.008 51.489-115.008 115.007 0 63.516 51.492 115.01 115.008 115.01 25.628 0 49.29-8.39 68.408-22.562l46.602 21.958-19.917-49.715c12.563-18.434 19.917-40.701 19.917-64.691z"/></clipPath></defs><g><g><path fill="#fff" d="M39 0h613c21.54 0 39 17.46 39 39v398c0 21.54-17.46 39-39 39H39c-21.54 0-39-17.46-39-39V39C0 17.46 17.46 0 39 0z"/></g><g><path fill="#fbe7e6" d="M48 43h596v383H48z"/><path fill-opacity=".14" d="M36.5 436.7V32.3h619v404.4zm14-9h596v-383h-596z" filter="url(#z92fa)" mask="url(&quot;#z92fb&quot;)"/><path fill="none" stroke="#898989" stroke-linecap="round" stroke-linejoin="round" stroke-miterlimit="50" stroke-opacity=".21" stroke-width="6" d="M48 43v0h596v383H48v0z" clip-path="url(&quot;#z92fc&quot;)"/></g><g><g filter="url(#z92fd)"><path fill="none" stroke="#000" stroke-opacity=".14" stroke-width=".2" d="M462.995 236.992c0-63.518-51.492-115.007-115.01-115.007-63.516 0-115.008 51.489-115.008 115.007 0 63.516 51.492 115.01 115.008 115.01 25.628 0 49.29-8.39 68.408-22.562l46.602 21.958v0l-19.917-49.715c12.563-18.434 19.917-40.701 19.917-64.691z" mask="url(&quot;#z92fe&quot;)"/><path fill-opacity=".14" d="M462.995 236.992c0-63.518-51.492-115.007-115.01-115.007-63.516 0-115.008 51.489-115.008 115.007 0 63.516 51.492 115.01 115.008 115.01 25.628 0 49.29-8.39 68.408-22.562l46.602 21.958-19.917-49.715c12.563-18.434 19.917-40.701 19.917-64.691z"/></g><path fill="#4cb5d2" d="M462.995 236.992c0-63.518-51.492-115.007-115.01-115.007-63.516 0-115.008 51.489-115.008 115.007 0 63.516 51.492 115.01 115.008 115.01 25.628 0 49.29-8.39 68.408-22.562l46.602 21.958-19.917-49.715c12.563-18.434 19.917-40.701 19.917-64.691z"/><path fill="none" stroke="#fff" stroke-linecap="round" stroke-linejoin="round" stroke-miterlimit="50" stroke-width="14" d="M462.995 236.992c0-63.518-51.492-115.007-115.01-115.007-63.516 0-115.008 51.489-115.008 115.007 0 63.516 51.492 115.01 115.008 115.01 25.628 0 49.29-8.39 68.408-22.562l46.602 21.958v0l-19.917-49.715c12.563-18.434 19.917-40.701 19.917-64.691z" clip-path="url(&quot;#z92ff&quot;)"/></g><g><path fill="#fff" d="M375.004 237.001v10c0 8.283-6.718 14.998-15.004 14.998h-25.006c-8.286 0-15.004-6.715-15.004-14.998v-10c0-6.567 4.25-12.087 10.125-14.118-3.2-4.318-5.123-9.85-5.123-15.88 0-13.805 10.075-24.998 22.505-24.998s22.505 11.193 22.505 24.998c0 6.03-1.924 11.562-5.123 15.88 5.875 2.031 10.125 7.551 10.125 14.118zm-27.507-10c9.668 0 17.504-8.954 17.504-19.998s-7.836-19.999-17.504-19.999c-9.668 0-17.504 8.955-17.504 20 0 11.043 7.836 19.998 17.504 19.998zm22.505 11.25c0-5.314-4.034-9.74-9.44-10.917-3.688 2.927-8.188 4.668-13.065 4.668-4.877 0-9.377-1.741-13.065-4.668-5.406 1.177-9.44 5.603-9.44 10.917v7.5c0 6.212 5.496 11.25 12.275 11.25h20.46c6.778 0 12.275-5.038 12.275-11.25z"/></g><g><path fill="#4cb5d2" d="M272 248h159v36H272z"/></g><g><g><text dominant-baseline="text-before-edge" style="line-height:30px" fill="#fff" font-family="'OpenSans-Extrabold','OpenSans-Extrabold'" font-size="21" font-style="none" font-weight="400" transform="translate(267 262)"><tspan style="font-kerning:normal">Your Profile</tspan></text></g></g></g></svg>