<svg xmlns="http://www.w3.org/2000/svg" width="691" height="476" viewBox="0 0 691 476">
    <defs>
        <filter id="z92fa" width="200%" height="200%" x="-50%" y="-50%">
            <feGaussianBlur in="SourceGraphic" result="FeGaussianBlur1023Out" stdDeviation="4.5 4.5" />
        </filter>
        <mask id="z92fb">
            <path fill="#fff" d="M48 43h596v383H48z" />
        </mask>
        <clipPath id="z92fc">
            <path fill="#fff" d="M45 429V40h602v389zm3-3h596V43H48z" />
        </clipPath>
        <mask id="z92fe" width="2" height="2" x="-1" y="-1">
            <path fill="#fff" d="M232.9 121.9h230.2v230.2H232.9z" />
            <path
                d="M462.995 236.992c0-63.518-51.492-115.007-115.01-115.007-63.516 0-115.008 51.489-115.008 115.007 0 63.516 51.492 115.01 115.008 115.01 25.628 0 49.29-8.39 68.408-22.562l46.602 21.958-19.917-49.715c12.563-18.434 19.917-40.701 19.917-64.691z" />
        </mask>
        <filter id="z92fd" width="286" height="300" x="197" y="102" filterUnits="userSpaceOnUse">
            <feOffset dx="-16" dy="30" in="SourceGraphic" result="FeOffset1041Out" />
            <feGaussianBlur in="FeOffset1041Out" result="FeGaussianBlur1042Out" stdDeviation="3.96 3.96" />
        </filter>
        <clipPath id="z92ff">
            <path fill="#fff"
                d="M226 359V115h244v244zm236.995-122.008c0-63.518-51.492-115.007-115.01-115.007-63.516 0-115.008 51.489-115.008 115.007 0 63.516 51.492 115.01 115.008 115.01 25.628 0 49.29-8.39 68.408-22.562l46.602 21.958-19.917-49.715c12.563-18.434 19.917-40.701 19.917-64.691z" />
        </clipPath>
    </defs>
    <g>
        <g>
            <path fill="#fff"
                d="M39 0h613c21.54 0 39 17.46 39 39v398c0 21.54-17.46 39-39 39H39c-21.54 0-39-17.46-39-39V39C0 17.46 17.46 0 39 0z" />
        </g>
        <g>
            <path fill="#fbe7e6" d="M48 43h596v383H48z" />
            <path fill-opacity=".14" d="M36.5 436.7V32.3h619v404.4zm14-9h596v-383h-596z" filter="url(#z92fa)"
                mask="url(&quot;#z92fb&quot;)" />
            <path fill="none" stroke="#898989" stroke-linecap="round" stroke-linejoin="round" stroke-miterlimit="50"
                stroke-opacity=".21" stroke-width="6" d="M48 43v0h596v383H48v0z" clip-path="url(&quot;#z92fc&quot;)" />
        </g>
    </g>
</svg>