<svg xmlns="http://www.w3.org/2000/svg" width="93" height="75" viewBox="0 0 93 75"><defs><clipPath id="8fsga"><path fill="#fff" d="M.336 37.318C.336 57.853 17.084 74.5 37.744 74.5c15.168 0 28.2-8.991 34.07-21.89h.17c3.755-8.303 11.54-14.298 20.793-15.292-9.253-.995-17.038-6.99-20.792-15.293h-.172C65.943 9.127 52.913.137 37.743.137 17.084.137.337 16.783.337 37.317z"/></clipPath></defs><g><g><path fill="#fff" d="M.336 37.318C.336 57.853 17.084 74.5 37.744 74.5c15.168 0 28.2-8.991 34.07-21.89h.17c3.755-8.303 11.54-14.298 20.793-15.292-9.253-.995-17.038-6.99-20.792-15.293h-.172C65.943 9.127 52.913.137 37.743.137 17.084.137.337 16.783.337 37.317z"/><path fill="none" stroke="#1e0547" stroke-linecap="round" stroke-linejoin="round" stroke-miterlimit="50" stroke-width="4" d="M.336 37.318C.336 57.853 17.084 74.5 37.744 74.5c15.168 0 28.2-8.991 34.07-21.89h.17c3.755-8.303 11.54-14.298 20.793-15.292-9.253-.995-17.038-6.99-20.792-15.293h-.172C65.943 9.127 52.913.137 37.743.137 17.084.137.337 16.783.337 37.317z" clip-path="url(&quot;#8fsga&quot;)"/></g></g></svg>