<svg xmlns="http://www.w3.org/2000/svg" width="103" height="91" viewBox="0 0 103 91"><g><g><path fill="#61cbe8" d="M103.002-.01v7.403c-10.833 3.813-19.216 9.734-25.166 17.743-5.936 8.028-8.91 16.52-8.91 25.49 0 2.132.473 3.927 1.419 5.385.737 1.01 1.472 1.515 2.21 1.515 1.156 0 3.681-1.122 7.572-3.365 1.892-1.01 3.891-1.515 5.994-1.515 5.154 0 9.256 1.626 12.305 4.88 3.051 3.251 4.576 7.737 4.576 13.458 0 5.494-1.968 10.205-5.92 14.13-3.936 3.926-8.752 5.889-14.432 5.889-6.94 0-13.116-3.23-18.531-9.678-5.418-6.448-8.13-14.996-8.13-25.65 0-11.552 3.765-22.286 11.284-32.22C74.793 13.537 86.7 5.71 103.002-.01z"/></g><g opacity=".62"><path fill="#61cbe8" d="M47.002-.01v7.403c-10.833 3.813-19.216 9.734-25.166 17.743-5.935 8.028-8.91 16.52-8.91 25.49 0 2.132.473 3.927 1.419 5.385.737 1.01 1.472 1.515 2.21 1.515 1.156 0 3.681-1.122 7.572-3.365 1.892-1.01 3.89-1.515 5.994-1.515 5.154 0 9.256 1.626 12.305 4.88 3.051 3.251 4.576 7.737 4.576 13.458 0 5.494-1.968 10.205-5.92 14.13-3.936 3.926-8.752 5.889-14.432 5.889-6.94 0-13.116-3.23-18.531-9.678-5.418-6.448-8.13-14.996-8.13-25.65 0-11.552 3.765-22.286 11.284-32.22C18.793 13.537 30.7 5.71 47.002-.01z"/></g></g></svg>