<svg xmlns="http://www.w3.org/2000/svg" width="27" height="20" viewBox="0 0 27 20"><g><g><path fill="#4069c5" d="M.006 12.168c1.383 1.083 2.598 2.366 3.71 3.715 1.033 1.254 1.997 2.606 2.747 4.046.086.165.873-.024.926-.032.718-.113 1.43-.28 2.133-.464a22.195 22.195 0 0 0 2.087-.637c.152-.056.74-.214.819-.436.37-1.06.826-2.096 1.294-3.116 1.083-2.358 2.346-4.642 3.815-6.787A34.575 34.575 0 0 1 19.1 6.35l-.086.107c1.058-1.311 2.218-2.54 3.514-3.623a18.187 18.187 0 0 1 1.985-1.442 16.172 16.172 0 0 1 .777-.457L25.45.85A15.578 15.578 0 0 1 25.972.6c.153-.071.857-.357.21-.1.005-.002.86-.275.818-.436-.043-.161-.925.018-.93.019-1.413.223-2.89.57-4.22 1.1-1.603.638-3.103 1.44-4.476 2.482-1.221.926-2.32 2.004-3.33 3.15-1.874 2.128-3.44 4.512-4.792 6.993-.042.077-1.896-2.116-3.277-3.197-.194-.152-.751-.009-.93.02-.718.112-1.43.28-2.133.463a22.22 22.22 0 0 0-2.087.637c.086-.032-.92.357-.819.436z"/></g></g></svg>