<svg xmlns="http://www.w3.org/2000/svg" width="35" height="35" viewBox="0 0 35 35"><g><g><path fill="#1e0547" d="M5 0h25a5 5 0 0 1 5 5v25a5 5 0 0 1-5 5H5a5 5 0 0 1-5-5V5a5 5 0 0 1 5-5z"/></g><g><path fill="#fff" d="M10.23 16.71l4.924 4.862 1.18 1.197s.026 0 .026.025c.026 0 .026 0 .026.027h.026v.025h.027l.025.026h.027v.026h.025s.027 0 .027.027h.027s.025 0 .025.025h.053s0 .026.026.026h.078v.026H17.067l.025-.026h.079l.027-.026h.052l.026-.025h.026c0-.027 0-.027.027-.027.026 0 .026 0 .026-.026h.026c0-.026.027-.026.027-.026h.025v-.025h.027v-.027h.026v-.025l1.205-1.197 8.07-8.006a.811.811 0 0 0 0-1.144l-1.18-1.17c-.314-.338-.837-.338-1.178 0l-7.493 7.435-4.323-4.316a.827.827 0 0 0-1.153 0l-1.205 1.197a.81.81 0 0 0 0 1.143z"/></g></g></svg>