<?xml version="1.0" standalone="no"?>
<!DOCTYPE svg PUBLIC "-//W3C//DTD SVG 20010904//EN"
 "http://www.w3.org/TR/2001/REC-SVG-20010904/DTD/svg10.dtd">
<svg version="1.0" xmlns="http://www.w3.org/2000/svg"
 width="107.000000pt" height="63.000000pt" viewBox="0 0 107.000000 63.000000"
 preserveAspectRatio="xMidYMid meet">
<metadata>
Created by potrace 1.15, written by Peter Selinger 2001-2017
</metadata>
<g transform="translate(0.000000,63.000000) scale(0.100000,-0.100000)"
fill="#000000" stroke="none">
<path d="M0 613 c0 -17 12 -21 93 -32 300 -40 568 -219 721 -483 29 -50 33
-53 53 -40 20 13 -79 165 -169 258 -170 177 -387 283 -630 309 -63 7 -68 6
-68 -12z"/>
<path d="M756 412 c-4 -13 15 -40 68 -94 79 -83 105 -120 163 -240 31 -64 42
-78 61 -78 25 0 25 8 -3 75 -42 104 -236 355 -273 355 -6 0 -13 -8 -16 -18z"/>
</g>
</svg>
