<svg xmlns="http://www.w3.org/2000/svg" width="103" height="91" viewBox="0 0 103 91"><g><g><path fill="#bd8cbf" d="M-.002 91.009v-7.403c10.833-3.813 19.216-9.734 25.166-17.743 5.935-8.028 8.91-16.52 8.91-25.49 0-2.132-.473-3.927-1.42-5.385-.736-1.01-1.471-1.514-2.208-1.514-1.157 0-3.682 1.122-7.573 3.365-1.892 1.009-3.891 1.514-5.994 1.514-5.154 0-9.256-1.626-12.305-4.88-3.051-3.251-4.576-7.736-4.576-13.457 0-5.495 1.968-10.205 5.92-14.131C9.854 1.959 14.67-.003 20.35-.003c6.94 0 13.116 3.229 18.531 9.678 5.417 6.447 8.13 14.995 8.13 25.65 0 11.55-3.765 22.286-11.284 32.22C28.207 77.462 16.3 85.289-.002 91.009z"/></g><g opacity=".72"><path fill="#bd8cbf" d="M55.998 91.009v-7.403c10.833-3.813 19.216-9.734 25.166-17.743 5.935-8.028 8.91-16.52 8.91-25.49 0-2.132-.473-3.927-1.42-5.385-.736-1.01-1.472-1.514-2.208-1.514-1.157 0-3.682 1.122-7.573 3.365-1.893 1.009-3.891 1.514-5.994 1.514-5.154 0-9.256-1.626-12.305-4.88-3.051-3.251-4.576-7.736-4.576-13.457 0-5.495 1.968-10.205 5.92-14.131C65.854 1.959 70.67-.003 76.35-.003c6.94 0 13.116 3.229 18.531 9.678 5.418 6.447 8.13 14.995 8.13 25.65 0 11.55-3.765 22.286-11.284 32.22-7.52 9.917-19.427 17.744-35.729 23.464z"/></g></g></svg>