<svg xmlns="http://www.w3.org/2000/svg" width="70" height="85" viewBox="0 0 92 107" style="filter: drop-shadow(3px 3px 4px rgba(0,0,0,0.3)); ">
    <defs>
        <clipPath id="a1w4a">
            <path fill="#fff"
                d="M37.557.086C17.022.086.375 16.834.375 37.494c0 15.168 8.991 28.2 21.89 34.07v.17c8.304 3.755 14.298 11.54 15.292 20.793.995-9.253 6.99-17.038 15.293-20.792v-.172c12.899-5.87 21.889-18.9 21.889-34.07 0-20.66-16.647-37.407-37.182-37.407z" />
        </clipPath>
    </defs>
    <g>
        <g>
            <path fill="#fff"
                d="M37.557.086C17.022.086.375 16.834.375 37.494c0 15.168 8.991 28.2 21.89 34.07v.17c8.304 3.755 14.298 11.54 15.292 20.793.995-9.253 6.99-17.038 15.293-20.792v-.172c12.899-5.87 21.889-18.9 21.889-34.07 0-20.66-16.647-37.407-37.182-37.407z" />
            <path fill="none" stroke="#1e0547" stroke-linecap="round" stroke-linejoin="round" stroke-miterlimit="20"
                stroke-width="4"
                d="M37.557.086C17.022.086.375 16.834.375 37.494c0 15.168 8.991 28.2 21.89 34.07v.17c8.304 3.755 14.298 11.54 15.292 20.793.995-9.253 6.99-17.038 15.293-20.792v-.172c12.899-5.87 21.889-18.9 21.889-34.07 0-20.66-16.647-37.407-37.182-37.407z"
                clip-path="url(&quot;#a1w4a&quot;)"  />
        </g>
    </g>
</svg>